<?xml version="1.0" encoding="utf-8"?>
<!-- Generator: Adobe Illustrator 20.1.0, SVG Export Plug-In . SVG Version: 6.00 Build 0)  -->
<!DOCTYPE svg PUBLIC "-//W3C//DTD SVG 1.1//EN" "http://www.w3.org/Graphics/SVG/1.1/DTD/svg11.dtd">
<svg version="1.1" id="Ebene_1" xmlns="http://www.w3.org/2000/svg" xmlns:xlink="http://www.w3.org/1999/xlink" x="0px" y="0px"
	 width="283.5px" height="283.5px" viewBox="0 0 283.5 283.5" style="enable-background:new 0 0 283.5 283.5;" xml:space="preserve"
	>
<path style="fill:#FFFFFF;" d="M141.7,10.3c-72.5,0-131.4,58.9-131.4,131.4c0,72.5,58.9,131.4,131.4,131.4
	c72.5,0,131.4-58.9,131.4-131.4C273.1,69.3,214.2,10.3,141.7,10.3z"/>
<path style="fill:#2DAC81;" d="M141.7,283.5C63.6,283.5,0,219.9,0,141.7C0,63.6,63.6,0,141.7,0s141.7,63.6,141.7,141.7
	C283.5,219.9,219.9,283.5,141.7,283.5z M141.7,10.3c-72.5,0-131.4,58.9-131.4,131.4c0,72.5,58.9,131.4,131.4,131.4
	c72.5,0,131.4-58.9,131.4-131.4C273.1,69.3,214.2,10.3,141.7,10.3z"/>
<path style="fill:#2DAC81;" d="M141,254.1c-61.9,0-112.3-50.4-112.3-112.3S79,29.4,141,29.4c61.9,0,112.3,50.4,112.3,112.3
	S202.9,254.1,141,254.1z M141,50.5c-50.3,0-91.2,40.9-91.2,91.2S90.7,233,141,233c50.3,0,91.2-40.9,91.2-91.2S191.3,50.5,141,50.5z"
	/>
<path style="fill:#2DAC81;" d="M141,209c-37.1,0-67.3-30.2-67.3-67.3c0-37.1,30.2-67.3,67.3-67.3s67.3,30.2,67.3,67.3
	C208.2,178.8,178,209,141,209z M141,95.6c-25.5,0-46.2,20.7-46.2,46.2s20.7,46.2,46.2,46.2c25.5,0,46.2-20.7,46.2-46.2
	S166.4,95.6,141,95.6z"/>
<path style="fill:#E74914;" d="M141,117.1c-13.6,0-24.7,11.1-24.7,24.7s11.1,24.7,24.7,24.7c13.6,0,24.7-11.1,24.7-24.7
	S154.6,117.1,141,117.1z"/>
<rect y="0" style="fill:none;" width="283.5" height="283.5"/>
</svg>
