<?xml version="1.0" encoding="utf-8"?>
<!-- Generator: Adobe Illustrator 20.1.0, SVG Export Plug-In . SVG Version: 6.00 Build 0)  -->
<!DOCTYPE svg PUBLIC "-//W3C//DTD SVG 1.1//EN" "http://www.w3.org/Graphics/SVG/1.1/DTD/svg11.dtd">
<svg version="1.1" id="Ebene_1" xmlns="http://www.w3.org/2000/svg" xmlns:xlink="http://www.w3.org/1999/xlink" x="0px" y="0px"
	 width="283.5px" height="283.5px" viewBox="0 0 283.5 283.5" style="enable-background:new 0 0 283.5 283.5;" xml:space="preserve"
	>
<path style="fill:#FFFFFF;" d="M141.5,7.5C67.5,7.5,7.3,67.7,7.3,141.7c0,74,60.2,134.2,134.2,134.2s134.2-60.2,134.2-134.2
	C275.7,67.7,215.5,7.5,141.5,7.5z"/>
<path style="fill:#2DAC81;" d="M141.5,283.3C63.5,283.3,0,219.8,0,141.7C0,63.7,63.5,0.2,141.5,0.2c78,0,141.5,63.5,141.5,141.5
	C283.1,219.8,219.6,283.3,141.5,283.3z M141.5,10.5c-72.3,0-131.2,58.9-131.2,131.2c0,72.3,58.9,131.2,131.2,131.2
	s131.2-58.9,131.2-131.2C272.7,69.4,213.9,10.5,141.5,10.5z"/>
<path style="fill:#E74914;" d="M227.5,170.2l-17.8-31c-1.4-2.5-4.7-3.4-7.2-1.9c-2.5,1.5-3.4,4.7-1.9,7.2l17.8,31
	c2.5,4.3,5,10.3,2.9,14c-2.5,4.4-11.3,5.5-14.2,5.5h-20.4v-7.6l-35.5,12.9l35.5,12.9v-7.6h20.4c1.7,0,17.3-0.3,23.3-10.7
	C234.2,188.2,233.2,180,227.5,170.2z"/>
<path style="fill:#2DAC81;" d="M184.3,105.5l-6.5-37.2l-6.6,3.8l-8.9-15.5c-0.8-1.5-8.6-14.3-20.2-14.3c-7.2,0-13.6,4.8-19.1,14.3
	l-17,29.4c-1.4,2.5-0.6,5.7,1.9,7.2c0.8,0.5,1.7,0.7,2.6,0.7c1.8,0,3.6-0.9,4.6-2.6l17-29.4c2.4-4.1,6-9,10-9c0,0,0,0,0,0
	c4.8,0,9.7,6.7,11.1,9l8.9,15.5l-6.6,3.8L184.3,105.5z"/>
<path style="fill:#2DAC81;" d="M112.7,194.9H77.9c-5.1,0-11.6-0.8-13.7-4.5c-2.5-4.3,0.8-12.2,2.2-14.6l8.1-14.1l6.6,3.8l6.5-37.2
	l-28.9,24.3l6.6,3.8l-8.1,14.1c-0.9,1.5-8.2,14.8-2.2,25.1c3.7,6.5,11.4,9.7,22.8,9.7h34.7c2.9,0,5.3-2.4,5.3-5.3
	S115.6,194.9,112.7,194.9z"/>
<rect x="0" y="0.2" style="fill:none;" width="283.1" height="283.1"/>
</svg>
