<?xml version="1.0" encoding="utf-8"?>
<!-- Generator: Adobe Illustrator 20.1.0, SVG Export Plug-In . SVG Version: 6.00 Build 0)  -->
<!DOCTYPE svg PUBLIC "-//W3C//DTD SVG 1.1//EN" "http://www.w3.org/Graphics/SVG/1.1/DTD/svg11.dtd">
<svg version="1.1" id="Ebene_1" xmlns="http://www.w3.org/2000/svg" xmlns:xlink="http://www.w3.org/1999/xlink" x="0px" y="0px"
	 width="283.5px" height="283.5px" viewBox="0 0 283.5 283.5" style="enable-background:new 0 0 283.5 283.5;" xml:space="preserve"
	>
<path style="fill:#FFFFFF;" d="M141.9,10.5c-72.3,0-131.2,58.9-131.2,131.2c0,72.3,58.9,131.2,131.2,131.2s131.2-58.9,131.2-131.2
	C273.1,69.4,214.2,10.5,141.9,10.5z"/>
<path style="fill:#E74914;" d="M141.7,153.2c6.3,0,11.5-5.1,11.5-11.5c0-6.3-5.1-11.5-11.5-11.5c-6.3,0-11.5,5.1-11.5,11.5
	C130.3,148.1,135.4,153.2,141.7,153.2"/>
<path style="fill:#2DAC81;" d="M141.7,283.5C63.6,283.5,0,219.9,0,141.7S63.6,0,141.7,0c78.2,0,141.7,63.6,141.7,141.7
	S219.9,283.5,141.7,283.5z M141.7,10.3c-72.5,0-131.4,58.9-131.4,131.4s58.9,131.4,131.4,131.4c72.5,0,131.4-58.9,131.4-131.4
	S214.2,10.3,141.7,10.3z"/>
<rect x="22.5" y="35" style="fill:none;" width="213.4" height="213.4"/>
<polygon style="fill:#2DAC81;" points="158.2,82.7 146,82.7 146,29.3 137.8,29.3 137.8,82.7 125.5,82.7 141.9,111 "/>
<polygon style="fill:#2DAC81;" points="125.5,203.4 137.8,203.4 137.8,256.8 146,256.8 146,203.4 158.2,203.4 141.9,175.1 "/>
<polygon style="fill:#2DAC81;" points="202.3,159.4 202.3,147.1 255.6,147.1 255.6,139 202.3,139 202.3,126.7 174,143 "/>
<polygon style="fill:#2DAC81;" points="81.5,126.7 81.5,139 28.2,139 28.2,147.1 81.5,147.1 81.5,159.4 109.8,143 "/>
<polygon style="fill:#2DAC81;" points="196.1,111.9 187.5,103.2 225.2,65.5 219.4,59.7 181.7,97.5 173,88.8 164.6,120.4 "/>
<polygon style="fill:#2DAC81;" points="87.6,174.2 96.3,182.9 58.6,220.6 64.4,226.4 102.1,188.6 110.8,197.3 119.2,165.7 "/>
<polygon style="fill:#2DAC81;" points="110.8,88.8 102.1,97.5 64.4,59.7 58.6,65.5 96.3,103.2 87.6,111.9 119.2,120.4 "/>
<polygon style="fill:#2DAC81;" points="173,197.3 181.7,188.6 219.4,226.4 225.2,220.6 187.5,182.9 196.1,174.2 164.6,165.7 "/>
</svg>
