<?xml version="1.0" encoding="utf-8"?>
<!-- Generator: Adobe Illustrator 21.0.0, SVG Export Plug-In . SVG Version: 6.00 Build 0)  -->
<!DOCTYPE svg PUBLIC "-//W3C//DTD SVG 1.1//EN" "http://www.w3.org/Graphics/SVG/1.1/DTD/svg11.dtd">
<svg version="1.1" id="Layer_1" xmlns="http://www.w3.org/2000/svg" xmlns:xlink="http://www.w3.org/1999/xlink" x="0px" y="0px"
	 width="100px" height="100px" viewBox="0 0 100 100" enable-background="new 0 0 100 100" xml:space="preserve">
<path d="M34.7,60.8c7.1,0,9.5-1.5,15.2-1.3s12.9,2.7,18.5,2.4c5.7-0.3,10.2-3.6,11.7-5.4c1.5-1.8,5-5.9,5-5.9s-2.7-0.8-2.7-3.1
	c0-2.3,7.8-15.2,7.8-15.2s-9-0.3-11.6,0s-8.9,3.2-10.2,1.4c-1.3-1.8,5.8-10.4,6.2-13.1S74.6,8.3,74.6,8.3S58.9,13,52.7,13
	s-5.4-2.6-9.6-3.6s-4.5-1-7.5-2.2c-3-1.2-5.8-2.8-5.8-2.8s-1.4,9.6-0.6,13.2S35.1,30.7,34,32c-1.2,1.3-4.4-1.2-6.3-1.5
	S22,31,18.8,30.8c-3.2-0.1-6.6-0.6-6.6-0.6s8.6,11.6,8.2,15.3c-0.4,3.7-2.6,5.1-2.6,5.1s6.3,6.3,8.7,7.6S34.7,60.8,34.7,60.8z"/>
<path d="M51.8,95.7c0,0-0.6-16.1-0.6-19.4c0.1-3.3,0-16.6,0-16.6l-1.1-0.1c0,0-0.2,16.1,0,19.4c0.2,3.3,0.8,16.7,0.8,16.7H51.8z"/>
</svg>
