<?xml version="1.0" encoding="utf-8"?>
<!-- Generator: Adobe Illustrator 21.0.0, SVG Export Plug-In . SVG Version: 6.00 Build 0)  -->
<!DOCTYPE svg PUBLIC "-//W3C//DTD SVG 1.1//EN" "http://www.w3.org/Graphics/SVG/1.1/DTD/svg11.dtd">
<svg version="1.1" id="Layer_1" xmlns="http://www.w3.org/2000/svg" xmlns:xlink="http://www.w3.org/1999/xlink" x="0px" y="0px"
	 width="100px" height="100px" viewBox="0 0 100 100" enable-background="new 0 0 100 100" xml:space="preserve">
<path d="M51.5,56.9c0.4,0.1,4.5,2.2,7.2,1.9c2.6-0.3,6.2-2.9,6.3-8.4c0.1-5.5-2.2-9.6-6.9-13.4s-8.6-7.8-8.6-7.8s-4.5,6.6-7.6,9.8
	c-3,3.1-5.8,12-4.5,15c0.8,1.9,3.6,4.2,7.2,4.1c3.7-0.1,6-1.1,6-1.1s0.4,3.2-0.2,6.1c-0.6,2.8-2.9,7.6-2.9,7.6l0.9,0.3
	c0,0,2.5-5.6,2.8-7.2C51.6,62.1,51.5,56.9,51.5,56.9z"/>
</svg>
