<?xml version="1.0" encoding="utf-8"?>
<!-- Generator: Adobe Illustrator 21.0.0, SVG Export Plug-In . SVG Version: 6.00 Build 0)  -->
<!DOCTYPE svg PUBLIC "-//W3C//DTD SVG 1.1//EN" "http://www.w3.org/Graphics/SVG/1.1/DTD/svg11.dtd">
<svg version="1.1" id="Layer_1" xmlns="http://www.w3.org/2000/svg" xmlns:xlink="http://www.w3.org/1999/xlink" x="0px" y="0px"
	 width="100px" height="100px" viewBox="0 0 100 100" enable-background="new 0 0 100 100" xml:space="preserve">
<path d="M50.2,67.1c0,0-0.7-1.1,2.2-1.9c2.9-0.8,6.7-1.4,9.9-4.2c3.2-2.8,9.4-7,4.8-20.2s-4.7-14.2-10.1-20.6S47.9,9,47.9,9
	s0.5,1.8,0,3.1s-8.5,10-11.4,17.9c-2.9,7.8-6.7,17.6-4.7,23.8c2.1,6.2,4.5,8.9,8.1,10c3.6,1.1,8.9,1.9,9.1,2.6
	c0.1,0.7,0,16.3,0.7,19s1.4,5.5,1.4,5.5l1.3-0.4c0,0-1.6-3.7-1.9-5.7C50.2,82.9,50.2,67.1,50.2,67.1z"/>
</svg>
