<?xml version="1.0" encoding="utf-8"?>
<!-- Generator: Adobe Illustrator 21.0.0, SVG Export Plug-In . SVG Version: 6.00 Build 0)  -->
<!DOCTYPE svg PUBLIC "-//W3C//DTD SVG 1.1//EN" "http://www.w3.org/Graphics/SVG/1.1/DTD/svg11.dtd">
<svg version="1.1" id="Layer_1" xmlns="http://www.w3.org/2000/svg" xmlns:xlink="http://www.w3.org/1999/xlink" x="0px" y="0px"
	 width="100px" height="100px" viewBox="0 0 100 100" enable-background="new 0 0 100 100" xml:space="preserve">
<path d="M51.3,91.4c0.7-2.1,0-4.5,0.7-6.3c0.7-1.7,0.7-1.9,0.7-2.8S52,81.7,52,81c0-0.7,4.6-5.4,4.3-6.6c-0.3-1.2-3.1-0.1-3-2.3
	c0.1-2.2,1.8-4.9,3-5.2s4.4,0.2,5.9-1s4.6-2.4,4.1-5c-0.5-2.6-6.2-2.5-6.6-3.8c-0.3-1.2,1.4-4.1,4.5-6.3c3.1-2.2,10.9-3.6,11.8-5.7
	c0.9-2.1,2.9-4.9,1.7-7.4c-1.2-2.5-1.7-3.8-2.5-4s-5.7,0.8-5.9-1.2c-0.3-2,6.2-7,6.4-9.4s-0.6-5.6-2.6-7c-2-1.4-8,1.2-8.7,0.3
	c-0.8-0.9,2.4-8.4-1.7-9.6s-3.8,0.2-5.1,0C56.4,6.7,54,3,50.4,3.2c-3.6,0.2-3.2,2.7-5.2,3.8S41.3,5.8,40.1,7s-1.5,4.3-2.5,5.2
	c-1,1-3.8-0.6-5.6,1.3s-0.5,8-1.3,8.9c-0.8,1-7.3-0.9-8.1,3.5s7.6,10.1,6.7,12s-8,1.7-7.4,5.2C22.4,46.5,36.6,51,37,53.4
	c0.3,2.4-5.7,4.1-3.8,6.7c1.9,2.6,2.9,2.4,4.8,2.6s4.5-0.3,4.5,1.7c0,2-4.5,2.8-3.7,4.9c0.8,2.1,7.3,2.7,7.1,6s-2.2,1-2,3
	c0.2,1.9,2.3,2.7,2.3,3.8c0,1,0.2,4.6,0.3,6.9c0.1,2.3,1.9,2.4,1.9,2.4L48,94.3h1l0.2-2.9H51.3z"/>
</svg>
