<?xml version="1.0" encoding="utf-8"?>
<!-- Generator: Adobe Illustrator 21.0.0, SVG Export Plug-In . SVG Version: 6.00 Build 0)  -->
<!DOCTYPE svg PUBLIC "-//W3C//DTD SVG 1.1//EN" "http://www.w3.org/Graphics/SVG/1.1/DTD/svg11.dtd">
<svg version="1.1" id="Layer_1" xmlns="http://www.w3.org/2000/svg" xmlns:xlink="http://www.w3.org/1999/xlink" x="0px" y="0px"
	 width="100px" height="100px" viewBox="0 0 100 100" enable-background="new 0 0 100 100" xml:space="preserve">
<path d="M49.5,85.3c1.1-4.8,6.8-3.2,11.5-13.6s13.3-29.8,6.3-43.6S53,10,51.7,7.5s-1.3-2.7-2.2-2.7c-0.9,0-0.6,0.9-1.5,2
	s-9.9,4.9-15.6,12s-12.6,20.2-10,32.7s5.9,18.2,9.7,22.1c3.8,3.9,7.8,6.4,11,9.8c3.3,3.4,7.3,11.9,7.3,11.9h1.7
	C52.1,95.2,48.1,91.6,49.5,85.3z"/>
</svg>
