<?xml version="1.0" encoding="utf-8"?>
<!-- Generator: Adobe Illustrator 21.0.0, SVG Export Plug-In . SVG Version: 6.00 Build 0)  -->
<!DOCTYPE svg PUBLIC "-//W3C//DTD SVG 1.1//EN" "http://www.w3.org/Graphics/SVG/1.1/DTD/svg11.dtd">
<svg version="1.1" id="Layer_1" xmlns="http://www.w3.org/2000/svg" xmlns:xlink="http://www.w3.org/1999/xlink" x="0px" y="0px"
	 width="100px" height="100px" viewBox="0 0 100 100" enable-background="new 0 0 100 100" xml:space="preserve">
<path d="M73.7,52.7c1.7-0.8,3.2-1.5,4.8-7c1.5-5.4-2.8-9.5-3.7-11.3s-0.6-7-0.6-7S72.7,29,71.4,31c-1.3,2.1-2.7,1.5-4.8,2.6
	c-2.1,1-3.4,4.8-4.8,7.5c-1.4,2.7-3.6,5.4-4.8,4.4c-1.2-1,1.3-3.7,3.9-5.9c2.6-2.2,2.3-5.8,1.8-10.1c-0.5-4.3-5.5-7.3-8.2-9.7
	c-2.7-2.3-4.8-8.1-4.8-8.1S49.1,19,46.1,23c-3,4-4.3,6.4-4.8,9.9c-0.5,3.5,1.9,6.4,3.9,8.1s3.6,2.4,1.9,3.7
	c-1.7,1.3-2.7-0.8-4.5-2.7c-1.8-2-4.9-5.4-8.5-7.2c-3.6-1.8-5.4,0-8.4-0.3c-3-0.3-5.6-1.8-5.6-1.8s0.9,0.6,1.7,4
	c0.8,3.4-1.2,4.3-1.5,7.6c-0.4,3.4-0.4,7.3,4.3,12c4.6,4.6,8.1-0.1,8.8,3.2c0.6,3.4-6.6,3.9-6.6,3.9s5.2,5,9.9,7.4
	c4.8,2.4,9.9,1.9,13,0c2.3-1.4,2-5.8,2.1-7.9c0.2,0.1,0.4,0.2,0.4,0.3c0.1,0.7,0,16.3,0.7,19c0.7,2.7,1.4,5.5,1.4,5.5l1.3-0.4
	c0,0-1.6-3.7-1.9-5.7c-0.2-1.4-0.3-9.9-0.3-14.6c0.1,0.2,0.2,0.4,0.3,0.6c1,1.9,5.4,3.4,10.5,3.1c5.1-0.3,8.7-3.1,11.2-5.7
	s2.2-6.1-0.6-7.7s-5.9-1.9-6.1-3.4C68.7,52.7,72,53.5,73.7,52.7z"/>
</svg>
