<?xml version="1.0" encoding="utf-8"?>
<!-- Generator: Adobe Illustrator 21.0.0, SVG Export Plug-In . SVG Version: 6.00 Build 0)  -->
<!DOCTYPE svg PUBLIC "-//W3C//DTD SVG 1.1//EN" "http://www.w3.org/Graphics/SVG/1.1/DTD/svg11.dtd">
<svg version="1.1" id="Ebene_1" xmlns="http://www.w3.org/2000/svg" xmlns:xlink="http://www.w3.org/1999/xlink" x="0px" y="0px"
	 width="283.5px" height="283.5px" viewBox="0 0 283.5 283.5" enable-background="new 0 0 283.5 283.5" xml:space="preserve">
<path fill="#4A4242" d="M141.5,172c14,0,25.3-11.3,25.3-25.3s-11.3-25.3-25.3-25.3s-25.3,11.3-25.3,25.3S127.6,172,141.5,172"/>
<path fill="#4A4242" d="M141.5,283.1C63.5,283.1,0,219.6,0,141.5C0,63.5,63.5,0,141.5,0s141.5,63.5,141.5,141.5
	C283.1,219.6,219.6,283.1,141.5,283.1z M141.5,10.3c-72.4,0-131.2,58.9-131.2,131.2c0,72.3,58.9,131.2,131.2,131.2
	c72.3,0,131.2-58.9,131.2-131.2C272.7,69.2,213.9,10.3,141.5,10.3z"/>
<g>
	<path fill="#4A4242" d="M178.9,267.3v-44.9h0c0-20.7-16.8-37.4-37.4-37.4s-37.4,16.8-37.4,37.4h0v44.9c11.9,3.5,24.4,5.5,37.4,5.5
		C154.5,272.7,167.1,270.8,178.9,267.3z"/>
</g>
</svg>
