<?xml version="1.0" encoding="utf-8"?>
<!-- Generator: Adobe Illustrator 21.0.0, SVG Export Plug-In . SVG Version: 6.00 Build 0)  -->
<!DOCTYPE svg PUBLIC "-//W3C//DTD SVG 1.1//EN" "http://www.w3.org/Graphics/SVG/1.1/DTD/svg11.dtd">
<svg version="1.1" id="Ebene_1" xmlns="http://www.w3.org/2000/svg" xmlns:xlink="http://www.w3.org/1999/xlink" x="0px" y="0px"
	 width="283.5px" height="283.5px" viewBox="0 0 283.5 283.5" enable-background="new 0 0 283.5 283.5" xml:space="preserve">
<g>
	<defs>
		<rect id="SVGID_1_" x="79" y="47.6" width="125.7" height="226.2"/>
	</defs>
	<clipPath id="SVGID_2_">
		<use xlink:href="#SVGID_1_"  overflow="visible"/>
	</clipPath>
	<path clip-path="url(#SVGID_2_)" fill="#4A4242" d="M202.1,259.2c0,0,2.5-1.4,2.5-4.2V50.4c0,0,0-2.8-2.8-2.8h-120
		c0,0-2.8,0-2.8,2.8v204.4c0,0,0,2.8,2.5,4.2c16.2,8.9,37.7,14.7,60.5,14.7C164.6,273.8,186,268,202.1,259.2"/>
	<path clip-path="url(#SVGID_2_)" fill="#FFFFFF" d="M120.1,85.9c0,0,0,2.8-2.8,2.8H93.5c0,0-2.8,0-2.8-2.8V62.1c0,0,0-2.8,2.8-2.8
		h23.8c0,0,2.8,0,2.8,2.8V85.9z"/>
	<path clip-path="url(#SVGID_2_)" fill="#FFFFFF" d="M156.7,85.9c0,0,0,2.8-2.8,2.8H130c0,0-2.8,0-2.8-2.8V62.1c0,0,0-2.8,2.8-2.8
		h23.8c0,0,2.8,0,2.8,2.8V85.9z"/>
	<path clip-path="url(#SVGID_2_)" fill="#FFFFFF" d="M193.2,85.9c0,0,0,2.8-2.8,2.8h-23.8c0,0-2.8,0-2.8-2.8V62.1c0,0,0-2.8,2.8-2.8
		h23.8c0,0,2.8,0,2.8,2.8V85.9z"/>
	<path clip-path="url(#SVGID_2_)" fill="#FFFFFF" d="M120.1,122.9c0,0,0,2.8-2.8,2.8H93.5c0,0-2.8,0-2.8-2.8V99.1c0,0,0-2.8,2.8-2.8
		h23.8c0,0,2.8,0,2.8,2.8V122.9z"/>
	<path clip-path="url(#SVGID_2_)" fill="#FFFFFF" d="M156.7,122.9c0,0,0,2.8-2.8,2.8H130c0,0-2.8,0-2.8-2.8V99.1c0,0,0-2.8,2.8-2.8
		h23.8c0,0,2.8,0,2.8,2.8V122.9z"/>
	<path clip-path="url(#SVGID_2_)" fill="#FFFFFF" d="M193.2,122.9c0,0,0,2.8-2.8,2.8h-23.8c0,0-2.8,0-2.8-2.8V99.1
		c0,0,0-2.8,2.8-2.8h23.8c0,0,2.8,0,2.8,2.8V122.9z"/>
	<path clip-path="url(#SVGID_2_)" fill="#8A8282" d="M120.1,159.9c0,0,0,2.8-2.8,2.8H93.5c0,0-2.8,0-2.8-2.8v-23.8
		c0,0,0-2.8,2.8-2.8h23.8c0,0,2.8,0,2.8,2.8V159.9z"/>
	<path clip-path="url(#SVGID_2_)" fill="#FFFFFF" d="M156.7,159.9c0,0,0,2.8-2.8,2.8H130c0,0-2.8,0-2.8-2.8v-23.8c0,0,0-2.8,2.8-2.8
		h23.8c0,0,2.8,0,2.8,2.8V159.9z"/>
	<path clip-path="url(#SVGID_2_)" fill="#FFFFFF" d="M193.2,159.9c0,0,0,2.8-2.8,2.8h-23.8c0,0-2.8,0-2.8-2.8v-23.8
		c0,0,0-2.8,2.8-2.8h23.8c0,0,2.8,0,2.8,2.8V159.9z"/>
	<path clip-path="url(#SVGID_2_)" fill="#FFFFFF" d="M120.1,196.9c0,0,0,2.8-2.8,2.8H93.5c0,0-2.8,0-2.8-2.8v-23.8
		c0,0,0-2.8,2.8-2.8h23.8c0,0,2.8,0,2.8,2.8V196.9z"/>
	<path clip-path="url(#SVGID_2_)" fill="#FFFFFF" d="M156.7,196.9c0,0,0,2.8-2.8,2.8H130c0,0-2.8,0-2.8-2.8v-23.8c0,0,0-2.8,2.8-2.8
		h23.8c0,0,2.8,0,2.8,2.8V196.9z"/>
	<path clip-path="url(#SVGID_2_)" fill="#FFFFFF" d="M193.2,196.9c0,0,0,2.8-2.8,2.8h-23.8c0,0-2.8,0-2.8-2.8v-23.8
		c0,0,0-2.8,2.8-2.8h23.8c0,0,2.8,0,2.8,2.8V196.9z"/>
	<path clip-path="url(#SVGID_2_)" fill="#FFFFFF" d="M120.1,234c0,0,0,2.8-2.8,2.8H93.5c0,0-2.8,0-2.8-2.8v-23.8c0,0,0-2.8,2.8-2.8
		h23.8c0,0,2.8,0,2.8,2.8V234z"/>
	<path clip-path="url(#SVGID_2_)" fill="#FFFFFF" d="M156.7,234c0,0,0,2.8-2.8,2.8H130c0,0-2.8,0-2.8-2.8v-23.8c0,0,0-2.8,2.8-2.8
		h23.8c0,0,2.8,0,2.8,2.8V234z"/>
	<path clip-path="url(#SVGID_2_)" fill="#FFFFFF" d="M193.2,234c0,0,0,2.8-2.8,2.8h-23.8c0,0-2.8,0-2.8-2.8v-23.8c0,0,0-2.8,2.8-2.8
		h23.8c0,0,2.8,0,2.8,2.8V234z"/>
	<path clip-path="url(#SVGID_2_)" fill="#FFFFFF" d="M120.1,271c0,0,0,2.8-2.8,2.8H93.5c0,0-2.8,0-2.8-2.8v-23.8c0,0,0-2.8,2.8-2.8
		h23.8c0,0,2.8,0,2.8,2.8V271z"/>
	<path clip-path="url(#SVGID_2_)" fill="#FFFFFF" d="M156.7,271c0,0,0,2.8-2.8,2.8H130c0,0-2.8,0-2.8-2.8v-23.8c0,0,0-2.8,2.8-2.8
		h23.8c0,0,2.8,0,2.8,2.8V271z"/>
	<path clip-path="url(#SVGID_2_)" fill="#FFFFFF" d="M193.2,271c0,0,0,2.8-2.8,2.8h-23.8c0,0-2.8,0-2.8-2.8v-23.8c0,0,0-2.8,2.8-2.8
		h23.8c0,0,2.8,0,2.8,2.8V271z"/>
</g>
<path fill="#4A4242" d="M141.8,283.6C63.6,283.6,0,220,0,141.8S63.6,0,141.8,0s141.8,63.6,141.8,141.8S220,283.6,141.8,283.6z
	 M141.8,10.3c-72.5,0-131.4,59-131.4,131.4c0,72.5,59,131.4,131.4,131.4c72.5,0,131.4-59,131.4-131.4
	C273.2,69.3,214.3,10.3,141.8,10.3z"/>
</svg>
