<?xml version="1.0" encoding="utf-8"?>
<!-- Generator: Adobe Illustrator 21.0.0, SVG Export Plug-In . SVG Version: 6.00 Build 0)  -->
<!DOCTYPE svg PUBLIC "-//W3C//DTD SVG 1.1//EN" "http://www.w3.org/Graphics/SVG/1.1/DTD/svg11.dtd">
<svg version="1.1" id="Ebene_1" xmlns="http://www.w3.org/2000/svg" xmlns:xlink="http://www.w3.org/1999/xlink" x="0px" y="0px"
	 width="283.5px" height="283.5px" viewBox="0 0 283.5 283.5" enable-background="new 0 0 283.5 283.5" xml:space="preserve">
<path fill="#4A4242" d="M141.6,283.1C63.5,283.1,0,219.6,0,141.6S63.5,0,141.6,0s141.6,63.5,141.6,141.6S219.6,283.1,141.6,283.1z
	 M141.6,10.3c-72.4,0-131.2,58.9-131.2,131.2c0,72.4,58.9,131.2,131.2,131.2c72.4,0,131.2-58.9,131.2-131.2
	C272.8,69.2,213.9,10.3,141.6,10.3z"/>
<path fill="#4A4242" d="M74.3,219.7c-2.6,0-5.2-1-7.2-3c-4-3.9-4-10.4,0-14.3L193,76.5c3.9-3.9,10.4-3.9,14.3,0c4,3.9,4,10.4,0,14.3
	L81.4,216.7C79.5,218.7,76.9,219.7,74.3,219.7z"/>
<g>
	<path fill="#8A8281" d="M183.5,66.2c-1.1-1.1-2-2-2-2l0,0c0,0-1.3-0.1-2.8-0.3l-27.5-2.6c-1.6-0.1-3.7,0.6-4.8,1.7l-5.3,5.3
		c-1.1,1.1-1.1,2.9,0,4l61.2,61.2c1.1,1.1,2.9,1.1,4,0l20.3-20.3c1.1-1.1,1.1-2.9,0-4L183.5,66.2z"/>
</g>
</svg>
