<?xml version="1.0" encoding="utf-8"?>
<!-- Generator: Adobe Illustrator 20.1.0, SVG Export Plug-In . SVG Version: 6.00 Build 0)  -->
<!DOCTYPE svg PUBLIC "-//W3C//DTD SVG 1.1//EN" "http://www.w3.org/Graphics/SVG/1.1/DTD/svg11.dtd">
<svg version="1.1" id="Ebene_1" xmlns="http://www.w3.org/2000/svg" xmlns:xlink="http://www.w3.org/1999/xlink" x="0px" y="0px"
	 width="7.8px" height="7.1px" viewBox="0 0 7.8 7.1" style="enable-background:new 0 0 7.8 7.1;" xml:space="preserve">
<path d="M3.7,0L3.7,0C3.5,0,3.3,0.2,3.2,0.3c0,0.1-3.1,6.1-3.1,6.1C0,6.6,0,6.7,0,6.8c0,0.1,0,0.3,0.3,0.3c0.1,0,0.6,0,0.8-0.3
	c0,0,2.6-5.1,2.6-5.2c0-0.1,0.1-0.1,0.2-0.1c0.1,0,0.2,0,0.2,0.1l2.6,5.2C6.7,6.9,6.8,7,6.9,7c0,0,0.6,0,0.7,0s0.1-0.1,0.1-0.2
	s0-0.2-0.1-0.3L4.5,0.2C4.5,0.1,4.4,0,4.3,0C4.2,0,3.7,0,3.7,0"/>
</svg>
