<?xml version="1.0" encoding="utf-8"?>
<!-- Generator: Adobe Illustrator 20.1.0, SVG Export Plug-In . SVG Version: 6.00 Build 0)  -->
<!DOCTYPE svg PUBLIC "-//W3C//DTD SVG 1.1//EN" "http://www.w3.org/Graphics/SVG/1.1/DTD/svg11.dtd">
<svg version="1.1" xmlns="http://www.w3.org/2000/svg" xmlns:xlink="http://www.w3.org/1999/xlink" x="0px" y="0px" width="283.5px"
	 height="283.5px" viewBox="0 0 283.5 283.5" style="enable-background:new 0 0 283.5 283.5;" xml:space="preserve">
<g id="Layer_2">
	<circle style="fill:#FFFFFF;" cx="143.2" cy="141.8" r="138.2"/>
</g>
<g id="Ebene_1">
	<g>
		<defs>
			<rect id="SVGID_1_" x="0" y="0" width="283.5" height="283.5"/>
		</defs>
		<clipPath id="SVGID_2_">
			<use xlink:href="#SVGID_1_"  style="overflow:visible;"/>
		</clipPath>
		<path style="clip-path:url(#SVGID_2_);fill:#2DAC81;" d="M141.7,283.5C63.6,283.5,0,219.9,0,141.7C0,63.6,63.6,0,141.7,0
			s141.7,63.6,141.7,141.7C283.5,219.9,219.9,283.5,141.7,283.5z M141.7,10.3c-72.5,0-131.4,58.9-131.4,131.4
			c0,72.5,58.9,131.4,131.4,131.4c72.5,0,131.4-58.9,131.4-131.4C273.1,69.3,214.2,10.3,141.7,10.3z"/>
	</g>
	<path style="fill:#E74914;" d="M93.2,190l-18.9-11.8c-2.4-1.5-3.2-4.7-1.7-7.1c1.5-2.4,4.7-3.2,7.1-1.7l10,6.2l17.5-28.8l26.1,14.6
		l37.1-49.6l11.3,7.4l17.9-23.5c1.7-2.3,5-2.7,7.2-1c2.3,1.7,2.7,5,1,7.2l-23.8,31.1l-11.2-7.3L136.3,175L111,160.8L93.2,190z"/>
	<path style="fill:#2DAC81;" d="M227.8,205.7L203.3,183v17.6H77.2V84.8h17.6L72,60.3L49.3,84.8h17.6v121c0,2.9,2.3,5.2,5.2,5.2
		h131.3v17.6L227.8,205.7z"/>
</g>
</svg>
