<?xml version="1.0" encoding="utf-8"?>
<!-- Generator: Adobe Illustrator 20.1.0, SVG Export Plug-In . SVG Version: 6.00 Build 0)  -->
<!DOCTYPE svg PUBLIC "-//W3C//DTD SVG 1.1//EN" "http://www.w3.org/Graphics/SVG/1.1/DTD/svg11.dtd">
<svg version="1.1" xmlns="http://www.w3.org/2000/svg" xmlns:xlink="http://www.w3.org/1999/xlink" x="0px" y="0px" width="283.5px"
	 height="283.5px" viewBox="0 0 283.5 283.5" style="enable-background:new 0 0 283.5 283.5;" xml:space="preserve">
<g id="Layer_2">
	<circle style="fill:#FFFFFF;" cx="139.6" cy="142" r="140.6"/>
</g>
<g id="Ebene_1">
	<g>
		<defs>
			<rect id="SVGID_5_" x="-0.2" y="-0.4" width="283.9" height="283.9"/>
		</defs>
		<clipPath id="SVGID_2_">
			<use xlink:href="#SVGID_5_"  style="overflow:visible;"/>
		</clipPath>
		<path style="clip-path:url(#SVGID_2_);fill:#2DAC81;" d="M141.7,283.5c-78.3,0-141.9-63.7-141.9-141.9
			C-0.2,63.3,63.5-0.4,141.7-0.4s141.9,63.7,141.9,141.9C283.7,219.8,220,283.5,141.7,283.5z M141.7,9.9
			C69.2,9.9,10.1,69,10.1,141.5c0,72.6,59,131.6,131.6,131.6c72.6,0,131.6-59,131.6-131.6C273.3,69,214.3,9.9,141.7,9.9z"/>
	</g>
	<path style="fill:#2DAC81;" d="M200.4,230H73.6V52.8h126.8V230z M84,219.6h106.1V63.2H84V219.6z"/>
	<rect x="96.1" y="80.5" style="fill:#2DAC81;" width="32.6" height="10.3"/>
	<rect x="96.1" y="123.3" style="fill:#2DAC81;" width="81.7" height="10.3"/>
	<rect x="96.1" y="166.1" style="fill:#2DAC81;" width="81.7" height="10.3"/>
	<rect x="96.1" y="94.8" style="fill:#2DAC81;" width="32.6" height="10.3"/>
	<rect x="96.1" y="137.5" style="fill:#2DAC81;" width="81.7" height="10.3"/>
	<rect x="96.1" y="180.3" style="fill:#2DAC81;" width="81.7" height="10.3"/>
	<rect x="96.1" y="109" style="fill:#2DAC81;" width="32.6" height="10.3"/>
	<rect x="96.1" y="151.8" style="fill:#2DAC81;" width="81.7" height="10.3"/>
	<rect x="96.1" y="194.6" style="fill:#2DAC81;" width="81.7" height="10.3"/>
	<rect x="132.7" y="81.1" style="fill:#E74914;" width="44.5" height="37.7"/>
</g>
</svg>
