<svg id="Ebene_1" data-name="Ebene 1" xmlns="http://www.w3.org/2000/svg" xmlns:xlink="http://www.w3.org/1999/xlink" viewBox="0 0 124.13 15.82">
  <defs>
    <clipPath id="clip-path">
      <rect width="124.13" height="15.82" style="fill: none"/>
    </clipPath>
  </defs>
  <title>logo</title>
  <g style="clip-path: url(#clip-path)">
    <path d="M116.72,13.32a3.44,3.44,0,1,1,3.43-3.49,3.46,3.46,0,0,1-3.43,3.49m3.37,2.2h4V13.11h-1.46V.4h-4.07V2.82h1.48v3A4.71,4.71,0,0,0,116.36,4a5.83,5.83,0,0,0,0,11.67,4.28,4.28,0,0,0,3.71-1.86ZM108.32.4h-4V2.82h1.46V13.11h-1.57v2.41h5.61V13.11h-1.46ZM95.91,13.3a3.4,3.4,0,0,1-3.37-3.37A3.44,3.44,0,0,1,96,6.44,3.4,3.4,0,0,1,99.36,9.8a3.45,3.45,0,0,1-3.45,3.49m3.41,2.22h4V13.11h-1.42V6.63h1.42V4.21h-4V5.82A4.06,4.06,0,0,0,95.8,3.92a6,6,0,0,0-5.93,6,5.86,5.86,0,0,0,5.8,5.89A4.18,4.18,0,0,0,99.32,14ZM87.55,6.63H89V4.21H83.71V6.63H85l-1.74,5.31h0L81,4.64H78.93l-2.37,7.3h0L74.91,6.63h1.25V4.21H70.93V6.63h1.42l2.71,8.89h2.41L79.9,8.87,82,15.52h2.5Z" style="fill: #2dac82"/>
    <path d="M47.17,12.24v3.28h2v-.93a3.68,3.68,0,0,0,2.92,1.23c2.12,0,4-1.27,4-3.56,0-2.54-2.18-3.18-4.21-3.64C51.07,8.43,50,8.19,50,7.14a1.3,1.3,0,0,1,1.44-1.19,1.39,1.39,0,0,1,1.46,1.33h2.5V4.21h-1.9V5A3,3,0,0,0,51,4c-2,0-3.83,1.25-3.83,3.41,0,2.48,2.16,3.09,4.13,3.6.87.23,1.93.42,1.93,1.55a1.47,1.47,0,0,1-1.54,1.4,1.73,1.73,0,0,1-1.82-1.69ZM37.28.4h-4V2.82H34.7V13.11H33.24v2.41h5.51V13.11H37.28V9.68a3.18,3.18,0,0,1,.55-2.27,2.45,2.45,0,0,1,1.95-.91,2.35,2.35,0,0,1,2.05,1,4.3,4.3,0,0,1,.38,2.37v3.2H40.76v2.41h5.5V13.11H44.8V9.21a5.44,5.44,0,0,0-.93-3.6A3.89,3.89,0,0,0,40.67,4a3.74,3.74,0,0,0-3.39,1.95ZM29.35,11.71a3,3,0,0,1-2.71,1.57,3.38,3.38,0,0,1-3.41-3.41,3.34,3.34,0,0,1,3.35-3.43A3.44,3.44,0,0,1,29.39,8H31.8V4.21H29.58V5.29a4.34,4.34,0,0,0-3.24-1.42,6,6,0,1,0,5.89,7.83ZM18.27,4.21h-4V6.63h1.46v3.64a3.56,3.56,0,0,1-.49,2.22,2.49,2.49,0,0,1-1.91.93,2.2,2.2,0,0,1-1.9-1,3.65,3.65,0,0,1-.44-2.12V4.21h-4V6.63H8.36v4.47a4.7,4.7,0,0,0,1,3.28,4.06,4.06,0,0,0,3.13,1.44,4.13,4.13,0,0,0,3.41-1.69v1.4h3.83V13.11H18.27ZM4,6.63H5.53V4.21H4a1.59,1.59,0,0,1,1.8-1.9V0C3,0,1.44,1.38,1.46,4.21H0V6.63H1.46v6.48H0v2.41H5.53V13.11H4Z" style="fill: #e74914"/>
  </g>
  <polygon points="58.74 8.38 58.74 10.33 63.14 10.33 63.14 14.73 65.09 14.73 65.09 10.33 69.49 10.33 69.49 8.38 65.09 8.38 65.09 3.98 63.14 3.98 63.14 8.38 58.74 8.38" style="fill: #2dac82"/>
</svg>
