<?xml version="1.0" encoding="utf-8"?>
<!-- Generator: Adobe Illustrator 20.1.0, SVG Export Plug-In . SVG Version: 6.00 Build 0)  -->
<!DOCTYPE svg PUBLIC "-//W3C//DTD SVG 1.1//EN" "http://www.w3.org/Graphics/SVG/1.1/DTD/svg11.dtd">
<svg version="1.1" id="Ebene_1" xmlns="http://www.w3.org/2000/svg" xmlns:xlink="http://www.w3.org/1999/xlink" x="0px" y="0px"
	 width="283.5px" height="158.9px" viewBox="0 0 283.5 158.9" style="enable-background:new 0 0 283.5 158.9;" xml:space="preserve"
	>
<path d="M55.1,142.5c4.6,5.2,10.2,8.2,17.3,6.4c2.8-0.7,5.2-2.6,7.8-4c-1.5-2.5-2.5-6-4.7-7.4c-3.8-2.3-3.6-4.7-2.4-8.2
	c2.7-7.4,5.1-14.9,7.5-22.1c-6.7,4.5-12.9,9-19.4,13C53.8,125.1,50.2,137.2,55.1,142.5 M193.4,91.6c-3.3,5.5-6.3,11.3-10,16.4
	c-3.5,4.8-4.4,9.2-2.6,15c2,6.4,2.6,13.2,3.7,19.9c-7.2,0.9-8.8-0.5-8.4-7.7c0.2-4.4-0.2-9,0.7-13.3c0.9-5,2.3-10.1,4.6-14.6
	c2.9-5.8,6.9-11.1,10.5-16.6C192.4,90.9,192.9,91.2,193.4,91.6 M280.6,49.1c-6.8-3.5-13.8-6.5-20.6-9.8c-1-0.5-2-1.9-2.3-3.1
	c-1.3-5.9-5.5-9.3-10.5-11.6c-4.3-2.1-9-3.6-13.5-5.2c-2.8-1-4.3-2.3-3.9-5.9c0.2-2.7-1.7-5.7-2.6-8.5c-2.8,1.3-5.8,2.4-8.5,3.9
	c-0.8,0.5-1.1,1.9-1.7,2.9c-6.2-2.2-12.1-4.2-19-6.6c1.1,2.5,1.7,3.7,2.3,5c-0.5,0.1-0.8,0.2-0.9,0.2c-2.2-1.1-4.6-2.1-6.7-3.5
	c-13-8.1-26.4-9.2-40.4-2.5c-7,3.3-14.2,6.1-21.4,9.1c-1,0.4-2.2,0.5-3.6,0.7c0.4-1.2,0.7-2,0.8-2.2c-9.2-1.9-18.1-3.8-27-5.5
	c-6.6-1.3-13.3-3.2-20-3.6c-21.4-1.3-40,7.7-58,17.6C7.5,29,0.9,43.5,0.5,61c-0.3,11.4,3.9,21.6,9.7,31.2c4.8,7.9,7.5,16.3,8.5,25.6
	c1,9.3,3.9,18.5,6.3,27.7c0.6,2.1,2.2,4.1,3.8,5.8c5.1,5.6,21.1,8.5,27.8,5.2c4.5-2.2,5.1-7.7,0.7-10.2c-4.7-2.6-5.5-6.6-5.8-11.1
	c-0.7-8.7,3.6-14.6,11.1-18.1c10.1-4.6,17.5-12,23-21.4c0.6-1.1,1.7-2,2.5-3c0.2,0.1,0.4,0.3,0.6,0.4c-0.9,1.8-1.7,3.7-2.5,5.5
	c15.3,9.9,31.4,11.2,48,5.4c1.5-0.5,3-3,3.3-4.8c0.7-3.9,0.6-8,0.9-12c0.7,0.1,1.3,0.1,2,0.2c-0.3,6.1-0.8,12.3-0.9,18.4
	c-0.1,11.1,0.1,22.1,8.1,31.2c1.3,1.5,1.8,3.8,2.1,5.9c1.4,7.6,4.9,11.3,12.7,11.7c5.2,0.3,10.4-0.8,15.6-0.6
	c5.6,0.2,9.5-1.4,9.8-5.8c7.4,0,14.3,0.2,21.1-0.1c2.2-0.1,4.4-1.5,6.6-2.4c-1.2-2.3-2.2-4.6-3.7-6.7c-0.7-1-2.1-1.8-3.3-2.2
	c-5.3-1.5-6-5.1-5.4-9.9c1.2-10.6,2.2-21.2,2.8-31.8c0.2-2.9-1.4-5.9-2.3-9.4c4.4-1.1,10.4-2.3,16.1-4.1c4.2-1.3,8-3.6,12.1-5.2
	c1.3-0.5,2.8-0.6,4.1-0.7c3.6-0.2,7.5,0.5,10.9-0.5c7-2,13.5-5.6,20.5-7.3c8.1-2,13.1-6.7,15.7-14.1
	C283.4,52.6,281.9,49.8,280.6,49.1"/>
</svg>
