<?xml version="1.0" encoding="utf-8"?>
<!-- Generator: Adobe Illustrator 20.1.0, SVG Export Plug-In . SVG Version: 6.00 Build 0)  -->
<!DOCTYPE svg PUBLIC "-//W3C//DTD SVG 1.1//EN" "http://www.w3.org/Graphics/SVG/1.1/DTD/svg11.dtd">
<svg version="1.1" id="Ebene_1" xmlns="http://www.w3.org/2000/svg" xmlns:xlink="http://www.w3.org/1999/xlink" x="0px" y="0px"
	 width="283.5px" height="125.1px" viewBox="0 0 283.5 125.1" style="enable-background:new 0 0 283.5 125.1;" xml:space="preserve"
	>
<path d="M232.2,12.6c-2.7,0.8-5.3,1.6-8.3,2.4c1.6,4.6,5.3,1.4,7.7,2.6c-4.8,2.7-9.1,1.5-11.2-3.7c3.8-1.1,7.5-2.1,11.2-3.2
	C231.9,11.3,232,12,232.2,12.6 M275.4,14.4c-0.9-0.5-1.9-1-2.8-1.4c-6.7-3.4-13.2-7.6-20.3-9.9c-11.8-3.7-21.8,2.4-31.3,8.5
	c-3.5,2.3-6.5,2.2-10,0.5c-7.2-3.3-14.1-8.1-21.7-9.4c-15.5-2.8-30.9-1.7-45.5,5.7c-7.4,3.8-13.6,8.8-16.9,16
	c-5.2,11.2-9.4,23-13.5,34.7c-3.8,11.1-6.9,22.5-10.2,33.8c-1.3,4.6-4.3,7.4-8.9,7c-4.5-0.4-9-2-13.5-2.4c-6.6-0.6-13.3-0.5-20-0.6
	c-0.1,0-0.3,0.8-0.5,1.2c-1.4-0.5-2.8-1.4-4.2-1.3c-11.8,0.9-23.5,1.8-35.3,3c-4,0.4-8.1,1.1-12,2.1c-3.8,1-4.9,3.9-2.6,6.7
	c3.5,4.1,6.8,8.6,11,11.8c4.7,3.6,10.4,5.5,16.9,3.8c-4.8-5.2-9.2-10.1-13.6-14.9c3.8,2.1,7.1,4.6,9.9,7.5c6.2,6.4,12.9,10.4,22.6,7
	c-3.9-5.9-7.7-11.7-11.5-17.5c0.4-0.3,0.8-0.5,1.2-0.8c4.8,5.1,9.5,10.4,14.6,15.3c1.7,1.7,4.4,2.9,6.8,3.2c2,0.2,4.1-1.1,7.1-2.1
	c-5.3-6.4-10.5-12.7-15.7-18.9c2.4,1,4.3,2.3,6.1,3.8c5.3,4.5,10.6,9.1,16,13.4c0.6,0.5,2.6-0.6,3.9-1c7.4,1,12.1-4.2,17-8.1
	c2.4-1.9,3.8-2.3,6.2-1.4c7.7,3.1,15.6,4.5,24,3.2c1.9-0.3,4.1,0.9,6,1.8c4,1.9,7.9,5.5,11.9,5.8c11.6,0.8,23.2,0.3,35,0.3
	c0.1-5.1-2.7-6.7-6.5-7.4c-6.6-1.2-13.3-2.3-21.2-3.7c17.7-4.3,22.8-18.5,29.4-32.5c-0.9,13.7-9.1,22.5-16.6,32
	c6.3-0.6,12.4-1.5,18.3-3.1c12.2-3.5,22.3-9.6,27.4-22.2c2-5.1,5.6-9.7,8.4-14.5c0.3,0.1,0.6,0.3,0.9,0.4
	c-3.2,7.9-6.4,15.8-9.5,23.4c2.7,1.2,5.1,1.6,6.4,3c4.5,5.1,10,9.5,11.2,16.9c0.3,1.7,2.1,4.1,3.6,4.4c3.8,0.8,7.9,0.9,11.7,0.5
	c1.7-0.1,4.4-2.1,4.4-3.2c0-1.8-1.5-4.2-3.1-5.3c-7.1-4.6-9.8-12.2-7.4-20.3c2.3-8.1,4.1-16.3,6-24.5c0.3-1.1,0-2.5-0.3-3.6
	c-2-6.4-4.1-12.9-6.1-19.3c-0.1-0.4,0-0.9,0-1.4c0.4-0.2,0.9-0.3,1.3-0.5c2.5,5.2,4.9,10.5,7.4,15.8c0.3-0.1,0.9,0,1.1-0.3
	c5.1-6.2,10.3-12,18.3-15c3.6-1.3,6.8-5.5,8.7-9.2c1-2-1.1-5.6-1.8-8.4c-0.2-1-0.1-2.2-0.2-3.2c0.2-0.1,0.4-0.1,0.7-0.2
	c1.4,2.6,2.9,5.2,4.7,8.7C282.1,20.3,281.4,17.8,275.4,14.4"/>
</svg>
