<?xml version="1.0" encoding="utf-8"?>
<!-- Generator: Adobe Illustrator 20.1.0, SVG Export Plug-In . SVG Version: 6.00 Build 0)  -->
<!DOCTYPE svg PUBLIC "-//W3C//DTD SVG 1.1//EN" "http://www.w3.org/Graphics/SVG/1.1/DTD/svg11.dtd">
<svg version="1.1" id="Ebene_1" xmlns="http://www.w3.org/2000/svg" xmlns:xlink="http://www.w3.org/1999/xlink" x="0px" y="0px"
	 width="283.5px" height="250.2px" viewBox="0 0 283.5 250.2" style="enable-background:new 0 0 283.5 250.2;" xml:space="preserve"
	>
<path d="M230.1,141.9c0-6.9-3.2-12.3-8.1-16.6c-8.1-7.1-17.4-12.1-27.8-14.8c-12.8-3.3-25.6-2-38.5-0.7c-9.4,0.9-19.2,2.3-28.4,0.9
	c-8-1.2-15.4-1.1-22.8,1.4c-3.8,1.3-6.5-0.1-8.2-2.9c-8.3-14.2-11.6-29.7-11.8-45.3c4.8,0.3,9.4,1.4,13.5,0.5
	c4.5-1,8.8-3.7,8.9-10.5c-8.6,0.6-16.9,1.1-26.3,1.8c3.6-6.6,6.3-11.7,12.8-14.3c8.3-3.3,15.4-8.2,17-18c0.7-4.4,0.9-8.8-2.5-13.2
	c-0.6,5.3-1.2,9.9-1.9,15.7c-2.2-3.1-3.3-4.7-4.5-6.3c-0.4,0.2-0.9,0.3-1.3,0.5c0.4,1.9,1.3,3.9,1.1,5.7c-0.3,2.7-0.6,6.8-2.4,7.8
	c-7.4,4.4-14.8,8.7-19.4,17.8c-0.3-3.3-0.4-5-0.6-6.8c-4.7,10.9-12.5,3.1-18.7,4.3c-0.5-2.9-0.9-5.2-1.4-8.3c-1.2,1.3-1.9,2-1.8,1.9
	c-3.9-5-7.7-10.4-12-15.4c-3.2-3.6-3.9-6.9-0.9-10.9c1-1.3,1.6-3.1,2.3-4.6c-0.3-0.2-0.6-0.4-1-0.6c-1.7,1.2-3.4,2.5-6.5,4.6
	c1.4-6,2.4-10.5,3.4-14.9C42,0.5,41.5,0.2,41.1,0c-1.4,2.6-3.2,5.1-4.1,7.9c-3.7,11.2,1.7,19.2,9.8,25.9c5,4.1,7.1,9.3,7.6,15.4
	c-10.1,3.8-16.2-5.2-25-7c1.5,4.3,3.3,8.3,5.9,11.6c3.5,4.4,8.4,5.3,14.4,2.8c-1.1,7.7-0.9,14.1,3.9,19.4c0.9,1,1.1,3,1.2,4.6
	c0.1,4.6,0.1,9.2,0,13.8c-0.1,6,1.4,7.6,7.3,7.9c1.3,0.1,2.7,0,4.7,0c-2.9,25.5,5.8,45.6,28.6,59.7c-6.2,3.4-10.7,6.1-15.4,8.5
	c-4.4,2.3-6,5.9-5.6,10.5c0.6,8.1,1.2,16.2,2,24.3c1,9.7,7.8,14.6,17.8,13c0.6-7.5,0-8.2-7-10.2c-1.1-0.3-2.5-2-2.6-3.1
	c-0.4-6.3-0.3-12.7-0.5-19.1c-0.1-3.5,1.3-5.5,4.8-6.5c8.1-2.1,16.1-4.6,25.1-7.1c0.5,6.3,1.3,12.3,1.5,18.2
	c0.5,17.7,0.5,35.4,1.1,53.1c0.3,7.5,1.1,7.7,9,5.2c-6.1-14.5-1.2-29.2,0.2-43.7c1.2-13.1,7.8-25.5,5.8-39.3
	c12.5,12,26.6,5.7,39.5,5.1c4.6,5.3,9,10.4,13.4,15.4c-2.9-1.9-5.9-3.8-9.5-6.2c0.7,5.6,0.8,10.9,2.1,15.9c1.2,4.7,0.5,8.8-0.6,13.3
	c-2.5,10.2-4.4,20.6-6.4,31c-0.6,3.3,1.1,4.4,4.2,4.2c3.2-0.1,3.1-1.7,3.5-4.4c1.4-9,1.6-18.9,5.8-26.4c3.9-7,6.6-13.9,8.3-21.5
	c11.5,4.7,19.1,12.5,20.4,25.3c0.5,4.8,0.8,9.5,1.3,14.3c0.6,5.2,1.4,10.4,2.2,16.1c3.4-0.7,6-1.2,8.6-1.7
	c-1.3-5.8-3.1-10.9-3.5-16.1c-0.5-7.4-0.1-14.8,0.2-22.2c0.4-8.2,0.1-16-6-22.7c-1.9-2-3.1-5.5-3.1-8.3c0-4.2,0.5-8.8,2.3-12.6
	c2.8-5.9,6.8-11.3,10.3-17.1C229.1,149.1,230.1,148.4,230.1,141.9"/>
</svg>
