<?xml version="1.0" encoding="utf-8"?>
<!-- Generator: Adobe Illustrator 20.1.0, SVG Export Plug-In . SVG Version: 6.00 Build 0)  -->
<!DOCTYPE svg PUBLIC "-//W3C//DTD SVG 1.1//EN" "http://www.w3.org/Graphics/SVG/1.1/DTD/svg11.dtd">
<svg version="1.1" id="Ebene_1" xmlns="http://www.w3.org/2000/svg" xmlns:xlink="http://www.w3.org/1999/xlink" x="0px" y="0px"
	 width="283.5px" height="227px" viewBox="0 0 283.5 227" style="enable-background:new 0 0 283.5 227;" xml:space="preserve">
<path d="M138.9,140.3c0.4,1.2,0.5,2.2,1,3c2.7,5.6,5.1,11.5,8.4,16.8c3.6,5.7,7.7,11.2,12.2,16.3c2.6,2.9,6.2,4.9,9.6,6.9
	c2.2,1.3,3,2.5,1.5,4.8c-1.4,2.1-2.5,4.5-4.1,6.5c-3.6,4.9-6.9,10.4-13.1,12.5c-3.9,1.4-3.5,4.1-2.5,7c0.9,2.4,8.5,5,10.9,4.2
	c4.2-1.4,6.2-4.7,7.3-8.4c3.1-9.9,7.8-18.7,17.2-24.1c-1.5-2.1-2.7-4.2-4.2-6c-6.7-7.8-11.3-16.6-15.4-26
	C162,141,152.7,134.7,138.9,140.3 M82.4,42.9c-7.1-4.3-13.3-8.1-19.6-11.9c-1-1.7-1.8-3.5-3-5c-3.3-4.6-6.2-9.8-13.3-8.9
	c-0.9,0.1-2.2-0.8-2.8-1.6c-3.4-5-6.6-10.1-10.1-15.4C32.1,1.4,30,3.1,28,4.8c-0.5,1.5-1.2,3-1.3,4.5c-0.2,3.4-0.1,6.7-0.1,10.9
	c-3.4-1.7-6-3-9.7-4.9c0,2.1-0.5,3.9,0.1,5.2c0.9,2.1,2.6,3.8,3.8,5.7c4.1,6.6,8.6,13,6.4,21.5c-1.8,7-3,14.1-4.6,21.9
	c2.5-1.8,4.4-3.2,6.3-4.5c-0.4,11.1-0.1,22,7,31.3c0.8-6.3,1.6-12.5,2.4-18.7c0.6-4.1,2.8-6.1,7.1-5.8c3.9,0.3,7.9,0.2,11.8,0.3
	c4.5,0.1,7.2-2,7.6-6.5c0.4-5.8,0.7-11.6,0.6-17.4c0-2.5-1-5-1.6-7.5c1.5,0.3,3,0.6,4.4,1C72.5,42.9,76.7,44.8,82.4,42.9
	 M244.3,176.3c-1.5-1.8-2.6-3.7-4.3-5c-7.5-5.9-14-13-18.1-21.5c-5.2-10.7-9.1-22-13.4-33.1c-4.1-10.7-7.6-21.3-16.5-29.6
	c-9.2-8.5-18.3-15.6-31.6-15.1c-4.3,0.1-8.7-0.4-13.1-1c-7.5-0.9-15-1.8-22.4-3.1c-8.8-1.6-17.5-3.6-26.2-5.6
	c-0.9-0.2-1.6-1.3-3.4-2.9c5.9,1.1,10.5,2.1,15.1,3c0.2-0.4,0.4-0.8,0.6-1.2c-0.8-0.6-1.5-1.3-2.4-1.7c-6.3-3-12.6-6.1-19-9
	c-3.4-1.5-7-5-10.7-0.3c-0.3,0.4-1.5,0.4-2.1,0.2c-2.8-1-5.6-2.1-8.4-3.2c0,1.8,0.1,3.9,0,6.1c-0.2,5-0.1,9.9-0.6,14.8
	c-0.7,5.7-4.6,8.8-9.6,8.4c-3.2-0.3-6.4-0.7-9.6-0.6c-2.1,0-4.5,0.3-6.1,1.4c-3.8,2.5-3.9,19.9-0.4,22.9c0.1,0.1,0.3,0.1,0.4,0.2
	c5.5,5.9,12.5,10.6,15.5,18.6c1.8,4.8,3.9,9.5,5.9,14.3c1.4-4.1,2.8-8.1,4.5-13.2c0.6,7.2,0.9,13.3,1.6,19.4
	c0.7,6.7,2.3,13.4,2.5,20.2c0.4,10.9-0.2,21.9-0.1,32.8c0,3.2-1.1,5.4-3.7,6.6c-3.5,1.5-7.2,2.5-10.8,3.6c-1.4,0.4-3.4,0.3-4.1,1.2
	c-1.5,1.9-2.7,4.3-3.1,6.6c-0.1,0.9,2,2.8,3.4,3.3c10.5,3.8,19.2,1,26.4-7.8c2.1-2.6,3-5.3,3.2-8.6c0.5-8.1,1.5-16.3,2.2-24.4
	c0.5-5.5,2.9-9.5,8.3-11.5c0.9-0.3,2-1.7,2.1-2.6c0.5-13.6,0.9-27.3,1.3-40.9c0-0.2,0.3-0.4,1-1.4c1,6.7,1.9,12.6,2.9,18.6
	c0.2,1.2,0.6,3.1,1.4,3.3c5.5,2,10.9,5.2,17.1,3c4.3-1.5,8.8-3.1,12.8-5.2c6.7-3.6,13.8-4.7,21.1-3.7c9,1.2,15,6.5,18.2,15.1
	c2.5,6.7,4.4,13.7,8.1,19.7c6.7,10.8,14.5,21.1,22,31.4c4.8,6.5,4.3,10.7-2.6,14.7c-0.7,0.4-1.4,0.9-2.1,1.5
	c-2.9,2.4-2.8,5.2-1.3,8.2c1.5,2.9,4,2.8,6.8,2.1c1.8-0.5,3.7-0.7,5.6-0.9c3.7-0.4,5.2-2.3,5.3-6.1c0.2-7.9-0.8-16.2,5.4-22.8
	c0.5-0.5-0.1-2.6-0.8-3.5c-1.3-1.7-2.9-3.1-4.6-4.4c-8.8-6.5-13.5-15.3-14.7-26.1c-0.3-2.4-1.3-4.8-1.5-7.2c-0.5-4.8-0.7-9.7-1-14.5
	c0.4-0.1,0.8-0.2,1.2-0.3c1,2.3,2.1,4.6,3.5,7.6c1.4-2.2,2.5-4,3.9-6.4c0.2,7.9-2.3,15.6,4,21.6c0.9-0.9,2-1.9,3.2-3
	c0.5,1.4,0.7,2.7,1.3,3.7c1.8,2.8,3.1,6.5,5.7,8.1C227.4,176.2,236.1,175.2,244.3,176.3"/>
</svg>
