<?xml version="1.0" encoding="utf-8"?>
<!-- Generator: Adobe Illustrator 20.1.0, SVG Export Plug-In . SVG Version: 6.00 Build 0)  -->
<!DOCTYPE svg PUBLIC "-//W3C//DTD SVG 1.1//EN" "http://www.w3.org/Graphics/SVG/1.1/DTD/svg11.dtd">
<svg version="1.1" id="Ebene_1" xmlns="http://www.w3.org/2000/svg" xmlns:xlink="http://www.w3.org/1999/xlink" x="0px" y="0px"
	 width="283.5px" height="181.8px" viewBox="0 0 283.5 181.8" style="enable-background:new 0 0 283.5 181.8;" xml:space="preserve"
	>
<path d="M163,42.9c1.3-3.8,2.3-6,2.6-8.3c0.1-0.9-1.3-2.9-2.2-3c-1.1-0.1-3.3,1.5-3.2,2C160.6,36.3,161.7,39,163,42.9 M154.6,150.3
	c-1.8,0.7-3.6,1.4-5.6,2.2c0.4,2.4,0.8,4.5,1.1,6.6C155.9,157.4,156.4,156.4,154.6,150.3 M142.9,18c-0.7,3-2.3,5.7-1.6,7.4
	c1,2.2,3.9,4.8,6,4.9c2.2,0.1,4.8-2.3,6.7-4.3c0.7-0.8-0.1-3.1-0.2-4.3c-2.7,2.1-4.5,4.7-6.4,4.7C141.8,26.5,146.4,21.1,142.9,18
	 M171.4,21.9c-1.8,2.9-1.3,5.6,1.7,7.6c3.3,2.2,7.4,1.5,9.5-1.7c2.2-3.5,2.2-6.6-1.5-9c-2.6,2.2,1.5,7.7-3.9,7.7
	C175.4,26.4,173.5,23.7,171.4,21.9 M134.9,10.9c-2.9-1.3-5.4-2.4-7.9-3.6c0.5-0.5,1-1.1,1.3-1.1c9.7,1.8,17.9-3.7,26.8-5.6
	c10.8-2.3,20.1,1.9,29.9,4.9c1.9,0.6,4,0.9,6,1.2c1.7,0.2,3.5,0,5.3,1.1c-2.4,1-4.9,2-7,2.8c2.5,5.2,5.4,10,7.3,15.1
	c1.3,3.3,2.7,7.1-0.9,10.5c-0.7,0.7,0.4,3.1,0.5,4.8c0.2,3.6,2.1,7.7-3,9.6c4.3,15.1,12.9,29.4,9.6,45.9c-1.4,7.1-4.1,13.9-6.3,20.9
	c-0.6,1.9-1.7,3.6-2.6,5.5c-0.8-0.7-1.6-1.3-2.3-2c0.3-2.6,0.7-5.1,1-7.7c-0.2-0.1-0.5-0.1-0.7-0.2c-1.5,3.5-2.6,7.1-4.4,10.4
	c-1.9,3.3-4.4,6.2-7.6,10.4c-0.7-3-1-4.2-1.3-5.5c-0.3,0.3-0.8,0.5-0.8,0.8c-1.6,7.5-7.2,11.7-13.2,15.6c-2,1.3-5.5,2.2-3.8,5.5
	c1.4,2.8,3.7,5.4,6.1,7.5c1.4,1.2,3.9,1,5.9,1.5c4.4,1.1,6.7,3.8,6.4,8.5c-1.6,0.6-3.2,1.4-4.7,1.5c-1.3,0.1-3.1-0.3-3.9-1.2
	c-5.3-6-8.2-6.7-17.1-2.6c3.6,1,7.1,2.1,10.7,2.9c4.5,1,7.3,3.4,8.2,8c0.5,2.6,0.1,4.2-3.1,2.9c-0.6-0.2-1.8-0.4-2-0.1
	c-2.4,4.5-4.3,1.6-5.9-0.6c-4.1-5.7-9-7.6-15.8-5.9c-2,0.5-3.9,1.3-5.9,1.8c-2,0.5-4,0.9-6.3,1.4c-1.1-3.4,1.2-6,3.6-6.7
	c7.6-2.2,8.6-6.8,6.1-13.3c-0.3-0.7,0-1.5,0-1.9c-12.7,2.3-25.2,4.5-38.2,6.8c1.6,0.7,2.7,1.1,3.7,1.5c2,4.3-4.4,11.3-9.6,11
	c-1.2-0.1-2.6-0.1-3.6,0.5c-4.9,2.6-7.1,2.3-9.8-0.4c-5.1,0-8.8,0.5-12.4-0.2c-2.4-0.5-3.2-2.6-1-5.1c4.4-5.2,8.5-10.6,12.9-15.9
	c0.8-1,2.4-1.9,3.6-1.9c15.1,0.1,27.7-6.3,39.4-14.7c-0.2-2.8-0.4-5.2-0.6-8.2c-1.6,10.7-10.2,13-17.9,16.2
	c-3.4,1.4-7.1,2.2-11.6,3.5c0.7-5.1,1.2-9.4,1.9-15.2c-1.8,4.1-3.2,6.8-4.2,9.8c-1.7,5.4-6,7.1-10.8,6.7c-7.8-0.6-15.6-2-23.4-3.2
	c-1.3-0.2-3.3-1.6-3.3-2.3c0.1-1.4,1.1-3.4,2.3-4c15.4-7.6,23.3-21.6,30.8-36c6.1-11.7,12.3-23.3,19.4-34.3c3.1-4.8,8.8-7.9,13.1-12
	c1.2-1.1,2.4-2.7,2.8-4.2c1.4-4.8,1.3-9.3-0.1-14.5C124.1,28,128.5,19.4,134.9,10.9"/>
</svg>
