<?xml version="1.0" encoding="utf-8"?>
<!-- Generator: Adobe Illustrator 20.1.0, SVG Export Plug-In . SVG Version: 6.00 Build 0)  -->
<!DOCTYPE svg PUBLIC "-//W3C//DTD SVG 1.1//EN" "http://www.w3.org/Graphics/SVG/1.1/DTD/svg11.dtd">
<svg version="1.1" id="Ebene_1" xmlns="http://www.w3.org/2000/svg" xmlns:xlink="http://www.w3.org/1999/xlink" x="0px" y="0px"
	 width="283.5px" height="205.7px" viewBox="0 0 283.5 205.7" style="enable-background:new 0 0 283.5 205.7;" xml:space="preserve"
	>
<path d="M155.4,203.6h8.7c0-1.4,0-2.7,0-3.9c0.1-8.2-1.2-16.6,0.5-24.4c3.1-15.1,2.4-29.4-4-44.4
	C160.6,155.6,160.4,175.2,155.4,203.6 M75.9,150.7c-0.6,1.5-0.8,3.6-0.2,5c1.6,3.4,3.9,6.5,5.6,9.9c5.3,11,10.4,22.1,15.6,33.2
	c2.8,6,3.3,6.4,10.2,5.5c-2.8-4.8-5.8-9.4-8.2-14.4c-3.3-6.8-6.5-13.8-8.9-21c-3.3-10.1,1.1-19.1,5.3-28c2.3-4.8,4.1-9.9,6.2-14.8
	c2.1-2.9,4.2-5.9,6.4-9.1c-5.6-1.6-10.5-2.9-15.7-4.3c-0.2,1.7-0.4,2.8-0.5,3.9c-0.5,0.1-1.2,0.2-1.4,0.5c-1.4,3.4-2.6,7-4.1,10.4
	C82.9,135.2,79.3,142.9,75.9,150.7 M233.1,35.1c-0.2,0.3-0.2,0.8-0.6,0.9c-2.5,0.7-4.4,0-6.6-1.7c-0.3-0.3-0.3-0.8-0.4-1.2
	c1.3-0.3,2.7-1,3.8-0.8C232.4,32.9,232.4,33.9,233.1,35.1 M157.5,66.2c-0.3,1.7-1,3.6-2.1,4.9c-0.7,1-2.3,1.5-3.6,1.6
	c-0.5,0-2-1.4-2-2.9c0.1-2.5,0.1-4.2,3.4-6.5c1.9-1.3,4.3,0.1,3.6-1C157.5,63.4,157.7,64.9,157.5,66.2 M149.5,84.7
	c0.7,0.2,1.6,1.1,1.9,2.8c0.4,2.5-2,5.5-4.5,5.9c-0.3,0-2.7-0.8-2.8-1.4c-0.8-4.3,1-5.5,2.3-6.8C146.9,84.8,148.6,84.5,149.5,84.7
	 M135.7,80.4c-0.9,2.1-1.7,6.9-5.1,5l-1.5-2c0.2-3.1,2.2-4.6,5.1-5C134.3,78.4,136.1,79.1,135.7,80.4 M129.5,63.9
	c-1.3,2.5-3,4.9-4.6,7.2c-0.3,0.4-1.8,0.4-2,0c-0.7-0.9-1.9-1.2-1.7-3.9c0.1-2.4,2.8-4.2,4.5-6.2c0.5-0.6,2.4-0.7,3.1-0.2
	C129.4,61.3,129.9,63.1,129.5,63.9 M121.1,88.8c0.3,2.5-2.7,6.6-4.4,6.4c-0.9-0.1-1.6-1.2-2-1.5c0-4,2.4-7.6,4.4-7.2
	C119.9,86.7,121,87.9,121.1,88.8 M110.7,79c-2.1,1-4.5-0.2-4.1-4.1c0.2-1.9,1.8-3.5,4.9-6.3c1.8-1.6,3.3-0.8,3.7,1.7
	C115.6,73.1,113.1,77.9,110.7,79 M99.3,60.3c-0.4,3.1-1,9.2-5.4,8.7c0.2,0-4.8-6.1,0.5-11.3c0.9-0.9,2.9-1.1,3.9-0.5
	C99.7,57.7,99.7,59.5,99.3,60.3 M89.2,79.5c-0.2,2.5-2.8,4.8-4.6,7.1c-0.4,0.5-2.1,0.6-2.8,0.2c-0.8-0.4-1.7-1.2-1.6-2.4
	c0.4-2.8,2.2-4.7,3.9-7.1c0.4-0.6,2.5-1.2,3.4-0.9C88.2,76.6,89.1,77.5,89.2,79.5 M73.3,69c-1,2.8-2.7,5.7-4.9,7.6
	c-1.8,1.6-4.4,0-4.2-2.9c0.2-2.3,3.3-5.1,5.3-7.3C70.6,65.1,74,67.2,73.3,69 M243.8,18c1.1-6.6,3.2-11.2-0.3-17.6
	c0.3,0.5-2,15.5-7.6,19.2c-0.5,0.3-3.7,0.5-4,0c-1.4-2.9-2.2-6-3.2-9c-1.1-3.4-3.4-5.8-6.9-8.2c1.2,4.6,2.5,8.2,3,11.9
	c0.5,3.2-3.1,7.9-6.2,9c-3-12.9-7.3-17.6-14.4-15.9c-2.2,7.4-0.6,13.2,6.1,17.8c1.8,1.2,5.2,2,4.5,5.9c-1.3,7.1-2.9,13.9-6.5,20.3
	c-4.8,8.6-16,12.3-24.4,8.9c-7.4-3-14.6-2.5-22.1-2.5c-8.7,0.1-17.4-0.4-26-1.6c-7.5-1-14.7-3.9-22.2-4.9c-7-1-14.3-0.7-21.4-0.8
	c-10.5-0.2-20.7,0.9-29.9,7c-6.6,4.4-11.9,9.4-10.9,18.2C51,77.1,50.2,78.5,50,80c-0.9,8.1-1.7,16.3-2.5,24.4c0.2,0,0.4,0,0.6,0.1
	c1.8-7,3.7-14.1,5.5-21.1c0.4,0,0.7,0,1.1,0c0.2,1,0.5,2.1,0.7,3.1c0.6,2.1,0.8,4.5,1.9,6.3c4,6.4,8.6,12.6,10.6,20
	c-0.4,9.5-6.4,16.6-10.7,24.3c-2.4,4.4-5.2,8.3-4.3,13.9c1.2,7,1.6,14.1,2.4,21.1c1.1,9.9,2.4,19.7,3.4,29.6c0.3,2.5,1.2,3.8,4,3.3
	c1.1-0.2,2.3-0.2,3.4-0.3c0-0.6,0.1-1,0-1.4c-1.9-9.7-4.2-19.4-5.6-29.2c-1.4-9.4,0.1-19,4.8-27.1c5-8.7,12.2-16.1,18.2-24.3
	c2.1-2.9,3.6-6.2,5.4-9.4c1.8-3.2,3.6-6.3,5.5-9.6c-0.4,2.4-0.8,4.7-1.3,7.3c6.1,1.6,11.9,3.8,17.8,4.5c6.5,0.8,13.2,0.4,19.8,0.5
	c5.4,0.1,10.9,0,16.3,0.7c3.2,0.4,6.3,2.2,9.6,3.4c0.1-1.8,0.2-3.2,0.3-4.6c0.4-0.1,0.9-0.1,1.3-0.2c2.4,7.4,5.3,14.6,7.1,22.1
	c2.4,10.1,4.4,20.4,5.9,30.8c0.9,6.5,0.8,13.3,0.6,19.9c-0.1,5-1,10-1.6,15h7.1c0-11.7,0.1-23,0-34.2c-0.1-6.9,0-13.8-0.7-20.6
	c-0.6-6-2.3-11.9-3.2-17.8c-0.7-4.5-1.2-8.5,2.8-12.6c8.7-8.9,17-17.9,27.8-24.5c5-3,9.6-7.1,13.4-11.6c3.7-4.4,6.2-9.9,9.1-15
	c1-1.8,2.5-3.7,2.4-5.5c-0.1-1.6-1.9-3.1-3.2-5c1,0.3,1.9,0.5,2.6,0.8c3.1,1.4,6.1,3.3,9.4,4.2c4.9,1.3,8.1-2,7.2-7
	c-0.5-2.7-1.4-5.3-1.8-8c-0.5-3.3-2.1-6.9,2.3-9.2c0.8-0.4,1-3.3,0.5-4.6c-1.6-3.9-1.3-7.1,1.9-8.2c7.6-2.6,12.3-8.6,16.6-14.7
	c1.9-2.7,2.4-6.3,3.6-9.8C257.9,3.8,249.7,9.1,243.8,18"/>
</svg>
