<?xml version="1.0" encoding="utf-8"?>
<!-- Generator: Adobe Illustrator 20.1.0, SVG Export Plug-In . SVG Version: 6.00 Build 0)  -->
<!DOCTYPE svg PUBLIC "-//W3C//DTD SVG 1.1//EN" "http://www.w3.org/Graphics/SVG/1.1/DTD/svg11.dtd">
<svg version="1.1" id="Ebene_1" xmlns="http://www.w3.org/2000/svg" xmlns:xlink="http://www.w3.org/1999/xlink" x="0px" y="0px"
	 width="283.5px" height="148.3px" viewBox="0 0 283.5 148.3" style="enable-background:new 0 0 283.5 148.3;" xml:space="preserve"
	>
<g>
	<path d="M162.4,62.2c-0.2,0.5-0.4,0.9-0.6,1.3c4.3,2.9,4.5,7,4.1,11.5c-0.4,4-0.9,8.2-0.1,12c1.6,7.5,8.4,10.7,15.7,8.1
		c0.5-0.2,1.4-0.2,1.8,0.2c3.4,3,5.4,1.5,6.7-2.4c1.8,2.5,2.9,5.9,6.9,3.3c-1.6-4.8-5.2-5.4-9.3-5.4c-6.1-0.1-7.5-2.4-5.3-7.9
		c0.9-2.2,2-4.6,1.8-6.8c-0.2-2.6-1-5.6-2.6-7.4c-1.6-1.8-4.5-2.7-7-3.5C170.6,63.9,166.5,63.2,162.4,62.2 M260.8,64.6
		c0.1,3.5,0,7-1.2,10.7c-0.6-2.4-1-4.9-1.7-7.2c-0.8-2.5-1.8-4.8-2.9-7.8C259,58.5,260.6,59.4,260.8,64.6 M278.8,35.2
		c-4.6,0.3-9.2,1-13.8,1.6c-3.9-1.5-7.8-2.9-11.7-4.3c0.5,2.2,1,4.7,1.6,7.2c-0.5,0.2-0.9,0.3-1.4,0.5c-0.8-1.5-1.5-3.1-2.4-4.6
		c-3.4-6.1-5.5-6.9-12.1-5c-0.9,0.3-2,0.4-3,0.3c-6.3-0.7-13,1.8-19.1-1.9c-0.8-0.5-2.1,0.1-3.2,0.2c0.2,2.8,0.3,5.1,0.4,6.8
		c-2.4-3.1-4.5-7-7.6-9.6c-5.4-4.4-11.4-8-17.2-11.9c-8.2-5.5-17-9.9-26.8-11.4c-14.2-2.1-28.1-0.4-40.7,7.3
		c-5.8,3.5-10.5,8.1-15.2,13.2c-9.4,10.2-14.1,22-15.9,35.1c-1.5,11-7.8,18.5-16.8,23.3c-9.3,5-19.4,8.5-30.1,9.9
		c-8.1,1-16.2,2.6-24.1,4.5C7,99.4-1,119.7,6.9,129.2c3.3,4,6.5,8.3,10.5,11.6c6.4,5.4,13.7,8.7,22.8,6.9c-0.3-1.1-0.2-2.2-0.8-2.8
		c-3.1-3.4-6.2-6.7-9.4-9.9c-5.1-5.1-6.1-11.6-1.9-15.7c1.3-1.3,3.3-2.3,5.1-2.7c9-1.8,18.2-3,27.2-5.1c6.2-1.5,12.6-3.4,18-6.7
		c4.7-2.9,8.5-7.7,11.6-12.3c2.5-3.6,3-8.4,5-12.3c1.4-2.7,3.9-4.8,5.9-7.1c0.3,2.8,1.2,5.6,0.9,8.3c-0.7,5.8,0.8,9.1,5.6,11.9
		c4,2.4,7.9,5.2,11.6,8c5.8,4.3,12,6.7,19.2,6.2c0.4-2.1,0.6-3.7,0.9-5.3c0.4,0,0.8,0,1.2,0c0.7,1.3,1.4,2.7,2.6,4.8
		c1.3-2.2,2.4-3.9,3.4-5.7c0.8,0.8,1.5,1.6,2.3,2.5c3.4-5,3.3-5.7-1.8-7.5c-4.9-1.7-9.9-3-14.7-4.7c-1.4-0.5-3.5-1.7-3.6-2.6
		c0-1.5,1.2-3.2,2.2-4.6c0.4-0.6,1.5-0.8,2.1-1.3c5.8-4.8,12.3-9,17.1-14.6c9.3-10.7,25-12,34.6-1.3c4,4.5,6.5,10.5,9.7,15.7
		c4,6.6,7,14.4,16.3,15c5.8,0.4,11.7,0.1,17.2,0.1c0.8-2.6,1.2-4.1,1.6-5.6c0.3,0,0.6,0,1,0c0.4,1.4,0.9,2.8,1.1,3.4h5.7
		c1.2-2.5,1.7-4.6-2-5.6c-3.8-1-7.5-2.7-11.4-3.4c-9.2-1.7-12.6-7.6-9-16.3c1-2.5,5.1-5.4,7.5-5.2c-0.3,0.6-0.6,1.2-1,1.7
		c-1,1.5-2.1,2.9-3.2,4.4c1.6,0.6,3.3,1.7,4.9,1.7c5.2-0.2,10.5-0.4,15.6-1.3c8.1-1.4,8.9-1.3,13.7,5.6c1.2,1.8,2.5,3.5,4,5
		c3.1,3.4,9,2.6,10.6-1.3c4.2-10.1,8.2-20.3,12.4-30.5c1.7-3.1,3.8-6.1,4.9-9.4C285.1,37.3,282.8,35,278.8,35.2"/>
</g>
</svg>
