<?xml version="1.0" encoding="utf-8"?>
<!-- Generator: Adobe Illustrator 21.0.0, SVG Export Plug-In . SVG Version: 6.00 Build 0)  -->
<!DOCTYPE svg PUBLIC "-//W3C//DTD SVG 1.1//EN" "http://www.w3.org/Graphics/SVG/1.1/DTD/svg11.dtd">
<svg version="1.1" id="Ebene_1" xmlns="http://www.w3.org/2000/svg" xmlns:xlink="http://www.w3.org/1999/xlink" x="0px" y="0px"
	 width="283.5px" height="104px" viewBox="0 0 283.5 104" style="enable-background:new 0 0 283.5 104;" xml:space="preserve">
<path d="M182.3,45.4c2.7-2.6,5.7-3.7,9.1-3.6c3.4,0.1,6.3,1.3,8.3,4.1c0.4,0.5,0.5,0.5,0.9,0c3.6-3.9,8-4.8,13-3.7
	c4.7,1,7.9,5,8.2,9.8c0.2,2.9,0.1,5.7,0.1,8.6c0,4.4,0,8.8,0,13.2c0,0.7-0.2,0.9-0.8,0.8c-1.6,0-3.2-0.1-4.8,0
	c-0.7,0-0.9-0.2-0.9-0.9c0-6.3,0-12.5,0-18.8c0-1.5-0.2-3-0.9-4.3c-1.3-2.3-3.7-3.4-6.8-2.9c-2.7,0.4-4.7,2.2-5.3,4.9
	c-0.1,0.6-0.2,1.2-0.2,1.9c0,6.4,0,12.7,0,19.1c0,1-0.3,1.1-1.1,1.1c-1.5-0.1-3-0.1-4.5,0c-0.8,0-1-0.2-1-1c0-6.4,0-12.7,0-19.1
	c0-0.8-0.1-1.6-0.3-2.3c-0.8-3.1-3.4-4.9-6.6-4.7c-3.4,0.2-5.8,2.3-6.2,5.5c-0.1,0.7-0.2,1.5-0.2,2.3c0,6.1,0,12.2,0,18.3
	c0,0.7-0.1,1-0.9,0.9c-1.6-0.1-3.3,0-4.9,0c-0.6,0-0.8-0.1-0.8-0.7c0-10.4,0-20.7,0-31.1c0-0.6,0.2-0.7,0.8-0.7c1.7,0,3.3,0,5,0
	c0.6,0,0.7,0.2,0.7,0.7C182.3,43.7,182.3,44.4,182.3,45.4z"/>
<path d="M50.5,88.6c0,4.8,0,9.7,0,14.5c0,0.7-0.2,0.9-0.9,0.9c-9.5-0.5-18.3-3.3-26.3-8.6c-0.5-0.3-0.5-0.5-0.1-0.9
	c5.7-7.9,11.5-15.8,17.2-23.7c0.4-0.5,0.6-0.5,1.1-0.2c2.5,1.5,5.3,2.4,8.2,2.6c0.7,0.1,0.8,0.3,0.8,1C50.5,79,50.5,83.8,50.5,88.6z
	"/>
<path d="M104.1,52.1c0,4.6-0.6,9.2-1.8,13.6c-0.2,0.7-0.4,0.8-1.1,0.6c-9.2-3-18.4-6-27.6-9c-0.6-0.2-0.8-0.5-0.6-1.1
	c0.6-2.8,0.6-5.7,0-8.5c-0.1-0.7,0-0.9,0.7-1.1c9.2-3,18.4-6,27.6-9c0.7-0.2,0.8,0,1,0.6C103.4,42.3,104.1,47.3,104.1,52.1z"/>
<path d="M0,49.9c0-2.5,0.6-7.1,1.8-11.6c0.2-0.6,0.3-0.9,1-0.6c9.2,3,18.5,6,27.7,9c0.6,0.2,0.8,0.4,0.6,1c-0.6,2.9-0.6,5.7,0,8.6
	c0.1,0.6,0.1,0.9-0.6,1.1c-9.3,3-18.5,6-27.8,9c-0.6,0.2-0.8,0-1-0.5C0.7,61.7,0,56.7,0,49.9z"/>
<path d="M72.1,60.1c0.9,0.3,1.8,0.5,2.6,0.8c8.5,2.8,17,5.5,25.5,8.3c0.7,0.2,0.8,0.5,0.5,1.1c-3.4,8.9-8.8,16.3-16.2,22.3
	c-0.5,0.4-0.7,0.3-1.1-0.2C77.8,84.6,72,76.7,66.3,68.9c-0.3-0.4-0.4-0.6,0-1c2.2-2,4-4.4,5.2-7.1C71.6,60.5,71.7,60.1,72.1,60.1z"
	/>
<path d="M38.2,68.5c-0.1,0.1-0.2,0.3-0.3,0.4c-5.7,7.9-11.5,15.8-17.2,23.7c-0.4,0.5-0.6,0.5-1,0.1c-7.4-6-12.9-13.4-16.3-22.4
	c-0.2-0.6-0.1-0.7,0.5-0.9c9.3-3,18.6-6,27.8-9.1c0.5-0.2,0.7-0.1,0.9,0.4c1.2,2.8,3,5.2,5.2,7.2C37.9,68.1,38.2,68.2,38.2,68.5z"/>
<path d="M100.9,34.1c0,0.4-0.4,0.4-0.7,0.5c-5.1,1.7-10.3,3.4-15.4,5c-4,1.3-8.1,2.6-12.1,3.9c-0.6,0.2-1,0.2-1.3-0.5
	c-1.2-2.7-2.9-5.1-5.2-7c-0.5-0.4-0.2-0.7,0-1.1c3.8-5.2,7.5-10.3,11.3-15.5c1.9-2.6,3.9-5.3,5.8-7.9c0.4-0.5,0.6-0.7,1.2-0.2
	c7.3,5.9,12.7,13.3,16.1,22.1C100.8,33.7,100.9,33.9,100.9,34.1z"/>
<path d="M53.6,88.7c0-4.9,0-9.7,0-14.6c0-0.6,0.2-0.9,0.8-0.9c3-0.3,5.7-1.2,8.3-2.7c0.5-0.3,0.8-0.2,1.1,0.2
	c5.7,7.9,11.4,15.7,17.2,23.6c0.4,0.5,0.4,0.8-0.2,1.2c-6.3,4.1-13.2,6.8-20.7,8c-1.9,0.3-3.7,0.5-5.6,0.6c-0.7,0-0.8-0.2-0.8-0.8
	C53.7,98.4,53.6,93.5,53.6,88.7z"/>
<path d="M38.1,35.6c0,0.3-0.2,0.4-0.4,0.5c-2.2,2-4,4.4-5.2,7.1c-0.3,0.7-0.6,0.6-1.2,0.4c-7.9-2.6-15.7-5.1-23.6-7.7
	c-1.3-0.4-2.7-0.9-4-1.3c-0.7-0.2-0.7-0.5-0.5-1.1c3.1-8.2,8-15.2,14.7-21c0.5-0.4,1.1-0.8,1.5-1.3c0.5-0.5,0.8-0.4,1.2,0.2
	c3.1,4.3,6.2,8.6,9.4,12.9c2.6,3.5,5.1,7,7.7,10.5C37.9,35.2,38,35.4,38.1,35.6z"/>
<path d="M50.4,15.4c0,4.8,0,9.6,0,14.5c0,0.7-0.2,0.9-0.8,1c-2.9,0.3-5.6,1.2-8.2,2.7c-0.5,0.3-0.8,0.2-1.1-0.2
	c-5.7-7.9-11.4-15.7-17.1-23.5c-0.4-0.6-0.4-0.8,0.2-1.2c6.8-4.4,14.2-7.2,22.2-8.1c1.2-0.1,2.4-0.2,3.7-0.4
	c0.9-0.1,1.2,0.1,1.2,1.1C50.4,5.9,50.4,10.6,50.4,15.4z"/>
<path d="M53.7,15.2c0-4.8,0-9.5,0-14.3c0-0.7,0.1-1,0.9-1c9.5,0.5,18.3,3.3,26.2,8.6c0.4,0.3,0.5,0.5,0.2,0.9
	c-5.7,7.9-11.5,15.8-17.2,23.7c-0.3,0.4-0.6,0.6-1.1,0.3c-2.6-1.5-5.3-2.4-8.3-2.7c-0.7-0.1-0.7-0.5-0.7-1
	C53.7,24.9,53.7,20.1,53.7,15.2z"/>
<path d="M246.7,71.6c-3.4,3.2-7.2,4.1-11.5,3.3c-5-1-8.2-4.9-8.3-10.3c-0.1-7.2,0-14.4-0.1-21.6c0-0.5,0.1-0.7,0.7-0.7
	c1.7,0,3.3,0.1,5,0c0.7,0,0.9,0.2,0.9,0.9c0,6.2,0,12.5,0,18.7c0,1,0.1,2.1,0.4,3.1c0.9,2.9,3.1,4.4,6.6,4.3c3-0.1,5.3-2,6-4.8
	c0.2-0.7,0.2-1.5,0.2-2.2c0-6.3,0-12.7,0-19c0-0.8,0.2-1,0.9-0.9c1.7,0.1,3.3,0,5,0c0.5,0,0.7,0.1,0.7,0.7c0,10.4,0,20.8,0,31.2
	c0,0.6-0.2,0.7-0.7,0.7c-1.7,0-3.4,0-5.1,0c-0.5,0-0.7-0.1-0.7-0.7C246.7,73.3,246.7,72.5,246.7,71.6z"/>
<path d="M269.1,75.1c-3.8,0-7.5-0.5-10.7-2.7c-0.7-0.5-1.4-1-2.1-1.6c-0.4-0.3-0.4-0.5,0-0.9c1.2-1.1,2.3-2.2,3.4-3.4
	c0.4-0.4,0.6-0.3,1,0c3.7,3.1,8,3.6,12.5,2.4c2.7-0.7,3.9-2.7,3.3-5c-0.4-1.6-1.7-2.5-3.8-2.7c-2.5-0.2-4.9-0.5-7.4-0.7
	c-0.7-0.1-1.3-0.2-1.9-0.4c-3.3-1.1-5.4-3.2-5.8-6.7c-0.5-3.7,0.6-6.9,3.7-9.1c2.8-2,6.1-2.5,9.5-2.4c3.3,0.1,6.4,0.7,9.3,2.4
	c1.8,1.1,1.8,1.1,0.4,2.6c-0.8,0.8-1.6,1.6-2.3,2.4c-0.3,0.3-0.5,0.4-1,0.1c-3.1-2-6.5-2.5-10.1-1.7c-1.6,0.3-2.8,1.3-3.1,2.9
	c-0.5,2.3,0.8,4.1,3.4,4.4c2.5,0.3,5,0.5,7.5,0.8c2.4,0.3,4.7,1.1,6.3,3.1c3.9,4.6,2,12.1-3.7,14.7
	C274.7,74.8,271.9,75.1,269.1,75.1z"/>
<path d="M158.2,57.5c0-3,0-5.9,0-8.9c0-0.6-0.1-0.8-0.8-0.8c-0.8,0.1-1.6,0-2.5,0c-0.4,0-0.6-0.1-0.5-0.5c0-1.3,0-2.6,0-4
	c0-0.5,0.2-0.6,0.6-0.6c0.8,0,1.6,0,2.4,0c0.7,0.1,0.8-0.2,0.8-0.8c0-2.7,0-5.5,0-8.2c0-0.6,0.1-0.8,0.8-0.8c1.7,0,3.4,0,5.1,0
	c0.6,0,0.7,0.2,0.7,0.7c0,2.7,0,5.4,0,8.1c0,0.8,0.1,1,1,1c1.5-0.1,3,0,4.5,0c0.7,0,0.8,0.2,0.8,0.8c0,1.2-0.1,2.3,0,3.5
	c0,0.6-0.2,0.8-0.8,0.8c-1.6,0-3.2,0-4.8,0c-0.5,0-0.7,0.1-0.7,0.7c0,5.7,0,11.4,0,17.1c0,2.2,1.2,3.4,3.4,3.5c0.8,0,1.5,0,2.3,0
	c0.5,0,0.7,0.1,0.7,0.6c0,1.5,0,3,0,4.4c0,0.3,0,0.6-0.4,0.6c-2.2-0.1-4.5,0.2-6.7-0.4c-3.5-1.1-5.7-4.2-5.8-8.1
	C158.2,63.3,158.2,60.4,158.2,57.5z"/>
<path d="M127,48.4c0-6.1,0-12.2,0-18.3c0-0.7,0.1-1,0.9-0.9c1.6,0.1,3.2,0.1,4.7,0c0.8,0,1,0.3,1,1c0,11.3,0,22.6,0,33.9
	c0,0.3,0,0.7,0,1c0,3.1,0.9,4.1,4,4.1c0.7,0,1.7-0.3,2.2,0.1c0.5,0.5,0.1,1.4,0.1,2.2c0,0.9,0,1.8,0,2.7c0,0.3,0,0.6-0.4,0.5
	c-2-0.1-4.1,0.2-6.1-0.3c-3.9-0.8-6.3-4-6.4-8.4C127,60.2,127,54.3,127,48.4z"/>
<path d="M144,58.5c0-5.1,0-10.2,0-15.3c0-0.9,0.3-1,1.1-1c1.6,0.1,3.1,0,4.7,0c0.6,0,0.8,0.1,0.8,0.8c0,10.4,0,20.7,0,31.1
	c0,0.6-0.2,0.7-0.8,0.7c-1.7,0-3.3,0-5,0c-0.7,0-0.8-0.2-0.8-0.9C144,68.8,144,63.6,144,58.5z"/>
<path d="M147.3,28.9c0.9,0,1.8,0,2.6,0c0.5,0,0.8,0.1,0.8,0.7c0,1.8,0,3.7,0,5.5c0,0.5-0.1,0.8-0.7,0.8c-1.9,0-3.7,0-5.6,0
	c-0.5,0-0.7-0.1-0.7-0.6c0-1.9,0-3.8,0-5.8c0-0.5,0.2-0.6,0.6-0.6C145.4,28.9,146.3,28.9,147.3,28.9z"/>
</svg>
