<?xml version="1.0" encoding="utf-8"?>
<!-- Generator: Adobe Illustrator 21.0.0, SVG Export Plug-In . SVG Version: 6.00 Build 0)  -->
<!DOCTYPE svg PUBLIC "-//W3C//DTD SVG 1.1//EN" "http://www.w3.org/Graphics/SVG/1.1/DTD/svg11.dtd">
<svg version="1.1" id="Ebene_1" xmlns="http://www.w3.org/2000/svg" xmlns:xlink="http://www.w3.org/1999/xlink" x="0px" y="0px"
	 width="283.5px" height="201.1px" viewBox="0 0 283.5 201.1" style="enable-background:new 0 0 283.5 201.1;" xml:space="preserve"
	>
<g>
	<path d="M230.6,170c-3.2-3.7-10.5-4.1-15.5-0.5c-1.5,1.1-4.3,2.2-2.9,4.6c1.8,3,3.3-0.2,4.8-1c0.9-0.5,1.7-1.2,2.7-1.5
		c2.7-0.8,5.5-0.9,7.4,1.7c1.8,2.5,1,5-0.7,7c-1.7,2.1-3.8,3.8-5.9,5.6c-3.7,3.2-7.5,6.4-11.3,9.5c-1.3,1.1-2,2.4-1.6,4
		c0.5,1.9,2.2,1.1,3.5,1.2c5.1,0.1,10.2,0,15.3,0c1.6,0,2.6-0.6,2.6-2.4c0-1.8-1.3-1.7-2.5-1.7c-3.6,0-7.1,0-12.3,0
		c5.3-4.5,9.6-7.9,13.7-11.7C232.9,180.4,233.9,173.9,230.6,170z"/>
	<path d="M26.4,167.3c-2.5-0.4-1.9,2.3-2.2,3.7c-1.3,7.5-2.4,15-3.8,23.9c-0.9-2-1.2-2.6-1.5-3.2c-3.1-7.4-6.1-14.7-9.1-22.1
		c-0.6-1.4-1-2.9-3.1-2.7c-2,0.2-1.7,1.7-1.9,3c-1.4,9.2-2.9,18.4-4.3,27.7c-0.2,1-1.2,2.5,0.7,2.9c2.1,0.5,1.9-1.4,2.2-2.6
		c0.2-1,0.3-2,0.4-3c1.1-7,2.3-14,3.4-21c4.3,8.1,7.7,16.2,11.1,24.3c0.5,1.2,0.9,2.6,2.7,2.4c2-0.2,1.8-1.7,2-3
		c1.4-8.7,2.8-17.4,4-26.2C27.3,170.2,28.8,167.8,26.4,167.3z"/>
	<path d="M163.5,176.3c-2.9,0-6.1,0.5-4.6-4.3c0.3-0.8,0.1-1.7-1.1-1.8c-1.3-0.1-1.7,0.7-2,1.8c-0.3,1.5,0.5,3.8-1.9,4.1
		c-2.5,0.3-5.2,0.5-7.6-0.1c-2.3-0.6-0.3-2.9-0.7-4.4c-0.1-0.5-0.3-1.3-0.5-1.3c-4.4-0.1-1.3,7.5-6.7,6.6c-0.2,0-0.8,1.9,0.2,2
		c4.5,0.6,2.2,3.5,2,5.6c-0.4,3.2-1.1,6.4-1.3,9.6c-0.4,5.2,4.7,8.3,9.4,6.1c0.9-0.4,2-0.8,1.5-2.2c-0.5-1.4-1.3-1-2.4-0.7
		c-4.4,1.2-6-0.7-5.2-5.1c0.5-2.8,1.1-5.7,1.3-8.5c0.2-3.7,1.8-5.2,5.6-4.2c5.3-1.5,5.8,1.1,4.6,5.5c-0.8,3.1-1.1,6.3-1.4,9.5
		c-0.2,2.3,0.6,4.4,2.9,5.5c2.3,1.1,4.6,1,6.9,0c0.8-0.3,1.5-0.8,1.1-1.9c-0.3-0.8-0.7-1.1-1.8-1.1c-6.3,0.2-6.5-0.1-5.6-6.2
		c0.3-1.8,0.8-3.7,0.9-5.5c0.2-4.3,1.5-7.1,6.6-6.1c1.3,0.2,3,0.3,2.9-1.7C166.1,175.7,164.5,176.3,163.5,176.3z"/>
	<path d="M239.1,174.3c-2.3,5.9-2.8,12.2-3.1,18.4c-0.1,3.1,1.5,5.5,4.4,6.9c8,3.9,16.7-0.2,18.4-8.9c1.8-9.2,1.8-7.1-5.8-7.3
		c-1.5,0-4-1-4.2,1.4c-0.2,2.9,2.5,1.2,3.8,1.5c1.1,0.3,2.3,0.2,3.5,0.3c0,2.6-0.5,4.9-1.7,6.9c-2.5,4.2-6.5,4.7-10.7,3.8
		c-4.2-0.9-4.9-4.2-4.4-7.9c0.6-4.2,1-8.5,2.1-12.5c2-7,10.1-9.3,15.4-4.5c1,0.9,1.8,3.2,3.5,1.4c1.3-1.4-0.4-2.8-1.3-3.8
		C253.8,164.3,242.1,166.6,239.1,174.3z"/>
	<path d="M83.8,176.5c-0.8-0.4-1.9-0.4-2.3,0.3c-0.8,1.3-1.4,2.7-2,4.1c-2.1,4.6-4.2,9.3-6.8,15.2c-0.9-6.7-1.5-11.8-2.3-16.8
		c-0.2-1,0.3-2.6-1.3-2.9c-1.8-0.4-2.3,1-2.8,2.2c-2.5,5.4-4.9,10.8-8.1,17.6c-0.9-6.6-1.5-11.8-2.3-16.9c-0.2-1.2,0.4-3.1-1.8-2.9
		c-2.3,0.2-1.3,2-1.1,3.1c0.8,5.9,1.6,11.8,2.6,17.6c0.2,1.3-0.7,3.3,1.7,3.6c2.4,0.3,2.7-1.7,3.3-3.2c2.3-4.9,4.5-9.8,7.3-16
		c0.8,6.4,1.5,11.4,2.2,16.3c0.2,1.1,0,2.5,1.6,2.8c1.1,0.2,1.9-0.2,2.5-1.3c3.3-7.1,6.6-14.1,9.8-21.2
		C84.2,177.7,84.7,176.9,83.8,176.5z"/>
	<path d="M100.4,177.6c-3.9-2-7.9-1.9-11.7,0.2c-2.8,1.6-4.1,4.2-3.4,7.3c0.9,4.1,4.6,3.8,7.6,4.5c2.1,0.4,4.7,0.7,4.5,3.8
		c-0.1,3-2.6,3.8-4.9,4.2c-1.6,0.3-3.3,0-5-0.4c-1.5-0.3-3.5-3.5-4.5-0.4c-0.7,2.3,2.3,2.8,4.1,3.4c1.3,0.4,2.6,0.5,2.9,0.5
		c1.7,0,2.2,0.1,2.7,0c4.2-0.7,7.5-2.5,7.8-7.3c0.4-5-3.3-5.6-7-6.3c-0.7-0.1-1.3-0.2-2-0.4c-1.7-0.4-3.4-0.9-3.3-3.2
		c0-2,1.2-3.1,2.9-3.7c2.7-1,5.3-0.9,7.9,0.3c1,0.5,2,0.5,2.5-0.7C102,178.5,101.1,177.9,100.4,177.6z"/>
	<path d="M111.6,165.8c-2.1-0.3-1.8,1.5-2,2.7c-1.6,9.7-3.2,19.3-4.7,29c-0.2,1.1-1.2,3,1.1,3.1c2,0.1,1.7-1.7,1.9-3
		c1.6-9.7,3.1-19.4,4.7-29.5C112.4,167.6,113.5,166.1,111.6,165.8z"/>
	<path d="M204.7,176.8c-5-2.1-10.7,0.5-12,5.9c-1.2,4.9-1.7,10-2.6,15.3c0.5,0.7-1,2.3,1,2.6c2,0.3,1.9-1.5,2.1-2.7
		c0.7-4,1.3-8,2-12c1.1-5.9,3-7.2,8.7-6.1c1.2,0.2,2.4,1,2.8-0.7C207.2,177.5,205.7,177.3,204.7,176.8z"/>
	<path d="M186.4,157.6c2.5-0.1,5-1,7.4-1.8c1.5-0.4,2.9-1.2,2.6-3.2c-0.3-1.8-1.7-1.8-3.1-2c-3.4-0.4-6.6-1.4-9.8-2.5
		c-3.3-1.1-4.3-2.8-3-6.4c3.8-10.5,7.4-21.1,10.1-32c2.2-9.2,0.8-13.5-6.7-18.9c-7.1-5.1-7-5-3.3-13.3c7.7-17.3,15.8-34.5,21.5-52.7
		c1.5-4.9,0.7-8.3-4-11.1c-9.7-5.6-19.8-10.2-30.6-13.4c-3.7-1.1-6-0.4-8,3c-12,21.3-22.2,43.4-30.8,66.3c-1.3,3.3-0.8,6,2.4,7.8
		c1.4,0.8,2.5,1.6,2.1,3.5c-0.7,4.3,1,8,3.3,11.4v0v0c-0.2,0.3-0.2,0.6-0.1,1c-1.7,6.4-3.4,12.8-5,19.2c-0.6,2.4-1.7,3.5-4.2,3.1
		c-9.9-1.6-20.2-0.4-28.7-8.1c-4.8-4.3-9.8-1.6-10.8,5c-0.7,4.7-1.1,9.5-1.1,14.2c0,3.4,0.5,6.8,1.2,10.1c0.3,1.5,0.7,3.6,3.1,3.4
		c2.1-0.1,2.1-1.9,2.5-3.3c0.5-2,1-4,1.7-5.9c3-8.3,4.5-9.1,13.2-7.5c8.5,1.5,16.7,4.2,25,7c2.3,0.8,4.6,1.4,6.5-1
		c4.9-6.3,9.1-13,10.9-20.9c2-2.3,2.6-5.2,3.1-8.1c6.3,1.2,12.6,2.3,18.9,3.5c1.8,0.3,2.6,1,2.3,3.5c-2,14.6-2.8,29.5-12.8,41.6
		c-0.1,0.1-0.1,0.3-0.2,0.5c-1.7,4.8,0,7.8,5.1,8C173.5,158.1,180,157.9,186.4,157.6z M174.6,79c-2.1,4.5-4.6,5.6-9,3.2
		c-8.4-4.7-17.9-6-27.2-7.7c-3.9-0.7-5.4-1.7-3.6-5.9c8.3-19.8,17-39.5,26.8-58.6c2-3.8,4-4.7,7.9-3c8.2,3.6,16.5,7.1,24.2,11.8
		c1.7,1,3.8,1.9,3.2,4.6c-0.7,2.2-1.5,4.5-2.2,6.7C188.8,46.8,182.1,63.1,174.6,79z"/>
	<path d="M179.2,176.2c-5.6-0.2-8.6,2-9.9,7.4c-0.5,2.1-0.7,4.3-1.1,6.5c-0.6,3.5-0.9,7,2.6,9.1c3.8,2.3,7.8,2,11.5-0.3
		c1-0.6,2.4-1.3,1.6-2.7c-0.8-1.6-2-0.5-2.9,0.1c-2.1,1.4-4.5,1.6-6.8,1c-2.8-0.7-3.5-2.8-3.2-5.5c0.3-2.9,2.2-2.4,4-2.4
		c2.9,0,5.8,0,8.6,0c1.4,0,2.4,0,3.1-1.8C189.2,181.2,186.1,176.4,179.2,176.2z M180.4,186.4c-2.7,0-5.4,0-8.4,0
		c1.6-6.1,4.8-8.3,9.1-7c2.2,0.7,3.2,2.1,3.2,4.5C184.3,187,182.2,186.4,180.4,186.4z"/>
	<path d="M125.1,176.2c-5.6-0.1-8.5,2.1-9.8,7.5c-0.5,2.3-0.8,4.7-1.2,7c-0.5,3.5-0.5,6.9,3.2,8.8c3.9,2,7.9,1.6,11.5-0.9
		c0.8-0.6,1.8-1.3,1.2-2.4c-0.7-1.1-1.7-0.7-2.6-0.1c-2.2,1.6-4.7,1.9-7.3,1.2c-2.8-0.7-3.4-2.8-3.2-5.5c0.3-2.9,2.3-2.4,4.1-2.4
		c2.9,0,5.8,0,8.6,0c1.4,0,2.4-0.1,3-1.8C135.1,181.1,132,176.4,125.1,176.2z M123.7,186.7c-1.7-1.2-4.7,1.6-5.4-1.7
		c-0.6-2.9,3.2-5.8,7-5.7c2.8,0.1,5.1,1,5,4.3C130,188.9,125.8,185.3,123.7,186.7z"/>
	<path d="M42.3,176.5c-6.6-1.8-11.5,1.1-12.9,7.8c-0.5,2.3-0.8,4.7-1.1,7c-0.8,6.1,2.1,9.4,8.2,9.4c2.6,0.1,5-0.8,7-2.4
		c0.7-0.5,1.3-1.3,0.7-2.2c-0.5-0.8-1.4-0.9-2.2-0.2c-2.1,1.7-4.6,2.1-7.2,1.6c-2.7-0.6-3.8-2.3-3.6-5.2c0.2-3.1,2.1-2.9,4.2-2.8
		c2.9,0,5.8,0,8.6,0c0.9,0,1.9,0.2,2.6-0.9C49.5,184.4,47.1,177.8,42.3,176.5z M38,186.7c-1.7-1.2-4.7,1.6-5.4-1.7
		c-0.6-2.9,3.2-5.8,7-5.7c2.8,0.1,5.1,1,5,4.3C44.3,188.9,40.1,185.3,38,186.7z"/>
	<path d="M276,176.2c-4.2-0.3-8.3,0.4-9.6,4.8c-1.7,5.5-4.4,11.2-1.1,17.1c0.4,0.8,1.5,1.3,2.4,1.7c6.7,3.2,13.2-0.2,14.6-7.4
		c0.5-2.7,0.8-5.3,1.2-7.4C283.6,179.2,281.3,176.6,276,176.2z M280.5,184.9c-0.7,3-1,6.1-2,8.9c-1.5,3.9-4.9,4.4-8.5,3.6
		c-3.7-0.8-3.4-3.8-2.8-6.5c0.6-2.8,0.4-5.8,1.9-8.4c1.8-3.2,4.8-3.6,7.9-3C279.9,180,280.7,182.1,280.5,184.9z"/>
	<path d="M172.4,17.9c-0.7-1.7-0.8-3.9-3.4-5c0.8,3.8,1.1,7.2,2.2,10.3c5.1,14.3,0.8,24.9-11.6,33.2c-6,4-11.3,8.9-18,14.2
		c2.1-0.3,2.8-0.2,3.3-0.6c11.8-7.3,23.5-14.8,34.3-23.7c1.9-1.5,1.9-3.2,1.3-5.4C178.5,33,175.5,25.5,172.4,17.9z"/>
</g>
</svg>
