<?xml version="1.0" encoding="utf-8"?>
<!-- Generator: Adobe Illustrator 20.1.0, SVG Export Plug-In . SVG Version: 6.00 Build 0)  -->
<!DOCTYPE svg PUBLIC "-//W3C//DTD SVG 1.1//EN" "http://www.w3.org/Graphics/SVG/1.1/DTD/svg11.dtd">
<svg version="1.1" id="Ebene_1" xmlns="http://www.w3.org/2000/svg" xmlns:xlink="http://www.w3.org/1999/xlink" x="0px" y="0px"
	 width="283.5px" height="283.5px" viewBox="0 0 283.5 283.5" style="enable-background:new 0 0 283.5 283.5;" xml:space="preserve"
	>
<path style="fill:#FFFFFF;" d="M141.7,10.3c-72.5,0-131.4,58.9-131.4,131.4c0,34.2,13.1,65.4,34.6,88.8c2-10.1,10.9-17.7,21.7-17.7
	c10.4,0,19.1,7.2,21.5,16.8c4-5.2,10.4-8.6,17.5-8.6c10.4,0,19.1,7.2,21.5,16.8c4-5.2,10.4-8.6,17.5-8.6c12.2,0,22.1,9.9,22.1,22.1
	c0,0,0,0,0,0v19.4c60.6-11.7,106.5-65.1,106.5-129C273.1,69.3,214.2,10.3,141.7,10.3z M66.6,205.2c-8.3,0-14.9-6.7-14.9-14.9
	c0-8.3,6.7-14.9,14.9-14.9c8.3,0,14.9,6.7,14.9,14.9C81.6,198.5,74.9,205.2,66.6,205.2z M105.6,213.4c-8.3,0-14.9-6.7-14.9-14.9
	c0-8.3,6.7-14.9,14.9-14.9c8.3,0,14.9,6.7,14.9,14.9C120.5,206.7,113.8,213.4,105.6,213.4z M144.5,221.6c-8.3,0-14.9-6.7-14.9-14.9
	c0-8.3,6.7-14.9,14.9-14.9c8.3,0,14.9,6.7,14.9,14.9C159.5,214.9,152.8,221.6,144.5,221.6z"/>
<path style="fill:#E74914;" d="M178.1,218.2l-31.9-57c-1-1.8-3-2.8-5-2.6c-2-0.2-4,0.8-5.1,2.6l-31.9,57c-1.4,2.5-0.5,5.6,2,7
	c0.8,0.4,1.7,0.7,2.5,0.7c1.8,0,3.6-1,4.5-2.6l27.9-49.8l27.9,49.8c0.9,1.7,2.7,2.6,4.5,2.6c0.9,0,1.7-0.2,2.5-0.7
	C178.7,223.8,179.5,220.7,178.1,218.2z"/>
<path style="fill:#2DAC81;" d="M67.9,80.8v86.2h146.3V80.8H67.9z M125.5,132.9H79.8V94.1h45.8V132.9z M128.2,158l22.9-38.8L174,158
	H128.2z M181.1,129.5c-12.6,0-22.9-8.7-22.9-19.4s10.2-19.4,22.9-19.4c12.6,0,22.9,8.7,22.9,19.4S193.8,129.5,181.1,129.5z"/>
<g>
	<path style="fill:#2DAC81;" d="M141.7,0C63.6,0,0,63.6,0,141.7s63.6,141.7,141.7,141.7c78.2,0,141.7-63.6,141.7-141.7
		S219.9,0,141.7,0z M166.6,270.7v-19.4c0,0,0,0,0,0c0-12.2-9.9-22.1-22.1-22.1c-7.1,0-13.5,3.4-17.5,8.6
		c-2.4-9.7-11.1-16.8-21.5-16.8c-7.1,0-13.5,3.4-17.5,8.6c-2.4-9.7-11.1-16.8-21.5-16.8c-10.7,0-19.6,7.6-21.7,17.7
		c-21.5-23.4-34.6-54.6-34.6-88.8c0-72.5,58.9-131.4,131.4-131.4s131.4,58.9,131.4,131.4C273.1,205.7,227.2,259.1,166.6,270.7z"/>
	<circle style="fill:#2DAC81;" cx="66.6" cy="190.2" r="14.9"/>
	<circle style="fill:#2DAC81;" cx="105.6" cy="198.4" r="14.9"/>
	<circle style="fill:#2DAC81;" cx="144.5" cy="206.6" r="14.9"/>
</g>
<g>
	<circle style="fill:#E74914;" cx="213.8" cy="158.7" r="14.9"/>
	<path style="fill:#E74914;" d="M213.8,181.3c-12.2,0-22.1,9.9-22.1,22.1v44.2h27.7c5.9-4.3,11.4-9.2,16.5-14.4v-29.8c0,0,0,0,0,0
		C235.9,191.2,226,181.3,213.8,181.3z"/>
	<path style="fill:#E74914;" d="M235.9,247.7L235.9,247.7c0-0.1-0.1,0-0.1,0H235.9z"/>
</g>
</svg>
