<?xml version="1.0" encoding="utf-8"?>
<!-- Generator: Adobe Illustrator 20.0.0, SVG Export Plug-In . SVG Version: 6.00 Build 0)  -->
<!DOCTYPE svg PUBLIC "-//W3C//DTD SVG 1.1//EN" "http://www.w3.org/Graphics/SVG/1.1/DTD/svg11.dtd">
<svg version="1.1" id="Ebene_1" xmlns="http://www.w3.org/2000/svg" xmlns:xlink="http://www.w3.org/1999/xlink" x="0px" y="0px"
	 width="283.5px" height="283.5px" viewBox="0 0 283.5 283.5" style="enable-background:new 0 0 283.5 283.5;" xml:space="preserve"
	>
<path id="analyse-kreis" style="fill:#2DAC82;" d="M141.7,282.6c77.8,0,140.9-63.1,140.9-140.9S219.5,0.9,141.7,0.9
	S0.9,63.9,0.9,141.7S63.9,282.6,141.7,282.6"/>
<path id="analyse-graph" style="fill:#FFFFFF;" d="M230.5,210.6l-16.3-15.1v11.8H70.3V74h11.8L67,57.7L51.8,74h11.8v136.6
	c0,1.9,1.5,3.4,3.4,3.4h147.3v11.8L230.5,210.6z"/>
<path id="analyse-strich" style="fill:#E74914;" d="M91.3,190l-18.5-11.5c-2-1.2-2.6-3.8-1.3-5.8c1.2-2,3.8-2.6,5.8-1.3l11.3,7
	l18.1-29.7l26.8,15l38.2-51.1l11.6,7.6l19.1-25.1c1.4-1.8,4.1-2.2,5.9-0.8c1.8,1.4,2.2,4.1,0.8,5.9l-23.9,31.3l-11.6-7.6l-37.9,50.7
	l-26.2-14.7L91.3,190z"/>
</svg>
