<?xml version="1.0" encoding="utf-8"?>
<!-- Generator: Adobe Illustrator 20.0.0, SVG Export Plug-In . SVG Version: 6.00 Build 0)  -->
<!DOCTYPE svg PUBLIC "-//W3C//DTD SVG 1.1//EN" "http://www.w3.org/Graphics/SVG/1.1/DTD/svg11.dtd">
<svg version="1.1" id="Ebene_1" xmlns="http://www.w3.org/2000/svg" xmlns:xlink="http://www.w3.org/1999/xlink" x="0px" y="0px"
	 width="283.5px" height="283.5px" viewBox="0 0 283.5 283.5" style="enable-background:new 0 0 283.5 283.5;" xml:space="preserve"
	>
<path style="fill:#2DAC82;" d="M141.6,283.3C63.5,283.3,0,219.7,0,141.6C0,63.5,63.5,0,141.6,0c78.1,0,141.6,63.5,141.6,141.6
	C283.3,219.7,219.7,283.3,141.6,283.3z M141.6,10.3c-72.4,0-131.3,58.9-131.3,131.3c0,72.4,58.9,131.3,131.3,131.3
	S272.9,214,272.9,141.6C272.9,69.2,214,10.3,141.6,10.3z"/>
<path style="fill:#2DAC82;" d="M150.6,106.4c0-21.8-25.7-39.4-57.4-39.4c-31.7,0-57.4,17.7-57.4,39.4c0,12.5,8.5,23.6,21.6,30.8
	c-0.4,4.1-2,9.8-8.3,10.8c0,0,14,2.8,25.3-4.4c5.9,1.4,12.2,2.2,18.8,2.2C124.9,145.8,150.6,128.2,150.6,106.4"/>
<path style="fill:#E74914;" d="M218.2,223.6c-5.2,0-12.6-0.8-19.6-4.6c-5.9,1.3-11.9,1.9-18,1.9c-34.5,0-62.6-20-62.6-44.6
	s28.1-44.6,62.6-44.6c34.5,0,62.6,20,62.6,44.6c0,13-7.6,25-21.1,33.4c1,2.7,2.1,2.5,3.4,3.1c4.3,2.3,2,9.7,0.2,10.2
	S222.5,223.6,218.2,223.6z M200.4,208l1.8,1.2c3.2,2.1,6.8,3.2,10.1,3.7c-0.5-1.6-0.9-3.4-1.1-5.3l-0.3-3.4l3-1.6
	c12.1-6.6,19-16.2,19-26.3c0-18.9-23.4-34.3-52.2-34.3c-28.8,0-52.3,15.4-52.3,34.3s23.4,34.3,52.3,34.3c5.9,0,11.9-0.7,17.6-2.1
	L200.4,208z"/>
</svg>
