<?xml version="1.0" encoding="utf-8"?>
<!-- Generator: Adobe Illustrator 21.0.0, SVG Export Plug-In . SVG Version: 6.00 Build 0)  -->
<!DOCTYPE svg PUBLIC "-//W3C//DTD SVG 1.1//EN" "http://www.w3.org/Graphics/SVG/1.1/DTD/svg11.dtd">
<svg version="1.1" id="Layer_1" xmlns="http://www.w3.org/2000/svg" xmlns:xlink="http://www.w3.org/1999/xlink" x="0px" y="0px"
	 width="100px" height="100px" viewBox="0 0 100 100" enable-background="new 0 0 100 100" xml:space="preserve">
<path d="M50.3,62.4c0,0,9.7,0.5,12.4-2.2c2.7-2.8,3.8-10.7,3.8-10.7s-0.8,0.8-1.7,0c-0.9-0.8-0.1-8.1-0.7-8.2
	c-0.5-0.1-1.7,0.5-2.4,0c-0.7-0.5-1.8-3.5-1.8-3.5s-0.5,0.9-1.6,0.5S56.7,34,56.7,34s-1.7-0.2-1.8-0.7c-0.1-0.5-0.4-2.9-0.4-2.9
	s-0.5-0.1-1-0.8c-0.5-0.7-0.9-4.5-0.9-4.5s-5.2,8.1-6.4,8.1c-1.2,0,0-1.7,0-1.7s-2.6,4.5-3.4,4.7c-0.8,0.3-1.8-0.1-1.8-0.1
	s-1.2,3.9-2.6,5.1c-1.4,1.2-2.6,0.3-2.6,0.3s1,7.6,0,8.5s-2.1,0.4-2.1,0.4s1.3,9.2,5.2,10.7c3.9,1.6,10.3,1.2,10.3,1.2
	s0.8,13.1,0.4,14c-0.4,0.9-1,1.9-1,1.9l0.8,0.6c0,0,1.2-1.6,1.3-2.4S50.3,62.4,50.3,62.4z"/>
</svg>
