<?xml version="1.0" encoding="utf-8"?>
<!-- Generator: Adobe Illustrator 21.0.0, SVG Export Plug-In . SVG Version: 6.00 Build 0)  -->
<!DOCTYPE svg PUBLIC "-//W3C//DTD SVG 1.1//EN" "http://www.w3.org/Graphics/SVG/1.1/DTD/svg11.dtd">
<svg version="1.1" id="Layer_1" xmlns="http://www.w3.org/2000/svg" xmlns:xlink="http://www.w3.org/1999/xlink" x="0px" y="0px"
	 width="100px" height="100px" viewBox="0 0 100 100" enable-background="new 0 0 100 100" xml:space="preserve">
<path d="M52,52.3c1.5,0.2,6.1,2.4,10.1,3.3s13.5,1.1,13.5,1.1s-3.5-2.6-5.6-3.9c-2.1-1.2-3.1-2.2-3.1-2.2s2.5-0.2,4.6-1.1
	c2.1-0.9,6.9-6,9.4-7.1c2.5-1.1,8-2.5,8-2.5s-7.4,0.1-10.1,0c-2.7-0.1-6.6-1.9-11.4,0c-4.7,1.9-7.2,5.9-8,5c-0.7-0.9,7-5.2,9.7-9.6
	c2.7-4.4,4.9-10.9,5.1-14c0.2-3.1-0.5-4.5,0-5.9c0.5-1.4,3.4-4.2,2.4-5.2s-8.4,5.1-11,7.7c-2.6,2.6-6.5,4.6-9,9.9s-3,15.1-3,15.1
	s-0.5,1-1.1,0.2c-0.5-0.7,0.8-9,1.3-13.1c0.5-4.1-1.7-13.2-5.5-18.6C44.6,6,41,2.5,39.7,3.3c-1.2,0.7-3.7,10-2.5,15.6
	c1.2,5.6,0.7,9.1,3.4,12.5s8,12.5,7.1,13c-0.9,0.5-4-7.6-7-11.5s-5-6.8-8.4-9c-3.4-2.2-9.9-4.2-11.6-5.4c-1.7-1.2-5.5-5.6-5.5-5.6
	s3.3,6.4,4.5,8.5c1.1,2.1,1.6,7.9,6.4,12.6s4.7,5.2,6.9,6.6s5.8,2.7,5.4,3.6c-0.4,0.9-2.7-1.7-6.1-2.1c-3.3-0.4-7.4,1-11.2,0.8
	s-9.9-1.5-9.9-1.5s5.5,2.1,8.9,4.2c3.4,2.1,5.7,6.8,10.5,7.8c4.8,1,8.6-1.9,9.9-0.6c1.3,1.3-2.1,1.7-3.2,2.5
	c-1.1,0.8-3.7,4.9-3.7,4.9s5.1-2.4,7.8-3.8s6.5-4.4,8.2-4.1s1.2,0.5,1.2,0.5s-0.5,12.8-0.6,19.9c-0.1,7.1,0.4,21.2,0.4,21.2l1.3,1.3
	c0,0-0.8-16.9-0.7-22.7C51.2,66.7,52,52.3,52,52.3z"/>
</svg>
