<?xml version="1.0" encoding="utf-8"?>
<!-- Generator: Adobe Illustrator 21.0.0, SVG Export Plug-In . SVG Version: 6.00 Build 0)  -->
<!DOCTYPE svg PUBLIC "-//W3C//DTD SVG 1.1//EN" "http://www.w3.org/Graphics/SVG/1.1/DTD/svg11.dtd">
<svg version="1.1" id="Layer_1" xmlns="http://www.w3.org/2000/svg" xmlns:xlink="http://www.w3.org/1999/xlink" x="0px" y="0px"
	 width="100px" height="100px" viewBox="0 0 100 100" enable-background="new 0 0 100 100" xml:space="preserve">
<path d="M50.4,61c0,0,5.7,4.4,10.9,5.4c5.2,0.9,12.2,0,12.2,0s-3.9-2.2-4.7-4c-0.8-1.8-1.3-3.6-1-4.1c0.3-0.5,5.6-0.4,8.3-0.5
	s7.6,0,7.6,0s-1.7-1.7-1.2-3.2c0.5-1.6,3.8-5.6,5-6s5-1.1,5-1.1s-11.2-2.8-11.6-6.3c-0.4-3.5,1.6-7.6,3.4-10.1
	c1.9-2.5,3.7-5.6,3.7-5.6s-1.9,0.9-3.1,0c-1.1-0.9-0.1-6.2-0.1-6.2s-1.6-0.6-1.5-1.8c0.1-1.2,2.3-4.5,2.3-4.5s-3.6,2.5-4.6,2.3
	c-1-0.2-1.7-0.5-1.7-0.5s-1,1.6-3.2,1.7C74,16.6,72.8,15,72.8,15s-3.7,8.1-7.2,7.7c-3.5-0.5-3.9-3.1-4.3-6.7c-0.5-3.5-1-9.3-1-9.3
	S59.7,8.5,58,8.3s-2.9-3.4-2.9-3.4s-1,0.1-1.9-0.6C52.2,3.7,51.2,0,51.2,0s-1,2.8-1.9,3.8S47,4.6,47,4.6s-0.1,3.7-1.5,4.2
	s-4.3-1.9-4.3-1.9s0.6,15.5-1.6,15.9c-2.1,0.4-4-0.6-5.8-2.5C32,18.4,28.1,13,28.1,13s0.2,1.9-1.7,2.4c-1.9,0.5-4-1.1-4-1.1
	s-1.3,0.2-2.2,0c-0.9-0.2-4-1.9-4-1.9s2.2,3.6,1.9,4.5c-0.3,0.9-0.7,1.6-0.7,1.6s2.6,2.2,1.7,4.6c-0.9,2.4-0.2,2.5-1.9,3.1
	c-1.8,0.6-4.4-0.5-4.4-0.5s11.7,9.9,10.6,13s-15.8,4-15.8,4s9,5.6,8.4,8.6s-2.3,3.5-2,3.5c0.3,0,13.9,3.7,14.1,7.4s-2,5.9-2,5.9
	s10.9-2.9,14.8-4.1s8.5-3.4,8.5-3.4s-2.4,10-2.3,17.9c0.1,7.9,1.1,18.2,0.7,19.1c-0.4,0.9-1.1,1.7-0.8,1.7c0.3,0,3.1,0.6,3.1,0.6
	s-1.1-0.7-1.2-2c-0.1-1.3-1.1-13.8-0.8-20.4C48.4,69.7,50.4,61,50.4,61z"/>
</svg>
