<?xml version="1.0" encoding="utf-8"?>
<!-- Generator: Adobe Illustrator 21.0.0, SVG Export Plug-In . SVG Version: 6.00 Build 0)  -->
<!DOCTYPE svg PUBLIC "-//W3C//DTD SVG 1.1//EN" "http://www.w3.org/Graphics/SVG/1.1/DTD/svg11.dtd">
<svg version="1.1" id="Layer_1" xmlns="http://www.w3.org/2000/svg" xmlns:xlink="http://www.w3.org/1999/xlink" x="0px" y="0px"
	 width="100px" height="100px" viewBox="0 0 100 100" enable-background="new 0 0 100 100" xml:space="preserve">
<path d="M53.1,55.5c0,0,6.5,6.7,12,7.3S76,60.2,76,60.2s-1.2-2.5-1.9-3.5c-0.7-1-1.8-1.2-1.8-1.2s6-3.7,6.6-5.4
	c0.6-1.8-0.3-4.5,1.2-8.5c1.5-4,4.3-8.7,4.3-8.7s-2.2,1.9-6.2,1.9s-11.6-0.3-13.6,1c-2.1,1.3-8.8,7.9-10.1,9.8
	c-1.3,1.9-1.8,9.1-1.8,9.1l-0.9,0.1L52.3,43c0,0,2.9,0,6-3.3c3.2-3.3,7.4-13.9,7.4-13.9l-1-0.2l0.4-3.6l-0.8-0.2l-0.5-5.3
	c0,0-1.1,1.9-2.3,2s-8.8-9.2-10-11.1c-1.2-1.9-3-5.8-3-5.8s0,4.9-0.9,6.3c-0.9,1.4-6.7,7.8-8.1,10.9s-3.1,9.7-1.2,13.2
	s5.2,9.5,7.6,10.3c2.4,0.9,5.2,0.9,5.2,0.9l-0.4,11.4l-0.9-0.1c0,0,0.4-0.7-0.2-1.9c-0.6-1.2-2.3-2.9-3.1-4.3s-2.5-5.5-4.5-6.9
	c-2-1.4-5.6-3.2-10.4-3.2s-6.7,0.7-9.9,0.5c-3.2-0.2-5.9-1.3-5.9-1.3s2.4,3.2,2.9,5s2.6,5.6,2.6,5.6l-1.8,1.1l4.1,3.5l-1.6,1.4
	c0,0,1.8,2.7,3.9,3.3s5.8,0.7,5.8,0.7s-2.5,2.2-3,3.4c-0.4,1.2-1.1,3.3-1.1,3.3s2.6,0.9,5,0.6c2.4-0.3,7.8-4.5,9.3-5
	s4.9-1.8,5.8-2.8s1.9-2.3,1.9-2.3l1.1,0c0,0,0.1,8.7,0.2,11.9c0.1,3.2,2.3,30.1,2.3,30.1l1.4,1.3c0,0-2.5-26.8-2.6-31.3
	s-0.2-11.7-0.2-11.7L53.1,55.5z"/>
</svg>
