<?xml version="1.0" encoding="utf-8"?>
<!-- Generator: Adobe Illustrator 21.0.0, SVG Export Plug-In . SVG Version: 6.00 Build 0)  -->
<!DOCTYPE svg PUBLIC "-//W3C//DTD SVG 1.1//EN" "http://www.w3.org/Graphics/SVG/1.1/DTD/svg11.dtd">
<svg version="1.1" id="Layer_1" xmlns="http://www.w3.org/2000/svg" xmlns:xlink="http://www.w3.org/1999/xlink" x="0px" y="0px"
	 width="100px" height="100px" viewBox="0 0 100 100" enable-background="new 0 0 100 100" xml:space="preserve">
<path d="M62.3,31.1c-4.5-7.5-11.1-7.3-13.7-10.6c-2.6-3.3,0-12.7,0-12.7s-4.3,10.2-8.5,14.1S28,27.8,24.5,33.7
	c-3.5,5.9-2.6,19.5,1.9,29.7c4.5,10.2,18.2,20,18.2,20l-1,2.5c0,0-0.7,2.3-0.6,3.2c0.4,0.4,1.1,0.6,1.1,0.6s0-0.7,0.2-1.6
	c0.9,0.4,2.7,0.8,6.1,0.5C56.1,88,64.2,80,69.8,65.8C75.3,51.6,66.8,38.6,62.3,31.1z"/>
</svg>
