<?xml version="1.0" encoding="utf-8"?>
<!-- Generator: Adobe Illustrator 21.0.0, SVG Export Plug-In . SVG Version: 6.00 Build 0)  -->
<!DOCTYPE svg PUBLIC "-//W3C//DTD SVG 1.1//EN" "http://www.w3.org/Graphics/SVG/1.1/DTD/svg11.dtd">
<svg version="1.1" id="Layer_1" xmlns="http://www.w3.org/2000/svg" xmlns:xlink="http://www.w3.org/1999/xlink" x="0px" y="0px"
	 width="100px" height="100px" viewBox="0 0 100 100" enable-background="new 0 0 100 100" xml:space="preserve">
<path d="M51.6,81.7c2.4-3.2,10.6-10.6,12.7-18.8c2.2-8.2,3.2-25,0-31.9s-7.8-12.3-12.3-18.8S45.6,1.9,45.6,1.9s2.1,7.2,1.6,9.5
	c-0.5,2.3-7.3,9.1-9.9,16.3S32.9,46.3,33.8,52s3.7,16.3,7.6,20.4c3.8,4,4.8,3.8,7.1,6.1c2.5,2.4,2.2,3.2,2.2,3.2s0.2,7,0.9,9.1
	c0.6,2.2,2.8,7.3,2.8,7.3l1.3-0.4c0,0-3.2-5.8-3.5-8.1C51.7,87.3,51.6,81.7,51.6,81.7z"/>
</svg>
