<?xml version="1.0" encoding="utf-8"?>
<!-- Generator: Adobe Illustrator 21.0.0, SVG Export Plug-In . SVG Version: 6.00 Build 0)  -->
<!DOCTYPE svg PUBLIC "-//W3C//DTD SVG 1.1//EN" "http://www.w3.org/Graphics/SVG/1.1/DTD/svg11.dtd">
<svg version="1.1" id="Layer_1" xmlns="http://www.w3.org/2000/svg" xmlns:xlink="http://www.w3.org/1999/xlink" x="0px" y="0px"
	 width="100px" height="100px" viewBox="0 0 100 100" enable-background="new 0 0 100 100" xml:space="preserve">
<path d="M52.9,99.2c0,0-0.9,0.2-1-0.7c-0.1-0.9-0.2-14.6-0.2-14.6s6.1-4,6.4-5.3c0.3-1.3-0.5-2.6,0-3.6c0.5-1,7.1-8.3,7.1-8.3
	s-6.1-0.8-6-2.6c0.1-1.8,1.2-2.5,1.8-2.1s1,1.3,2.2,1.2c1.1-0.1,5-1.5,6.8-2.9c1.8-1.4,6.8-5.4,6.8-5.4S64.7,55,64.2,53.1
	c-0.5-1.9,0.9-3,2-4c1.1-1,12.4-11.5,12.4-11.5s-1.2,0.3-1.4-0.6c-0.2-0.9,2.5-6.5,2.5-6.5s-0.5,0.5-0.8-0.6
	c-0.3-1.1,1.6-5.6,1.6-5.6S65.7,32.3,64,30.6c-1.8-1.7,4-10.8,4.4-13.5c0.4-2.8,0.4-7.5,0.4-7.5s-3.9,4-6.7,3.3
	c-2.9-0.7-4-9.4-8.1-9.7s-5.1,6.7-8.2,7c-3.1,0.3-9.5-6.8-9.5-6.8s-0.6,4.3-0.5,7.2c0.1,2.9,3.7,17.6,0.4,17.8
	c-3.3,0.2-2.8-2.8-5.8-3.9c-3-1.1-4.6-0.8-6.1-1.6c-1.5-0.8-4.2-3.8-4.2-3.8s2.8,13.4,2,14.2c-0.8,0.8-2-0.3-2-0.3s3.3,5.7,5.2,7.4
	c2,1.7,8.8,7.8,6.5,10.7c-2.3,2.9-4.3,1.7-6.8,1.5c-2.4-0.1-5.5,0-5.5,0s4,1.5,6.5,3.3s4.4,5.1,7,6.3c2.6,1.2,5.4,1.5,5.4,3.3
	c0.1,1.8-0.6,2.4-1.5,2.6c-0.9,0.2-3.7-0.1-3.7-0.1s3,2.5,4.2,3.6c1.2,1.1,3.2,0.9,4.2,3.2c1,2.3,0.8,5.3,0.8,5.3s2.5,1.5,3.7,1.8
	c1.3,0.3,2.8,0,3.3,0.3c0.5,0.3,0.9,1.5,0.9,1.5s-0.1,14.8,0.4,15.3c0.5,0.5,1.6,0.8,1.6,0.8L52.9,99.2z"/>
</svg>
