<?xml version="1.0" encoding="utf-8"?>
<!-- Generator: Adobe Illustrator 21.0.0, SVG Export Plug-In . SVG Version: 6.00 Build 0)  -->
<!DOCTYPE svg PUBLIC "-//W3C//DTD SVG 1.1//EN" "http://www.w3.org/Graphics/SVG/1.1/DTD/svg11.dtd">
<svg version="1.1" id="Layer_1" xmlns="http://www.w3.org/2000/svg" xmlns:xlink="http://www.w3.org/1999/xlink" x="0px" y="0px"
	 width="100px" height="100px" viewBox="0 0 100 100" enable-background="new 0 0 100 100" xml:space="preserve">
<path d="M50,59.8c0,0,8.9,8.8,9.6,8.9c0.7,0.2,1-1.7,3.6,0c2.6,1.7,5.1,3.9,5.1,3.9s-3.6-6.3-1.9-8.7c1.7-2.4,12,0.2,12,0.2
	s-2.6-3.1-1.7-4.3s4.3-3.4,6.5-4.3s4.8-2,4.8-2s-4.6-1-8.5-2.7c-3.9-1.7-4.8-1.7-4.4-3.8c0.3-2,4.4-3.1,7.3-5.1
	c2.9-2,3.8-2.9,3.8-2.9s-2.2,1.5-3.9-0.9c-1.7-2.4,0-6.1,0-6.1s-0.3,0.3-0.3-2.4s3.6-7.3,3.6-7.3s-3.6,3.1-5.6,2.9
	c-2-0.2-2-1.2-2-1.2s-0.2,1-3.4,0.7s-3.1-2.4-3.1-2.4S70.4,25,68.1,26s-3.8,1.2-3.8,1.2s-0.5,3.2-2,3.2c-1.5,0-2.4-10.8-1.7-13.1
	c0.7-2.4,1.7-3.2,1.7-3.2s-4.1,3.2-6.3,2.4c-2.2-0.9-2.9-2.4-2.9-2.4s-1.7-1.5-1.7-3.6s-0.7,1.2-1.9,0c-1.2-1.2-2.7-6.1-2.7-6.1
	s0.3,3.6-1,5.3c-1.4,1.7-3.2,1.2-3.2,1.2s0.5,3.2-1.9,5.1c-2.4,1.9-7.7-1.9-7.5-1.4c0.2,0.5,5.8,14.7,3.8,16.6
	c-2,1.9-11.4-6.3-11.4-6.3s0.9,3.2-3.2,2.7s-8.5-3.1-8-2.4c0.5,0.7,3.8,3.1,3.8,5.3S16.2,34,16.2,34s3.6,3.4,2.6,6
	c-1,2.6-6.7,3.2-6.7,3.2s12.8,5.1,12.5,7.7c-0.3,2.6-4.4,2-5.1,3.7c-0.7,1.6-1,3.7-2.7,4.2s-5.3,0.9-4.6,0.9s11.3,1.4,12.8,4.3
	c1.5,2.9-1.5,3.2-1.5,3.2s8-3.4,10.2-1.4c2.2,2,0.2,6.8,0.2,6.8s7.7-5.1,9.4-6.8c1.7-1.7,5.5-6.5,5.5-6.5S47,89.5,47.5,91.7
	s1,3.9,1,3.9h2.4c0,0-2.6-2.4-2.6-4.3C48.3,89.5,50,59.8,50,59.8z"/>
</svg>
