<?xml version="1.0" encoding="utf-8"?>
<!-- Generator: Adobe Illustrator 21.0.0, SVG Export Plug-In . SVG Version: 6.00 Build 0)  -->
<!DOCTYPE svg PUBLIC "-//W3C//DTD SVG 1.1//EN" "http://www.w3.org/Graphics/SVG/1.1/DTD/svg11.dtd">
<svg version="1.1" id="Layer_1" xmlns="http://www.w3.org/2000/svg" xmlns:xlink="http://www.w3.org/1999/xlink" x="0px" y="0px"
	 width="100px" height="100px" viewBox="0 0 100 100" enable-background="new 0 0 100 100" xml:space="preserve">
<path d="M45.5,94.1c0,0-0.9-1.2-0.9-2.8c0-1.6,0-4.3,0-4.3s10.7-8.8,11.6-28.1c0.9-19.4,0-26.1-1.8-30.8s-4.7-7.2-5.1-9.7
	c-0.4-2.5-2.2-13.1-2.2-13.1s-1.3,8.8-3.5,13.1s-7.5,12-7.9,21.3s-0.7,22,0.9,29.9s7.1,17.3,7.1,17.3s-0.1,4.9,0.2,5.7
	s0.4,2.1,0.4,2.1L45.5,94.1z"/>
</svg>
