<?xml version="1.0" encoding="utf-8"?>
<!-- Generator: Adobe Illustrator 21.0.0, SVG Export Plug-In . SVG Version: 6.00 Build 0)  -->
<!DOCTYPE svg PUBLIC "-//W3C//DTD SVG 1.1//EN" "http://www.w3.org/Graphics/SVG/1.1/DTD/svg11.dtd">
<svg version="1.1" id="Ebene_1" xmlns="http://www.w3.org/2000/svg" xmlns:xlink="http://www.w3.org/1999/xlink" x="0px" y="0px"
	 width="283.5px" height="283.5px" viewBox="0 0 283.5 283.5" enable-background="new 0 0 283.5 283.5" xml:space="preserve">
<path fill="#2DAC82" d="M201.9,84c-5.9-5.9-20.6,0-29.4,8.8l-14.7,14.7L96.6,92.9c-0.9-0.3-2,0.1-2.8,0.7l-11.8,11.8
	c-0.6,0.6-0.9,1.7-0.8,2.5c0.2,0.9,0.7,1.7,1.6,2.2l46.7,25.7l-23.8,23.8l-17.8-4.9c-0.2-0.1-0.5-0.1-0.7-0.1
	c-0.7,0-1.6,0.3-2.1,0.8l-8.8,8.9c-0.6,0.6-0.9,1.5-0.8,2.3c0.1,0.8,0.5,1.7,1.2,2.1l23.2,17.4l17.4,23.2c0.6,0.7,1.3,1.1,2.2,1.2
	h0.2c0.7,0,1.6-0.3,2.1-0.8l8.8-8.8c0.7-0.8,1-1.8,0.7-2.9l-4.9-17.8l23.8-23.8l25.7,46.7c0.4,0.8,1.1,1.3,1.9,1.5
	c0.3,0.1,0.5,0.1,0.6,0.1c0.6,0,1.3-0.2,1.7-0.6l11.8-8.8c0.9-0.7,1.4-1.9,1.1-3l-14.7-64l14.8-14.8
	C201.9,104.6,207.8,89.8,201.9,84"/>
<path fill="#2DAC81" d="M141.1,283.6C63,283.6-0.6,220-0.6,141.8C-0.6,63.6,63,0,141.1,0s141.8,63.6,141.8,141.8
	C282.9,220,219.3,283.6,141.1,283.6z M141.1,10.3c-72.5,0-131.4,59-131.4,131.4c0,72.5,59,131.4,131.4,131.4
	c72.5,0,131.4-59,131.4-131.4C272.6,69.3,213.6,10.3,141.1,10.3z"/>
<g>
	<path fill="#E74914" d="M269.8,114.8c-2.3-0.8-4.8-1.2-7.4-1.2c-6.9,0-13,3-17.2,7.8c-3.3-1.8-7.1-2.9-11.1-2.9
		c-10.2,0-18.8,6.6-21.8,15.7c-5,3.6-7.9,8-7.9,12.7c0,12.7,21.5,23.1,47.9,23.1c6.3,0,12.2-0.6,17.7-1.6c1.8-8.6,2.7-17.4,2.7-26.5
		C272.6,132.5,271.6,123.5,269.8,114.8z"/>
</g>
<g>
	<path fill="#E74914" d="M75.3,203.3c0-6.8-6.1-12.8-15.7-17c-2.9-9.4-11.7-16.3-22-16.3c-6.9,0-13,3-17.2,7.8
		c-1.9-1.1-4.1-1.8-6.3-2.3c4.9,18.6,13.9,35.6,25.8,50.1C60.3,222.9,75.3,213.9,75.3,203.3z"/>
</g>
</svg>
