<?xml version="1.0" encoding="utf-8"?>
<!-- Generator: Adobe Illustrator 21.0.0, SVG Export Plug-In . SVG Version: 6.00 Build 0)  -->
<!DOCTYPE svg PUBLIC "-//W3C//DTD SVG 1.1//EN" "http://www.w3.org/Graphics/SVG/1.1/DTD/svg11.dtd">
<svg version="1.1" id="Ebene_1" xmlns="http://www.w3.org/2000/svg" xmlns:xlink="http://www.w3.org/1999/xlink" x="0px" y="0px"
	 width="283.5px" height="283.5px" viewBox="0 0 283.5 283.5" enable-background="new 0 0 283.5 283.5" xml:space="preserve">
<g>
	<path fill="#8A8281" d="M106.6,187.9c-7.6,0-13.8,6.3-13.8,14c0,7.8,6.2,14,13.8,14c7.6,0,13.8-6.3,13.8-14
		C120.5,194.2,114.3,187.9,106.6,187.9z"/>
	<path fill="#8A8281" d="M176.9,187.9c-7.6,0-13.8,6.3-13.8,14c0,7.8,6.2,14,13.8,14c7.6,0,13.8-6.3,13.8-14
		C190.7,194.2,184.6,187.9,176.9,187.9z"/>
</g>
<rect x="0" fill="none" width="283.5" height="283.5"/>
<g>
	<path fill="#4A4242" d="M221,97.8H99.1c-0.3,0-0.6,0-0.9,0.1l-23-20.3C74,76.6,72.5,76,71,76H50.1c-3.4,0-6.2,2.8-6.2,6.2
		s2.8,6.2,6.2,6.2h18.6L91.9,109c0.3,0.3,0.6,0.5,0.9,0.7v60.9c0,3.4,2.8,6.2,6.2,6.2H185c2.3,0,4.4-1.3,5.5-3.3l36-66.5
		c1-1.9,1-4.3-0.1-6.2C225.2,98.9,223.2,97.8,221,97.8z"/>
	<path fill="#4A4242" d="M141.7,0C63.6,0,0,63.6,0,141.7c0,78.1,63.6,141.7,141.7,141.7s141.7-63.6,141.7-141.7
		C283.5,63.6,219.9,0,141.7,0z M141.7,273.1c-72.5,0-131.4-58.9-131.4-131.4c0-72.5,58.9-131.4,131.4-131.4
		c72.5,0,131.4,58.9,131.4,131.4C273.1,214.2,214.2,273.1,141.7,273.1z"/>
</g>
<rect x="0" fill="none" width="283.5" height="283.5"/>
</svg>
