<?xml version="1.0" encoding="utf-8"?>
<!-- Generator: Adobe Illustrator 21.0.0, SVG Export Plug-In . SVG Version: 6.00 Build 0)  -->
<!DOCTYPE svg PUBLIC "-//W3C//DTD SVG 1.1//EN" "http://www.w3.org/Graphics/SVG/1.1/DTD/svg11.dtd">
<svg version="1.1" id="Ebene_1" xmlns="http://www.w3.org/2000/svg" xmlns:xlink="http://www.w3.org/1999/xlink" x="0px" y="0px"
	 width="283.5px" height="283.5px" viewBox="0 0 283.5 283.5" enable-background="new 0 0 283.5 283.5" xml:space="preserve">
<path fill="#2DAC81" d="M141.6,283.1C63.5,283.1,0,219.6,0,141.6S63.5,0,141.6,0s141.6,63.5,141.6,141.6S219.6,283.1,141.6,283.1z
	 M141.6,10.3c-72.4,0-131.2,58.9-131.2,131.2c0,72.4,58.9,131.2,131.2,131.2c72.4,0,131.2-58.9,131.2-131.2
	C272.8,69.2,213.9,10.3,141.6,10.3z"/>
<path fill="#2DAC81" d="M74.3,219.7c-2.6,0-5.2-1-7.2-3c-4-3.9-4-10.4,0-14.3L193,76.5c3.9-3.9,10.4-3.9,14.3,0c4,3.9,4,10.4,0,14.3
	L81.4,216.7C79.5,218.7,76.9,219.7,74.3,219.7z"/>
<g>
	
		<rect x="175.7" y="66.6" transform="matrix(0.7071 -0.7071 0.7071 0.7071 -14.1601 165.6638)" fill="#E74914" width="34.4" height="66.6"/>
	<polygon fill="#E74914" points="148.4,61.1 139,70.4 157.2,88.5 181.5,64.2 	"/>
</g>
</svg>
