<?xml version="1.0" encoding="utf-8"?>
<!-- Generator: Adobe Illustrator 21.0.0, SVG Export Plug-In . SVG Version: 6.00 Build 0)  -->
<!DOCTYPE svg PUBLIC "-//W3C//DTD SVG 1.1//EN" "http://www.w3.org/Graphics/SVG/1.1/DTD/svg11.dtd">
<svg version="1.1" id="Ebene_1" xmlns="http://www.w3.org/2000/svg" xmlns:xlink="http://www.w3.org/1999/xlink" x="0px" y="0px"
	 width="283.5px" height="283.5px" viewBox="0 0 283.5 283.5" enable-background="new 0 0 283.5 283.5" xml:space="preserve">
<path fill="#4A4242" d="M177.7,179.4c3.1-3.7,5.2-6.3,6.4-7.9c9.2-11.4,15.4-20.7,18.7-28c3.3-7.3,4.9-14.6,4.9-22
	c0-10.2-2.9-18.5-8.6-25c-5.7-6.4-13-9.7-21.9-9.7c-6.6,0-12.4,2-17.5,5.9c-5.1,3.9-8.9,9.5-11.5,16.8c-0.3,0.5-0.6,1.3-0.9,2.4
	c-1.7,4.8-3.5,7.2-5.5,7.2c-2.1,0-4-2.5-5.7-7.6c-0.6-1.6-1.1-2.9-1.5-3.7c-2.8-6.7-6.7-11.9-11.6-15.5c-4.9-3.6-10.5-5.4-16.8-5.4
	c-8.9,0-16.2,3.2-21.9,9.7c-5.7,6.4-8.6,14.8-8.6,25c0,7.5,1.7,14.9,5,22.3c3.4,7.3,9.6,16.6,18.6,27.7c1,1.2,2.7,3.4,5.1,6.4
	c14.7,17.4,27.1,34,37.3,49.8C151.1,213.2,163,197,177.7,179.4"/>
<path fill="#4A4242" d="M141.7,283.4C63.6,283.4,0,219.9,0,141.7S63.6,0,141.7,0s141.7,63.6,141.7,141.7S219.9,283.4,141.7,283.4z
	 M141.7,10.3c-72.4,0-131.4,58.9-131.4,131.4c0,72.4,58.9,131.4,131.4,131.4c72.4,0,131.4-58.9,131.4-131.4
	C273.1,69.3,214.2,10.3,141.7,10.3z"/>
</svg>
