<?xml version="1.0" encoding="utf-8"?>
<!-- Generator: Adobe Illustrator 21.0.0, SVG Export Plug-In . SVG Version: 6.00 Build 0)  -->
<!DOCTYPE svg PUBLIC "-//W3C//DTD SVG 1.1//EN" "http://www.w3.org/Graphics/SVG/1.1/DTD/svg11.dtd">
<svg version="1.1" id="Ebene_1" xmlns="http://www.w3.org/2000/svg" xmlns:xlink="http://www.w3.org/1999/xlink" x="0px" y="0px"
	 width="283.5px" height="283.5px" viewBox="0 0 283.5 283.5" enable-background="new 0 0 283.5 283.5" xml:space="preserve">
<circle fill="#2DAC81" cx="28.9" cy="164.2" r="15.8"/>
<circle fill="#2DAC81" cx="70.2" cy="172.9" r="15.8"/>
<circle fill="#2DAC81" cx="111.5" cy="181.6" r="15.8"/>
<circle fill="#E74914" cx="255.7" cy="164.2" r="15.8"/>
<circle fill="#E74914" cx="214.5" cy="172.9" r="15.8"/>
<circle fill="#E74914" cx="173.2" cy="181.6" r="15.8"/>
<path fill="#2DAC81" d="M141.8,283.6C63.6,283.6,0,220,0,141.8S63.6,0,141.8,0s141.8,63.6,141.8,141.8S220,283.6,141.8,283.6z
	 M141.8,10.3c-72.5,0-131.4,59-131.4,131.4c0,72.5,59,131.4,131.4,131.4c72.5,0,131.4-59,131.4-131.4
	C273.2,69.3,214.3,10.3,141.8,10.3z"/>
<path fill="#2DAC81" d="M201.7,136.3l-16.1-34.6l-7,7c-15.9-12.7-31.7-17.8-46.9-15.2c-30.7,5.2-47.5,39.6-48.2,41.1
	c-0.9,1.9-0.1,4.2,1.8,5.2c0.5,0.3,1.1,0.4,1.7,0.4c1.4,0,2.8-0.8,3.5-2.2c0.2-0.3,15.8-32.2,42.5-36.8c12.8-2.2,26.2,2.2,40.1,13.1
	l-5.9,5.9L201.7,136.3z"/>
<g>
	<path fill="#2DAC81" d="M134.9,229c0-12.9-10.5-23.4-23.4-23.4c-7.6,0-14.3,3.6-18.6,9.2c-2.5-10.2-11.7-17.9-22.7-17.9
		c-7.6,0-14.3,3.6-18.6,9.2c-2.5-10.2-11.7-17.9-22.7-17.9c-3.3,0-6.5,0.7-9.4,2c18.5,46.6,62.9,80.3,115.4,83L134.9,229L134.9,229z
		"/>
</g>
<g>
	<path fill="#E74914" d="M264.1,189.7c-2.6-1-5.4-1.6-8.4-1.6c-11,0-20.2,7.6-22.7,17.9c-4.3-5.6-11-9.2-18.6-9.2
		c-11,0-20.2,7.6-22.7,17.9c-4.3-5.6-11-9.2-18.6-9.2c-12.9,0-23.4,10.5-23.4,23.4v44C201.9,269.8,245.9,236.2,264.1,189.7z"/>
</g>
</svg>
