<?xml version="1.0" encoding="utf-8"?>
<!-- Generator: Adobe Illustrator 21.0.0, SVG Export Plug-In . SVG Version: 6.00 Build 0)  -->
<!DOCTYPE svg PUBLIC "-//W3C//DTD SVG 1.1//EN" "http://www.w3.org/Graphics/SVG/1.1/DTD/svg11.dtd">
<svg version="1.1" id="Ebene_1" xmlns="http://www.w3.org/2000/svg" xmlns:xlink="http://www.w3.org/1999/xlink" x="0px" y="0px"
	 width="283.5px" height="283.5px" viewBox="0 0 283.5 283.5" enable-background="new 0 0 283.5 283.5" xml:space="preserve">
<path fill="#4A4242" d="M201.8,259.1c0,0,2.5-1.4,2.5-4.2v-74.5c0,0,0-2.8-2.8-2.8h-120c0,0-2.8,0-2.8,2.8v74.4c0,0,0,2.8,2.5,4.2
	c16.2,8.9,37.7,14.7,60.5,14.7C164.3,273.7,185.6,268,201.8,259.1"/>
<path fill="#FFFFFF" d="M128.1,222.8c0,0,0,2.8-2.8,2.8h-23.8c0,0-2.8,0-2.8-2.8V199c0,0,0-2.8,2.8-2.8h23.8c0,0,2.8,0,2.8,2.8
	V222.8z"/>
<path fill="#FFFFFF" d="M183.2,222.8c0,0,0,2.8-2.8,2.8h-23.8c0,0-2.8,0-2.8-2.8V199c0,0,0-2.8,2.8-2.8h23.8c0,0,2.8,0,2.8,2.8
	V222.8z"/>
<path fill="#8A8282" d="M156.2,276.5c0,0,0,2.8-2.8,2.8h-23.8c0,0-2.8,0-2.8-2.8v-23.8c0,0,0-2.8,2.8-2.8h23.8c0,0,2.8,0,2.8,2.8
	V276.5z"/>
<path fill="#4A4242" d="M214,173.7l-70-51c0,0-2.3-1.7-4.6,0l-70,51"/>
<rect x="69.4" y="122" fill="none" width="144.6" height="157.3"/>
<path fill="#4A4242" d="M142.2,283.8C64,283.8,0.3,220.2,0.3,141.9C0.3,63.7,64,0,142.2,0s141.9,63.7,141.9,141.9
	C284.1,220.2,220.5,283.8,142.2,283.8z M142.2,10.3c-72.5,0-131.6,59-131.6,131.6c0,72.5,59,131.6,131.6,131.6
	c72.5,0,131.6-59,131.6-131.6C273.8,69.4,214.8,10.3,142.2,10.3z"/>
</svg>
