<?xml version="1.0" encoding="utf-8"?>
<!-- Generator: Adobe Illustrator 21.0.0, SVG Export Plug-In . SVG Version: 6.00 Build 0)  -->
<!DOCTYPE svg PUBLIC "-//W3C//DTD SVG 1.1//EN" "http://www.w3.org/Graphics/SVG/1.1/DTD/svg11.dtd">
<svg version="1.1" id="Ebene_1" xmlns="http://www.w3.org/2000/svg" xmlns:xlink="http://www.w3.org/1999/xlink" x="0px" y="0px"
	 width="283.5px" height="283.5px" viewBox="0 0 283.5 283.5" enable-background="new 0 0 283.5 283.5" xml:space="preserve">
<g>
	<path fill="#E74914" d="M210,211.8c1.5,0.2,3,0.2,4.5,0c3.6-0.5,6.5-2.2,8.6-5c2.9-3.9,2.8-8.4-0.3-11.7c-4-4.3-11.7-5.3-16.9-2.1
		c-1.6,1-4.1,3.1-5.2,7.2c-3.2-1.8-6.3-3.9-8.4-5.6l-4.9,6c1,0.8,6.6,5.3,13.4,8.4c0.3,1.3,0.7,2.7,1.3,4.2
		c5.1,13.6,18,20.6,29.5,24.3c2.2-2,4.2-4.1,6.3-6.3C227.6,228.5,214.9,223,210,211.8z M210,199.6c2.2-1.3,5.8-0.7,7.1,0.8
		c0.3,0.3,0.6,0.7-0.3,1.9c-0.8,1.1-1.9,1.7-3.3,1.9c-1.6,0.2-3.4-0.1-5.4-0.7C208.1,201.8,208.7,200.4,210,199.6z"/>
</g>
<path fill="#2DAC81" d="M141.8,283.5C63.6,283.5,0,219.9,0,141.8C0,63.6,63.6,0,141.8,0s141.8,63.6,141.8,141.8
	C283.5,219.9,219.9,283.5,141.8,283.5z M141.8,10.3c-72.5,0-131.4,59-131.4,131.4c0,72.5,59,131.4,131.4,131.4
	c72.5,0,131.4-59,131.4-131.4C273.2,69.3,214.2,10.3,141.8,10.3z"/>
<path fill="#2DAC82" d="M199.2,182.8c0-0.6,0-1.2-0.2-1.7c-0.6-1.7-4.6-3.5-6.3-4.4c-4.7-2.6-9.5-5.2-14.1-7.9
	c-2.1-1.3-4.8-3.8-7.3-3.8c-5,0-12.4,14.9-16.8,14.9c-2.2,0-5.1-2.1-7.1-3.2c-15-8.3-25.4-18.7-33.7-33.7c-1.2-2-3.2-4.9-3.2-7.1
	c0-4.5,14.9-11.8,14.9-16.8c0-2.6-2.5-5.2-3.8-7.3c-2.7-4.6-5.3-9.4-7.9-14.1c-0.8-1.7-2.6-5.7-4.4-6.3c-0.6-0.2-1.2-0.2-1.7-0.2
	c-3,0-8.7,1.3-11.5,2.6c-4,1.7-6.7,6.4-8.7,10.1c-2.6,4.9-4.2,9.8-4.2,15.3c0,7.7,3.1,14.6,5.7,21.6c1.8,5,4,9.9,6.8,14.4
	c8.7,14,25.6,30.9,39.6,39.6c4.5,2.8,9.4,5,14.4,6.8c7,2.6,13.9,5.7,21.6,5.7c5.5,0,10.5-1.6,15.3-4.2c3.7-2.1,8.3-4.7,10.1-8.7
	C197.8,191.6,199.2,185.8,199.2,182.8"/>
</svg>
