<?xml version="1.0" encoding="utf-8"?>
<!-- Generator: Adobe Illustrator 21.0.0, SVG Export Plug-In . SVG Version: 6.00 Build 0)  -->
<!DOCTYPE svg PUBLIC "-//W3C//DTD SVG 1.1//EN" "http://www.w3.org/Graphics/SVG/1.1/DTD/svg11.dtd">
<svg version="1.1" id="Ebene_1" xmlns="http://www.w3.org/2000/svg" xmlns:xlink="http://www.w3.org/1999/xlink" x="0px" y="0px"
	 width="283.5px" height="283.5px" viewBox="0 0 283.5 283.5" enable-background="new 0 0 283.5 283.5" xml:space="preserve">
<path fill="#E74914" d="M215,196.6c-8.8,0-15.9-7.1-15.9-15.9c0-8.8,7.1-15.9,15.9-15.9c8.8,0,15.9,7.1,15.9,15.9
	C230.8,189.5,223.7,196.6,215,196.6"/>
<g>
	<circle fill="#2DAC81" cx="29.3" cy="172.1" r="15.9"/>
	<circle fill="#2DAC81" cx="70.6" cy="180.8" r="15.9"/>
	<circle fill="#2DAC81" cx="111.9" cy="189.5" r="15.9"/>
</g>
<path fill="#2DAC81" d="M142.2,283.8C64,283.8,0.3,220.2,0.3,141.9C0.3,63.7,64,0,142.2,0s141.9,63.7,141.9,141.9
	C284.1,220.2,220.5,283.8,142.2,283.8z M142.2,10.3c-72.5,0-131.6,59-131.6,131.6c0,72.5,59,131.6,131.6,131.6
	c72.5,0,131.6-59,131.6-131.6C273.8,69.4,214.8,10.3,142.2,10.3z"/>
<path fill="#2DAC81" d="M201.6,136.4l-16.2-34.6l-7.1,7.1c-15.9-12.7-31.7-17.8-47-15.2c-30.7,5.2-47.5,39.6-48.2,41.1
	c-0.9,1.9-0.1,4.2,1.8,5.2c0.5,0.3,1.1,0.4,1.7,0.4c1.4,0,2.8-0.8,3.5-2.2c0.2-0.3,15.8-32.3,42.5-36.8c12.8-2.2,26.2,2.2,40.1,13.1
	l-5.9,5.9L201.6,136.4z"/>
<g>
	<path fill="#2DAC81" d="M135.4,273.3v-36.4h0c0-13-10.5-23.5-23.5-23.5c-7.6,0-14.3,3.6-18.6,9.2c-2.5-10.3-11.7-17.9-22.8-17.9
		c-7.6,0-14.3,3.6-18.6,9.2c-2.5-10.3-11.7-17.9-22.8-17.9c-2.3,0-4.4,0.3-6.5,0.9C42.8,240.1,85.4,270.7,135.4,273.3z"/>
</g>
<g>
	<path fill="#E74914" d="M238.4,231.5v-3.3c0,0,0,0,0,0c0-13-10.5-23.5-23.5-23.5c-13,0-23.5,10.5-23.5,23.5v0v35.6
		C209.5,256.6,225.4,245.5,238.4,231.5z"/>
</g>
</svg>
