<?xml version="1.0" encoding="utf-8"?>
<!-- Generator: Adobe Illustrator 21.0.0, SVG Export Plug-In . SVG Version: 6.00 Build 0)  -->
<!DOCTYPE svg PUBLIC "-//W3C//DTD SVG 1.1//EN" "http://www.w3.org/Graphics/SVG/1.1/DTD/svg11.dtd">
<svg version="1.1" id="Ebene_1" xmlns="http://www.w3.org/2000/svg" xmlns:xlink="http://www.w3.org/1999/xlink" x="0px" y="0px"
	 width="283.5px" height="283.5px" viewBox="0 0 283.5 283.5" enable-background="new 0 0 283.5 283.5" xml:space="preserve">
<g>
	<path fill="#2DAC81" d="M166.2,235.7l9.5-12.2l-40.1-31.4c-5.1-14.6-19-25.1-35.3-25.1c-20.7,0-37.5,16.8-37.5,37.5h0v42.1
		c21,15.8,46.9,25.5,74.9,26.3v-59.5L166.2,235.7z"/>
</g>
<path fill="#2DAC81" d="M100.3,154.1c14,0,25.3-11.3,25.3-25.3c0-14-11.3-25.3-25.3-25.3s-25.3,11.3-25.3,25.3
	C74.9,142.8,86.3,154.1,100.3,154.1"/>
<path fill="#E74914" d="M178.9,204.7c7.5,0,13.5-6.1,13.5-13.5c0-7.5-6.1-13.5-13.5-13.5c-7.5,0-13.5,6.1-13.5,13.5
	C165.3,198.6,171.4,204.7,178.9,204.7"/>
<path fill="#E74914" d="M198.9,231.6c0-11.1-9-20-20-20c-11.1,0-20,9-20,20l0,0v40.1h40.1L198.9,231.6
	C198.9,231.7,198.9,231.7,198.9,231.6z"/>
<path fill="#2DAC81" d="M141.7,283.4C63.6,283.4,0,219.9,0,141.7S63.6,0,141.7,0s141.7,63.6,141.7,141.7S219.9,283.4,141.7,283.4z
	 M141.7,10.3c-72.4,0-131.4,58.9-131.4,131.4c0,72.4,58.9,131.4,131.4,131.4c72.4,0,131.4-58.9,131.4-131.4
	C273.1,69.3,214.2,10.3,141.7,10.3z"/>
</svg>
