<?xml version="1.0" encoding="utf-8"?>
<!-- Generator: Adobe Illustrator 21.0.0, SVG Export Plug-In . SVG Version: 6.00 Build 0)  -->
<!DOCTYPE svg PUBLIC "-//W3C//DTD SVG 1.1//EN" "http://www.w3.org/Graphics/SVG/1.1/DTD/svg11.dtd">
<svg version="1.1" id="Ebene_1" xmlns="http://www.w3.org/2000/svg" xmlns:xlink="http://www.w3.org/1999/xlink" x="0px" y="0px"
	 width="283.5px" height="79.6px" viewBox="0 0 283.5 79.6" style="enable-background:new 0 0 283.5 79.6;" xml:space="preserve">
<g>
	<path d="M155.8,0.2C156.7,1,158,1,159,1.6c0.4,0.2,1.3,0.1,0.9,1.1c0,0.1,0.2,0.3,0.3,0.3c1.3,0.4,2.3,1.3,3.6,1.5l0,0
		c0,0.3,0.3,0.3,0.5,0.3l0,0c0.1,0.4,0.4,0.5,0.7,0.5l0,0c0.1,0.3,0.3,0.3,0.5,0.3l0,0c0.1,0.4,0.4,0.5,0.7,0.5l0,0
		c0.1,0.4,0.4,0.5,0.7,0.5l0,0c0.1,0.4,0.4,0.5,0.7,0.5l0,0c0,0.2,0.1,0.3,0.3,0.3c0.6,0.3,0.7,1.4,1.7,1.1
		c7,6.5,11.8,14.1,12.7,23.8c1.7,17.1-7.3,32.1-23.4,38.1c-13.3,4.9-25.6,3.1-36.6-6.2c-0.8-1.1-1.8-2-3-2.7
		c-0.1-0.1-0.1-0.5-0.4-0.5l0,0c0-0.2-0.1-0.3-0.3-0.3l0,0c0-0.2-0.1-0.3-0.3-0.3l0,0c0.1-0.3,0-0.4-0.3-0.5l0,0
		c-0.2-0.3-0.3-0.7-0.8-0.7c0.1-0.2,0-0.4-0.2-0.5c-0.1-0.2-0.1-0.5-0.5-0.5c0.1-0.4-0.1-0.6-0.5-0.7c0.1-0.2,0-0.4-0.2-0.5
		c0-0.2-0.1-0.4-0.3-0.5c0,0-0.1,0.1-0.1,0.1c0.1,0.1,0.1,0.4,0.4,0.3c-0.1,0.2,0,0.4,0.2,0.5c0,0.3,0.2,0.6,0.5,0.7
		c0.1,0.2,0.1,0.5,0.5,0.5c-0.1,0.2,0,0.4,0.2,0.5c0.1,0.2,0.2,0.4,0.3,0.6c0,1.2,0.7,1.8,1.6,2.3l0,0c0.5,1,1.1,1.7,2.1,2.2
		c5,4.7,10.8,7.7,17.5,9.1c16.9,3.5,33.1-4.2,41.2-19.4c7.7-14.4,4.6-33-7.2-44.2c-3.4-3.2-7.1-5.7-11.3-7.6
		c-0.3-0.1-0.7-0.1-0.7-0.6c0.5-0.2,0.8,0.1,1.2,0.2c13.7,5.9,22.2,16.1,24.9,30.8c4,22.3-11,43.1-32.8,47
		c-22.2,4-42.4-10.3-47-31.2c-4.7-21.5,8.1-40.4,24.9-46.9C138-0.7,143.9-1.4,150-1c1.2,1,2.7,0.7,4.1,1c0.1,0,0.2-0.3,0.3-0.4
		c0.3,0,0.6,0.1,0.9,0.1C155.1,0.2,155.5,0.1,155.8,0.2z M158.9,2.3c-0.2,0-0.3,0-0.5,0c0-0.2-0.1-0.4-0.4-0.3
		c-0.1,0-0.2,0.1-0.2,0.1c0.1,0.2,0.3,0.1,0.5,0.1C158.6,2.6,158.8,2.6,158.9,2.3C159,2.3,159,2.2,158.9,2.3
		C159,2.2,159,2.3,158.9,2.3z M126.7,5.9c-0.4,0-0.6,0.1-0.7,0.5c-0.4,0-0.6,0.1-0.7,0.5c-0.4,0-0.6,0.2-0.7,0.5
		c-0.4,0.1-0.8,0.2-1.1,0.5c-1.4,1.3-2.9,2.4-4.1,3.8c-0.3,0.4-0.7,0.7-0.6,1.2c-0.7,0.4-0.8,1.3-1.4,1.7c-0.5,0-0.5,0.4-0.5,0.7
		c-0.3,0.3-0.3,0.8-0.7,1c-0.3,0-0.4,0.2-0.5,0.4c-1,1.4-1.6,3-2.4,4.6c-0.3,0.6-0.7,1.1-0.7,1.8c-0.3,0.2-0.3,0.5-0.2,0.7
		c-0.5,0.3-0.5,0.8-0.5,1.3c-0.2,0.4-0.7,0.8,0.1,1.1c0,0.1-0.1,0.3-0.1,0.4c-0.7,0-1.1,0.2-0.7,1c0,0.1,0,0.2,0.1,0.2
		c-0.8,0.5-0.6,1.3-0.6,1.9c0,0.4-1.1,1,0.1,1.2c-0.9,1.4-0.8,2.9-0.8,4.4c0,1.7,0,3.4,0,5.1c0,0.3-0.1,0.7,0.2,0.9
		c0.4-0.4,0.2-0.7,0.2-1c-0.5-2.3-0.3-7.5,0.4-8.2c-0.1,9.2,2.1,18.6,4.9,21.3c-11.8-22.7,2.7-48.7,26.4-52.1
		c-0.8-0.2-1.5-0.2-2.3,0c-1.5,0.3-3,0.6-4.5,0.9c0.1-0.3,0.6-0.3,0.4-0.6c-0.2-0.3-0.4,0-0.7,0.1c-0.2,0.1-0.4,0.2-0.6,0.3
		c-0.7,0.2-1.4,0.2-1.9,0.9c-1.4,0.2-2.5,0.9-3.7,1.7c-0.5,0-1,0-1.1,0.7C127.1,5.5,126.7,5.5,126.7,5.9z M115.3,56.1
		c0,0.1,0.1,0.1,0.1,0.2c0,0,0-0.1,0.1-0.1C115.5,56.2,115.4,56.1,115.3,56.1c0-0.3-0.1-0.6-0.4-0.6C115,55.7,115.1,55.9,115.3,56.1
		z M111.1,46.5c0.2,1,0.5,2,1.2,2.9c-0.3-1-0.7-1.9-1-2.9c0-0.2,0-0.5-0.2-0.6c-0.1-0.1-0.2,0-0.2,0.1
		C110.7,46.2,110.9,46.4,111.1,46.5z M144.7,0.4c1.1,0,2.3,0,3.4,0c1-0.1,2,0.1,3.3,0.2c-1.2-0.7-2.3-0.2-3.3-0.6
		c-1.2-0.2-2.4-0.2-3.6,0c-1,0.3-2.2-0.1-3.4,0.6C142.5,0.5,143.6,0.3,144.7,0.4z M114.6,54.8c0,0.1,0.1,0.1,0.1,0.2
		c0,0,0.1-0.1,0.1-0.1C114.7,54.9,114.7,54.9,114.6,54.8c-0.4-1.4-1.3-2.5-1.8-3.8C113,52.2,113.8,53.8,114.6,54.8z M132.7,44.5
		c1.4,0.6,2.8,1.1,4.2,1.2c3.1,0.3,6.2,0.6,9.3,1.2c0.9,0.2,1.6,0.2,2.3-0.6c0,0.8,0.4,1.1,1,1.3c0.6,0.2,1.3,0.2,1.5,1
		c0.1,0.9-0.5,1.4-1.1,1.8c-1.5,1-3.3,1.3-5,1.4c-1,0.1-2-0.1-3,0.1c-0.3,0.1-0.9,0-0.9,0.4c0,0.5,0.5,0.5,0.9,0.6
		c0.3,0.1,0.6,0.1,0.9,0.2c1.6,0.4,2.9,1,2.8,3c0,1,0.9,1.3,1.8,1.4c0.7,0.1,1.4-0.1,2,0.2c0.9,0.4,1.7,0.3,2.5-0.1
		c10.5-4.4,16.7-12.2,17.7-23.5c1.6-16.6-11.3-29.4-26-30.3c-16-0.9-29.5,11.7-29.5,27.7c0,12.4,8.1,23.1,19.9,26.7
		c2.6,0.8,4.6,0,6.7-0.9c0.5-0.2,0.9-0.6,0.9-1.3c-0.1-0.7-0.6-0.9-1.1-1.1c-1.1-0.3-2.2-0.7-3.3-1.1c-0.5-0.2-1.1-0.5-1.1-1.2
		c0-0.7,0.6-0.9,1.1-1.1c1.6-0.6,3.3-0.7,4.9-1c1.9-0.3,3.9,0.1,5.8-0.6c0.5-0.2,1.3-0.3,1.3-1.1c0-0.6-0.7-0.8-1.2-1
		c-2.8-1-5.8-1.4-8.7-1.7c-2.5-0.2-5-0.4-7.1-2C132.5,44.6,132.6,44.6,132.7,44.5z M142.9,0.9c1.6,0.8,3.2-0.1,4.8,0
		C146.2,0.9,144.6,0.9,142.9,0.9z M156.1,1.3c-0.5-0.2-0.8-0.5-1.5-0.3C155.1,1.3,155.4,1.7,156.1,1.3z M112.2,49.7
		c-0.1,0.5,0.1,0.7,0.3,1.1C112.7,50.3,112.5,50.1,112.2,49.7z M116,54.5c0-0.1,0.1-0.2,0-0.2c-0.1-0.1-0.1-0.4-0.3-0.3
		C115.5,54.1,115.8,54.4,116,54.5z M138.3,1.3c-0.2-0.2-0.4-0.3-0.7-0.2C137.8,1.4,138,1.4,138.3,1.3z M110.7,45.1
		c0,0.1-0.1,0.1-0.1,0.2c0.1,0,0.1,0.1,0.2,0.1c0,0,0.1-0.1,0.1-0.2C110.8,45.1,110.7,45.1,110.7,45.1z M110.4,42.9
		c0-0.1,0-0.2-0.1-0.2c0,0-0.1,0-0.2,0.1c0,0.1,0,0.2,0.1,0.2C110.3,43,110.3,42.9,110.4,42.9z M110.7,44.2c-0.1,0-0.1-0.1-0.2-0.1
		c0,0-0.1,0.1-0.1,0.2c0.1,0,0.1,0.1,0.2,0.1C110.6,44.4,110.6,44.3,110.7,44.2z M152.8,0.7c0-0.1,0-0.1,0.1-0.2
		c0,0-0.1-0.1-0.1-0.1c-0.1,0-0.1,0.1-0.1,0.1C152.7,0.6,152.7,0.7,152.8,0.7z M136.1,1.4c0,0-0.1,0-0.1,0c0,0,0,0.1,0,0.1
		C136.1,1.5,136.1,1.5,136.1,1.4C136.1,1.5,136.1,1.4,136.1,1.4z M136.9,1.4c0.1,0,0.1,0,0.1-0.1c0,0-0.1,0-0.1,0
		C136.8,1.3,136.9,1.4,136.9,1.4z M140.1,0.7c0,0,0-0.1,0-0.1c0,0-0.1,0-0.1,0C140,0.6,140,0.6,140.1,0.7C140,0.7,140,0.7,140.1,0.7
		z M138.9,0.9C138.9,0.8,138.9,0.8,138.9,0.9c-0.1-0.1-0.1,0-0.1,0C138.8,0.9,138.8,0.9,138.9,0.9C138.8,0.9,138.9,0.9,138.9,0.9z"
		/>
	<path d="M218.2,34.7c-1.1,3.1-2.2,6.1-3.3,9.1c-0.2,0.6-0.4,1-1.2,1c-0.8,0-1.2-0.1-1.6-0.9c-1.2-3-2.5-6-3.8-9
		c-0.3,0.2-0.1,0.5-0.1,0.7c0,3-0.3,6-0.5,9c-0.1,1.1-0.8,0.9-1.4,0.9c-0.8,0-0.8-0.4-0.8-1c0.4-3.9,0.7-7.8,1.1-11.7
		c0.1-0.6,0.3-1.1,1-1.1c0.8,0,1.6-0.1,2,0.8c0.8,2.1,1.7,4.2,2.6,6.2c0.4,1,0.9,2.1,1.4,3.3c1.2-3.2,2.3-6.2,3.3-9.1
		c0.4-1.1,1.1-1.3,2.1-1.2c0.6,0.1,0.9,0.4,1,1c0.5,3.9,1,7.9,1.5,11.8c0.1,0.5,0.3,1.1-0.6,1.1c-0.7,0-1.5,0.3-1.6-0.9
		c-0.3-3.1-0.7-6.1-0.9-9.2C218.3,35.1,218.2,35,218.2,34.7z"/>
	<path d="M92.4,41.7c-0.9,1-1.5,1.9-1.8,3c-0.2,0.6-0.6,0.8-1.2,0.7c-0.7,0-0.7-0.6-0.7-1c0-4.7,0-9.3,0-14c0-0.8,0.4-1.1,1.2-1.1
		c0.9,0,1.1,0.4,1.1,1.2c-0.1,3.6,0.2,7.1-0.3,11c1.2-1.6,2.1-3,3.1-4.3c0.4-0.6,1-1.2,1.5-1.8c0.5-0.6,0.9-0.6,1.4-0.1
		c0.2,0.2,0.3,0.9,0.7,0.5c0.5-0.5,1.5-0.2,1.6-1.2c0-0.4,0.1-0.8,0.2-1.2c0.1-0.6,0.4-0.9,1-0.9c0.7,0,0.7,0.5,0.7,1
		c0.1,1.7,0.1,1.6,1.8,1.7c0.5,0,1.1-0.3,1.3,0.4c0.3,0.8-0.1,1.4-1,1.4c-2.1,0.1-2.1,0.1-2.1,2.2c0,0.9,0,1.8,0,2.8
		c0,1.7,0.5,2,2,1.2c0.9-0.4,1.2-0.1,1.4,0.6c0.1,0.3,0,0.6-0.3,0.8c-0.9,0.8-3,1.1-4,0.5c-0.9-0.5-1.2-1.2-1.3-2.2
		c0-1.7,0-3.4,0-5.1c0-0.4,0.2-1-0.5-0.9c-0.6,0.1-1-1-1.7,0c-0.6,0.9-1.5,1.6-2.3,2.4c-0.4,0.4-0.5,0.8-0.1,1.3
		c0.5,0.7,0.9,1.4,1.3,2c0.3,0.4,0.6,0.8,1.2,0.6c0.6-0.1,0.9,0.2,0.9,0.8c0.1,0.6-0.1,1-0.7,1.2c-1,0.4-2.1-0.1-2.9-1.2
		c-0.3-0.4-0.5-0.8-0.7-1.2C92.9,42.6,92.7,42.2,92.4,41.7z"/>
	<path d="M197.6,38.1c2.2,0.7,3,1.6,2.9,3.4c-0.1,1.8-1.1,3.2-3.1,3.6c-2.1,0.5-4.3,0.2-6.5,0.2c-0.6,0-0.8-0.4-0.8-1
		c0-4,0-7.9,0-11.9c0-0.7,0.3-1,1-1c1.8,0,3.5-0.2,5.3,0.1c2.7,0.5,4,2.8,2.8,5C198.8,37.4,198.2,37.7,197.6,38.1z M192.3,41.5
		c0,0.5,0,1,0,1.4c0,0.3,0,0.6,0.4,0.6c1.3-0.1,2.7,0.2,3.9-0.2c0.9-0.3,1.4-1,1.4-2c0-1-0.6-1.5-1.5-1.8c-0.6-0.2-1.3-0.2-1.9-0.3
		C192.3,39.2,192.3,39.2,192.3,41.5z M192.3,35.5c0,0.5,0,1,0,1.4c0,0.3,0,0.6,0.4,0.6c1.2,0,2.4,0.1,3.5-0.5c0.8-0.4,1-1.1,0.9-1.9
		c-0.1-0.8-0.6-1.3-1.4-1.4c-0.5-0.1-1-0.2-1.5-0.2C192,33.5,192.4,33.2,192.3,35.5z"/>
	<path d="M278.1,44.1c1.2-0.2,2.3-0.1,3.4,0.4c1.1,0.4,1.8,1.2,1.9,2.4c0.1,1.1-0.4,2-1.3,2.7c-1.7,1.2-4.8,1.3-6.5,0.2
		c-1.5-1-1.9-2.7-1-4.4c0.3-0.6,0.8-1.1,1.3-1.6c0.5-0.4,1-0.8,1.6-1.3c-1.5-0.5-2.8-1.2-3.3-2.8c-0.3-1-0.1-1.9,0.4-2.8
		c1.3-2.2,4.3-2.5,6.9-0.7c0.2-0.6-0.2-1.2-0.2-1.7c-0.1-0.4-0.3-0.9,0.3-1.1c0.6-0.1,1.3-0.2,1.5,0.6c0,0,0,0.1,0,0.1
		c0.7,2.2-1,6.9-2.9,8.2c-0.8,0.5-1.6,0.9-2.3,1.6c-0.1,0-0.2,0-0.1,0.2C277.9,44.2,278,44.2,278.1,44.1z M280.6,38.8
		c0-1.2-0.9-1.8-2.3-1.8c-1.3,0-2.1,0.8-2,2c0.1,1.2,1,1.9,2.3,1.9C279.8,40.8,280.7,39.9,280.6,38.8z M278.5,45.7
		c-0.3,0-0.6,0-1,0.1c-0.7,0.1-1.4,0.2-1.5,1.1c-0.1,0.9,0.5,1.3,1.2,1.6c1,0.3,2.1,0.3,3.1-0.1c0.5-0.2,0.9-0.6,0.9-1.3
		c0-0.6-0.4-0.9-1-1.1C279.7,45.8,279.2,45.7,278.5,45.7z"/>
	<path d="M48.4,44.1c1.2-0.1,2.3,0,3.4,0.4c1,0.5,1.7,1.2,1.8,2.4c0.1,1.2-0.4,2.1-1.4,2.7c-1.9,1.2-3.9,1.2-5.9,0.4
		c-2.1-0.8-2.6-2.7-1.6-4.6c0.4-0.6,0.8-1.2,1.4-1.7c0.5-0.4,1-0.9,1.6-1.3c-1.8-0.4-3.1-1.3-3.4-3.2c-0.2-1.5,0.3-2.7,1.6-3.5
		c2-1.2,3.9-1,5.7,0.4c0.2-0.7-0.1-1.2-0.2-1.8c-0.1-0.4-0.2-0.9,0.4-1c0.5-0.1,1.2-0.2,1.4,0.5c0.1,0.3,0.2,0.7,0.1,1.1
		c-0.1,3.4-0.7,6.6-4.2,8.2c-0.4,0.2-0.7,0.5-1,0.7C48.1,44,47.9,44,48,44.2C48,44.2,48.3,44.1,48.4,44.1z M50.8,38.8
		c0-1.2-0.8-1.9-2.3-1.8c-1.2,0-2.1,0.7-2.1,1.8c0,1.1,1,2,2.2,2C49.9,40.8,50.8,40,50.8,38.8z M48.9,48.8c0.4-0.1,0.9-0.1,1.3-0.2
		c0.6-0.2,1.2-0.5,1.2-1.3c0-0.8-0.6-1.1-1.3-1.4c-0.7-0.2-1.4-0.2-2.1-0.1c-0.7,0.1-1.6,0.1-1.7,1.1c-0.1,1,0.6,1.5,1.5,1.7
		C48.2,48.7,48.6,48.7,48.9,48.8z"/>
	<path d="M57.1,44.3c0,1.8,0,3.4,0,5c0,0.9-0.3,1.3-1.2,1.3c-1,0-1.1-0.6-1.1-1.3c0-3.6,0-7.3,0-10.9c0-0.6-0.1-1.2-0.2-1.8
		c0-0.5-0.3-1,0.4-1.2c0.6-0.1,1.3-0.1,1.5,0.7c0.1,0.2,0.2,0.4,0.3,0.7c0.5-0.4,0.8-0.8,1.3-1.1c2.1-1.4,5-0.4,5.8,2
		c0.6,1.8,0.5,3.6-0.2,5.4C62.6,45.7,59.5,46.8,57.1,44.3z M62.1,40.1c0-2.3-1.4-3.6-3.2-3c-1.2,0.4-1.9,1.7-2,3.3
		c0,1.5,0.7,2.8,1.9,3.2c1.1,0.4,2.2,0.1,2.8-1C61.9,41.8,62.1,41,62.1,40.1z"/>
	<path d="M242.5,36.8c1.3-1.7,2.9-2.2,4.8-1.5c1.9,0.6,2.5,2.2,2.7,4c0.1,1,0,2.1-0.3,3.1c-1.2,3.4-4,4.2-6.9,2c0,1.6,0,3.1,0,4.6
		c0,0.8,0.1,1.6-1.2,1.6c-1.2,0-1.1-0.7-1.1-1.5c0-3.6,0-7.1,0-10.7c0-0.6-0.1-1.2-0.2-1.8c0-0.5-0.3-1.1,0.5-1.3
		c0.7-0.1,1.3,0,1.5,0.8C242.2,36.3,242.3,36.5,242.5,36.8z M247.7,40.1c0-1.2-0.2-2.4-1.4-3c-0.9-0.5-1.9-0.2-2.7,0.5
		c-1.4,1.3-1.5,4-0.2,5.3c1.3,1.4,3.2,1,3.9-0.7C247.5,41.6,247.7,40.9,247.7,40.1z"/>
	<path d="M12.9,44.3c0,1.8,0,3.5,0,5.1c0,0.9-0.2,1.2-1.2,1.2c-0.9,0-1.1-0.4-1.1-1.2c-0.1-4.4,0.3-8.9-0.3-13.3
		c0-0.3,0-0.7,0.4-0.8c0.5-0.1,1-0.2,1.3,0.3c0.2,0.3,0.3,0.6,0.5,1.1c0.9-0.9,1.9-1.6,3.2-1.6c1.9,0,3.4,0.9,4,2.7
		c0.6,1.8,0.5,3.6-0.3,5.4C18.4,45.6,15.3,46.8,12.9,44.3z M12.7,40.4c0,0.2,0,0.4,0,0.6c0.2,1.5,1.4,2.7,2.7,2.8
		c1.4,0,2.2-1,2.5-3.3c0.2-1.7-0.6-3.3-1.8-3.5c-0.2,0-0.3,0-0.5,0C13.8,37,12.6,38.4,12.7,40.4z"/>
	<path d="M4.1,45.7c-1.1-0.1-2.3-0.3-3.4-1c-0.6-0.4-0.8-0.8-0.4-1.5c0.4-0.6,0.7-0.9,1.4-0.5c1,0.6,2,0.9,3.2,0.8
		c0.8-0.1,1.4-0.4,1.6-1.2c0.2-0.8,0-1.5-0.7-2c-0.8-0.5-1.7-0.8-2.5-1.2c-1.5-0.7-2.8-1.6-3.1-3.4c-0.2-1.4,0.2-2.5,1.3-3.4
		c1.6-1.2,4.4-1.2,6.1-0.2c0.7,0.4,0.9,0.9,0.5,1.7c-0.4,0.8-0.9,0.7-1.5,0.3C5.9,33.6,5,33.3,4,33.5c-0.7,0.2-1.3,0.5-1.4,1.3
		c-0.1,0.7,0.2,1.4,0.8,1.7c0.7,0.4,1.5,0.7,2.2,1c1.4,0.6,2.7,1.3,3.2,2.9C9.7,43.2,7.5,45.8,4.1,45.7z"/>
	<path d="M234.1,45.7c-1.3,0-2.5-0.3-3.6-1c-0.7-0.4-0.7-0.8-0.4-1.5c0.4-0.7,0.7-0.9,1.4-0.5c0.9,0.5,2,0.9,3.1,0.8
		c0.9-0.1,1.5-0.5,1.8-1.4c0.2-0.9-0.2-1.5-0.9-1.9c-0.5-0.3-1.1-0.6-1.7-0.8c-0.9-0.4-1.8-0.8-2.5-1.5c-2.2-2-1.7-5.1,1-6.2
		c1.8-0.7,3.6-0.6,5.3,0.5c0.7,0.4,0.7,0.9,0.4,1.6c-0.4,0.7-0.8,0.7-1.5,0.3c-0.8-0.5-1.6-0.8-2.5-0.7c-0.7,0.1-1.5,0.3-1.6,1.2
		c-0.2,0.9,0.1,1.6,0.9,2c1,0.5,2.1,0.9,3.1,1.5c1.2,0.7,2.1,1.6,2.2,3.1C239,43.8,237,45.8,234.1,45.7z"/>
	<path d="M79.6,36.9c1-1.2,2.1-1.8,3.5-1.8c1.7,0,2.8,0.8,3.1,2.5c0.4,2.4,0.1,4.8,0.2,7.2c0,0.8-0.7,0.7-1.2,0.7
		c-0.7,0-0.9-0.2-0.9-0.9c0-1.6,0-3.3,0-4.9c0-1.9-0.5-2.6-1.7-2.6c-1.4,0-2.6,1.2-2.6,2.7c-0.1,1.5,0,3.1,0,4.6
		c0,0.8-0.2,1.2-1.1,1.2c-0.9,0-1.2-0.3-1.2-1.2c0-2.7,0.2-5.5-0.1-8.2c0-0.4,0-0.8,0.5-0.8c0.5,0,1-0.2,1.3,0.4
		C79.3,36,79.4,36.4,79.6,36.9z"/>
	<path d="M265.8,36.8c0.9-1.1,1.9-1.8,3.3-1.8c1.8,0,2.9,0.7,3.2,2.4c0.5,2.4,0.1,4.9,0.2,7.3c0,0.8-0.7,0.6-1.2,0.6
		c-0.6,0-1-0.2-1-0.9c0-1.9,0-3.8,0-5.7c0-0.7-0.2-1.5-1-1.8c-0.8-0.3-1.6-0.1-2.3,0.4c-0.7,0.6-1.1,1.3-1.1,2.3c0,1.5,0,3.1,0,4.6
		c0,0.7-0.2,1.1-1,1.1c-0.8,0-1.2-0.2-1.3-1c0-2.8,0.1-5.6-0.1-8.4c0-0.3,0-0.7,0.5-0.7c0.5,0,1-0.2,1.3,0.4
		C265.5,36,265.6,36.4,265.8,36.8z"/>
	<path d="M35.9,36.9c0.9-1.2,2-1.9,3.4-1.9c1.8,0,2.9,0.9,3.2,2.6c0.3,2.3,0.1,4.7,0.1,7c0,0.8-0.6,0.8-1.2,0.8c-0.6,0-1-0.1-1-0.9
		c0-1.7,0-3.4,0-5.1c0-1.8-0.4-2.5-1.5-2.6c-1.4-0.1-2.7,1-2.8,2.5c-0.1,1.6-0.1,3.2,0,4.8c0,0.8-0.2,1.2-1.1,1.1
		c-0.8,0-1.1-0.3-1.1-1.1c0-2,0-4,0-6c0-0.6-0.1-1.1-0.1-1.7c0-0.5-0.4-1.2,0.5-1.3c0.7-0.1,1.3,0.1,1.4,0.9
		C35.7,36.4,35.8,36.6,35.9,36.9z"/>
	<path d="M73,44c-0.6,0.7-1.2,1.3-2.2,1.6c-2.6,0.7-4.5-0.6-4.7-3.3c-0.1-2,0-4-0.1-6c0-0.9,0.5-0.9,1.1-1c0.7,0,1.1,0.2,1.1,1
		c0,1.7,0,3.4,0,5.1c0,1.7,0.5,2.4,1.6,2.5c1.4,0,2.7-1.1,2.7-2.5c0.1-1.6,0-3.1,0-4.7c0-0.8,0.1-1.4,1.1-1.4c1,0,1,0.5,1.1,1.3
		c0,2.7-0.2,5.4,0.3,8c0.1,0.4,0.1,0.8-0.4,0.8c-0.4,0.1-0.9,0.1-1.2-0.4C73.3,44.7,73.4,44.3,73,44z"/>
	<path d="M253.7,36.8c0.7-1.3,1.6-2,3-1.8c0.9,0.1,1.1,0.6,1,1.4c-0.1,0.8-0.4,1-1.2,0.8c-1.5-0.2-2.5,0.7-2.5,2.4
		c-0.1,1.5,0,3,0,4.6c0,0.8-0.2,1.2-1.1,1.2c-0.9,0-1.2-0.4-1.2-1.2c0-2.7,0.1-5.5-0.1-8.2c0-0.4,0-0.8,0.5-0.8
		c0.4,0,0.9-0.1,1.2,0.3C253.3,35.9,253.4,36.3,253.7,36.8z"/>
	<path d="M23.8,37c0.6-1.5,1.5-2.1,3-2c0.8,0.1,1.1,0.4,1,1.3c-0.1,0.7-0.3,1.1-1.2,1C25.1,37,24,38.1,24,39.9c0,1.5,0,3,0,4.4
		c0,0.8-0.2,1.2-1.1,1.2c-0.9,0-1.2-0.3-1.2-1.2c0-2.7,0.2-5.4-0.2-8.2c-0.1-0.4,0-0.8,0.5-0.8c0.5,0,1-0.2,1.3,0.4
		C23.5,36.1,23.6,36.5,23.8,37z"/>
	<path d="M28.5,39.9c0-1,0-2.1,0-3.1c0-0.8-0.1-1.5,1.1-1.5c1.2,0,1.1,0.7,1.1,1.4c0,2,0,3.9,0,5.9c0,0.6,0,1.2,0.9,0.9
		c0.6-0.2,0.7,0.3,0.8,0.6c0.2,0.4,0.1,0.8-0.3,1c-0.8,0.5-1.6,0.7-2.5,0.3c-0.8-0.3-1.1-1.1-1.1-1.9C28.5,42.3,28.5,41.1,28.5,39.9
		C28.5,39.9,28.5,39.9,28.5,39.9z"/>
	<path d="M258.3,39.7c0-1,0-2.1,0-3.1c0-0.9,0.2-1.3,1.2-1.3c1,0,1,0.5,1,1.2c0,2,0,4,0,6c0,0.7,0,1.3,1,1c0.6-0.2,0.6,0.3,0.8,0.7
		c0.2,0.4,0.1,0.8-0.3,1c-1.3,0.8-3.4,0.8-3.5-1.4C258.3,42.4,258.4,41,258.3,39.7C258.4,39.7,258.3,39.7,258.3,39.7z"/>
	<path d="M203,42.5c0.9,0.1,1.5,0.6,1.5,1.5c0.1,0.9-0.6,1.7-1.5,1.7c-0.8,0-1.6-0.8-1.6-1.6C201.5,43.2,202,42.6,203,42.5z"/>
	<path d="M225.5,43.9c0,1.1-0.7,1.9-1.5,1.8c-0.9-0.1-1.4-0.6-1.5-1.5c-0.1-0.9,0.7-1.6,1.5-1.6C225,42.6,225.4,43.1,225.5,43.9z"/>
	<path d="M31.1,32c-0.1,0.9-0.5,1.4-1.4,1.5c-0.8,0.1-1.6-0.6-1.6-1.4c0-0.8,0.7-1.6,1.5-1.5C30.5,30.6,31,31.1,31.1,32z"/>
	<path d="M259.4,33.5c-0.8,0-1.5-0.7-1.4-1.6c0.1-0.9,0.6-1.3,1.5-1.4c0.8-0.1,1.5,0.7,1.4,1.5C260.9,32.9,260.2,33.5,259.4,33.5z"
		/>
	<path d="M119.3,61.3c1.2,0.7,2.1,1.6,3,2.7c-0.3,0.1-0.6-0.2-0.8,0.2c-1-0.4-1.6-1.2-2.1-2.2c0,0,0-0.1,0-0.1c0,0,0,0.1-0.1,0.1
		c-0.9-0.5-1.6-1.1-1.6-2.3c0.1,0,0.3,0.1,0.4,0.1l0,0c-0.1,0.3,0,0.4,0.3,0.5l0,0c0.1,0.1,0.2,0.2,0.3,0.3l0,0
		c0,0.2,0.1,0.3,0.3,0.3l0,0C118.9,61.2,119.2,61.2,119.3,61.3z"/>
	<path d="M154.4-0.4c-0.1,0.2-0.3,0.4-0.3,0.4c-1.4-0.3-2.9,0-4.1-1C151.5-1,152.9-0.6,154.4-0.4z"/>
	<path d="M155.8,0.2c-0.2-0.1-0.7,0-0.4-0.5c1.6,0.3,3.1,0.6,4.6,1.2c0,0.1-0.1,0.2-0.1,0.3C158.5,0.9,157.1,0.6,155.8,0.2z"/>
	<path d="M169.6,8.3c-1,0.3-1.1-0.8-1.7-1.1c0-0.2-0.1-0.3-0.3-0.3l0,0c0-0.1,0-0.2,0-0.2c0.1-0.1,0.1-0.1,0.2-0.2
		C168.5,7,169.3,7.4,169.6,8.3z"/>
	<path d="M163.8,4.5c-0.3-0.2-0.6-0.4-0.9-0.6c0.1-0.1,0.2-0.2,0.3-0.3c0.6,0.3,1.1,0.7,1.7,1c-0.1,0.1-0.2,0.2-0.3,0.2
		c-0.1,0-0.3-0.1-0.4-0.1l0,0C164.1,4.5,164,4.5,163.8,4.5L163.8,4.5z"/>
	<path d="M164.9,4.6c0.4,0.2,0.8,0.5,1.2,0.7c-0.1,0.1-0.1,0.2-0.2,0.2c-0.1,0-0.3-0.1-0.4-0.1l0,0c-0.1-0.2-0.3-0.3-0.5-0.3l0,0
		c-0.1-0.1-0.2-0.3-0.3-0.4C164.7,4.7,164.8,4.6,164.9,4.6z"/>
	<path d="M166.1,5.3c0.2,0.2,0.5,0.3,0.7,0.5c-0.1,0.1-0.1,0.1-0.2,0.2c-0.1,0-0.3-0.1-0.4-0.1l0,0c-0.1-0.1-0.2-0.3-0.3-0.4
		C165.9,5.4,166,5.4,166.1,5.3z"/>
	<path d="M166.8,5.8c0.2,0.2,0.5,0.4,0.7,0.5c-0.1,0.1-0.1,0.1-0.2,0.2c-0.1,0-0.3-0.1-0.4-0.1l0,0c-0.1-0.1-0.2-0.3-0.3-0.4
		C166.7,5.9,166.7,5.9,166.8,5.8z"/>
	<path d="M162.9,3.9c-0.2-0.2-0.7-0.1-0.4-0.5c0.2-0.3,0.5,0,0.7,0.2C163.1,3.7,163,3.8,162.9,3.9z"/>
	<path d="M167.5,6.3c0.1,0.1,0.2,0.1,0.3,0.2c0,0.1-0.1,0.1-0.2,0.2c-0.1-0.1-0.2-0.1-0.3-0.2C167.4,6.4,167.4,6.4,167.5,6.3z"/>
	<path d="M132.4,44.7c-0.3-0.3-0.6-0.5-0.9-0.8c-0.8-1.1-0.5-1.9,0.8-2.2c0.7-0.2,1.4-0.2,2.1-0.6c1.1-0.7,1.1-1.4,0.1-2.1
		c-0.9-0.5-1.1-1.3-1-2.2c0.7-4.7,2.5-7.4,6.7-10.2c-0.4,1,0.2,1.5,0.8,2c2.3,1.8,2.9,6.7,1.3,9.1c-0.9,1.3-2.2,2-3.8,2
		c-1.2,0-2.1,0.3-2.8,1.3c-0.6,0.7-1.4,1-2.3,1.2c-1.4,0.3-1.6,1.2-0.7,2.4C132.6,44.6,132.5,44.6,132.4,44.7z"/>
	<path d="M125,7.4c-1.1,1.4-2.6,2.2-3.8,3.4c-0.8,0.8-1.4,1.7-2.5,2.2c-0.1-0.5,0.3-0.9,0.6-1.2c1.2-1.4,2.8-2.5,4.1-3.8
		c0.3-0.2,0.7-0.3,1.1-0.5C124.6,7.4,124.8,7.4,125,7.4z"/>
	<path d="M116.1,16.3c0,0.2,0.1,0.4,0,0.6c-1,1.7-1.9,3.5-2.9,5.2c0-0.3,0-0.6,0-0.9c0.8-1.5,1.4-3.2,2.4-4.6
		C115.7,16.5,115.8,16.3,116.1,16.3z"/>
	<path d="M111,27.9c0.3,1.1,0.2,2.2-0.5,3.2c-1.2-0.2-0.1-0.8-0.1-1.2C110.4,29.1,110.2,28.3,111,27.9z"/>
	<path d="M142.9,0.9c1.6,0,3.2,0,4.8,0C146.2,0.8,144.6,1.7,142.9,0.9z"/>
	<path d="M148.1,0.4c-1.1,0-2.3,0-3.4,0c-0.1-0.1-0.1-0.2-0.2-0.3c1.2-0.2,2.4-0.2,3.6,0C148.1,0.1,148.1,0.3,148.1,0.4z"/>
	<path d="M128.5,4.7c0.3,0,0.6-0.1,0.9-0.1c-0.7,0.6-1.3,1.2-2.3,1.3c0.1-0.2,0.2-0.3,0.3-0.5C127.5,4.8,128,4.7,128.5,4.7z"/>
	<path d="M112.2,24.5c0.2,0.6-0.2,1.2-0.4,1.7c-0.9-0.3-0.3-0.7-0.1-1.1C112,25,111.8,24.5,112.2,24.5z"/>
	<path d="M111.7,26.7c0.1,0.6-0.4,0.7-0.7,1C110.6,26.8,111,26.6,111.7,26.7z"/>
	<path d="M156.1,1.3c-0.7,0.4-1,0-1.5-0.3C155.3,0.8,155.6,1.1,156.1,1.3z"/>
	<path d="M134.2,2.4c-0.1,0-0.1-0.1-0.1-0.2c0.2-0.1,0.4-0.2,0.6-0.3c0.2-0.2,0.5-0.5,0.7-0.1c0.2,0.3-0.3,0.4-0.4,0.6c0,0,0,0,0,0
		C134.7,2.4,134.5,2.4,134.2,2.4z"/>
	<path d="M109.8,40.6c0.1,0,0.3-0.1,0.4-0.1c0,0.3,0.2,0.7-0.2,1C109.7,41.2,109.8,40.9,109.8,40.6z"/>
	<path d="M111.2,46.5c-0.1,0-0.1,0-0.1-0.1c-0.2-0.1-0.3-0.2-0.3-0.4c0-0.1,0.1-0.2,0.2-0.1C111.2,46.1,111.2,46.3,111.2,46.5z"/>
	<path d="M138.3,1.3c-0.3,0.1-0.5,0.2-0.7-0.2C137.9,1,138.1,1.1,138.3,1.3z"/>
	<path d="M117.3,14.6c0,0.3-0.1,0.6-0.5,0.7C116.8,15,116.8,14.6,117.3,14.6z"/>
	<path d="M110.7,45.1c0.1,0,0.1,0.1,0.2,0.1c0,0.1,0,0.2-0.1,0.2c0,0-0.1,0-0.2-0.1C110.6,45.2,110.6,45.1,110.7,45.1z"/>
	<path d="M110.4,42.9c-0.1,0-0.2,0.1-0.2,0.1c0,0-0.1-0.1-0.1-0.2c0.1,0,0.2-0.1,0.2-0.1C110.4,42.7,110.4,42.8,110.4,42.9z"/>
	<path d="M158.5,2.3c-0.2,0-0.4,0.1-0.5-0.1c0,0,0.1-0.1,0.2-0.1C158.4,1.9,158.5,2.1,158.5,2.3L158.5,2.3z"/>
	<path d="M110.7,44.2c0,0.1,0,0.2-0.1,0.2c0,0-0.1,0-0.2-0.1c0-0.1,0-0.2,0.1-0.2C110.5,44.1,110.6,44.2,110.7,44.2z"/>
	<path d="M152.8,0.7c-0.1,0-0.1-0.1-0.2-0.1c0,0,0.1-0.1,0.1-0.1c0,0,0.1,0,0.1,0.1C152.8,0.6,152.8,0.7,152.8,0.7z"/>
	<path d="M136.1,1.4C136.1,1.4,136.1,1.5,136.1,1.4c0,0.1,0,0.1-0.1,0.1c0,0,0-0.1,0-0.1C136,1.4,136.1,1.4,136.1,1.4z"/>
	<path d="M136.9,1.4c0,0,0-0.1,0-0.1c0,0,0.1,0,0.1,0C137,1.4,137,1.4,136.9,1.4z"/>
	<path d="M140.1,0.7C140,0.7,140,0.7,140.1,0.7C140,0.6,140,0.6,140,0.6c0,0,0.1,0,0.1,0C140.1,0.6,140.1,0.7,140.1,0.7z"/>
	<path d="M138.9,0.9C138.9,0.9,138.8,0.9,138.9,0.9c-0.1,0.1-0.1,0-0.1,0C138.8,0.8,138.8,0.8,138.9,0.9
		C138.9,0.8,138.9,0.8,138.9,0.9z"/>
	<path d="M158.5,2.3c0.2,0,0.3,0,0.5,0l0,0C158.8,2.6,158.6,2.6,158.5,2.3L158.5,2.3z"/>
	<path d="M158.9,2.3C159,2.3,159,2.2,158.9,2.3C159,2.2,159,2.3,158.9,2.3C159,2.3,158.9,2.3,158.9,2.3z"/>
	<path d="M119.4,62.1C119.4,62,119.5,62,119.4,62.1C119.5,62,119.5,62.1,119.4,62.1L119.4,62.1z"/>
	<path d="M151.6,44.4c-0.1,0.5-0.6,0.4-0.8,0.5c-0.5,0.2-0.5-0.3-0.6-0.6c-0.1-0.2-0.1-0.5,0.3-0.5
		C150.9,43.7,151.3,43.9,151.6,44.4z"/>
	<path d="M112.2,23.8c0.3-0.2,0.3-0.4,0.2-0.7c0.3,0,0.2-0.5,0.5-0.5c0,0.8-0.2,1.4-0.7,2C112.2,24.3,112.2,24,112.2,23.8z"/>
	<path d="M132.9,3c0.4-0.4,0.8-0.7,1.5-0.5C134,3,133.5,3.2,132.9,3z"/>
	<path d="M132.2,3c0.2,0,0.5,0,0.7,0c-0.1,0.6-0.7,0.4-1.1,0.7c-0.1-0.1-0.1-0.2-0.2-0.3C131.8,3.3,132,3.2,132.2,3z"/>
	<path d="M125.2,6.9c0.2,0,0.3,0,0.5,0c-0.1,0.4-0.3,0.6-0.7,0.5C125,7.2,125.1,7,125.2,6.9z"/>
	<path d="M125.9,6.4c0.2,0,0.3,0,0.5,0c-0.1,0.4-0.3,0.6-0.7,0.5C125.8,6.7,125.8,6.6,125.9,6.4z"/>
	<path d="M126.6,5.9c0.2,0,0.3,0,0.5,0c-0.1,0.4-0.3,0.6-0.7,0.5C126.5,6.2,126.6,6.1,126.6,5.9z"/>
	<path d="M134.2,2.4c0.3,0,0.5,0,0.8,0c-0.2,0.2-0.3,0.4-0.6,0.2C134.3,2.5,134.3,2.4,134.2,2.4z"/>
	<path d="M131.1,3.6c0.2-0.1,0.3-0.1,0.5-0.2c0.1,0.1,0.1,0.2,0.2,0.3c-0.2,0.1-0.3,0.2-0.5,0.2C131.3,3.8,131.2,3.7,131.1,3.6z"/>
	<path d="M130.6,3.9c0.2-0.1,0.3-0.1,0.5-0.2c0.1,0.1,0.1,0.2,0.2,0.3c-0.2,0.1-0.3,0.1-0.5,0.2C130.8,4,130.7,3.9,130.6,3.9z"/>
	<path d="M130.9,4.1c-0.2,0.1-0.4,0.3-0.6,0.1c-0.1-0.2,0.2-0.3,0.3-0.3C130.7,3.9,130.8,4,130.9,4.1z"/>
	<path d="M112.9,22.6c0-0.2,0-0.4,0.3-0.5C113.2,22.3,113.3,22.6,112.9,22.6z"/>
</g>
</svg>
