<?xml version="1.0" encoding="utf-8"?>
<!-- Generator: Adobe Illustrator 21.0.0, SVG Export Plug-In . SVG Version: 6.00 Build 0)  -->
<!DOCTYPE svg PUBLIC "-//W3C//DTD SVG 1.1//EN" "http://www.w3.org/Graphics/SVG/1.1/DTD/svg11.dtd">
<svg version="1.1" id="Ebene_1" xmlns="http://www.w3.org/2000/svg" xmlns:xlink="http://www.w3.org/1999/xlink" x="0px" y="0px"
	 width="132.9px" height="171.1px" viewBox="0 0 132.9 171.1" style="enable-background:new 0 0 132.9 171.1;" xml:space="preserve"
	>
<path style="fill:#303030;" d="M91.3,75.2c0-0.8,0-1.7,0-2.5c0-8.8,0-8.9,8.6-9.3c2.5-0.1,3.8-0.7,3.5-3.4c-0.1-1.3,0.1-2.7,0-4
	c-0.6-3.8,1.1-4.8,4.8-4.7c7.1,0.2,7.2,0,7.2-7c0-3,0.8-4.3,4-4c1.1,0.1,2.2-0.1,4.4-0.3c-5.3-5.7-9.9-10.8-14.6-15.8
	C105,19.7,101,15.3,96.9,11c-1-1.1-2-2.5-3.6-0.8c-9,9.7-18,19.4-27.9,30.1c8.9,0,16.5,0,24.1,0c6.7,0,13.3,0.1,20,0
	c2.5,0,4.1,0.3,4.1,3.4c0,3.2-1.5,3.4-4,3.4c-13.7-0.1-27.3,0.1-41-0.1c-4.3-0.1-5.7,0.9-5.6,5.5c0.3,13.3,0.1,26.7,0.1,40
	c0,2.4,0.6,5.1-3.5,5.1c-3.9-0.1-3.1-2.7-3.1-4.8c0-16.2,0-32.3-0.1-48.5c0-2.7,0.7-4.7,2.6-6.7C69.8,25.9,80.6,14.1,91.3,2.2
	c2.7-3.1,4.2-2.9,6.8,0.1c10.7,11.9,21.6,23.6,32.4,35.4c1.4,1.5,2.3,3,2.4,5.2c0.2,3.2-0.9,4.8-4.3,4.2c-5-0.8-7.5,0.9-6.6,6.3
	c0.7,3.8-1.1,4.8-4.8,4.7c-7.3-0.2-7.5,0-7.4,6.9c0.1,3.7-0.8,5.7-5,5.1c-2.1-0.3-4.3,0-6.5,0c-0.6,0.6-0.5,1.5-0.6,2.3
	C97.4,77.1,95.3,77.9,91.3,75.2z"/>
<path style="fill:#818181;" d="M91.3,75.2c4.4,1.2,5.9-1.7,7.2-4.9c-0.1,1-0.1,2-0.2,3c-0.5,8.1-0.5,8.3-8.7,8.9
	c-3.5,0.3-3.5,2.4-3.4,4.8c0.1,8.7-0.7,7.3-7.4,7.2c-3.5-0.1-5.2,0.8-5.1,4.7c0.3,8.4-0.5,7.3-7.3,7.3c-0.8,0-1.7,0-2.5,0.1
	c-1,0.1-2.1,0.2-2,1.6c0.1,1.1,1.1,1.1,1.9,1.3c7.2,1.8,7.5,1.8,6.9,9.1c-0.3,4.6,0.3,9.2,0.1,13.8c-0.3,5.3-1.9,6-9.6,6.2
	c-4.8,0.1-4.9-2.5-4.9-5.9c0.1-9.1,0.2-18.3,0-27.4c-0.1-4.1,1.3-6,5.4-5.4c4.7,0.7,6.4-1.5,5.7-6c-0.7-4.8,1.3-6.7,6.1-6.1
	c3.5,0.4,6-0.1,5.9-4.9c-0.2-7.1,0.1-7.1,7.4-7.2C88.3,75.3,89.8,75.2,91.3,75.2z"/>
<path style="fill:#323232;" d="M132.9,77.8c0,8-0.1,16,0,24c0,3-0.6,4.5-4.1,4.5c-16.3-0.2-32.6-0.1-48.9,0c-2.2,0-3.8-0.2-3.8-3.1
	c0-3,1.4-3.6,4-3.6c13.8,0.1,27.6-0.1,41.4,0.1c4,0.1,5-1.2,5-5.1c-0.2-13-0.2-26,0-38.9c0-2.3-2.3-6.7,3.2-6.5
	c5.3,0.2,3,4.4,3.1,6.8C133.1,63.1,132.9,70.4,132.9,77.8z"/>
<path style="fill:#303030;" d="M18.4,156.2c0-2.2,0-4.3,0-6.5c0-8.5,3.2-10.8,11.6-8.4c1.7,0.5,3.1,1.4,3.4,3.2
	c0.6,4.5,1.5,9.4-0.3,13.3c-1.7,3.7-1,6.5-0.2,9.8c0.3,1.3,1.5,3-1.1,3.4c-1.7,0.3-3.3,0.1-3.7-2.2c-0.4-2.1-1.1-4.1-1.7-6.2
	c-0.3-0.9-0.9-1.4-1.8-1.3c-1.1,0.1-1.1,1.1-1.1,1.9c-0.1,1.8-0.1,3.7,0,5.5c0,1.6-0.6,2.4-2.3,2.5c-1.8,0-2.8-0.5-2.7-2.5
	C18.5,164.5,18.4,160.3,18.4,156.2C18.4,156.2,18.4,156.2,18.4,156.2z"/>
<path style="fill:#818181;" d="M92.6,123.7c0-3.7,0.1-7.3,0-11c-0.1-2.5,1-3.7,3.6-3.6c2.2,0.1,4.3,0,6.5,0.1
	c2.9,0.1,4.7,1.7,4.8,4.7c0.1,3.2,0.7,6.5-0.1,9.4c-1.2,4.2-2.2,8.2-0.4,12.4c0.4,1.1,0,2-1.3,2.2c-1.4,0.2-2.7,0.1-3.3-1.5
	c-0.7-2-1.2-4.1-1.9-6.2c-0.3-0.9-0.8-1.6-1.7-1.5c-1,0.1-1.1,1.1-1.2,1.9c-0.1,1.5-0.1,3-0.1,4.5c-0.1,1.4-0.3,2.7-2.1,2.8
	c-2,0.1-2.7-1-2.7-2.8C92.6,131.4,92.6,127.5,92.6,123.7C92.6,123.7,92.6,123.7,92.6,123.7z"/>
<path style="fill:#333333;" d="M37.8,155.7c0-1.3,0-2.7,0-4c0-11.1,1.8-12.5,12.8-10.6c1.6,0.3,2.3,0.9,2.3,2.5
	c0,1.6-0.5,2.5-2.3,2.5c-1.3,0-2.7,0.1-4,0c-2.3-0.1-3.8,0.2-3.8,3.1c0,2.7,0.3,4.6,3.7,4.4c1.9-0.1,4.2-0.5,4.1,2.7
	c-0.1,3-2.3,2.4-4,2.3c-3.3-0.2-3.8,1.6-3.8,4.3c0,2.9,1.5,3.3,3.8,3.2c1.3-0.1,2.7,0,4,0c1.7-0.1,2.3,0.9,2.3,2.4
	c0,1.5-0.5,2.5-2.3,2.5c-3.5-0.1-7,0-10.5,0c-2.5,0-2.4-1.8-2.4-3.5C37.7,163.7,37.8,159.7,37.8,155.7z"/>
<path style="fill:#313131;" d="M74.5,155.9c0-2.3-0.2-4.7,0-7c0.2-2.5-1.5-6.3,1.2-7.3c3.4-1.2,7.6-1.1,11.3,0.2
	c1.5,0.5,2.4,1.9,2.4,3.5c0.1,3.8,0.1,7.7,0,11.5c-0.1,2.8-2.2,4.5-4.6,4.2c-4.9-0.5-5.5,2.1-5.1,6c0.1,1,0,2-0.2,3
	c-0.4,1.6-1.8,1.2-2.9,1.2c-1.9,0-2-1.4-2-2.8C74.5,164.2,74.5,160,74.5,155.9z"/>
<path style="fill:#313131;" d="M56.3,155.8c0-2.2-0.1-4.3,0-6.5c0.2-2.6-1.3-6.3,0.9-7.5c3.1-1.7,7.5-1.7,10.6-0.1
	c6.3,3.1,2.9,9.4,3.3,14.4c0.3,3.3-2.1,5.3-5.4,5.1c-3.6-0.2-4.8,1.2-4.3,4.6c0.1,1,0,2,0,3c0.1,2-1,2.5-2.8,2.5
	c-1.7,0-2.3-0.8-2.3-2.4C56.3,164.4,56.3,160.1,56.3,155.8C56.3,155.8,56.3,155.8,56.3,155.8z"/>
<path style="fill:#323232;" d="M92.5,156c0-3.8,0.1-7.6,0-11.5c-0.1-2.6,1-3.5,3.5-3.4c3,0.1,6,0.1,9,0c2,0,2.6,0.9,2.5,2.7
	c0,1.7-0.8,2.4-2.4,2.3c-1,0-2,0-3,0c-2.3,0-4.7-0.6-4.6,3.2c0,3.2,0.9,4.6,4.2,4.3c1.7-0.1,3.8-0.4,3.8,2.6
	c-0.1,2.9-2.2,2.6-3.9,2.5c-2.9-0.2-4,0.9-4.1,4c-0.1,3.6,1.9,3.6,4.4,3.5c1.2-0.1,2.3,0,3.5,0c1.8,0,2.2,1,2.2,2.6
	c0,1.3-0.3,2.3-1.9,2.3c-3.7,0-7.3,0-11,0c-2.2,0-2.1-1.7-2.1-3.2C92.5,163.9,92.5,160,92.5,156z"/>
<path style="fill:#818181;" d="M14.5,123.8c0,3.7,0,7.3,0,11c0,1.6-0.2,3-2.3,3.1c-2.4,0.1-2.6-1.5-2.7-3.3c0-2,0-4-0.1-6
	c0-1.6-0.7-2.5-2.4-2.5c-1.5,0.1-2,1-2.1,2.3c-0.1,2.2-0.1,4.3-0.2,6.5c-0.1,1.4-0.3,2.7-2.1,2.9c-1.8,0.1-2.3-1.1-2.3-2.6
	c0-7.8,0-15.6,0-23.5c0-1.2,0.4-2.3,1.9-2.4c1.8-0.1,2.3,1,2.4,2.5c0.1,1.5,0,3,0.1,4.5C5,118.1,4,120.8,7,121
	c3.3,0.1,2.1-2.6,2.4-4.4c0.1-0.7-0.1-1.4,0-2c0.4-2-1.3-5.3,2.6-5.2c3.5,0.1,2.2,3.1,2.3,5C14.6,117.5,14.5,120.7,14.5,123.8
	C14.5,123.8,14.5,123.8,14.5,123.8z"/>
<path style="fill:#818181;" d="M35.8,134.2c0.4,2.4,0.2,3.4-1.1,3.7c-1.7,0.3-3-0.1-3.5-1.9c-0.6-1.9-0.9-3.8-3.8-3.8
	c-2.9,0-3.8,1.5-4.2,3.9c-0.3,1.6-1.6,2.1-3,1.8c-1.9-0.3-1.8-1.7-1.5-3.1c1.7-7.8,3.4-15.6,5.1-23.4c0.4-1.8,1.7-2.3,3.4-2.3
	c1.6,0,3,0.1,3.5,2C32.4,119.3,34.2,127.5,35.8,134.2z"/>
<path style="fill:#323232;" d="M8.7,77.9c1.9-0.2,3.2,0.4,3.6,2.5c1.6,7.6,3.3,15.2,4.9,22.8c0.2,1,0.7,2.5-1,2.8
	c-1.5,0.3-3.2,0.3-3.6-1.6c-0.5-2.3-1.1-3.9-4-4c-3.2-0.1-3.3,2-3.8,4c-0.5,2.1-2.1,1.8-3.6,1.6c-1.9-0.3-1.1-1.8-0.9-2.8
	C1.9,95.6,3.7,88,5.2,80.4C5.6,78.2,6.8,77.8,8.7,77.9z"/>
<path style="fill:#333333;" d="M34.4,91.5c0,2.3,0,4.6,0,7c0,7-4.5,9.9-11.2,7.4c-2.2-0.8-2.9-2.5-2.9-4.7c0-6.6,0-13.3,0-19.9
	c0-1.5-0.1-3.1,2.1-3.2c2.5-0.1,2.5,1.6,2.5,3.3c0,5.5,0,11,0.1,16.4c0,1.7-0.1,3.5,2.4,3.5c2.6,0,2.3-1.9,2.3-3.5
	c0-5.3,0-10.6,0-15.9c0-1.7-0.5-3.9,2.5-3.9c2.9,0.1,2.2,2.3,2.3,4C34.4,85.1,34.4,88.3,34.4,91.5z"/>
<path style="fill:#818181;" d="M75.4,123.3c0-1.7,0-3.3,0-5c0.2-10.2-1.5-9.2,9.4-9.2c1.8,0,4.5-0.9,4.6,2.2
	c0.1,3.1-2.5,2.3-4.4,2.6c-1.7,0.2-4-0.6-4.5,2c-0.4,2.5-0.8,5.2,3.2,5.2c1.6,0,3.6-0.3,3.7,2.2c0.1,2.4-1.6,2.6-3.3,2.6
	c-2.8-0.1-3.8,1.2-3.8,3.9c0,3.2,2.1,3.1,4.4,3.3c1.9,0.1,4.9-1,4.7,2.6c-0.2,3.1-2.9,2.2-4.7,2.2c-10.9,0-9.2,0.9-9.4-9.2
	C75.3,127,75.4,125.2,75.4,123.3z"/>
<path style="fill:#373737;" d="M7.7,141.1c1,0,2-0.1,3,0c1.6,0.2,3.9-0.9,4.3,2c0.4,2.5-1.1,3-3.2,3.2c-2.2,0.2-1.5,2.2-1.6,3.6
	c-0.1,5.8,0,11.6-0.1,17.4c0,1.7,0.5,3.8-2.4,3.9c-3.2,0.1-2.9-2-2.9-4c0-5.8,0-11.6,0-17.4c0-1.6,0.3-3.6-2.2-3.6
	c-2,0-2.5-1.2-2.4-2.9c0.1-2.2,1.6-2.2,3.1-2.2C4.8,141.1,6.2,141.1,7.7,141.1z"/>
<path style="fill:#343434;" d="M39.3,91.8c0-3.7,0-7.3,0-11c0-2.1,0.9-3,3-3c2.3,0.1,4.7-0.1,7,0c1.6,0.1,4-0.8,4.1,2.1
	c0.1,3-2.4,2-4,2.3c-1.9,0.4-4.7-1.2-5.2,2.2c-0.5,2.9-0.2,5.4,3.8,5.1c1.8-0.2,3.4,0.2,3.3,2.6c-0.1,2.4-1.8,2.1-3.2,2
	c-3.6-0.4-3.9,1.5-4.2,4.4c-0.3,2.5,2.1,7.3-2.2,7.2c-5,0-1.6-4.9-2.3-7.5C38.8,96.2,39.2,94,39.3,91.8
	C39.2,91.8,39.2,91.8,39.3,91.8z"/>
<path style="fill:#848484;" d="M46,138.1c-6.7,0-6.7,0-6.8-6.9c0-5.2-0.2-10.3,0.1-15.5c0.1-2.2-1.8-6.4,2.5-6.2
	c4,0.1,2.1,4.2,2.3,6.5c0.3,4.3,0.2,8.6,0.1,13c-0.1,2.8,0.9,4.3,4,4.3c1.9,0,5-1,4.9,2.5c-0.1,3.4-3.1,2.1-5,2.4
	C47.4,138.2,46.7,138.1,46,138.1z"/>
<path style="fill:#F7F7F7;" d="M63.8,114.1c2.3,0.1,2.5,1.8,2.4,3.6c0,1.8-0.4,3.4-2.7,3.3c-2.3-0.1-2-1.9-2-3.3
	C61.5,116.1,61.3,114.2,63.8,114.1z"/>
<path style="fill:#F7F7F7;" d="M63.8,126.2c2.3,0.1,2.5,1.8,2.5,3.5c0,1.8-0.4,3.4-2.7,3.3c-2.2-0.1-2-1.8-2-3.3
	C61.5,128.1,61.3,126.3,63.8,126.2z"/>
<path style="fill:#FDFDFD;" d="M28.7,150.9c-0.4,2.3,1,5.4-3,5.2c-3.8-0.3-2-3.3-2-5c0-1.7-1.6-4.7,2.1-4.9
	C29.9,146,28,149.3,28.7,150.9z"/>
<path style="fill:#FCFCFC;" d="M97.5,118.6c0.3-1.8-0.6-4.5,2.6-4.4c3.1,0.1,2.4,2.7,2.4,4.5c0,1.9,0.6,4.5-2.5,4.4
	C96.7,123.1,97.8,120.4,97.5,118.6z"/>
<path style="fill:#F4F4F4;" d="M84.6,151.2c-0.6,1.8,1.1,4.9-2.5,4.9c-3.9,0-2.3-3.3-2.4-5.2c-0.1-1.8-1.2-4.8,2.5-4.6
	C85.8,146.4,83.9,149.5,84.6,151.2z"/>
<path style="fill:#F5F5F5;" d="M61.2,151.5c1.1-1.8-1.4-5,2.2-5.3c3.8-0.3,2.8,2.9,2.8,4.9c0,1.9,1,4.8-2.4,4.9
	C59.8,156.3,62.4,152.9,61.2,151.5z"/>
<path style="fill:#F2F2F2;" d="M26.8,117.6c1.9,3.3,1.8,5.9,2.3,8.2c0.3,1.4-0.5,2.2-1.9,2.2c-1.6,0-2-0.9-1.8-2.2
	C25.8,123.4,26.2,121,26.8,117.6z"/>
<path style="fill:#EBEBEB;" d="M9.1,87.1c0.5,2.5,1,4.5,1.3,6.4c0.2,1.4,0.2,2.7-1.8,2.7c-2,0-2.2-1.2-1.7-2.6
	C7.6,91.7,6.9,89.3,9.1,87.1z"/>
</svg>
