<?xml version="1.0" encoding="utf-8"?>
<!-- Generator: Adobe Illustrator 21.0.0, SVG Export Plug-In . SVG Version: 6.00 Build 0)  -->
<!DOCTYPE svg PUBLIC "-//W3C//DTD SVG 1.1//EN" "http://www.w3.org/Graphics/SVG/1.1/DTD/svg11.dtd">
<svg version="1.1" id="Ebene_1" xmlns="http://www.w3.org/2000/svg" xmlns:xlink="http://www.w3.org/1999/xlink" x="0px" y="0px"
	 width="283.5px" height="189.5px" viewBox="0 0 283.5 189.5" style="enable-background:new 0 0 283.5 189.5;" xml:space="preserve"
	>
<path d="M113.4,33.9c0.2-0.2,0.4-0.5,0.6-0.7c13.5-15.4,30.3-25.5,50.1-30.5c4.2-1.1,8.5-1.8,12.8-2.2c4.7-0.5,9.3-0.6,14-0.4
	c9.7,0.4,19.2,2.2,28.4,5.4c8.9,3.1,17.1,7.4,24.8,12.9c6.4,4.6,11.9,10.1,16.9,16.2c6.4,7.8,11.6,16.2,15.5,25.5
	c2.7,6.4,4.6,13,5.6,19.9c0.9,5.8,1.4,11.7,1.2,17.6c-0.5,14.5-4,28.1-10.9,40.9c-11.6,21.1-28.7,36-51.2,44.6
	c-6.2,2.4-12.6,4-19.1,5.1c-6.8,1.1-13.6,1.5-20.4,1.1c-23.9-1.5-44.6-10.3-62-26.8c-1.4-1.3-2.7-2.8-4-4.1
	c-0.2-0.2-0.3-0.5-0.5-0.7c-0.4,0.2-0.6,0.4-0.8,0.5c-8,5.5-16.7,9.1-26.2,11c-3.2,0.6-6.5,1-9.7,1.2c-3.1,0.2-6.2,0.2-9.3-0.1
	c-6.8-0.5-13.5-1.9-19.9-4.4c-18.7-7.3-32.7-19.9-41.8-37.8c-3.3-6.4-5.4-13.2-6.6-20.3C0.2,103.3-0.1,98.6,0,94
	C0.6,78.1,6,64,15.7,51.6c8.4-10.9,19.1-19,31.8-24.2c5.4-2.2,11-3.7,16.8-4.5c3.5-0.5,7.1-0.8,10.7-0.7
	c13.6,0.2,26.1,3.9,37.5,11.2C112.8,33.5,113.1,33.7,113.4,33.9z M116.2,146.7c0.2,0.3,0.4,0.4,0.5,0.6c2.8,3.8,6,7.3,9.4,10.5
	c16,14.9,34.9,23,56.7,24.2c6.6,0.4,13.2-0.1,19.7-1.3c7.7-1.4,15.2-3.7,22.3-7.1c22.6-10.9,38.2-28.1,46.4-51.8
	c2.8-8.1,4.2-16.5,4.4-25.1c0.1-3,0-6.1-0.3-9.1c-0.3-3.8-0.9-7.6-1.7-11.3c-3.9-17-11.9-31.7-24.5-43.8
	c-16.8-16.2-37.1-24.5-60.4-25.3c-5.1-0.2-10.2,0.3-15.2,1c-6.9,1.1-13.5,2.9-20,5.6c-15.7,6.5-28.5,16.6-38.5,30.3
	c-0.1,0.2-0.3,0.4-0.5,0.6c-0.9-0.7-1.7-1.4-2.6-2.1C101.7,34.9,90,30.6,77,29.8c-4.5-0.3-8.9,0-13.4,0.7
	c-6.6,1.1-12.9,3.1-18.8,6.1c-13.8,7-24.2,17.5-31.1,31.4c-3.6,7.2-5.7,14.8-6.4,22.8c-0.3,3.3-0.3,6.6-0.1,10
	c0.3,4.3,1,8.6,2.2,12.8c3.4,11.9,9.6,22,18.5,30.5c12.3,11.6,26.8,18.1,43.8,18.8c5.1,0.2,10.2-0.3,15.2-1.4
	c10.5-2.3,19.8-6.9,27.9-13.9C115.4,147.4,115.8,147.1,116.2,146.7z"/>
<path d="M115.9,53.6c0.2-0.3,0.4-0.6,0.5-0.8c10.7-17.5,25.9-29.5,45.3-36.1c5-1.7,10-2.8,15.2-3.5c4.3-0.6,8.6-0.8,12.9-0.7
	c13.1,0.5,25.5,3.9,36.9,10.3c15.6,8.7,27.4,21,35.5,36.9c3.5,6.9,5.9,14.2,7.2,21.9c0.6,3.6,1,7.2,1.1,10.8
	c0.4,14-2.7,27.2-9.5,39.5c-10.9,19.9-27.1,33.5-48.6,40.9c-4.6,1.6-9.3,2.6-14,3.3c-5.2,0.8-10.5,1-15.7,0.6
	c-21.4-1.5-39.6-9.9-54.7-25.1c-3.9-3.9-7.4-8.3-10.3-13c-0.1-0.2-0.3-0.4-0.4-0.6c0,0-0.1-0.1-0.2-0.1c-0.2,0.2-0.4,0.4-0.6,0.6
	c-5.9,6.4-12.9,11.3-20.9,14.6c-4.8,2-9.7,3.2-14.8,3.9c-3.9,0.5-7.8,0.6-11.7,0.3c-9.7-0.8-18.7-3.8-26.9-9
	c-12.7-8-21.6-19-26.5-33.1c-1.5-4.4-2.5-8.9-2.9-13.5c-0.3-3.3-0.4-6.7-0.1-10c0.6-7.4,2.5-14.4,5.7-21
	C25.1,57,35.5,46.8,49.5,40.4c5.2-2.4,10.8-3.9,16.5-4.7c4.3-0.6,8.7-0.7,13-0.2c14,1.5,26.1,7.2,36,17.3
	C115.3,53,115.5,53.3,115.9,53.6z M156,113.4c0-0.4,0-0.8,0-1.1c0-6.7,0-13.4,0-20.1c0-0.5,0-1,0.1-1.5c0.4-2.6,1.9-4.4,4.3-5.3
	c2.5-0.9,4.8-0.4,6.7,1.5c1.4,1.4,2,3,2,5c0,6.8,0,13.6,0,20.5c0,0.3,0,0.7,0.1,1.1c2.9,0,5.8,0,8.7,0c0-0.4,0.1-0.7,0.1-1
	c0-6.9,0-13.9,0-20.8c0-1.2-0.2-2.4-0.4-3.5c-1.1-5.6-6.8-12-14.9-12c-4.2,0-7.7,1.3-10.8,4.2c-0.1,0.1-0.3,0.3-0.5,0.4
	c-0.2-0.1-0.3-0.2-0.4-0.4c-3.8-3.6-8.4-4.8-13.6-4c-6.1,1-12.4,6.8-12.5,14.8c-0.1,7.1,0,14.3,0,21.4c0,0.3,0.1,0.5,0.1,0.7
	c1.1,0.2,8.2,0.1,8.8-0.1c0-0.4,0.1-0.8,0.1-1.2c0-6.7,0-13.5,0-20.2c0-0.6,0-1.3,0.2-1.9c0.6-2.6,3.1-5.1,6.6-4.9
	c2.9,0.1,5.5,2.2,6.1,5.1c0.1,0.6,0.1,1.3,0.1,1.9c0,6.7,0,13.4,0,20.1c0,0.4,0,0.8,0.1,1.3C150.1,113.4,152.9,113.4,156,113.4z
	 M25.7,113.4c0.4,0,0.7,0,0.9,0c2.2,0,4.4,0,6.7,0c1.3,0,1.2,0.1,1.2-1.2c0-6.9,0-13.9,0-20.8c0-2.5,1.2-4.4,3.4-5.6
	c2.2-1.2,4.4-1.1,6.6,0.2c2.1,1.3,3.1,3.2,3.1,5.6c0,6.9,0,13.8,0,20.7c0,0.3,0,0.7,0.1,1.1c0.4,0,0.7,0,1,0c2.2,0,4.4,0,6.7,0
	c1.2,0,1.3,0.2,1.3-1.2c0-6.8,0-13.5,0-20.3c0-0.5,0-1,0.1-1.5c0.7-3.9,4.7-6.3,8.4-5.1c2.7,0.8,4.6,3.4,4.6,6.2
	c0,6.9,0,13.9,0,20.8c0,0.3,0,0.7,0.1,1c0.8,0.2,8.1,0.2,8.8,0c0-0.2,0-0.5,0-0.8c0-7.1,0-14.2,0-21.4c0-1.1-0.2-2.3-0.4-3.4
	c-1.2-5.5-6.8-11.7-14.7-11.7c-4.2,0-7.9,1.3-11,4.3c-0.1,0.1-0.2,0.2-0.4,0.3c-0.1,0-0.1-0.1-0.2-0.1c-0.1-0.1-0.3-0.3-0.4-0.4
	c-4.2-3.8-9-4.9-14.4-3.6c-6.8,1.7-11.5,7.8-11.5,14.9c0,7,0,13.9,0,20.9C25.6,112.7,25.6,113,25.7,113.4z M219.9,94.7
	c0.3-10-8.7-18.9-18.6-18.6c-9.8-0.3-18.8,8.4-18.8,18.6c0,10.1,8.6,18.7,18.7,18.7C211.6,113.4,220.2,104.5,219.9,94.7z
	 M101.9,76.1c-9.6-0.4-18.8,8.2-18.8,18.6c0,10.3,8.8,18.7,18.6,18.7c10.1,0.1,18.8-8.4,18.9-18.6C120.6,84.3,111.4,75.8,101.9,76.1
	z M232.6,94.7c-1.2,1.6-2.3,3.1-3.5,4.6c-1.2,1.5-2.3,3.1-3.5,4.6c-1.2,1.6-2.3,3.1-3.5,4.7c-1.1,1.5-2.3,3-3.5,4.7
	c0.5,0,0.8,0,1.1,0c3,0,6.1,0,9.1,0c0.7,0,1.1-0.2,1.5-0.8c2.4-3.3,4.9-6.5,7.4-9.7c0.2-0.2,0.4-0.4,0.6-0.7
	c0.7,0.9,1.3,1.7,1.9,2.5c2,2.7,4.1,5.4,6.1,8.1c0.3,0.3,0.5,0.6,1,0.6c3.3,0,6.7,0,10,0c0.1,0,0.3-0.1,0.6-0.1
	c-4.7-6.3-9.3-12.4-14-18.6c1.2-1.6,2.4-3.1,3.5-4.6c1.2-1.5,2.3-3.1,3.5-4.6c1.2-1.5,2.3-3.1,3.5-4.6c1.1-1.5,2.3-3,3.5-4.7
	c-0.4,0-0.7,0-1,0c-3.1,0-6.2,0-9.3,0c-0.6,0-1,0.2-1.4,0.7c-2.4,3.3-4.9,6.5-7.3,9.7c-0.2,0.2-0.4,0.4-0.6,0.7
	c-0.7-0.9-1.3-1.7-1.9-2.5c-2-2.7-4.1-5.4-6.1-8c-0.2-0.3-0.5-0.6-1-0.6c-3.3,0-6.6,0-9.9,0c-0.2,0-0.3,0.1-0.6,0.1
	C223.4,82.4,228,88.5,232.6,94.7z"/>
<path d="M191.7,94.8c-0.1-5.3,4.3-9.6,9.5-9.7c5.3,0,9.7,4.5,9.6,9.6c0,5.4-4.3,9.7-9.6,9.7C195.5,104.3,191.5,99.6,191.7,94.8z"/>
<path d="M111.4,94.8c0.1,5-4.1,9.6-9.6,9.6c-5.6,0-9.6-4.7-9.6-9.7c0.1-5.3,4.5-9.6,9.7-9.5C107.2,85.2,111.4,89.5,111.4,94.8z"/>
</svg>
