<?xml version="1.0" encoding="utf-8"?>
<!-- Generator: Adobe Illustrator 21.0.0, SVG Export Plug-In . SVG Version: 6.00 Build 0)  -->
<!DOCTYPE svg PUBLIC "-//W3C//DTD SVG 1.1//EN" "http://www.w3.org/Graphics/SVG/1.1/DTD/svg11.dtd">
<svg version="1.1" id="Ebene_1" xmlns="http://www.w3.org/2000/svg" xmlns:xlink="http://www.w3.org/1999/xlink" x="0px" y="0px"
	 width="283.5px" height="59.2px" viewBox="0 0 283.5 59.2" style="enable-background:new 0 0 283.5 59.2;" xml:space="preserve">
<path d="M190.2,0c0,0.1,0,0.3,0,0.4c0,3.5,0,7,0,10.5c0,0.1,0,0.3,0,0.5c0.2-0.1,0.3-0.2,0.4-0.3c3.4-3.7,9.4-3.1,12.3,1
	c1.2,1.8,1.9,3.7,2.1,5.9c0.2,2,0,3.9-0.5,5.8c-0.9,2.9-2.7,5.2-5.8,6c-3,0.8-5.6,0.2-7.9-1.9c-0.1-0.1-0.3-0.2-0.5-0.4
	c0,0.2-0.1,0.3-0.1,0.4c0,0.4,0,0.9,0,1.3c0,0.4-0.1,0.6-0.5,0.5c-3,0-6,0-9.1,0c0,0-0.1,0-0.1,0c-0.3,0-0.4-0.1-0.4-0.4
	c0-1.3,0-2.5,0-3.8c0-0.3,0.1-0.4,0.5-0.4c0.9,0,1.8,0,2.6,0c0.4,0,0.6-0.1,0.6-0.6c0-6.5,0-12.9,0-19.4c0-0.4-0.2-0.6-0.6-0.5
	c-0.9,0-1.7,0-2.6,0c-0.4,0-0.5-0.1-0.5-0.5c0-1.2,0-2.4,0-3.6c0-0.2,0-0.4,0-0.6C183.4,0,186.8,0,190.2,0z M198.4,19.6
	c-0.1-1-0.2-1.7-0.3-2.4c-0.4-2-1.8-3.3-3.7-3.4c-1.9,0-3.5,1.2-4,3c-0.2,0.6-0.3,1.2-0.3,1.9c-0.1,1.3,0,2.7,0.6,3.9
	c0.7,1.6,2.1,2.5,3.8,2.4c1.7-0.1,2.9-1.1,3.4-2.6C198.2,21.5,198.3,20.4,198.4,19.6z"/>
<path d="M99.2,0c0,0.2,0,0.4,0,0.7c0,3.1,0,6.3,0,9.4c0,0.2,0,0.4,0,0.8c0.3-0.2,0.5-0.2,0.7-0.4c1.3-0.8,2.7-1.5,4.3-1.7
	c3.3-0.4,6.3,0.7,7.1,4.9c0.2,0.8,0.2,1.6,0.2,2.5c0,2.8,0,5.5,0,8.3c0,0.9,0,0.9,0.9,0.9c0.6,0,1.1,0,1.7,0c0.3,0,0.4,0.1,0.4,0.4
	c0,1.3,0,2.5,0,3.8c0,0.4-0.2,0.5-0.5,0.5c-1.9,0-3.9,0-5.8,0c-0.9,0-1.8,0-2.7,0c-0.5,0-0.6-0.1-0.6-0.6c0-4.3,0-8.6,0-12.9
	c0-0.3,0-0.7-0.1-1c-0.2-0.8-0.7-1.2-1.5-1.3c-1.5-0.2-2.8,0.4-4,1.2c-0.1,0.1-0.2,0.3-0.2,0.5c0,3,0,6,0,9c0,0.4,0.2,0.5,0.5,0.5
	c0.7,0,1.3,0,2,0c0.3,0,0.5,0.1,0.4,0.4c0,1.3,0,2.5,0,3.8c0,0.3-0.1,0.4-0.5,0.4c-4,0-7.9,0-11.9,0c-0.3,0-0.4-0.1-0.4-0.4
	c0-1.3,0-2.5,0-3.8c0-0.3,0.1-0.4,0.5-0.4c0.8,0,1.6,0,2.4,0c0.4,0,0.5-0.1,0.5-0.5c0-6.5,0-12.9,0-19.4c0-0.4-0.1-0.5-0.5-0.5
	c-0.8,0-1.6,0-2.3,0c-0.4,0-0.5-0.1-0.5-0.5c0-1.2,0-2.4,0-3.6c0-0.2,0-0.4,0-0.6C92.5,0,95.8,0,99.2,0z"/>
<path d="M0,9.7C0.4,9,1,8.6,1.9,8.5c0.9-0.1,1.5,0.2,1.6,1.1c0.3,2.7,0.7,5.5,0.9,8.2c0.2,2,0.2,3.9,0.2,5.9c0,0.4,0.1,0.8,0.2,1.2
	c0.2-0.4,0.3-0.8,0.5-1.2c0.9-2.7,1.8-5.5,2.7-8.2c0.4-1.2,0.9-2.5,1.4-3.7c0.7-1.5,1.8-2.7,3.5-3c1.1-0.2,2.8,0.3,3.1,2
	c0.3,1.5,0.5,3,0.7,4.5c0.2,2.4,0.4,4.8,0.6,7.2c0.1,0.8,0.4,1.6,0.6,2.4c0.1,0.3,0.3,0.6,0.6,1c0.3-0.5,0.5-0.8,0.7-1.2
	c0.9-2,1.7-3.9,2.5-5.9c1-2.3,1.9-4.6,3.4-6.7c0.7-1,1.4-1.9,2.5-2.4c0.6-0.3,1.4-0.6,2.1-0.7c0.9-0.2,1.6,0.3,2.1,1
	c0.7,1,0.9,2.1,1.1,3.2c0.2,2.1,0.4,4.2,0.5,6.3c0.3,3.2,0.6,6.3,1.8,9.3c0.5,1.3,1.2,2.4,2,3.5c0.5,0.6,0.4,1.2-0.2,1.6
	c-0.8,0.5-1.6,0.7-2.6,0.4c-0.5-0.2-0.9-0.5-1.1-0.9c-1.2-2-1.9-4.1-2.3-6.3c-0.5-2.4-0.9-4.8-1-7.3c-0.1-2-0.4-3.9-0.6-5.9
	c0-0.3-0.3-0.6-0.4-1c-0.4,0.2-0.8,0.3-1.1,0.6c-1,1-1.6,2.3-2.2,3.6c-1.5,3.1-2.9,6.2-4.4,9.2c-0.4,0.9-1,1.7-1.6,2.4
	c-1.6,1.6-3.4,1.3-4.5-0.7c-0.7-1.2-1-2.5-1.1-3.9c-0.2-1.7-0.3-3.5-0.3-5.2c-0.1-1.4-0.1-2.8-0.1-4.3c0-0.7-0.1-1.4-0.2-2
	c-0.1,0-0.1-0.1-0.2-0.1c-0.2,0.3-0.5,0.5-0.7,0.8c-0.5,1.2-1.1,2.4-1.5,3.6C9.1,23,7,28.6,4.5,34c-0.6,1.2-1.7,1.8-2.8,1.5
	c-0.6-0.2-0.8-0.4-0.8-1c0-2,0.1-4.1,0.2-6.1c0.1-2.8,0.1-5.6,0.1-8.4c0-3.1-0.3-6.1-0.9-9.1c-0.1-0.2-0.2-0.5-0.2-0.7
	C0,10.1,0,9.9,0,9.7z"/>
<path d="M267.4,0c0,0.2,0,0.4,0,0.6c0,8,0,16,0,24c0,0.8,0,0.8,0.7,0.8c0.5,0,0.9,0,1.4,0c0.1,0,0.3,0.2,0.3,0.3c0,1.2,0,2.5,0,3.7
	c0,0.1-0.2,0.2-0.3,0.3c-0.1,0-0.2,0-0.3,0c-3.7,0-7.4,0-11.1,0c-0.5,0-0.7-0.1-0.7-0.7c0-1.1,0-2.2,0-3.3c0-0.5,0.2-0.7,0.7-0.6
	c0.7,0,1.5,0,2.2,0c0.3,0,0.5-0.1,0.5-0.5c0-6.5,0-13,0-19.5c0-0.4-0.1-0.5-0.5-0.5c-0.8,0-1.6,0-2.4,0c-0.4,0-0.5-0.1-0.5-0.5
	c0-1.2,0-2.4,0-3.6c0-0.2,0-0.4,0-0.6C260.7,0,264,0,267.4,0z"/>
<path d="M152.3,59.2c-0.5-0.2-1.1-0.5-1.6-0.7c-0.2-0.1-0.3-0.3-0.5-0.4c0.2-0.3,0.4-0.5,0.5-0.8c1.2,1.1,2.6,1.4,4,0.5
	c1-0.6,0.9-1.7,0.8-2.8c-0.1,0.1-0.2,0.1-0.2,0.2c-1.9,1.9-4.7,1.1-5.4-1.5c-0.3-1.2-0.3-2.4,0.2-3.5c0.9-2,3.4-2.5,5-0.9
	c0.1,0.1,0.2,0.2,0.4,0.3c0-0.4,0-0.7,0.1-1c0.3,0,0.7,0,1.1,0c0,0.2,0,0.4,0,0.5c0,2.2,0,4.5,0,6.7c0,1.8-0.8,2.8-2.6,3.2
	c-0.1,0-0.1,0.1-0.2,0.1C153.4,59.2,152.9,59.2,152.3,59.2z M155.6,52.3c0-0.4,0-0.9,0-1.3c0-0.2,0-0.4-0.1-0.5
	c-0.9-1.3-3.1-1.7-4.1,0c-0.6,1-0.6,2.2-0.2,3.3c0.4,1.1,1.4,1.6,2.5,1.4c1.2-0.2,1.9-0.9,1.9-2.1C155.6,52.8,155.6,52.5,155.6,52.3
	z"/>
<path d="M261.6,59.2c-0.4-0.2-0.9-0.3-1.3-0.5c-0.8-0.5-0.8-0.6-0.1-1.4c0.8,0.9,1.8,1.1,2.8,0.9c1.1-0.1,1.8-0.8,1.9-1.8
	c0.1-0.4,0-0.9,0-1.4c-0.1,0.1-0.2,0.1-0.2,0.1c-0.9,1-2,1.3-3.3,0.9c-1.3-0.4-1.9-1.4-2.2-2.7c-0.2-0.9-0.1-1.8,0.2-2.7
	c0.8-2.4,3.5-3,5.3-1.3c0.1,0.1,0.1,0.1,0.3,0.3c0-0.4,0-0.7,0.1-1c0.3,0,0.7,0,1.1,0c0,0.2,0,0.4,0,0.6c0,2.2,0,4.5,0,6.7
	c0,1.9-0.7,2.8-2.6,3.3c-0.1,0-0.1,0.1-0.2,0.1C262.7,59.2,262.1,59.2,261.6,59.2z M264.9,52.3c0-0.5,0-0.9,0-1.4
	c0-0.2,0-0.4-0.1-0.5c-0.6-0.7-1.4-1.1-2.3-1.1c-0.9,0.1-1.6,0.6-1.9,1.4c-0.3,0.7-0.4,1.5-0.2,2.3c0.4,1.9,2.4,2.7,4,1.5
	c0.4-0.3,0.7-0.7,0.6-1.3C264.9,53,264.9,52.7,264.9,52.3z"/>
<path d="M283.3,56.1c-0.4,0-0.8,0-1.2,0.1c0-1.2,0-2.3,0-3.4c0-0.6,0-1.2,0-1.8c0-1.1-0.7-1.7-1.8-1.6c-0.4,0-0.8,0.2-1.1,0.3
	c-0.7,0.3-1.1,0.8-1,1.7c0.1,1.3,0,2.7,0,4.1c0,0.7,0,0.7-0.7,0.7c-0.1,0-0.3,0-0.4,0c0-2.5,0-5,0-7.5c0.4,0,0.7,0,1.1,0
	c0,0.3,0,0.6,0.1,0.9c0.2-0.2,0.4-0.3,0.5-0.4c0.8-0.6,1.8-0.9,2.8-0.7c1,0.2,1.5,0.8,1.7,1.8c0,0.1,0.1,0.3,0.1,0.4
	C283.3,52.4,283.3,54.2,283.3,56.1z"/>
<path d="M71.8,27.8c0,0.2,0,0.3,0,0.5c0,1.9,0,3.8,0,5.6c0,0.5,0.2,0.6,0.6,0.6c1,0,2,0,3,0c0.4,0,0.5,0.1,0.5,0.5
	c0,1.2,0,2.5,0,3.7c0,0.4-0.1,0.5-0.5,0.5c-4.4,0-8.8,0-13.1,0c-0.4,0-0.5-0.1-0.5-0.5c0-1.2,0-2.4,0-3.6c0-0.4,0.1-0.5,0.5-0.5
	c0.8,0,1.6,0,2.4,0c0.4,0,0.5-0.1,0.5-0.5c0-2.8,0-5.5,0-8.3c0-3.7,0-7.4,0-11.2c0-0.2,0-0.4,0-0.7c-0.2,0-0.5,0-0.7,0
	c-0.7,0-1.5-0.1-2.2-0.1c0-0.7-0.1-1.5-0.1-2.2c0-0.6,0-1.3,0-1.9c0-0.4,0.1-0.5,0.5-0.5c2.8,0,5.7,0,8.5,0c0.4,0,0.5,0.1,0.5,0.5
	c0,0.7,0,1.3,0,2.1c0.3-0.2,0.4-0.3,0.6-0.5c1.2-1.2,2.6-2.1,4.3-2.3c3.3-0.5,6.1,0.5,8,3.4c1.3,1.8,1.9,3.9,2.1,6.1
	c0.2,2.2,0,4.4-0.9,6.5c-1.2,2.7-3.1,4.6-6.1,5.2c-2.8,0.5-5.2-0.1-7.4-2c-0.1-0.1-0.3-0.2-0.4-0.3C71.9,27.8,71.9,27.8,71.8,27.8z
	 M71.6,19.6c0,0,0.1,0,0.1,0c-0.1,1.2,0.1,2.4,0.7,3.4c0.8,1.5,2.1,2.3,3.8,2.2c1.7-0.1,2.9-1.1,3.4-2.8c0.6-1.8,0.6-3.6,0.1-5.4
	c-0.5-1.8-1.9-2.9-3.7-3c-1.9,0-3.4,1-4,2.8C71.9,17.8,71.8,18.7,71.6,19.6z"/>
<path d="M127.7,8.6c3.6,0.1,6.6,1.3,8.9,4.2c1.1,1.5,1.7,3.2,1.9,5c0.2,1.8,0.1,3.6-0.4,5.3c-1.2,3.9-4,6.1-7.9,6.9
	c-2.9,0.6-5.7,0.3-8.3-1.2c-3-1.7-4.6-4.3-5-7.7c-0.2-2-0.1-4,0.6-5.9c1.4-3.6,4.1-5.6,7.7-6.4C126,8.7,126.9,8.7,127.7,8.6z
	 M123.4,19.4C123.4,19.5,123.5,19.5,123.4,19.4c0.1,0.6,0.1,1.2,0.3,1.8c0.2,1.3,0.6,2.4,1.7,3.2c1.8,1.4,5,1,6.1-2
	c0.5-1.4,0.5-2.9,0.4-4.4c-0.1-0.8-0.3-1.6-0.7-2.3c-0.8-1.7-2.2-2.3-4-2.2c-1.5,0.1-2.7,1.1-3.1,2.7
	C123.7,17.3,123.6,18.4,123.4,19.4z"/>
<path d="M232.9,19.4c0-2.4,0.5-4.7,2-6.6c1.8-2.4,4.2-3.7,7.2-4.1c2.8-0.3,5.6,0,8,1.6c2.7,1.8,4.2,4.3,4.5,7.5
	c0.2,2.1,0.1,4.2-0.8,6.1c-1.4,3.3-4.1,5.3-7.6,6c-2.8,0.5-5.5,0.3-8-1.1c-3-1.7-4.8-4.2-5.1-7.7C233,20.7,232.9,20,232.9,19.4z
	 M248,19.5c-0.2-1-0.2-1.9-0.5-2.8c-0.5-1.9-2-3.1-3.7-3.1c-2.3-0.1-3.4,1.3-3.9,2.9c-0.5,1.7-0.6,3.4-0.2,5.1
	c0.2,1.1,0.7,2.2,1.6,2.9c1.8,1.3,5.1,1,6.1-2.1C247.8,21.5,247.9,20.5,248,19.5z"/>
<path d="M219,8.6c3.3,0,6.1,1.1,8.3,3.5c1.6,1.7,2.3,3.8,2.5,6.2c0.1,1.8,0,3.5-0.6,5.2c-1.3,3.7-4,5.9-7.8,6.6
	c-2.8,0.6-5.6,0.3-8.2-1.2c-2.9-1.6-4.6-4.1-5-7.4c-0.3-2.3-0.2-4.7,0.8-6.8c1.5-3.2,4.1-5.1,7.5-5.8C217.3,8.7,218.2,8.7,219,8.6z
	 M214.7,19.5c0.1,1.3,0.3,2.5,0.8,3.6c0.7,1.5,1.9,2.2,3.5,2.2c1.7,0,2.9-0.9,3.5-2.4c0.3-0.8,0.5-1.7,0.6-2.5
	c0.2-1.7,0-3.3-0.9-4.8c-0.9-1.5-2.3-2-3.9-1.8c-1.5,0.2-2.6,1.1-3,2.5C215,17.3,214.9,18.4,214.7,19.5z"/>
<path d="M178.1,19.5c0,2.5-0.5,4.7-2.1,6.7c-1.8,2.4-4.3,3.7-7.2,4c-2.2,0.3-4.4,0.1-6.4-0.9c-3.7-1.7-5.7-4.6-6-8.6
	c-0.2-2,0-4,0.8-5.9c1.1-2.7,3.1-4.5,5.8-5.4c3.6-1.3,7.1-1.1,10.4,1c2.7,1.6,4.2,4.1,4.6,7.2C178,18.2,178,18.8,178.1,19.5z
	 M162.8,19.5c0,0,0.1,0,0.1,0c0,0.5,0.1,1.1,0.1,1.6c0.2,1.2,0.6,2.3,1.5,3.2c1.6,1.5,5.2,1.4,6.3-1.8c0.3-0.8,0.4-1.6,0.5-2.5
	c0.1-1.5,0-3.1-0.8-4.5c-0.9-1.5-2.2-2.2-3.9-2c-1.6,0.2-2.6,1.1-3.1,2.5C163.2,17.3,163.1,18.4,162.8,19.5z"/>
<path d="M47.7,29.8c0.3-1.1,0.5-2,0.8-2.9c1.5-5.7,3.4-11.3,6.1-16.6c0.2-0.3,0.4-0.7,0.5-1c0.6-1.3,2.6-1,3.3-0.2
	c0.3,0.4,0.2,0.7,0,1.1c-0.9,1.9-1.9,3.7-2.7,5.6c-2.1,4.8-3.4,9.9-4.8,15c-1.4,5.3-2.8,10.6-4.4,15.8c-0.9,2.9-2.2,5.6-3.3,8.4
	c-0.5,1.2-2,1.2-2.8,0.8c-0.3-0.2-0.5-0.5-0.3-0.9c2.6-5.2,4.1-10.8,5.5-16.5c0.3-1.2,0.6-2.5,0.9-3.7c0.1-0.5,0-0.8-0.2-1.2
	c-2.1-3.2-4-6.4-5.6-9.9c-2-4.4-3.8-8.8-5.7-13.2c-0.2-0.4-0.1-0.7,0.2-1c0.6-0.6,1.8-0.9,2.6-0.5c0.3,0.1,0.6,0.5,0.7,0.8
	c0.9,2.2,1.8,4.5,2.7,6.7c1.6,4.5,3.5,8.9,6.2,12.9C47.4,29.4,47.5,29.5,47.7,29.8z"/>
<path d="M153.8,24.7c0,1.4,0,2.7,0,4c0,0.1-0.2,0.4-0.3,0.4c-2.2,0.9-4.4,1.2-6.7,0.7c-1.9-0.5-3-1.8-3.2-3.8
	c-0.1-0.7-0.1-1.4-0.1-2.1c0-3.2,0-6.3,0-9.5c0-0.6,0-0.6-0.7-0.6c-0.5,0-1,0-1.5,0c-0.3,0-0.5-0.1-0.5-0.4c0-1.3,0-2.6,0-3.9
	c0-0.3,0.1-0.4,0.4-0.4c0.5,0,1.1,0,1.6,0c0.5,0,0.6-0.2,0.6-0.6c0-0.8,0-1.6,0-2.3c0-0.2,0.1-0.4,0.2-0.5c2-1.5,4.1-3,6.3-4.5
	c0,0.3,0,0.4,0,0.6c0,2.3,0,4.5,0,6.8c0,0.5,0.2,0.6,0.6,0.6c0.9,0,1.9,0,2.8,0c0.3,0,0.5,0.1,0.5,0.5c0,1.2,0,2.5,0,3.7
	c0,0.4-0.2,0.5-0.5,0.5c-1,0-1.9,0-2.9,0c-0.4,0-0.5,0.1-0.5,0.5c0,3,0,6,0,9c0,1.3,0.4,1.7,1.7,1.7C152.3,25,153,24.8,153.8,24.7z"
	/>
<path d="M274.4,13c-0.4,0-0.7,0-1.1,0c-0.9,0-1.7,0-2.6,0c-0.4,0-0.5-0.1-0.5-0.5c0-1,0-2,0-2.9c0-0.4,0.1-0.5,0.5-0.5
	c3.8,0,7.6,0,11.5,0c0.4,0,0.5,0.1,0.5,0.5c0,1,0,2.1,0,3.1c0,0.4-0.1,0.5-0.5,0.5c-1.1-0.2-1.9,0.3-2.7,1c-1.4,1.3-3,2.6-4.5,3.8
	c-0.1,0.1-0.3,0.2-0.5,0.4c0.7,0.9,1.4,1.6,2,2.4c1.1,1.3,2.2,2.6,3.3,3.9c0.2,0.3,0.5,0.4,0.9,0.4c0.6,0,1.3,0,1.9,0
	c0.3,0,0.4,0.1,0.4,0.4c0,1.3,0,2.5,0,3.8c0,0.3-0.1,0.4-0.5,0.4c-1.8,0-3.7,0-5.5,0c-0.2,0-0.4-0.1-0.6-0.3
	c-2.9-3.5-5.9-7-8.8-10.5c0,0,0-0.1-0.1-0.2c2.3-1.9,4.6-3.8,6.9-5.7C274.4,13.1,274.4,13.1,274.4,13z"/>
<path d="M194.7,45.7c2.2,0,4.4,0,6.7,0c0,0.4,0,0.7,0,1.1c-1.8,0-3.6,0-5.4,0c0,1.2,0,2.3,0,3.4c1.8,0,3.5,0,5.3,0
	c0,0.4,0,0.7,0,1.2c-1.8,0-3.5,0-5.3,0c0,1.2,0,2.4,0,3.6c1.8,0,3.6,0,5.4,0c0,0.4,0,0.7,0,1.1c-0.1,0-0.2,0.1-0.4,0.1
	c-2,0-3.9,0-5.9,0c-0.3,0-0.5-0.1-0.5-0.5c0-3.2,0-6.4,0-9.6C194.7,45.9,194.7,45.8,194.7,45.7z"/>
<path d="M174,56.1c-0.4,0-0.7,0-1.1,0c0-0.2,0-0.3,0-0.5c0-2.3,0-4.7,0-7c0-1.2,0.4-2.1,1.4-2.7c1.1-0.6,2.3-0.5,3.4,0.1
	c1.1,0.7,1.2,2,0.2,2.8c-0.3,0.3-0.7,0.5-1.1,0.8c-0.3,0.3-0.6,0.6-0.6,1.1c0.1,0.5,0.5,0.7,0.9,0.8c0.7,0.2,1.4,0.4,2.1,0.6
	c1.2,0.4,1.8,1.5,1.3,2.7c-0.2,0.4-0.5,0.9-0.9,1.1c-1.2,0.8-3.6,0.7-4.7-0.8c0.2-0.2,0.3-0.5,0.5-0.8c0.7,0.7,1.5,1.1,2.5,1
	c0.4-0.1,0.9-0.2,1.2-0.5c0.6-0.5,0.5-1.3-0.2-1.7c-0.5-0.3-1.1-0.4-1.7-0.6c-0.4-0.1-0.8-0.2-1.2-0.4c-1.2-0.6-1.4-2-0.4-3
	c0.3-0.3,0.8-0.6,1.1-0.8c0.7-0.6,0.6-1.3-0.3-1.7c-1.3-0.5-2.5,0.3-2.6,1.7c0,0.7,0,1.3,0,2c0,1.7,0,3.4,0,5.1
	C174,55.7,174,55.9,174,56.1z"/>
<path d="M142.8,45.7c0.4,0,0.7,0,1.1,0c0,3.5,0,6.9,0,10.4c-0.3,0-0.7,0-1.1,0c0-0.3,0-0.6,0-1c-0.1,0.1-0.2,0.1-0.2,0.1
	c-0.9,1-2,1.3-3.2,1c-1.3-0.3-2-1.2-2.3-2.5c-0.3-1.2-0.3-2.3,0.2-3.4c0.9-2.1,3.5-2.6,5.1-1c0.1,0.1,0.2,0.2,0.4,0.3
	C142.8,48.3,142.8,47,142.8,45.7z M142.9,52.3c0-0.5,0-0.9,0-1.4c0-0.2,0-0.4-0.1-0.5c-0.6-0.8-1.4-1.2-2.3-1.1
	c-1,0.1-1.7,0.6-2,1.5c-0.2,0.6-0.3,1.3-0.2,2c0.1,1,0.5,1.9,1.5,2.3c1,0.4,1.9,0.1,2.7-0.6c0.3-0.3,0.5-0.6,0.5-1
	C142.8,53.2,142.9,52.7,142.9,52.3z"/>
<path d="M82.5,56.1c-0.5,0-0.9,0-1.2,0c-0.2,0-0.4-0.2-0.5-0.3c-0.7-0.9-1.4-1.8-2.1-2.7c-0.1-0.1-0.2-0.3-0.4-0.5
	c-0.4,0.4-0.8,0.8-1.1,1.2c-0.1,0.1-0.1,0.3-0.1,0.5c0,0.4,0,0.8,0,1.3c0,0.4-0.1,0.5-0.5,0.5c-0.2,0-0.4,0-0.6,0c0-3.5,0-7,0-10.4
	c0.3,0,0.7,0,1.1,0c0,2.2,0,4.5,0,6.8c0,0,0.1,0,0.1,0.1c0.4-0.4,0.8-0.8,1.2-1.2c0.8-0.8,1.6-1.6,2.4-2.5c0.3-0.4,0.4-0.4,1.7-0.3
	c-1.1,1.2-2.2,2.2-3.2,3.4C80.3,53.3,81.4,54.7,82.5,56.1z"/>
<path d="M235.7,52.7c-2.1,0-4,0-6.1,0c0.1,1.1,0.5,1.9,1.4,2.4c1.1,0.6,2.3,0.4,3.6-0.6c0.2,0.2,0.3,0.5,0.5,0.7
	c-0.8,0.9-1.9,1.2-3,1.2c-1.8,0-3.2-1-3.6-2.7c-0.5-1.8,0.1-3.8,1.5-4.7c2.2-1.5,5.1-0.1,5.5,2.6C235.6,51.9,235.7,52.3,235.7,52.7z
	 M229.7,51.8c1.6,0,3.2,0,4.8,0c0-1.4-1-2.5-2.5-2.5C230.7,49.3,229.6,50.5,229.7,51.8z"/>
<path d="M275.2,52.7c-2,0-4,0-5.9,0c-0.2,0.8,0.3,1.7,1.1,2.2c1.1,0.7,2.4,0.5,3.8-0.5c0.2,0.2,0.3,0.4,0.5,0.7
	c-0.5,0.6-1.2,0.9-1.9,1.1c-2.3,0.5-4.2-0.6-4.7-2.8c-0.5-1.9,0.4-4,2-4.7c1.3-0.6,2.5-0.5,3.6,0.3
	C274.9,49.9,275.2,51.2,275.2,52.7z M274.1,51.8c-0.1-1-0.5-1.8-1.4-2.3c-0.9-0.4-1.7-0.4-2.5,0.2c-0.7,0.5-1,1.2-1,2
	C270.8,51.8,272.4,51.8,274.1,51.8z"/>
<path d="M94.2,52.7c-2.1,0-4,0-6.1,0c0.1,1,0.4,1.8,1.3,2.3c1.3,0.8,2.6,0.4,3.7-0.5c0,0,0.1,0,0.1,0c0.6,0.7,0.5,0.7-0.2,1.2
	c-1.7,1.1-4.1,0.7-5.2-0.8c-1.2-1.6-1.1-4.1,0.3-5.5c1.1-1.1,2.4-1.3,3.8-0.9c1.4,0.5,2.1,1.6,2.3,3.1C94.1,52,94.1,52.3,94.2,52.7z
	 M88.1,51.8c1.7,0,3.3,0,4.9,0c-0.1-0.9-0.4-1.6-1.1-2.1c-0.8-0.5-1.7-0.6-2.5-0.1C88.5,50.1,88.2,50.9,88.1,51.8z"/>
<path d="M114.7,52.7c-2,0-4,0-6,0c0,1,0.4,1.8,1.3,2.3c1.3,0.8,2.6,0.4,3.7-0.5c0.2,0.2,0.3,0.5,0.5,0.7c-0.5,0.6-1.2,0.9-1.9,1.1
	c-2.2,0.5-4.2-0.6-4.7-2.8c-0.5-2.1,0.5-4.3,2.4-4.9c1.3-0.4,2.5-0.2,3.5,0.7C114.4,50.1,114.7,51.3,114.7,52.7z M108.7,51.8
	c1.6,0,3.3,0,4.9,0c0-1.5-1.1-2.5-2.5-2.5C109.7,49.3,108.7,50.4,108.7,51.8z"/>
<path d="M187.9,54.4c0.2,0.2,0.3,0.4,0.5,0.7c-0.5,0.6-1.2,0.9-1.9,1.1c-2.3,0.5-4.2-0.6-4.7-2.8c-0.5-1.9,0.4-3.9,2-4.7
	c2.3-1.1,4.9,0.4,5.1,3.1c0,0.3,0,0.6,0,0.9c-2,0-4,0-6,0c0.1,1,0.5,1.8,1.3,2.3C185.5,55.7,186.7,55.3,187.9,54.4z M187.8,51.8
	c0-1.6-1.2-2.6-2.7-2.5c-1.2,0.1-2.3,1.3-2.1,2.5C184.5,51.8,186.1,51.8,187.8,51.8z"/>
<path d="M163.7,52.3c0-3,2.6-4.8,5.2-3.6c1.3,0.6,1.9,1.6,2.1,3c0.2,1.5-0.1,2.9-1.4,3.9c-1.1,0.9-2.5,1-3.8,0.4
	c-1.4-0.6-2-1.8-2.2-3.2C163.6,52.6,163.7,52.5,163.7,52.3z M164.8,52.3c0.1,0.3,0.1,0.7,0.2,1c0.3,1,0.9,1.7,2,1.9
	c1,0.2,1.9-0.3,2.4-1.2c0.6-1.2,0.6-2.4-0.1-3.6c-0.5-0.9-1.5-1.2-2.5-1C165.6,49.7,164.8,50.8,164.8,52.3z"/>
<path d="M226.6,56.1c-0.3,0-0.5,0-0.7,0c-0.3,0-0.4-0.1-0.4-0.4c0-1.3,0-2.7,0-4c0-0.1,0-0.3,0-0.4c0-1.6-1-2.3-2.5-1.7
	c-0.2,0.1-0.4,0.2-0.6,0.3c-0.5,0.3-0.8,0.7-0.8,1.4c0.1,1.6,0,3.2,0,4.7c-0.1,0-0.1,0.1-0.1,0.1c-1,0.1-1,0.1-1-0.9c0-2,0-4,0-6
	c0-0.2,0-0.4,0-0.6c0.4,0,0.7,0,1.1,0c0,0.3,0,0.6,0,0.9c0.2-0.1,0.3-0.2,0.4-0.3c0.9-0.7,1.9-1.1,3.1-0.8c0.8,0.2,1.3,0.7,1.4,1.6
	c0.1,0.8,0.1,1.6,0.1,2.5C226.6,53.7,226.6,54.9,226.6,56.1z"/>
<path d="M242.6,48.6c0.3,0,0.7,0,1.1,0c0,0.2,0,0.4,0,0.6c0,1.5,0,2.9,0,4.4c0,1.7,1.2,1.9,2.2,1.6c0.3-0.1,0.6-0.2,0.8-0.3
	c0.6-0.3,0.9-0.7,0.8-1.5c-0.1-1.6,0-3.2,0-4.8c0.4,0,0.7,0,1.1,0c0,0.2,0,0.4,0,0.6c0,2,0,4.1,0,6.1c0,0.8,0,0.8-0.8,0.8
	c-0.1,0-0.2,0-0.3,0c0-0.3,0-0.6,0-0.9c-0.2,0.1-0.3,0.2-0.4,0.3c-0.9,0.8-2,1-3.2,0.7c-0.9-0.2-1.4-0.9-1.5-1.9c0-1.8,0-3.6,0-5.5
	C242.6,48.7,242.6,48.7,242.6,48.6z"/>
<path d="M99.4,56.1c0-2.5,0-5,0-7.5c0.4,0,0.7,0,1.1,0c0,0.3,0,0.6,0,0.8c0.7-0.3,1.3-0.7,2-0.9c0.5-0.1,1.1-0.1,1.6,0.1
	c0.8,0.2,1.3,0.9,1.3,1.7c0,1.8,0,3.7,0,5.5c0,0.1-0.2,0.3-0.3,0.3c-0.2,0.1-0.5,0-0.8,0c0-1,0-2,0-2.9c0-0.7,0-1.4,0-2.1
	c0-1.2-0.8-1.8-1.9-1.6c-0.4,0.1-0.7,0.2-1.1,0.4c-0.6,0.3-1,0.7-0.9,1.5c0.1,1.3,0,2.7,0,4.1c0,0.8,0,0.8-0.8,0.8
	C99.6,56.1,99.5,56.1,99.4,56.1z"/>
<path d="M130.1,56.1c-0.3,0-0.6,0-0.8,0c-0.1,0-0.3-0.2-0.3-0.3c0-2.4,0-4.8,0-7.2c0.4,0,0.7,0,1.1,0c0,0.3,0,0.6,0.1,0.8
	c0.7-0.3,1.4-0.8,2.1-1c1.3-0.3,2.4,0.3,2.8,1.3c0.1,0.2,0.1,0.5,0.1,0.7c0,1.8,0,3.7,0,5.6c-0.3,0-0.6,0-0.9,0
	c-0.1,0-0.2-0.3-0.2-0.4c0-1.5,0-2.9,0-4.4c0-1.5-0.9-2.2-2.4-1.7c-0.3,0.1-0.5,0.2-0.8,0.4c-0.5,0.3-0.8,0.7-0.8,1.4
	c0.1,1.4,0,2.8,0,4.3C130.1,55.7,130.1,55.9,130.1,56.1z"/>
<path d="M63.6,48.6c0.4,0,0.7,0,1.1,0c0,2.5,0,5,0,7.5c-0.3,0-0.7,0-1,0c0-0.3,0-0.6-0.1-0.9c-0.2,0.2-0.3,0.3-0.5,0.4
	c-0.9,0.7-1.9,0.9-3,0.7c-0.9-0.2-1.5-0.9-1.5-1.9c0-1.9,0-3.7,0-5.7c0.4,0,0.7,0,1.1,0c0,0.2,0,0.3,0,0.5c0,1.5,0,2.9,0,4.4
	c0,1.3,0.6,1.8,1.8,1.7c0.7,0,1.4-0.4,1.9-0.9c0.1-0.2,0.2-0.4,0.2-0.6c0-1.5,0-3,0-4.6C63.6,49,63.6,48.8,63.6,48.6z"/>
<path d="M251.1,56.1c0-2.5,0-4.9,0-7.4c0.3,0,0.7,0,1.1,0c0,0.3,0,0.6,0.1,1c0.2-0.1,0.3-0.2,0.4-0.3c0.9-0.7,1.9-1,3-0.8
	c0.9,0.2,1.5,0.8,1.6,1.7c0.1,1.9,0,3.8,0,5.8c0,0,0,0.1-0.1,0.1c-0.3,0-0.6,0-1,0c0-0.3,0-0.5,0-0.8c0-1.4,0-2.7,0-4.1
	c0-1.4-0.8-2.1-2.2-1.7c-0.3,0.1-0.6,0.2-0.9,0.4c-0.6,0.3-0.9,0.8-0.8,1.5c0.1,1.6,0,3.1,0,4.7C251.8,56.1,251.4,56.1,251.1,56.1z"
	/>
<path d="M213,56.1c-0.4,0-0.7,0-1.1,0c0-2.5,0-5,0-7.5c0.4,0,0.7,0,1.1,0c0,0.3,0,0.6,0,0.8c0.7-0.3,1.3-0.8,2.1-0.9
	c1.6-0.4,3,0.3,3,2.3c0,1.7,0,3.5,0,5.3c-0.4,0-0.7,0-1.1,0c0-0.2,0-0.4,0-0.6c0-1.4,0-2.9,0-4.3c0-1.4-0.8-2.1-2.2-1.7
	c-0.5,0.1-1,0.4-1.4,0.7c-0.2,0.2-0.4,0.5-0.4,0.8C213,52.7,213,54.4,213,56.1z"/>
<path d="M125.5,48.6c0.4,0,0.7,0,1.1,0c0,2.5,0,5,0,7.5c-0.4,0-0.7,0-1,0c0-0.3,0-0.6-0.1-0.9c-0.2,0.1-0.3,0.2-0.4,0.3
	c-0.9,0.7-1.9,1-3,0.8c-0.9-0.2-1.6-0.8-1.6-1.9c0-1.9,0-3.8,0-5.8c0.3,0,0.7,0,1.1,0c0,0.2,0,0.3,0,0.5c0,1.4,0,2.8,0,4.2
	c0,1.6,1,2.4,2.6,1.8c0.3-0.1,0.5-0.2,0.7-0.4c0.5-0.3,0.7-0.7,0.7-1.3C125.5,51.9,125.5,50.3,125.5,48.6z"/>
<path d="M57.1,48.6c0,0.3,0,0.6,0,1c-0.4,0-0.7,0-1,0c-0.4,0-0.5,0.1-0.5,0.5c0,1.8,0,3.6,0,5.5c0,0.2,0,0.4,0,0.6
	c-0.4,0-0.7,0-1.1,0c0-0.2,0-0.4,0-0.6c0-1.8,0-3.5,0-5.3c0-0.5-0.1-0.7-0.6-0.6c-0.2,0-0.4,0-0.6,0c0-0.3,0-0.6,0-1
	c0.3,0,0.6,0,0.8,0c0.3,0,0.4-0.1,0.4-0.4c0-0.4,0-0.7,0.1-1.1c0.4-1.6,2.3-2.2,3.6-1c-0.1,0.2-0.3,0.4-0.4,0.6c-0.1,0-0.1,0-0.1,0
	c-0.5-0.3-1-0.5-1.6-0.1c-0.5,0.4-0.5,1.1-0.5,1.7c0,0.1,0.2,0.2,0.3,0.2C56.3,48.6,56.7,48.6,57.1,48.6z"/>
<path d="M83.9,45.7c0.4,0,0.7,0,1.1,0c0,0.2,0,0.4,0,0.6c0,3,0,5.9,0,8.9c0,1.1,0,1.1-1.1,0.9C83.9,52.6,83.9,49.2,83.9,45.7z"/>
<path d="M238.6,56.1c-0.3,0-0.6,0-0.9,0c-0.1,0-0.3-0.2-0.3-0.3c0-2.4,0-4.8,0-7.2c0.4,0,0.7,0,1.1,0c0,0.3,0,0.7,0,1.2
	c0.7-0.8,1.5-1.3,2.5-1.4c0,0.4,0,0.7,0,1.1c-0.8-0.1-1.4,0.2-2,0.7c-0.3,0.3-0.5,0.6-0.5,1c0,1.4,0,2.8,0,4.3
	C238.6,55.7,238.6,55.9,238.6,56.1z"/>
<path d="M162.6,49.4c-0.5,0.1-0.9,0.2-1.3,0.3c-0.8,0.3-1.2,0.8-1.2,1.8c0.1,1.5,0,3,0,4.6c-0.3,0-0.6,0-0.9,0
	c-0.1,0-0.3-0.2-0.3-0.3c0-2.4,0-4.8,0-7.2c0.4,0,0.7,0,1.1,0c0,0.3,0,0.7,0,1.1c0.7-0.7,1.4-1.3,2.4-1.3
	C162.6,48.8,162.6,49.1,162.6,49.4z"/>
<path d="M207,49.4c-0.6,0.2-1.1,0.3-1.5,0.5c-0.6,0.3-1,0.8-0.9,1.6c0.1,1.4,0,2.7,0,4.1c0,0.2,0,0.3,0,0.5c-0.1,0-0.1,0.1-0.1,0.1
	c-1,0.2-1.1,0.1-1.1-0.9c0-2,0-4,0-6c0-0.2,0-0.4,0-0.6c0.4,0,0.8,0,1.1,0c0,0.3,0,0.7,0,1.1c0.4-0.3,0.7-0.6,1.1-0.9
	c0.4-0.2,0.8-0.3,1.3-0.5C207,48.8,207,49.1,207,49.4z"/>
<path d="M67,48.6c0.4,0,0.7,0,1.1,0c0,0.3,0,0.7,0.1,1.1c0.7-0.8,1.4-1.3,2.5-1.3c0,0.4,0,0.7,0,1.1c-0.7-0.1-1.4,0.2-2,0.6
	c-0.4,0.3-0.6,0.6-0.6,1.1c0,1.6,0,3.2,0,4.8c-0.4,0-0.7,0-1.1,0C67,53.6,67,51.1,67,48.6z"/>
<path d="M208.5,48.6c0.4,0,0.7,0,1.1,0c0,0.2,0,0.4,0,0.6c0,2,0,4,0,6c0,1-0.1,1.1-1.1,0.8C208.5,53.6,208.5,51.1,208.5,48.6z"/>
<path d="M96,48.6c0.4,0,0.8,0,1.1,0c0,2.5,0,5,0,7.5c-0.2,0-0.4,0-0.7,0c-0.4,0-0.5-0.1-0.5-0.5c0-1.4,0-2.8,0-4.2
	C96,50.5,96,49.6,96,48.6z"/>
<path d="M96.5,45.9c0.4,0,0.8,0.3,0.8,0.8c0,0.4-0.3,0.8-0.7,0.8c-0.4,0-0.8-0.3-0.8-0.7C95.7,46.3,96.1,45.9,96.5,45.9z"/>
<path d="M209,45.9c0.4,0,0.8,0.3,0.8,0.8c0,0.4-0.3,0.8-0.7,0.8c-0.4,0-0.8-0.3-0.8-0.7C208.3,46.3,208.6,45.9,209,45.9z"/>
<path d="M60,45.9c0.4,0,0.7,0.3,0.7,0.7c0,0.4-0.3,0.7-0.7,0.7c-0.4,0-0.7-0.3-0.7-0.7C59.3,46.2,59.6,45.9,60,45.9z"/>
<path d="M64,46.6c0,0.4-0.3,0.7-0.7,0.7c-0.4,0-0.7-0.3-0.7-0.7c0-0.4,0.3-0.7,0.7-0.7C63.6,45.9,63.9,46.2,64,46.6z"/>
</svg>
