<?xml version="1.0" encoding="utf-8"?>
<!-- Generator: Adobe Illustrator 21.0.0, SVG Export Plug-In . SVG Version: 6.00 Build 0)  -->
<!DOCTYPE svg PUBLIC "-//W3C//DTD SVG 1.1//EN" "http://www.w3.org/Graphics/SVG/1.1/DTD/svg11.dtd">
<svg version="1.1" id="Ebene_1" xmlns="http://www.w3.org/2000/svg" xmlns:xlink="http://www.w3.org/1999/xlink" x="0px" y="0px"
	 width="283.5px" height="41.7px" viewBox="0 0 283.5 41.7" style="enable-background:new 0 0 283.5 41.7;" xml:space="preserve">
<path style="fill:#484848;" d="M142,36.9c0.1-5.5,0.1-5.5-4.9-5.5c-45.2,0-90.5,0-135.7,0c0,1.6-0.1,3.2-0.1,4.8
	c0.1,6.3-0.7,5.6,5,5.6c32.7,0,65.5,0,98.2,0c12.5,0,25-0.1,37.5-0.1C142.6,40.1,141.9,38.5,142,36.9z"/>
<path style="fill:#202020;" d="M17.6,13.1c1.7-4.1,3.2-7.2,4.2-10.4c1.2-4.3,4.9-2.1,7.3-2.9c1.5-0.5,1.1,2.2,1.3,3.5
	c1,6.2,2,12.5,2.9,18.7c0.2,1.2,1.3,3.3-1.4,3.1c-2-0.1-4.9,1.5-5.2-2.5c-0.3-3.6-0.9-7.2-2.1-10.9c-1.5,3.6-3.1,7.3-4.6,10.9
	c-0.5,1.2-0.7,2.7-2.5,2.6c-1.9-0.1-1.9-1.7-2.4-2.8c-1.5-3.5-2.9-7.1-5-10.6c-0.5,3.5-1.2,7-1.5,10.6c-0.4,4.1-3.3,2.8-5.4,2.7
	C-0.1,25,1.8,22.7,2,21.6c0.9-6.4,2-12.7,3.2-19C5.4,1.2,5-0.9,7.6-0.6c2.3,0.2,4.8-0.9,5.9,2.6C14.4,5.5,15.9,8.8,17.6,13.1z"/>
<path style="fill:#202020;" d="M262.9,25c-5.5,0.4-5.5,0.4-5.5-5.1c0-5.3-0.1-10.6,0.1-16c0-1.5-1.1-3.9,1.2-4.3
	c2.4-0.4,5.2-1.1,7.2,1.7c3.1,4.4,6.6,8.6,10.8,12.7c0-3.5-0.1-7,0-10.5c0-1.3-0.8-2.9,0.8-3.9c5.4,0.7,5.4,0.7,5.4,6.5
	c0,4.9,0,9.9,0,14.8c0,1.5,0,2.9-1.1,4c-3.6,0.8-6.1-0.2-8.2-3.4c-2.6-3.9-5.7-7.4-9-11.5c-1.2,5.4,0.4,10.2-1,14.8
	c-0.8-4.1,0-8.3-0.4-11.5C263,16.6,263.6,20.8,262.9,25z"/>
<path style="fill:#202020;" d="M224.2,0.3c5.5-0.3,5.6-0.3,5.5,5c0,4.1,0.1,8.3-0.3,12.3c-0.5,5.2-4.2,7.9-10.3,8.2
	c-6.5,0.3-10.2-2.1-11.6-7.4c0.9-4.9-0.3-9.8,0.1-14.8c0.3-3.3,1.2-4.3,4.2-3.8c0.5,0.1,1,0,1.4-0.2c1.3,4.2,0.4,8.6,0.6,12.9
	c0.2,5.5,1.2,7.3,4.4,7.4c3.3,0.1,4.5-1.9,4.7-7.5c0.2-4-0.6-8.1,0.5-12.1c1,5.4,0,10.8,0.4,15C224.1,11.1,223.4,5.7,224.2,0.3z"/>
<path style="fill:#202020;" d="M150.7,25.8c-2,0-3.9-0.4-5.7-1.1c-3.4-1.3-3.6-2-1.6-5.3c0.8-1.4,1.5-1.6,2.8-0.7
	c1.5,1.1,3.3,1.6,5.2,1.2c1.1-0.2,2-0.9,2.2-2.1c0.1-1.1-0.6-1.9-1.5-2.3c-1.3-0.6-2.7-1.1-4.1-1.5c-2.9-0.9-5-2.5-5.2-5.7
	c-0.3-3.5,0.8-6.5,4-8.3c3.9-2.2,7.7-1.3,11.6,0.2c1.3,0.5,1.2,1.5,0.5,2.3c-0.9,1-0.4,3.5-2.9,2.8c-0.5-0.1-0.9-0.5-1.3-0.6
	c-1.7-0.3-3.8-0.8-4.5,1.2c-0.8,2.3,1.5,2.6,3,3.2c7,2.5,8.8,5.2,7.2,10.7C159.2,23.6,155.7,25.8,150.7,25.8z"/>
<path style="fill:#202020;" d="M50.8-0.4c1.5,4.9,1.2,5.5-3.7,5.6c-1.6,0-3.8-0.9-3.8,2.3c0,3.1,2,2.7,4,2.7c1.7,0,3.8-0.7,3.7,2.4
	c0,3.1-2.1,2.3-3.8,2.4c-0.8,0.1-1.7,0-2.5,0.1c-1.4,0.1-1.3,1.2-1.3,2.2c0,1,0,2,1.4,2.1c1.3,0.1,2.7,0.2,4,0.1
	c2.1-0.2,2.8,0.7,2.7,2.7c-0.1,1.8-0.2,3.1-2.5,2.9C45.2,25,41.4,25,37.7,25c-0.8-7.8-0.1-15.6-0.4-23.4c-0.1-1.9,1.2-1.7,2.4-1.8
	C43.4-0.3,47.1,0.1,50.8-0.4z"/>
<path style="fill:#222222;" d="M203.8-0.5c1.9,3.8,1.3,5.3-2.4,5.6c-1.8,0.1-2.2,0.9-2.2,2.5c0,4.8-0.1,9.7,0.1,14.5
	c0.1,2.9-1.3,3-3.5,3.1c-2.3,0-3.6-0.3-3.5-3.1c0.2-4.7,0-9.4,0.1-14.1c0-1.6,0-2.7-2.2-2.8c-3.6-0.2-4.3-1.9-2.3-5.6
	C193.1,0,198.5,0,203.8-0.5z"/>
<path style="fill:#1F1F1F;" d="M88.1,12.2c0,3.5-0.1,7,0,10.5c0.1,2.8-1.6,2.4-3.3,2.4c-1.6,0-3.5,0.5-3.4-2.3c0.1-7,0.1-14,0-21.1
	c-0.1-2.8,1.7-2.4,3.3-2.3c1.6,0,3.5-0.6,3.4,2.3C88,5.2,88.1,8.7,88.1,12.2z"/>
<path style="fill:#1F1F1F;" d="M133.1,11.9c1.5,4.2,1.2,4.9-3.1,4.8c-1.9,0-3.8,0.6-5.6-0.5c-0.1-3.5,1.6-4.6,4.9-4.1
	C130.5,12.3,131.9,12.6,133.1,11.9z"/>
<path style="fill:#0F0F0F;" d="M235.9-0.5c-1.4,4-0.5,8.1-0.7,12.1c-0.1,4.4,0,8.9,0,13.3c-1.7-0.3-1.1-1.6-1.1-2.6
	c-0.1-6.8,0-13.6,0-20.3C234,0.8,233.5-0.9,235.9-0.5z"/>
<path style="fill:#0B0B0B;" d="M50.8-0.4c0,1.1,0,2.2,0,3.2c-0.7-3-3-2.7-5.1-2.7c-8.7,0-8-0.6-8,7.7c0,5.7,0,11.4,0,17.1
	c-1.3-0.4-0.9-1.6-0.9-2.4c0-6.8,0.1-13.5-0.1-20.3c0-2.2,0.6-3,2.9-2.8C43.3-0.4,47-0.5,50.8-0.4z"/>
<path style="fill:#171717;" d="M281.8,24.9c1.5-7.4,0.6-14.9,0.6-22.3c0-3.3-3.4-1.9-5-3.1c0.4,0,0.7-0.1,1.1-0.1
	c5.9,0,4.7-0.3,4.7,4.5c0.1,6.2,0.1,12.3,0,18.5C283.2,23.4,284,25.1,281.8,24.9z"/>
<path style="fill:#141414;" d="M213.3-0.4c-4.4,0.1-5.4,2.5-5.2,6.6c0.2,4,0.8,8.1-0.5,12.1c-0.9-5.7-0.2-11.3-0.5-17
	c-0.1-1.7,0.8-2.1,2.2-1.9C210.6-0.5,211.9-0.4,213.3-0.4z"/>
<path style="fill:#171717;" d="M224.2,0.3c0,5,0,9.9,0,14.9c-0.3,0-0.5,0-0.8,0c0-5,0-9.9,0-14.9C223.7,0.3,224,0.3,224.2,0.3z"/>
<path style="fill:#121212;" d="M203.8-0.5c-5.3,1.2-10.7,0.9-16,0C193.1-0.5,198.5-0.5,203.8-0.5z"/>
<path style="fill:#141414;" d="M262.9,25c0-4.8,0-9.6,0-14.4c0.2,0,0.5,0,0.7,0c0,4.7,0,9.5,0,14.2C263.3,24.9,263.1,24.9,262.9,25z
	"/>
<path style="fill:#101010;" d="M133.1,11.9c-0.1,1.4-1,1-1.8,0.8c-3.2-0.7-5.9-0.4-6.8,3.4c-1-3.3-0.2-5.1,3.7-4.5
	C129.8,11.9,131.4,11.8,133.1,11.9z"/>
<path style="fill:#202020;" d="M65.7-0.5C62.9-0.6,60,0,57.1,0.2c-1.6,0.1-1.5,1.2-1.5,2.3c0,3.4,0,6.8,0,10.2c0,0,0,0,0,0
	c0,0.8,0,1.7,0,2.5c0,11.1,0,11.1,11,9.8c6.8-0.8,11.9-6.4,11.7-13.1C78.2,5.2,72.7-0.4,65.7-0.5z M71.1,14c-0.6,3-4.2,6.1-7,5.9
	c-1.3-0.1-1.8-1-1.8-2.2c0-1.8,0-3.6,0-5.4c0,0,0,0,0,0c0-1.1,0-2.2,0-3.3c0-4,1.4-4.8,5-3.2C70.3,7.1,71.9,10.5,71.1,14z"/>
<path style="fill:#131313;" d="M61.6,7.3c0,3.4,0,6.7,0,10.1c-0.1,0-0.2,0-0.3,0c0-3.5,0-6.9,0-10.4C61.3,7.1,61.4,7.2,61.6,7.3z"/>
<path style="fill:#202020;" d="M116.5,22.8c-2.8-7.1-5.5-14.2-8.1-21.4c-0.8-2.3-2.4-2.1-4-2c-1.7,0.2-3.9-0.9-4.9,1.8
	c-2.7,7.3-5.6,14.4-8.3,21.7c-0.2,0.6-0.7,1.3-0.1,2c0.8,0.8,6.5,0.3,6.7-0.8c0.8-3.6,3.3-3.7,7.1-3.1c0.7,0.2,3.4-1.4,4.1,1.2
	c0.9,3.6,3.5,2.9,6,3C116.8,25.2,117.2,24.6,116.5,22.8z M105.8,15.2c-1.1,0.7-2.7,0.7-3.8,0.1c-1.1-0.6-0.2-1.7,0-2.6
	c0.4-1.4,1-2.8,1.7-4.5c1.4,1.4,1.5,3,2.1,4.4C106,13.5,106.8,14.6,105.8,15.2z"/>
<path style="fill:#202020;" d="M187.4,21.5c-2.1-5.8-4.5-11.5-6.5-17.4c-1-2.9-2.1-4.9-6.3-3.6c-0.6,0.6-2.6-2.3-3.7,0.8
	c-2.5,7.2-5.5,14.3-8.2,21.4c-0.2,0.6-0.7,1.4-0.2,2c0.7,1,6.6,0.2,6.9-1c0.8-3.6,3.4-3.1,6-3.1c2.6,0,5.2-0.4,5.9,3.1
	c0.3,1.2,5.4,2.1,6.6,1.2C189.2,23.8,187.7,22.6,187.4,21.5z M177,15.3c-1,0.5-2.5,0.5-3.5,0.1c-1.6-0.6-0.3-1.9-0.1-2.8
	c0.3-1.4,0.9-2.7,1.6-4.4c1.4,1.4,1.6,2.9,2,4.3C177.3,13.4,178.4,14.7,177,15.3z"/>
<path style="fill:#202020;" d="M248.8,16.4c-0.8-1-1.1-1.5,0.3-2.5c3.6-2.6,4.7-5.7,3.5-9.4c-1-3.2-3.9-4.9-8.3-5.2
	c-2.8-0.2-5.6,0.8-8.4,0.2c-1.7,0.8-1.4,2.4-1.4,3.8c0,6.1,0,12.1,0,18.2c0,1.2-0.2,2.4,0.7,3.5c5.5,0.4,5.5,0.4,5.6-5.1
	c0-1-0.4-2.1,0.8-3.4c3.1,4.7,5.1,11.5,13.4,8C252.9,21.8,250.9,19.1,248.8,16.4z M242.4,10.9c-2.5,0.1-1.5-1.9-1.8-3.2
	c0.4-1.2-0.8-3.2,1.7-3.2c2,0,3.6,0.8,3.7,3.1C246,9.9,244.4,10.8,242.4,10.9z"/>
<g>
	<path style="fill:#5D5D5D;" d="M279.4,31.5c-46.4,0-92.8,0-139.2,0c1.8,0.3,1.8,1.4,1.8,5.4c0,1.6,0.6,3.1-0.1,4.7c0,0,0,0,0,0
		c0,0,0,0,0,0c1.5,0,2.9,0.1,4.4,0.1c43.7,0,87.4,0,131.1,0c6.7,0,5.7,1,6-6.1C283.5,32.6,282.7,31.5,279.4,31.5z"/>
	<path style="fill:#5D5D5D;" d="M3.5,31.4c-0.1,0-0.3,0-0.4,0C3.2,31.4,3.4,31.4,3.5,31.4z"/>
</g>
</svg>
