<?xml version="1.0" encoding="utf-8"?>
<!-- Generator: Adobe Illustrator 20.1.0, SVG Export Plug-In . SVG Version: 6.00 Build 0)  -->
<!DOCTYPE svg PUBLIC "-//W3C//DTD SVG 1.1//EN" "http://www.w3.org/Graphics/SVG/1.1/DTD/svg11.dtd">
<svg version="1.1" xmlns="http://www.w3.org/2000/svg" xmlns:xlink="http://www.w3.org/1999/xlink" x="0px" y="0px" width="283.5px"
	 height="283.5px" viewBox="0 0 283.5 283.5" style="enable-background:new 0 0 283.5 283.5;" xml:space="preserve">
<g id="Layer_2">
	<circle style="fill:#FFFFFF;" cx="142.2" cy="142" r="140.6"/>
</g>
<g id="Ebene_1">
	<path style="fill:#2DAC81;" d="M141.7,283.5C63.6,283.5,0,219.9,0,141.7C0,63.6,63.6,0,141.7,0s141.7,63.6,141.7,141.7
		C283.5,219.9,219.9,283.5,141.7,283.5z M141.7,10.3c-72.5,0-131.4,58.9-131.4,131.4c0,72.5,58.9,131.4,131.4,131.4
		c72.5,0,131.4-58.9,131.4-131.4C273.1,69.3,214.2,10.3,141.7,10.3z"/>
	<rect x="0" y="0" style="fill:none;" width="283.5" height="283.5"/>
	<path style="fill:#E74914;" d="M178.1,218.2l-31.9-57c-1-1.8-3-2.8-5-2.6c-2-0.2-4,0.8-5,2.6l-31.9,57c-1.4,2.5-0.5,5.6,2,7
		c0.8,0.4,1.7,0.7,2.5,0.7c1.8,0,3.6-1,4.5-2.6l27.9-49.8l27.9,49.8c0.9,1.7,2.7,2.6,4.5,2.6c0.9,0,1.7-0.2,2.5-0.7
		C178.7,223.8,179.5,220.7,178.1,218.2z"/>
	<rect x="67.9" y="80.8" style="fill:#2DAC81;" width="146.3" height="86.2"/>
	<rect x="79.8" y="94.1" style="fill:#FFFFFF;" width="45.8" height="38.8"/>
	<polygon style="fill:#FFFFFF;" points="151.1,119.2 128.2,158 174,158 	"/>
	<g>
		<defs>
			<rect id="SVGID_7_" x="0" y="0" width="283.5" height="283.5"/>
		</defs>
		<clipPath id="SVGID_2_">
			<use xlink:href="#SVGID_7_"  style="overflow:visible;"/>
		</clipPath>
		<path style="clip-path:url(#SVGID_2_);fill:#FFFFFF;" d="M181.1,129.5c12.6,0,22.9-8.7,22.9-19.4c0-10.7-10.2-19.4-22.9-19.4
			c-12.6,0-22.9,8.7-22.9,19.4C158.2,120.9,168.5,129.5,181.1,129.5"/>
	</g>
</g>
</svg>
