<?xml version="1.0" encoding="utf-8"?>
<!-- Generator: Adobe Illustrator 20.1.0, SVG Export Plug-In . SVG Version: 6.00 Build 0)  -->
<!DOCTYPE svg PUBLIC "-//W3C//DTD SVG 1.1//EN" "http://www.w3.org/Graphics/SVG/1.1/DTD/svg11.dtd">
<svg version="1.1" xmlns="http://www.w3.org/2000/svg" xmlns:xlink="http://www.w3.org/1999/xlink" x="0px" y="0px" width="283.5px"
	 height="283.5px" viewBox="0 0 283.5 283.5" style="enable-background:new 0 0 283.5 283.5;" xml:space="preserve">
<g id="Layer_2">
	<circle style="fill:#FFFFFF;" cx="142.1" cy="142" r="139.6"/>
</g>
<g id="Ebene_1">
	<path style="fill:#2DAC81;" d="M141.7,283.5C63.6,283.5,0,219.9,0,141.7C0,63.6,63.6,0,141.7,0s141.7,63.6,141.7,141.7
		C283.5,219.9,219.9,283.5,141.7,283.5z M141.7,10.3c-72.5,0-131.4,58.9-131.4,131.4c0,72.5,58.9,131.4,131.4,131.4
		c72.5,0,131.4-58.9,131.4-131.4C273.1,69.3,214.2,10.3,141.7,10.3z"/>
	<path style="fill:#2DAC81;" d="M154.7,112.5C154.7,90.7,129,73,97.2,73c-31.7,0-57.5,17.7-57.5,39.5c0,12.5,8.5,23.6,21.7,30.8
		c-0.4,4.1-2,9.8-8.3,10.9c0,0,14,2.8,25.3-4.4c5.9,1.4,12.2,2.2,18.9,2.2C129,151.9,154.7,134.3,154.7,112.5"/>
	<path style="fill:#E74914;" d="M222.4,229.8c-5.2,0-12.6-0.8-19.6-4.6c-5.9,1.3-12,1.9-18,1.9c-34.5,0-62.6-20-62.6-44.6
		s28.1-44.6,62.6-44.6s62.6,20,62.6,44.6c0,13-7.6,25-21.1,33.4c1,2.7,2.7,3,3.4,3.1l0.2,10.2C229.6,229.3,226.6,229.8,222.4,229.8z
		 M204.5,214.1l1.8,1.2c3.2,2.1,6.8,3.2,10.1,3.7c-0.5-1.6-0.9-3.4-1.1-5.3l-0.3-3.4l3-1.6c12.1-6.6,19-16.2,19-26.3
		c0-18.9-23.5-34.3-52.3-34.3c-28.8,0-52.3,15.4-52.3,34.3c0,18.9,23.5,34.3,52.3,34.3c5.9,0,11.9-0.7,17.7-2.1L204.5,214.1z"/>
	<rect x="0" y="0" style="fill:none;" width="283.5" height="283.5"/>
</g>
</svg>
