<?xml version="1.0" encoding="utf-8"?>
<!-- Generator: Adobe Illustrator 20.1.0, SVG Export Plug-In . SVG Version: 6.00 Build 0)  -->
<!DOCTYPE svg PUBLIC "-//W3C//DTD SVG 1.1//EN" "http://www.w3.org/Graphics/SVG/1.1/DTD/svg11.dtd">
<svg version="1.1" xmlns="http://www.w3.org/2000/svg" xmlns:xlink="http://www.w3.org/1999/xlink" x="0px" y="0px" width="283.5px"
	 height="283.5px" viewBox="0 0 283.5 283.5" style="enable-background:new 0 0 283.5 283.5;" xml:space="preserve">
<g id="Layer_2">
	<circle style="fill:#FFFFFF;" cx="140.5" cy="144" r="138.5"/>
</g>
<g id="Ebene_1">
	<g>
		<defs>
			<rect id="SVGID_3_" x="0" y="0" width="283.5" height="283.5"/>
		</defs>
		<clipPath id="SVGID_2_">
			<use xlink:href="#SVGID_3_"  style="overflow:visible;"/>
		</clipPath>
		<path style="clip-path:url(#SVGID_2_);fill:#2DAC81;" d="M141.7,283.5C63.6,283.5,0,219.9,0,141.7C0,63.6,63.6,0,141.7,0
			s141.7,63.6,141.7,141.7C283.5,219.9,219.9,283.5,141.7,283.5z M141.7,10.3c-72.5,0-131.4,58.9-131.4,131.4
			c0,72.5,58.9,131.4,131.4,131.4c72.5,0,131.4-58.9,131.4-131.4C273.1,69.3,214.2,10.3,141.7,10.3z"/>
	</g>
	<polygon style="fill:#2DAC81;" points="125.5,57.6 137.8,57.6 137.8,111 146,111 146,57.6 158.2,57.6 141.9,29.3 	"/>
	<polygon style="fill:#2DAC81;" points="158.2,228.5 146,228.5 146,175.1 137.8,175.1 137.8,228.5 125.5,228.5 141.9,256.8 	"/>
	<polygon style="fill:#2DAC81;" points="227.3,126.7 227.3,139 174,139 174,147.1 227.3,147.1 227.3,159.4 255.6,143 	"/>
	<polygon style="fill:#E74914;" points="81.5,126.7 81.5,139 28.2,139 28.2,147.1 81.5,147.1 81.5,159.4 109.8,143 	"/>
	<polygon style="fill:#E74914;" points="196.1,111.9 187.5,103.2 225.2,65.5 219.4,59.7 181.7,97.5 173,88.8 164.6,120.4 	"/>
	<polygon style="fill:#2DAC81;" points="93,215 84.4,206.3 122.1,168.6 116.3,162.8 78.6,200.6 69.9,191.9 61.5,223.5 	"/>
	<polygon style="fill:#2DAC81;" points="69.9,94.2 78.6,85.5 116.3,123.2 122.1,117.5 84.4,79.7 93,71.1 61.5,62.6 	"/>
	<polygon style="fill:#2DAC81;" points="213.9,191.9 205.2,200.6 167.5,162.8 161.7,168.6 199.4,206.3 190.7,215 222.3,223.5 	"/>
</g>
</svg>
