<?xml version="1.0" encoding="utf-8"?>
<!-- Generator: Adobe Illustrator 20.1.0, SVG Export Plug-In . SVG Version: 6.00 Build 0)  -->
<!DOCTYPE svg PUBLIC "-//W3C//DTD SVG 1.1//EN" "http://www.w3.org/Graphics/SVG/1.1/DTD/svg11.dtd">
<svg version="1.1" id="Ebene_1" xmlns="http://www.w3.org/2000/svg" xmlns:xlink="http://www.w3.org/1999/xlink" x="0px" y="0px"
	 width="283.5px" height="283.5px" viewBox="0 0 283.5 283.5" style="enable-background:new 0 0 283.5 283.5;" xml:space="preserve"
	>
<path style="fill:#2DAC81;" d="M141.7,283.5C63.6,283.5,0,219.9,0,141.7C0,63.6,63.6,0,141.7,0s141.7,63.6,141.7,141.7
	C283.5,219.9,219.9,283.5,141.7,283.5z M141.7,10.3c-72.5,0-131.4,58.9-131.4,131.4c0,72.5,58.9,131.4,131.4,131.4
	c72.5,0,131.4-58.9,131.4-131.4C273.1,69.3,214.2,10.3,141.7,10.3z"/>
<path style="fill:#2DAC81;" d="M234.9,136.7c-1.1-0.5-2.3-0.9-3.4-1.4c-2.8-1.2-5.6-2.3-8.5-3.4c-2.8-1.1-5.6-2.2-8.5-3.3
	c-0.8-0.3-1.6-0.6-2.3-0.9c-0.8-0.3-1.5-0.6-2.3-0.8c-1-0.5-2-0.9-3-1.2c-1-0.4-2-0.8-3-1.2c-0.6-0.2-1.1-0.5-1.7-0.8
	c-0.6-0.3-1.2-0.4-1.9-0.3c-0.3,0.2-0.5,0.3-0.6,0.3c-0.1,0.1-0.3,0.2-0.4,0.5c-0.1,0.3-0.2,0.7-0.1,1.2c0,0.5,0,0.9,0,1.4v3.3
	c0,1.1,0.3,1.8,1,2.3c0.3,0.3,0.6,0.5,1,0.6c0.4,0.1,0.8,0.3,1.3,0.5c0.7,0.3,1.5,0.6,2.2,0.8c0.7,0.3,1.5,0.6,2.2,0.9
	c2.4,1,4.7,1.9,7.1,2.8c2.3,0.9,4.7,1.9,7.1,2.9c0.8,0.3,1.7,0.7,2.6,1c0.9,0.3,1.7,0.7,2.5,1.1c0.4,0.2,0.8,0.3,1.2,0.5
	c0.4,0.2,0.7,0.5,0.8,0.9c0.1,0.5,0,0.8-0.4,1c-0.4,0.2-0.7,0.4-0.9,0.5c-0.9,0.5-1.9,0.8-2.9,1.2c-1,0.3-2,0.7-3,1.2
	c-2.5,1.1-5.1,2.1-7.7,3c-2.6,1-5.1,2-7.7,3c-0.6,0.3-1.3,0.5-1.9,0.8c-0.6,0.2-1.3,0.5-1.9,0.8c-0.5,0.2-0.9,0.4-1.2,0.6
	c-0.4,0.2-0.7,0.4-0.9,0.7c-0.5,0.6-0.6,1.4-0.6,2.5c0.1,1.1,0.1,2.1,0.1,3.1v1.3c0,0.4,0.1,0.8,0.3,1.1c0.3,0.5,0.7,0.6,1.3,0.6
	c0.6-0.1,1.1-0.2,1.5-0.4c1.1-0.5,2.3-1,3.5-1.4c1.2-0.5,2.4-0.9,3.6-1.4c3.9-1.6,7.8-3.2,11.8-4.7c3.9-1.5,7.9-3.1,11.8-4.7
	c1-0.5,1.9-0.8,3-1.2c1-0.3,2-0.7,3-1.2c0.5-0.2,1-0.5,1.6-0.7c0.5-0.2,0.9-0.6,1.2-1c0.2-0.3,0.4-0.7,0.4-1.2c0-0.5,0-1,0-1.6
	c0-1.1,0-2.3,0-3.6c0-1.3-0.2-2.3-0.6-2.9c-0.3-0.5-0.8-0.8-1.4-0.9c-0.6-0.2-1.1-0.4-1.7-0.6C237.1,137.6,236,137.1,234.9,136.7"/>
<path style="fill:#E74914;" d="M191.6,104.1c-0.1,0-0.2,0-0.3,0c-0.6,0.1-0.9,0.3-1.1,0.4c-0.5,0.4-0.9,1-1.1,1.8s-0.5,1.5-0.8,2.1
	c-0.5,1.1-0.9,2.2-1.2,3.3c-0.4,1.1-0.8,2.2-1.2,3.3c-0.2,0.4-0.3,0.8-0.5,1.2c-0.1,0.4-0.3,0.8-0.5,1.2c-0.3,0.8-0.7,1.7-1,2.6
	c-0.3,0.9-0.6,1.8-1,2.6c-0.2,0.3-0.3,0.7-0.4,1c-0.1,0.3-0.2,0.7-0.4,1.1c-1.1,2.7-2.2,5.5-3.1,8.3c-1,2.8-2,5.6-3.1,8.4
	c-0.3,0.7-0.6,1.5-0.8,2.2c-0.3,0.7-0.5,1.5-0.8,2.2c-0.5,1-0.8,2-1.1,3c-0.3,1-0.7,2-1.1,2.9c-0.2,0.3-0.3,0.7-0.4,1.1
	c-0.1,0.4-0.2,0.7-0.4,1.1c-0.6,1.5-1.2,3-1.7,4.5c-0.5,1.6-1.1,3.1-1.7,4.5c-0.1,0.3-0.2,0.6-0.4,1c-0.1,0.4-0.2,0.7-0.3,1.1
	c-0.1,0.4,0,0.7,0.1,1c0.1,0.3,0.3,0.6,0.7,0.7c0.4,0.2,0.9,0.3,1.4,0.3h1.6h2.5c0.8,0,1.5-0.1,1.9-0.4c0.6-0.3,0.9-0.8,1.1-1.4
	c0.2-0.6,0.4-1.2,0.7-1.9c0.4-1.2,0.9-2.5,1.3-3.7c0.4-1.2,0.9-2.5,1.4-3.7c1.1-2.7,2.2-5.4,3.1-8.2c1-2.8,2-5.5,3.1-8.2
	c0.4-1.1,0.8-2.2,1.2-3.3c0.3-1.1,0.7-2.2,1.2-3.2c0.4-1.1,0.8-2.1,1.2-3.2c0.3-1,0.7-2.1,1.2-3.2c0.1-0.2,0.2-0.4,0.2-0.6
	c0-0.2,0.1-0.4,0.2-0.6c0.5-1.2,1-2.4,1.4-3.6c0.4-1.2,0.8-2.4,1.3-3.6c0.6-1.3,1.1-2.6,1.5-3.8c0.4-1.3,0.9-2.6,1.4-3.9
	c0.1-0.3,0.2-0.7,0.3-1c0.1-0.3,0.2-0.6,0.3-1c0.2-0.4,0.3-0.8,0.5-1.1c0.1-0.4,0.3-0.7,0.4-1.1c0.1-0.2,0.1-0.5,0.2-0.7
	c0.1-0.3,0-0.5-0.1-0.7c-0.1-0.3-0.3-0.5-0.6-0.6c-0.3-0.1-0.6-0.2-0.9-0.3h-0.3c-0.3-0.1-0.6-0.1-0.9,0c-0.3,0-0.6,0-0.9,0h-3
	C191.8,104.2,191.7,104.2,191.6,104.1"/>
<path style="fill:#2DAC81;" d="M48.6,152.1c1.1,0.5,2.3,0.9,3.4,1.4c2.8,1.2,5.6,2.3,8.5,3.4c2.8,1.1,5.6,2.2,8.5,3.3
	c0.8,0.3,1.6,0.7,2.3,0.9c0.8,0.3,1.5,0.6,2.3,0.8c1,0.5,2,0.9,3,1.2c1,0.4,2,0.8,3,1.2c0.6,0.2,1.1,0.5,1.7,0.8
	c0.6,0.3,1.2,0.4,1.9,0.3c0.3-0.2,0.5-0.3,0.6-0.3c0.1-0.1,0.3-0.2,0.4-0.5c0.1-0.3,0.2-0.7,0.1-1.2c0-0.5,0-0.9,0-1.4v-3.3
	c0-1.1-0.3-1.8-1-2.3c-0.3-0.3-0.6-0.5-1-0.6c-0.4-0.1-0.8-0.3-1.3-0.5c-0.7-0.3-1.5-0.6-2.2-0.8c-0.7-0.3-1.5-0.6-2.2-0.9
	c-2.4-1-4.7-1.9-7.1-2.8c-2.3-0.9-4.7-1.9-7.1-2.9c-0.8-0.3-1.7-0.7-2.6-1c-0.9-0.3-1.7-0.7-2.5-1.1c-0.4-0.2-0.8-0.3-1.2-0.5
	c-0.4-0.2-0.7-0.5-0.8-0.9c-0.1-0.5,0-0.8,0.4-1c0.4-0.2,0.7-0.4,0.9-0.5c0.9-0.4,1.9-0.8,2.9-1.2c1-0.3,2-0.7,3-1.2
	c2.5-1.1,5.1-2.1,7.7-3c2.6-1,5.1-2,7.7-3c0.6-0.3,1.3-0.5,1.9-0.8c0.6-0.2,1.3-0.5,1.9-0.8c0.4-0.2,0.9-0.4,1.2-0.6
	c0.4-0.2,0.7-0.4,0.9-0.7c0.4-0.6,0.6-1.4,0.6-2.5c-0.1-1.1-0.1-2.1-0.1-3.1v-1.3c0-0.4-0.1-0.8-0.3-1.1c-0.3-0.5-0.7-0.6-1.3-0.6
	c-0.6,0.1-1.1,0.2-1.5,0.4c-1.1,0.5-2.3,1-3.5,1.4c-1.2,0.5-2.4,0.9-3.6,1.4c-3.9,1.6-7.8,3.2-11.8,4.7c-3.9,1.5-7.9,3.1-11.8,4.7
	c-1,0.5-1.9,0.8-3,1.2c-1,0.3-2,0.7-3,1.2c-0.5,0.2-1,0.5-1.6,0.7c-0.5,0.2-0.9,0.6-1.2,1c-0.2,0.3-0.4,0.7-0.4,1.2c0,0.5,0,1,0,1.6
	c0,1.1,0,2.3,0,3.6c0,1.3,0.2,2.3,0.6,2.9c0.3,0.5,0.8,0.8,1.4,0.9c0.6,0.2,1.1,0.4,1.7,0.6C46.3,151.2,47.5,151.6,48.6,152.1"/>
<rect x="0" y="0" style="fill:none;" width="283.5" height="283.5"/>
<rect x="0" y="0" style="fill:none;" width="283.5" height="283.5"/>
<path style="fill:#2DAC81;" d="M158.7,108.2H96.8c-2.3,0-5.7,1.5-5.7,5.7v48.3c0,2.3,1.5,5.7,5.7,5.7h61.9c2.3,0,5.7-1.5,5.7-5.7
	v-48.3C164.4,111.6,162.8,108.2,158.7,108.2z M131.4,147.7l4.6-4.8l17.6,18.7h-51.9l17.6-18.7l4.5,4.8
	C125.9,149.9,129.4,149.9,131.4,147.7z M157.9,156.6l-17.2-18.5l17.2-18.5V156.6z M153.7,114.5l-26,28.2l-26-28.2H153.7z
	 M97.3,119.6l17.2,18.5l-17.2,18.5V119.6z"/>
</svg>
