<?xml version="1.0" encoding="utf-8"?>
<!-- Generator: Adobe Illustrator 20.1.0, SVG Export Plug-In . SVG Version: 6.00 Build 0)  -->
<!DOCTYPE svg PUBLIC "-//W3C//DTD SVG 1.1//EN" "http://www.w3.org/Graphics/SVG/1.1/DTD/svg11.dtd">
<svg version="1.1" id="Ebene_1" xmlns="http://www.w3.org/2000/svg" xmlns:xlink="http://www.w3.org/1999/xlink" x="0px" y="0px"
	 width="283.5px" height="283.5px" viewBox="0 0 283.5 283.5" style="enable-background:new 0 0 283.5 283.5;" xml:space="preserve"
	>
<path style="fill:#2DAC81;" d="M141.7,283.5C63.6,283.5,0,219.9,0,141.7C0,63.6,63.6,0,141.7,0s141.7,63.6,141.7,141.7
	C283.5,219.9,219.9,283.5,141.7,283.5z M141.7,10.3c-72.5,0-131.4,58.9-131.4,131.4c0,72.5,58.9,131.4,131.4,131.4
	c72.5,0,131.4-58.9,131.4-131.4C273.1,69.3,214.2,10.3,141.7,10.3z"/>
<path style="fill:#2DAC81;" d="M137.2,181.7c-9.7,0-19.4,0-29.1,0c-3.1,0-5.4-2-5.7-5c-0.6-7-2.1-13.8-4.7-20.3
	c-2.4-6.2-5.8-12-9.1-17.8c-4.6-8-7.9-16.4-7.7-25.8c0.1-5.3-0.5-10.7,0.6-16c0.7-3.5,1.5-6.9,2.9-10.3c2.3-5.3,5-10.2,8.7-14.7
	c3.2-3.9,6.9-7.2,10.8-10.3c7.5-5.9,16.3-9.3,25.6-10.4c6.7-0.8,13.6-0.9,20.4,0.8c7.1,1.8,13.7,4.4,19.7,8.5
	c12,8.1,19.9,19.2,23.4,33.2c2.2,9,2,18.1,0.4,27.2c-1.6,8.6-6.1,15.9-10.1,23.5c-3,5.6-5.7,11.1-7.6,17.2
	c-1.6,5.3-2.2,10.8-3.3,16.2c-0.4,2.2-2.7,4-5.1,4C157.3,181.7,147.2,181.7,137.2,181.7"/>
<path style="fill:#E74914;" d="M137.6,186.8c9.4,0,18.9,0,28.3,0c3.4,0,5.9,2.4,6,5.7c0,4-2.2,6.6-5.9,6.6c-19.1,0-38.1,0-57.2,0
	c-3.2,0-5.4-2.4-5.4-5.9c0-3.9,2-6.3,5.4-6.3C118.4,186.8,128,186.8,137.6,186.8"/>
<path style="fill:#2DAC81;" d="M137.5,204.2c9.7,0,19.4,0,29.1,0c3.4,0,5.3,1.9,5.4,5.2c0,3.8-2.2,6.5-5.4,6.5
	c-19.2,0-38.5,0-57.7,0c-2.7,0-5-1.6-5.4-3.7c-0.6-3.2,0.5-6.8,2.7-7.8c0.6-0.3,1.5-0.2,2.2-0.2
	C118.1,204.2,127.8,204.2,137.5,204.2"/>
<path style="fill:#2DAC81;" d="M137.9,221.1c6.9,0,13.8,0.1,20.7-0.1c2.3-0.1,2.4,1.1,2.1,2.6c-0.9,4.6-6.3,9.6-11.2,9.3
	c-8.3-0.5-16.7-0.1-25-0.1c-4.7,0-9.7-5.2-9.7-9.8c0-1.6,0.4-2,2-2C123.7,221.1,130.8,221.1,137.9,221.1"/>
<rect x="0" style="fill:none;" width="283.5" height="283.5"/>
</svg>
