<?xml version="1.0" encoding="utf-8"?>
<!-- Generator: Adobe Illustrator 20.0.0, SVG Export Plug-In . SVG Version: 6.00 Build 0)  -->
<!DOCTYPE svg PUBLIC "-//W3C//DTD SVG 1.1//EN" "http://www.w3.org/Graphics/SVG/1.1/DTD/svg11.dtd">
<svg version="1.1" id="Ebene_1" xmlns="http://www.w3.org/2000/svg" xmlns:xlink="http://www.w3.org/1999/xlink" x="0px" y="0px"
	 width="283.5px" height="283.5px" viewBox="0 0 283.5 283.5" style="enable-background:new 0 0 283.5 283.5;" xml:space="preserve"
	>
<path style="fill:#2DAC82;" d="M141.7,283.4C63.6,283.4,0,219.9,0,141.7S63.6,0,141.7,0c78.1,0,141.7,63.6,141.7,141.7
	S219.9,283.4,141.7,283.4z M141.7,10.4c-72.4,0-131.4,58.9-131.4,131.4c0,72.4,58.9,131.4,131.4,131.4s131.4-58.9,131.4-131.4
	C273.1,69.3,214.2,10.4,141.7,10.4z"/>
<polygon style="fill:#2DAC82;" points="125.9,59.4 137.9,59.4 137.9,111.6 145.9,111.6 145.9,59.4 157.9,59.4 141.9,31.7 "/>
<polygon style="fill:#2DAC82;" points="157.9,226.6 145.9,226.6 145.9,174.4 137.9,174.4 137.9,226.6 125.9,226.6 141.9,254.3 "/>
<polygon style="fill:#2DAC82;" points="225.5,127 225.5,139 173.3,139 173.3,147 225.5,147 225.5,159 253.2,143 "/>
<polygon style="fill:#E74914;" points="82.8,127 82.8,139 30.6,139 30.6,147 82.8,147 82.8,159 110.5,143 "/>
<polygon style="fill:#E74914;" points="195,112.5 186.5,104.1 223.4,67.1 217.8,61.5 180.8,98.4 172.4,89.9 164.1,120.8 "/>
<polygon style="fill:#2DAC82;" points="94.1,213.4 85.6,205 122.5,168 116.9,162.4 80,199.3 71.5,190.8 63.2,221.7 "/>
<polygon style="fill:#2DAC82;" points="71.5,95.2 79.9,86.7 116.9,123.6 122.5,118 85.6,81.1 94.1,72.6 63.2,64.3 "/>
<polygon style="fill:#2DAC82;" points="212.3,190.8 203.8,199.3 166.9,162.4 161.3,168 198.2,205 189.7,213.4 220.6,221.7 "/>
</svg>
