<?xml version="1.0" encoding="utf-8"?>
<!-- Generator: Adobe Illustrator 20.0.0, SVG Export Plug-In . SVG Version: 6.00 Build 0)  -->
<!DOCTYPE svg PUBLIC "-//W3C//DTD SVG 1.1//EN" "http://www.w3.org/Graphics/SVG/1.1/DTD/svg11.dtd">
<svg version="1.1" id="Ebene_1" xmlns="http://www.w3.org/2000/svg" xmlns:xlink="http://www.w3.org/1999/xlink" x="0px" y="0px"
	 width="283.5px" height="283.5px" viewBox="0 0 283.5 283.5" style="enable-background:new 0 0 283.5 283.5;" xml:space="preserve"
	>
<g>
	<defs>
		<rect id="SVGID_1_" x="0" y="0" width="294.7" height="283.5"/>
	</defs>
	<clipPath id="SVGID_2_">
		<use xlink:href="#SVGID_1_"  style="overflow:visible;"/>
	</clipPath>
	<path style="clip-path:url(#SVGID_2_);fill:#2DAC82;" d="M141.7,282.6c77.8,0,140.9-63.1,140.9-140.9S219.5,0.9,141.7,0.9
		S0.9,63.9,0.9,141.7S63.9,282.6,141.7,282.6"/>
	<path style="clip-path:url(#SVGID_2_);fill:#2DAC82;" d="M141.7,283.5C63.6,283.5,0,219.9,0,141.7C0,63.6,63.6,0,141.7,0
		c78.1,0,141.7,63.6,141.7,141.7C283.5,219.9,219.9,283.5,141.7,283.5z M141.7,1.7c-77.2,0-140,62.8-140,140s62.8,140,140,140
		s140-62.8,140-140S218.9,1.7,141.7,1.7z"/>
</g>
<g>
	<path style="fill:#FFFFFF;" d="M75.2,122.9c1.3,0,3.9-0.4,4.9,0.8c0.4,0.5,0.4,1.2,0.4,1.8c0,0.9,0.1,1.9,0,2.8
		c-0.3,2-2.3,1.2-3.7,1.4c-1.5,0.2-2.6,0.9-2.9,2.4c-0.3,1.3-0.4,2.9,1.1,3.4c0.8,0.2,1.7-0.1,2.5,0c0.7,0.1,1.5,0,2,0.5
		c0.8,0.8,0.6,3,0.4,4.1c-0.3,1.9-2.5,1.3-3.8,1.4c-1.2,0.1-2.3,0.3-2.5,1.7c-0.1,0.9,0.1,1.9,0.1,2.8c0,1.1,0,2.2,0,3.3
		c0,3.5,0,7,0,10.5c0,1,0,2,0,3c0,0.8,0.1,1.8,0,2.6c-0.1,0.9,0.1,2.3-0.8,2.8c-0.9,0.4-2,0.2-3,0.2c-0.8,0-1.5,0-2.3,0
		c-0.7,0-1.5,0.1-2.1-0.3c-0.7-0.4-0.7-1.2-0.7-2c0-0.8,0-1.7,0-2.5c0-6,0-12,0-18c0-1.3,0.4-3.3-0.9-4c-1.3-0.7-3.1,0.5-4.1-0.8
		c-0.5-0.6-0.4-1.3-0.4-2c0-0.8-0.1-1.7,0.2-2.4c0.7-1.7,3.1-0.6,4.4-1.1c0.7-0.3,0.9-1,0.9-1.7c0-0.9,0-1.6,0.1-2.5
		c0.6-3.5,2.5-6.1,5.9-7.4c0.7-0.3,1.5-0.5,2.2-0.6c0.5-0.1,0.9-0.2,1.4-0.2C74.6,122.9,75,123.1,75.2,122.9
		C75.6,122.9,75.2,123,75.2,122.9z"/>
	<path style="fill:#FFFFFF;" d="M83.9,151.8c0.3-3,0.2-6,0.7-9.1c0.8-5.2,2.2-10.4,4.4-15.1c0.6-1.2,1.3-2.4,2-3.6
		c0.7-1.2,1.3-2.1,2.7-2.2c0.5,0,0.9,0,1.4,0c1,0,2.4-0.3,3.4,0.2c1.1,0.6,0.3,1.7,0,2.5c-0.6,1.2-1.1,2.5-1.6,3.7
		c-0.9,2.7-1.9,5.5-2.4,8.3c-0.5,2.7-1.1,5.4-1.3,8.2c-0.1,1.7-0.1,3.4-0.2,5.1c-0.2,4.1,0.3,8.2,0.9,12.3c0.4,2.6,1.1,5.3,1.9,7.9
		c0.7,2.3,1.5,4.7,2.5,6.9c0.4,0.8,1.3,2.1,0.2,2.7c-0.5,0.3-1.3,0.2-1.9,0.2c-1.4,0-3.6,0.4-4.7-0.7c-0.5-0.6-0.9-1.5-1.2-2.1
		c-0.3-0.6-0.7-1.2-1-1.8c-0.7-1.4-1.2-2.8-1.8-4.3c-1-2.4-1.8-4.8-2.4-7.3c-0.4-1.5-0.9-3.1-1-4.7c-0.1-1.4-0.4-2.8-0.5-4.2
		c0-0.5,0-1.1,0-1.6C84,152.7,83.9,152.2,83.9,151.8C83.9,151.6,83.9,152,83.9,151.8z"/>
</g>
<g>
	<path style="fill:#E74914;" d="M102.8,135.5c1.4,0,2.7,0,4.1,0c0.7,0,1.4,0,2,0c1.7,0.1,2.4,0.7,3.3,2.1c0.8,1.3,1.7,2.5,2.6,3.8
		c0.7,1.1,1.6,2.5,2.9,1.1c1-1.1,1.7-2.6,2.5-3.7c0.7-1.1,1.3-2.6,2.6-3.1c1.5-0.6,3.9-0.2,5.5-0.2c0.7,0,1.6-0.1,2.3,0.1
		c1.8,0.5-0.2,2.7-0.8,3.4c-2,2.9-4,5.8-6,8.6c-0.8,1.1-2.3,2.5-1.7,4c0.5,1.3,1.6,2.5,2.4,3.7c1.9,2.9,3.9,5.7,5.9,8.6
		c0.5,0.7,1,1.3,1.4,2c0.3,0.5,1,1.2,0.8,1.8c-0.2,0.9-1.5,0.7-2.2,0.7c-1.6,0-3.1,0-4.7,0c-0.6,0-1.2,0-1.8-0.1
		c-1.4-0.3-2.1-2.3-2.9-3.3c-0.9-1.3-1.8-2.7-2.7-4c-0.6-0.9-1.7-2.9-2.9-1.5c-1.3,1.5-2.2,3.3-3.4,4.9c-0.9,1.3-1.9,3.6-3.5,3.9
		c-1.8,0.4-4,0-5.9,0.1c-1,0-2.9,0.1-2.3-1.4c0.2-0.7,0.8-1.3,1.2-1.9c0.5-0.7,0.9-1.3,1.4-2c2-2.9,4-5.8,5.9-8.8
		c0.7-1,2.2-2.6,1.7-3.9c-0.6-1.4-1.6-2.6-2.5-3.8c-1.9-2.8-3.8-5.6-5.8-8.4c-0.3-0.4-1-1.3-1.1-1.8
		C101.4,135.6,102.3,135.7,102.8,135.5z"/>
</g>
<path style="fill:#FFFFFF;" d="M149.3,150c-0.3,3-0.2,6-0.7,9.1c-0.9,5.3-2.3,10.6-4.6,15.5c-0.5,1.1-1.2,2.2-1.8,3.3
	c-0.7,1.2-1.3,2.1-2.7,2.2c-0.5,0-0.9,0-1.4,0c-1,0-2.4,0.3-3.4-0.2c-1.1-0.6-0.3-1.8,0.1-2.5c0.6-1.3,1.2-2.6,1.6-3.9
	c1-2.8,1.9-5.6,2.4-8.4c0.5-2.6,1.1-5.2,1.2-7.9c0.1-1.7,0.1-3.4,0.2-5.1c0.2-4.2-0.3-8.5-1-12.6c-0.4-2.5-1.1-5.1-1.9-7.6
	c-0.7-2.4-1.6-4.9-2.7-7.1c-0.4-0.8-1.1-2.1,0.1-2.6c0.6-0.2,1.3-0.1,1.9-0.1c1.5,0,3.7-0.4,4.7,0.9c1.7,2.4,2.7,5.3,3.9,8
	c1,2.4,1.8,4.8,2.4,7.3c0.4,1.5,0.8,3,1,4.6c0.1,1.4,0.4,2.8,0.5,4.2c0,0.6,0.1,1.2,0.1,1.8C149.2,149.1,149.4,149.5,149.3,150
	C149.3,150.2,149.4,149.7,149.3,150z"/>
<path style="fill:#FFFFFF;" d="M156.1,142.7c0.9-0.9,3.1-0.6,4.4-0.6c2.6,0,5.2,0,7.8,0c5.1,0,10.3,0,15.4,0c0.3,0,0.7,0,1,0
	c0.9,0,2.3-0.2,2.9,0.7c0.6,0.9,0.2,2.4,0.3,3.4c0,0.9,0.1,2-0.9,2.5c-0.6,0.3-1.3,0.1-2,0.1c-0.5,0-1,0-1.5,0c-5.4,0-10.7,0-16.1,0
	c-2.6,0-5.1,0-7.7,0c-0.5,0-1.1,0-1.6,0c-1.3,0-2.3-0.2-2.4-1.7c0-0.8,0-1.6,0-2.4C155.8,144.1,155.7,143.2,156.1,142.7
	C156.3,142.5,156,142.9,156.1,142.7z M187.4,156.1c0.8,0.7,0.6,2.1,0.6,3c0,1,0.3,2.5-0.8,3.1c-0.8,0.4-2,0.2-2.9,0.2
	c-1.8,0-3.7,0-5.5,0c-5.6,0-11.2,0-16.8,0c-1.5,0-3.1,0.2-4.5,0c-1-0.1-1.5-0.7-1.6-1.7c-0.1-1.2-0.2-2.7,0-3.8
	c0.3-1.4,1.8-1.2,2.9-1.3c4.6-0.1,9.3,0,13.9,0c2.9,0,5.7,0,8.6,0c0.7,0,1.4,0,2,0C184.2,155.8,186.6,155.4,187.4,156.1
	C187.8,156.4,187.1,155.9,187.4,156.1z"/>
<path style="fill:#FFFFFF;" d="M192.7,135.4c1.4,0,2.9,0,4.3,0c0.8,0,1.9-0.2,2.6,0.1c1.4,0.6,1.6,2.8,2,4c1.1,2.9,1.9,5.9,3,8.9
	c0.5,1.5,1,2.9,1.5,4.4c0.2,0.8,0.7,3.6,1.8,3.5c1.2-0.1,1.7-3.2,1.9-4c1-3.5,2.2-6.9,3.3-10.3c0.6-1.7,1-3.4,1.6-5
	c0.5-1.5,1.6-1.5,3-1.5c1.4,0,2.9,0,4.3,0c0.6,0,1.3,0,1.7,0.5c0.4,0.6,0,1.5-0.3,2.1c-0.6,1.8-1.3,3.5-2,5.2
	c-1.2,3.3-2.4,6.6-3.6,9.9c-2.5,6.7-4.8,13.5-7.6,20.1c-0.7,1.5-1.4,3-2.7,4.1c-1.2,1.1-2.7,1.6-4.3,2.1c-2.1,0.6-4.9,0.5-7.1,0.3
	c-1.4-0.2-2.2-0.5-2.3-2.1c-0.1-1,0-2.1,0-3.1c0-1.6,0.6-2.3,2.3-2.2c0.7,0.1,1.4,0.1,2.1,0.1c1.1,0,2.2-0.2,3-1
	c0.9-0.8,1.6-2.4,1.4-3.5c-0.3-1.8-1-3.5-1.6-5.2c-0.7-1.7-1.3-3.4-1.9-5c-2.5-6.4-4.7-13-7.2-19.4c-0.2-0.6-0.7-1.4-0.5-2.1
	C191.6,135.4,192.1,135.6,192.7,135.4z"/>
</svg>
