<?xml version="1.0" encoding="utf-8"?>
<!-- Generator: Adobe Illustrator 20.0.0, SVG Export Plug-In . SVG Version: 6.00 Build 0)  -->
<!DOCTYPE svg PUBLIC "-//W3C//DTD SVG 1.1//EN" "http://www.w3.org/Graphics/SVG/1.1/DTD/svg11.dtd">
<svg version="1.1" id="Ebene_1" xmlns="http://www.w3.org/2000/svg" xmlns:xlink="http://www.w3.org/1999/xlink" x="0px" y="0px"
	 width="283.5px" height="283.5px" viewBox="0 0 283.5 283.5" style="enable-background:new 0 0 283.5 283.5;" xml:space="preserve"
	>
<path style="fill:#2DAC82;" d="M141.4,283.5C63.4,283.5,0,220,0,142.1C0,64.2,63.4,0.7,141.4,0.7c77.9,0,141.4,63.4,141.4,141.4
	C282.7,220,219.3,283.5,141.4,283.5z M141.4,11C69.1,11,10.3,69.8,10.3,142.1c0,72.3,58.8,131.1,131.1,131.1s131.1-58.8,131.1-131.1
	C272.4,69.8,213.6,11,141.4,11z"/>
<path style="fill:#2DAC82;" d="M234.3,137.1c-1.1-0.5-2.3-0.9-3.4-1.4c-2.8-1.2-5.6-2.3-8.4-3.4c-2.8-1.1-5.6-2.2-8.4-3.3
	c-0.8-0.3-1.6-0.6-2.3-0.9c-0.8-0.3-1.5-0.6-2.3-0.8c-1-0.5-2-0.9-3-1.2c-1-0.4-2-0.8-3-1.2c-0.6-0.2-1.1-0.5-1.7-0.8
	c-0.6-0.3-1.2-0.4-1.9-0.3c-0.3,0.2-0.5,0.3-0.6,0.3c-0.1,0.1-0.3,0.2-0.4,0.5c-0.1,0.3-0.2,0.7-0.1,1.2c0,0.5,0,0.9,0,1.4v3.3
	c0,1.1,0.3,1.8,1,2.3c0.3,0.3,0.6,0.5,1,0.6c0.4,0.1,0.8,0.3,1.3,0.5c0.7,0.3,1.4,0.6,2.2,0.8c0.7,0.3,1.4,0.6,2.2,0.9
	c2.4,1,4.7,1.9,7,2.8c2.3,0.9,4.7,1.9,7,2.9c0.8,0.3,1.7,0.7,2.6,1c0.9,0.3,1.7,0.7,2.5,1.1c0.4,0.2,0.8,0.3,1.2,0.5
	c0.4,0.2,0.7,0.5,0.8,0.9c0.1,0.5,0,0.8-0.4,1c-0.4,0.2-0.7,0.4-0.9,0.5c-0.9,0.5-1.9,0.8-2.9,1.2c-1,0.3-2,0.7-3,1.2
	c-2.5,1.1-5.1,2.1-7.6,3c-2.6,1-5.1,2-7.6,3c-0.6,0.3-1.3,0.5-1.9,0.8c-0.6,0.2-1.3,0.5-1.9,0.8c-0.5,0.2-0.9,0.4-1.2,0.5
	c-0.4,0.2-0.7,0.4-0.9,0.7c-0.5,0.6-0.6,1.4-0.6,2.5c0.1,1.1,0.1,2.1,0.1,3.1v1.3c0,0.4,0.1,0.8,0.3,1.1c0.3,0.5,0.7,0.6,1.3,0.5
	c0.6-0.1,1.1-0.2,1.5-0.4c1.1-0.5,2.3-1,3.5-1.4s2.4-0.9,3.6-1.4c3.9-1.6,7.8-3.2,11.7-4.7c3.9-1.5,7.8-3.1,11.7-4.7
	c1-0.5,1.9-0.8,3-1.2c1-0.3,2-0.7,3-1.2c0.5-0.2,1-0.5,1.6-0.7c0.5-0.2,0.9-0.6,1.2-1c0.2-0.3,0.4-0.7,0.4-1.2c0-0.5,0-1,0-1.6
	c0-1.1,0-2.3,0-3.6s-0.2-2.3-0.6-2.9c-0.3-0.5-0.8-0.8-1.4-0.9c-0.6-0.2-1.1-0.4-1.6-0.6C236.5,138,235.4,137.5,234.3,137.1"/>
<path style="fill:#E74914;" d="M191.1,104.6c-0.1,0-0.2,0-0.3,0c-0.6,0.1-0.9,0.3-1.1,0.4c-0.5,0.4-0.9,1-1.1,1.8
	c-0.3,0.8-0.5,1.5-0.8,2.1c-0.5,1.1-0.9,2.2-1.2,3.3c-0.4,1.1-0.8,2.2-1.2,3.3c-0.2,0.4-0.3,0.8-0.5,1.2c-0.1,0.4-0.3,0.8-0.5,1.2
	c-0.3,0.8-0.7,1.7-1,2.6c-0.3,0.9-0.6,1.8-1,2.6c-0.2,0.3-0.3,0.7-0.4,1c-0.1,0.3-0.2,0.7-0.4,1.1c-1.1,2.7-2.2,5.5-3.1,8.3
	c-1,2.8-2,5.6-3.1,8.4c-0.3,0.7-0.5,1.5-0.8,2.2c-0.3,0.7-0.5,1.5-0.8,2.2c-0.5,1-0.8,2-1.1,3c-0.3,1-0.7,2-1.1,2.9
	c-0.2,0.3-0.3,0.7-0.4,1.1s-0.2,0.7-0.4,1.1c-0.6,1.5-1.2,3-1.7,4.5c-0.5,1.5-1.1,3.1-1.7,4.5c-0.1,0.3-0.2,0.6-0.4,1
	c-0.1,0.4-0.2,0.7-0.3,1.1c-0.1,0.4,0,0.7,0.1,1c0.1,0.3,0.3,0.5,0.7,0.7c0.4,0.2,0.9,0.3,1.4,0.3h1.6h2.4c0.8,0,1.5-0.1,1.9-0.4
	c0.6-0.3,0.9-0.8,1.1-1.4c0.2-0.6,0.4-1.2,0.7-1.9c0.4-1.2,0.9-2.5,1.3-3.7c0.4-1.2,0.9-2.5,1.4-3.7c1.1-2.7,2.2-5.4,3.1-8.2
	c1-2.8,2-5.5,3.1-8.2c0.4-1.1,0.8-2.2,1.2-3.2c0.3-1.1,0.7-2.2,1.2-3.2c0.4-1.1,0.8-2.1,1.2-3.2c0.3-1,0.7-2.1,1.2-3.2
	c0.1-0.2,0.2-0.4,0.2-0.6c0-0.2,0.1-0.4,0.2-0.6c0.5-1.2,1-2.4,1.4-3.5c0.4-1.2,0.8-2.4,1.3-3.5c0.6-1.3,1.1-2.6,1.5-3.8
	c0.4-1.3,0.9-2.5,1.4-3.8c0.1-0.3,0.2-0.7,0.3-1c0.1-0.3,0.2-0.6,0.3-1c0.2-0.4,0.3-0.8,0.5-1.1c0.1-0.4,0.3-0.7,0.4-1.1
	c0.1-0.2,0.1-0.5,0.2-0.7c0.1-0.3,0-0.5-0.1-0.7c-0.1-0.3-0.3-0.5-0.5-0.6c-0.3-0.1-0.5-0.2-0.9-0.3h-0.3c-0.3-0.1-0.6-0.1-0.9,0
	c-0.3,0-0.6,0-0.9,0h-3C191.3,104.6,191.2,104.6,191.1,104.6"/>
<path style="fill:#2DAC82;" d="M48.5,152.4c1.1,0.5,2.2,0.9,3.4,1.4c2.8,1.2,5.6,2.3,8.4,3.4c2.8,1.1,5.6,2.2,8.4,3.3
	c0.8,0.3,1.6,0.6,2.3,0.9c0.8,0.3,1.5,0.6,2.3,0.8c1,0.5,2,0.9,3,1.2c1,0.4,2,0.8,3,1.2c0.6,0.2,1.1,0.5,1.7,0.8
	c0.6,0.3,1.2,0.4,1.9,0.3c0.3-0.2,0.5-0.3,0.6-0.3c0.1-0.1,0.3-0.2,0.4-0.5c0.1-0.3,0.2-0.7,0.1-1.2c0-0.5,0-0.9,0-1.4v-3.3
	c0-1.1-0.3-1.8-1-2.3c-0.3-0.3-0.6-0.5-1-0.6c-0.4-0.1-0.8-0.3-1.3-0.5c-0.7-0.3-1.5-0.6-2.2-0.8c-0.7-0.3-1.5-0.6-2.2-0.9
	c-2.4-1-4.7-1.9-7-2.8c-2.3-0.9-4.7-1.9-7-2.9c-0.8-0.3-1.7-0.7-2.6-1c-0.9-0.3-1.7-0.7-2.5-1.1c-0.4-0.2-0.8-0.3-1.2-0.5
	c-0.4-0.2-0.7-0.5-0.8-0.9c-0.1-0.5,0-0.8,0.4-1c0.4-0.2,0.7-0.4,0.9-0.5c0.9-0.4,1.9-0.8,2.9-1.2c1-0.3,2-0.7,3-1.2
	c2.5-1.1,5.1-2.1,7.6-3c2.6-1,5.1-2,7.6-3c0.6-0.3,1.3-0.5,1.9-0.8c0.6-0.2,1.3-0.5,1.9-0.8c0.4-0.2,0.9-0.4,1.2-0.5
	c0.4-0.2,0.7-0.4,0.9-0.7c0.4-0.6,0.6-1.4,0.6-2.5c-0.1-1.1-0.1-2.1-0.1-3.1v-1.3c0-0.4-0.1-0.8-0.3-1.1c-0.3-0.5-0.7-0.6-1.3-0.5
	c-0.6,0.1-1.1,0.2-1.5,0.4c-1.1,0.5-2.3,1-3.5,1.4c-1.2,0.5-2.4,0.9-3.6,1.4c-3.9,1.6-7.8,3.2-11.7,4.7c-3.9,1.5-7.8,3.1-11.7,4.7
	c-1,0.5-1.9,0.8-3,1.2c-1,0.3-2,0.7-3,1.2c-0.5,0.2-1,0.5-1.6,0.7c-0.5,0.2-0.9,0.6-1.2,1c-0.2,0.3-0.4,0.7-0.4,1.2c0,0.5,0,1,0,1.6
	c0,1.1,0,2.3,0,3.6c0,1.3,0.2,2.3,0.6,2.9c0.3,0.5,0.8,0.8,1.4,0.9c0.6,0.2,1.1,0.4,1.6,0.6C46.2,151.5,47.3,152,48.5,152.4"/>
<path style="fill:#2DAC82;" d="M158.2,108.7H96.5c-2.3,0-5.7,1.5-5.7,5.7v48.2c0,2.3,1.5,5.7,5.7,5.7h61.7c2.3,0,5.7-1.5,5.7-5.7
	v-48.2C163.9,112.1,162.4,108.7,158.2,108.7z M131.1,148.1l4.5-4.8l17.6,18.7h-51.8l17.6-18.7l4.5,4.8
	C125.6,150.3,129.1,150.2,131.1,148.1z M157.5,156.9l-17.1-18.4l17.1-18.5V156.9z M153.3,115l-26,28.1l-26-28.1H153.3z M97.1,120
	l17.2,18.5l-17.2,18.4V120z"/>
</svg>
