<?xml version="1.0" encoding="utf-8"?>
<!-- Generator: Adobe Illustrator 20.1.0, SVG Export Plug-In . SVG Version: 6.00 Build 0)  -->
<!DOCTYPE svg PUBLIC "-//W3C//DTD SVG 1.1//EN" "http://www.w3.org/Graphics/SVG/1.1/DTD/svg11.dtd">
<svg version="1.1" id="Ebene_1" xmlns="http://www.w3.org/2000/svg" xmlns:xlink="http://www.w3.org/1999/xlink" x="0px" y="0px"
	 width="283.5px" height="162.7px" viewBox="0 0 283.5 162.7" style="enable-background:new 0 0 283.5 162.7;" xml:space="preserve"
	>
<g>
	<path d="M209.5,44.3c4.5-10,6.4-20,2.4-30.7c-1.2-3.1-1.3-6.6-2.3-9.8c-0.5-1.5-2-3.8-3.1-3.8c-1.5,0-3.7,1.3-4.5,2.7
		c-1.8,3.2-3.5,6.6-4.2,10.1c-2.5,13.2-4.6,26.5-6.8,39.8c-0.2,1,0.4,2.5,1.1,3.1c3.3,2.8,6.9,5.4,10,7.8
		C204.6,57.1,206.7,50.5,209.5,44.3 M214.8,93.1c-2.5-14.5-10.6-25.5-21.6-34.8c-3.2-2.7-6.3-6-8.1-9.7c-3.6-7.1-6.2-14.7-9.3-22
		c-3.4-8.3-7.4-16.2-14.9-21.7c-3.7-2.7-6.4-1.7-7.2,2.7c-0.4,2.1-0.3,4.3-0.2,6.4c0.2,3.7,1.3,7.4,0.8,11
		c-1.7,11.2,3.1,18.8,11.8,25c3.3,2.3,6.1,5.4,9.7,8.6c-8,4.9-10.4,12.5-12.1,21.2c-3-1.4-5.4-2.7-7.9-3.7
		c-9.7-4.2-19.1-9.3-29.2-12.1c-13-3.7-26.3-2.6-38.2,4.8C75.8,76.5,71,88.9,68.8,102.7c-0.7,4.6-1.1,9.3-1.7,13.9
		c-0.6,0.1-1.2,0.2-1.8,0.3c-0.9-3.5-1.7-7.1-2.6-10.9c-7.7,3.8-12.3,10.1-12.9,18.3c-0.5,8.4,2.8,16,7.9,22.7
		c0.1,0.1,0.2,0.2,0.4,0.3c6,1.2,11.3,6.9,18.1,2c1.7,5.3,5.6,7.5,10.2,7.8c9.6,0.7,19.3,1.1,28.9,1.2c3.5,0,7.2-0.4,10.4-1.6
		c2.8-1.1,5.7-3.2,7.3-5.6c2.2-3.3,0.4-6-3.6-6.1c-2.6,0-5.2,0.5-8.8,0.8c5.3-2.8,10.2-4.3,14.1-0.6c2.6,2.4,4.6,2.1,7.2,1.3
		c-0.4-10.5,1-14.6,5.6-16.6c-3.7,7-4.5,10.8-2.4,18.6c0.6,2.4,2.7,5.5,4.9,6.4c10.4,4.1,21.4,5.3,32.5,4.3c2.1-0.2,5.5-2.5,5.6-4
		c0.1-2.1-1.9-5-3.9-6.3c-3.1-2.1-7-3.1-10.4-4.7c-0.3-0.1-0.4-0.9-0.5-1.4h0c1.3-1.1,2.5-2.2,3.8-3.3c9.6-7.5,17.8-16.1,21.2-28.1
		c0.9-3.1,2.1-3.8,4.9-3.9C213.2,107.1,216.5,103.1,214.8,93.1"/>
	<path d="M173.3,142.8c2.5-1.3,5.4-2.3,7.5-4.1c2.2-1.9,4.2-2.6,6.4-0.8c2.8,2.3,6.1,4.6,7.6,7.7c1.4,2.8-1.9,4.9-5.1,3.6
		C184.3,146.9,178.8,144.9,173.3,142.8C173.3,142.8,173.3,142.8,173.3,142.8"/>
</g>
</svg>
