<?xml version="1.0" encoding="utf-8"?>
<!-- Generator: Adobe Illustrator 20.1.0, SVG Export Plug-In . SVG Version: 6.00 Build 0)  -->
<!DOCTYPE svg PUBLIC "-//W3C//DTD SVG 1.1//EN" "http://www.w3.org/Graphics/SVG/1.1/DTD/svg11.dtd">
<svg version="1.1" id="Ebene_1" xmlns="http://www.w3.org/2000/svg" xmlns:xlink="http://www.w3.org/1999/xlink" x="0px" y="0px"
	 width="283.5px" height="198.6px" viewBox="0 0 283.5 198.6" style="enable-background:new 0 0 283.5 198.6;" xml:space="preserve"
	>
<path d="M127.8,98.4c-0.4-5.7-1.2-11.4-2-17.7c-1.9,1.6-2.9,2.4-4.3,3.6c-0.2-7.7,2-14.9-2.1-21.7c-0.9,0.6-1.7,1.2-2,1.4
	c-2.3-6.6-4.5-13-7-20.3c-1.3,1.7-1.7,2.2-2.1,2.8c-3.6-8.4-8.1-15.7-15.3-21c-2.4-1.8-5.1-3.6-8.6-1c7.5,9.3,7.8,19.6,4.3,30.5
	c-4.2,13.3-5.5,27-5.1,41c0.3,11.8,4.3,21.9,11.7,31c5.3,6.5,10,13.4,15.1,20c0.9,1.2,2.3,1.9,3.5,2.8c0.4-0.3,0.9-0.6,1.3-0.8
	c-2.1-4.9-3.9-10-6.4-14.8c-3.4-6.6-2.3-12.8,2-18c4.3-5.2,9.5-9.5,14.3-14.2C126.1,100.9,127.9,99.5,127.8,98.4 M203.8,73.7
	c-0.4-0.2-0.8-0.3-1.1-0.5c4.6-16.6,4.9-32.9-3.3-48.4c-2.5,12.6-6.8,24.2-14.4,34.5c0-1.8,0.3-3.4,0.6-5.1
	c2.4-13.7,3.9-27.5,0.7-41.2c-1.1-4.7-2.5-9.5-7.2-13c-0.7,9.4-1.4,18.2-2.2,27.7c-2.1-1.8-3.5-3-5.1-4.4c-0.2,1.6-0.3,2.7-0.4,3.8
	c-2.9,31.1-13.5,57.7-41.8,74.9c-5.7,3.4-10.6,8.4-15,13.5c-6.2,7.3-6.1,15-1.3,23.2c1.5,2.6,3,5.4,3.9,8.2c0.5,1.6,0.4,4.3-0.6,5.2
	c-1,1-3.7,0.9-5.3,0.3c-3.8-1.4-7.2-3.5-11-4.9c-7.7-2.9-15.3-6-23.2-8.2c-6.6-1.8-14.5,3-16.4,9.5c6.7-2.7,9.7,0.9,12.9,5.9
	c2.6,4,6.4,7.9,10.7,9.8c7.5,3.5,15.6,5.7,23.6,8.1c13.9,4.2,27.6,8.7,38.4,19.1c2.8,2.7,5.7,5.2,7.4,6.7c7.3-3.5,13.7-6.6,20.1-9.6
	c0.1,0.1-0.2-0.2-0.5-0.6c-0.3-0.4-0.6-0.8-0.9-1.2c7.8,4.7,16,3.6,25.4,3c-11.8-12.6-26.6-15.7-41.6-18.5c4.1-3.1,7.9-6,11.8-8.9
	c-0.6-1.3-1-2.4-1.7-4.1c7.3,3.5,9-3.2,13.3-5.5c-1.1-1-1.7-1.6-2.4-2.2c9.8-1.9,11.6-11,17-17.4c-2.1-0.7-3.5-1.1-5.6-1.8
	c3.2-1.1,6.7-1.3,8.1-3.1c5.1-6.8,8.4-14.5,9.9-23.5c-4.7,2.1-8.5,3.8-13.5,6c1.5-2.5,2.3-3.8,3.1-5.2c5-9.3,10.5-18.5,14.9-28.1
	c2.8-6,3.7-12.7,0.1-19.2C208.5,64,206.1,68.8,203.8,73.7"/>
</svg>
