<?xml version="1.0" encoding="utf-8"?>
<!-- Generator: Adobe Illustrator 20.1.0, SVG Export Plug-In . SVG Version: 6.00 Build 0)  -->
<!DOCTYPE svg PUBLIC "-//W3C//DTD SVG 1.1//EN" "http://www.w3.org/Graphics/SVG/1.1/DTD/svg11.dtd">
<svg version="1.1" id="Ebene_1" xmlns="http://www.w3.org/2000/svg" xmlns:xlink="http://www.w3.org/1999/xlink" x="0px" y="0px"
	 width="283.5px" height="151px" viewBox="0 0 283.5 151" style="enable-background:new 0 0 283.5 151;" xml:space="preserve">
<path d="M202.2,135.9c-1.6,1.4-2.6,3.4-3.8,5.1c0.3,0.3,0.7,0.6,1,0.9c1.2-1,2.3-2,3.7-3.2c-0.2,1.2-0.5,2-0.6,2.7
	c-0.1,0.9,0,1.8,0,2.6c5.8,0.7,7.8-0.5,8.2-5.6c0.4-4.3,2.8-7.4,5.1-10.8c1.7-2.5,3.2-5.1,4.7-7.5c-9.9-2.5-19.4-5-28.9-7.4
	c-0.2,0.2-0.4,0.4-0.6,0.6c3,2.6,5.8,5.4,8.9,7.8C205.2,125.2,209.1,130,202.2,135.9 M89.1,103c1,6.8,0.9,13.7,0.9,20.6
	c0,7-0.5,13.9-7.4,18.5c-0.4,0.2-0.3,1.1-0.5,1.9c1.2-1.1,2.1-1.9,2.9-2.7c0.1,1.2-0.2,2.3-0.9,3c-1.5,1.7-0.8,2.8,1.1,2.9
	c2.5,0.2,5.1,0.2,7.7-0.1c3.3-0.5,4.7-2.4,4.6-5.7c-0.2-7.9,2.1-14.9,8.4-20.5c2.6-2.3,4.7-5.3,6.8-7.6
	c-10.2-8.7-20.2-17.3-30.9-26.4c1,1.9,1.7,3.4,2.4,4.8C85.9,95.4,88.5,99,89.1,103 M110.1,29.6c-0.3,3.4-0.9,6.8-2,10
	c-1.2,3.7-5.4,4.2-8.5,5.7c-4.4,2.2-4.3,1.8-2.7,6.3c0.9,2.6,1,5.4,1.3,8.2c0.4,3.3-2.9,4.3-4.9,5.2c-4.1,2-8.7,3.1-13.1,4.5
	c0-0.2-0.1-0.4-0.1-0.6c4.3-2,8.7-4.1,13-6c2.6-1.2,2.6-3,1.7-5.1c-0.9-2-2.2-3.9-3-6c-1.4-3.7,0.2-7.4,5.2-9.4
	c0.7-0.3,1.4-0.6,2.1-0.8c3.5-0.9,5.5-2.9,5.7-6.7c0.3-4.3,1.1-8.5,1.7-12.7c-0.3-0.2-0.7-0.4-1-0.6c-3.8,3-7.6,6-11.3,8.9
	c-0.2-0.2-0.5-0.4-0.7-0.6c2.1-2.4,4.2-4.7,6.3-7.1c1.4-1.6,2.9-3.2,4.4-4.7c0.8-0.8,2.2-1.9,2.9-1.7c1.1,0.3,2.5,1.6,2.6,2.6
	C110.1,22.6,110.3,26.1,110.1,29.6 M266.4,57.3c-0.1-1-0.4-2-0.6-3c-0.9-4.4-7.2-6.6-10.8-4.3c-3.6,2.3-7.4,4.3-11.1,6.5
	c-2.7,1.6-9.3,2-11.1,0.1c-3.4-3.6-7-7.3-9.7-11.4c-4.1-6.4-9.6-10.2-17.4-11.4c-4.5-0.7-9.2-1.4-13.3-3.2
	c-6.5-2.9-12.6-6.8-18.9-10.2c-1.4-0.8-3.1-2-4.5-1.8c-2.5,0.3-4.8,1.6-7.2,2.4c-2.7,0.9-5.3,1.6-8,2.4c-0.1-0.2-0.2-0.4-0.3-0.7
	c3.1-2.1,6.3-4.3,10.2-6.9c-2.4-1.2-4.3-2.3-6.3-3.2c-1-0.4-2.1-1-3.1-0.8c-1.7,0.3-3.4,1.2-5.1,1.7c-4.3,1.3-8.6,2.5-12.9,3.8
	c-0.1-0.2-0.2-0.5-0.3-0.7c4.2-2.3,8.5-4.6,13-7.1c-3.1-2.4-5.5-5-10-3.7c-3.7,1.2-7.7,1.8-11.5,2.7c-1.7,0.4-3.4,1-5.1,1.4
	c-0.1-0.3-0.3-0.7-0.4-1c4.8-2.2,9.6-4.4,14.4-6.7c0-0.3-0.1-0.7-0.1-1c-4.8-0.4-9.6-1.3-14.4-1.2c-3.7,0.1-7.5,0.9-11,2.1
	c-7.4,2.5-14.5,5.5-21.8,8.3c-1.3,0.5-2.5,1.4-3.8,2.1c-2.1,1.2-3.9,0.6-5.4-1.9c-1.4-2.4-2.4-5.2-5.9-6.7
	c-0.4,4.1-0.9,7.6-0.9,11.2c0,7-3.9,10.9-10.4,13.3c-6.4,2.4-12.6,5.3-19.1,7.4c-5.9,1.9-12.1,1.6-18.1,0c-2.1-0.6-4.2-1.4-6.4-1.9
	c-2.1-0.5-2.7,0.9-2,2.3c1.9,3.7,4.1,7.3,6.2,10.8c0.7,1.2,1.4,3.1,2.4,3.4c3.7,0.9,7.5,1.3,11.4,1.9c-1.1-10.4-1-10.9,2.2-12.3
	c-0.1,4,0.2,7.9,3.6,9.9c3-0.3,5.4-0.6,7.8-0.7c0.6,0,1.5,0.5,1.7,0.9c0.2,0.5-0.2,1.3-0.6,1.8c-0.5,0.6-1.2,1.1-1.9,1.6
	c-3.7,2.1-6.7,5.4-12.1,3.6c-2-0.7-4.8,0.9-7.3,1.4c0,0.4-0.1,0.8-0.1,1.2c5.2,3.3,10.2,6.7,15.5,9.7c8.2,4.8,16.8,8.8,26.8,8.6
	c1.1,0,2.4,0.2,3.3,0.8c4.9,3.4,9.8,6.8,14.6,10.3c5,3.6,10.3,6.9,14,11.9c2.3,3.2,5,6.3,8,8.9c4,3.5,5.2,7.6,4.1,12.3
	c-0.6,2.5-1.7,5-3.1,7.2c-2.7,4.3-5.7,8.3-8.7,12.5c-1.2,1.7-2.8,3.3-3.9,5.1c-0.4,0.6,0.2,1.7,0.3,2.6c0.7-0.4,1.6-0.6,2.1-1.1
	c1.4-1.4,2.6-3,3.8-4.6c0.1,1.3-0.2,2.4-0.5,3.5c-0.3,1-0.6,2.1-0.9,3.2c4.9,0.5,8.4-0.6,10.1-6.4c1.2,0.5,2.5,1,4.1,1.6
	c0-1.3,0.2-2.1,0-2.7c-0.9-3.1,0.1-5.7,2.7-7.6c1.6-1.2,3.7-2.1,5-3.6c4.4-5.4,8.9-10.7,12.6-16.5c5.2-8.2,11.7-15.2,19.1-21.8
	c-2.5,4.8-5,9.7-7.6,14.8c11.4,1.7,22,1.7,31.6-1.7c-0.3-4.9-1.2-9.5-0.8-14c0.4-4.7,5.4-8.7,9.4-8.7c-1.4,1.9-2.7,3.8-4.1,5.7
	c-4.1,5.6-2.8,13.5,2.3,18.1c4.8,4.3,10.8,6,16.7,6.7c10.4,1.3,21,1.3,31.6,1.9c0.8,0,1.6,0.1,2.5,0.2c-3.1,8-6.2,15.7-9.2,23.5
	c0.5,0.4,1.1,0.8,1.6,1.3c1.2-2.2,2.5-4.5,3.7-6.7c0.5,0.4,0.9,0.8,1.4,1.1c-1,2.6-2.1,5.1-3.4,8.4c2.9-0.7,5.1-1.3,7.4-1.7
	c5.9-1,6.2-1.2,7.4-6.5c1.3-0.2,2.7-0.3,4.4-0.6c-0.6-1.2-1.2-2.1-1.6-3.2c-0.6-2.1-1.7-4.2-1.5-6.3c0.3-3.5,1.6-7,2.3-10.5
	c0.2-0.8-0.2-2.1-0.8-2.6c-2.1-1.8-4.1-3.8-6.6-5.1c-5.4-2.9-6.3-7.3-5.2-12.6c0.7-3.2,2-6.3,2.2-9.5c0.4-5.7,0.4-11.5,0.4-17.3
	c0-3.9,0.4-7.6,4.6-9.6c3.7-1.7,6.8-4.7,11.3-4.4c2,0.1,3.5,0.7,3.9,2.9c0.3,2.1-0.3,3.8-2.4,4.8c-0.8,0.4-1.7,0.6-2.7,1
	C264.9,65.1,267.1,63.4,266.4,57.3"/>
</svg>
