<?xml version="1.0" encoding="utf-8"?>
<!-- Generator: Adobe Illustrator 20.1.0, SVG Export Plug-In . SVG Version: 6.00 Build 0)  -->
<!DOCTYPE svg PUBLIC "-//W3C//DTD SVG 1.1//EN" "http://www.w3.org/Graphics/SVG/1.1/DTD/svg11.dtd">
<svg version="1.1" id="Ebene_1" xmlns="http://www.w3.org/2000/svg" xmlns:xlink="http://www.w3.org/1999/xlink" x="0px" y="0px"
	 width="283.5px" height="111.5px" viewBox="0 0 283.5 111.5" style="enable-background:new 0 0 283.5 111.5;" xml:space="preserve"
	>
<path d="M211.1,78.2c3.8-1.1,5.1-4.9,4.6-6.3c-0.8-2.3-1.8-5.1-5.7-5.3c-5.5-0.2-7,5.8-6.6,3C203,71.7,207.2,77.3,211.1,78.2
	 M171.2,108.4C129.3,109,87.5,113,46,104.2c-9.8-2.1-12.9-6.1-13-18c7.1,1.5,14.1,2.9,21.1,4.3c0.2-1.2,0.5-2.4,0.7-3.6
	c-5.3-1.3-10.6-3.2-16-3.9c-5.6-0.7-7-3.5-6.5-8.5c0.5-5,0.7-9.9,1.1-16.9c7,4,12.5,7.1,18,10.3c0.5-0.5,0.9-1,1.4-1.5
	c-5.5-6-11-11.9-16.5-17.9c2-3.9,4-7.8,6.8-13.4c7.9,4,15.9,7.9,23.9,11.9c0.5-0.4,0.9-0.8,1.4-1.2c-3-3.5-6.3-6.8-9.1-10.4
	c-2.7-3.5-7-7-3-12.2c3.8-5,12.8-7.5,16.9-4.6c4.4,3.2,8.6,6.6,12.9,10c0.6-0.5,1.2-1,1.8-1.5c-3.1-5.3-6.2-10.6-9.3-15.8
	c10.9-10,20-8.5,27.4,4.2c2.8,4.9,6.4,9.3,10.7,13.2c-3.1-8.7-6.3-17.4-9.6-26.6c7.6-2.5,16.6-4.2,22.7,2.2
	c5.3,5.5,7.7,13.9,13.2,20.4c-2.1-6.9-4.3-13.9-6.4-20.8c0.6-0.7,1.2-1.5,1.8-2.2c7.6,2.1,16.5,2.5,22.5,6.8c5.6,4,8.1,12.2,12.2,19
	c0-2.1,0.3-4.5-0.1-6.8c-0.4-2.1-1.6-4-3.5-8.3c9.8,5,17.4,8.6,24.5,12.8c1.9,1.1,4,4,4.1,6.1c0.5,10.3,6.3,16.5,15.1,19.9
	c8.3,3.2,10.7,10.9,14.5,17.5c4.2,7.4,8,15,12,22.6c0.6,0,4.1-0.7,4.5,0.1c1.5,2.8,2.8,6.3,2.4,9.4c-0.2,1.8-3.5,4.5-5.6,4.7
	c-10.6,1.1-21.2,1.9-31.9,2c-9.2,0.1-19.6,1.8-27.2-1.9c-6.9-3.3-10.8-12.9-16-19.8c-0.7,0.2-1.4,0.5-2.1,0.7
	C166.4,93.6,168.7,100.6,171.2,108.4"/>
</svg>
