<?xml version="1.0" encoding="utf-8"?>
<!-- Generator: Adobe Illustrator 20.1.0, SVG Export Plug-In . SVG Version: 6.00 Build 0)  -->
<!DOCTYPE svg PUBLIC "-//W3C//DTD SVG 1.1//EN" "http://www.w3.org/Graphics/SVG/1.1/DTD/svg11.dtd">
<svg version="1.1" id="Ebene_1" xmlns="http://www.w3.org/2000/svg" xmlns:xlink="http://www.w3.org/1999/xlink" x="0px" y="0px"
	 width="283.5px" height="171.1px" viewBox="0 0 283.5 171.1" style="enable-background:new 0 0 283.5 171.1;" xml:space="preserve"
	>
<path d="M113.1,160.6c-7.1-6.7-9.4-14.8-10-24c-0.5-6.9,2.5-10.8,8.2-13.3c2.5-1.1,5.1-2,7.5-3.7c-3.3,0.5-6.6,1-10.3,1.5
	c1.2-2.4,2.3-4.6,3.5-6.8c-0.2-0.1-0.3-0.2-0.5-0.3c-1.9,2.6-3.8,5.2-5.8,7.6c-4.1,4.8-6.7,5.5-12.1,2.3c-4.4-2.6-8.4-5.9-12.4-9
	c-6.3-4.9-12.4-10-20.9-10c-1.4,0-2.7-1.8-4.1-2.7c1-1.4,1.8-3.7,3.1-4.1c2.9-0.9,6-1.1,9-1c2.2,0.1,4.4,1.4,6.7,1.7
	c1.7,0.2,4,0.3,5-0.7c0.8-0.8-0.2-3.3-0.1-5c0-1.6,0.4-3.3,0.6-4.5c-4.6,0.3-10,0.9-15.4,0.9c-5.1,0-8.1-3-8-8.2
	c0.1-6.1,0.5-12.2,1.6-18.1c1.3-6.6,5.4-11.6,11.3-14.6c3.5-1.8,5-3.9,5.2-8.1c0.3-5.5,1.9-10.9,3.2-17.8c2.2,3.1,3.5,5,4.9,6.9
	c-1.4,1.8-2.7,3.5-4.1,5.5c0.9,0.6,1.8,0.8,2.1,1.4C87.1,49,101,53.6,108.3,65.1c2.4,3.8,8.7,5.8,13.6,6.7
	c5.9,1.1,12.1,0.4,18.2,0.1c13.5-0.7,24.3,4.7,33,15c0.6,0.7,1.2,1.3,2.1,1.6c-4-6.8-9.7-12-16-16.4c-3-2.1-6.2-3.8-9.4-5.6
	c-16.4-9.6-26.3-31.8-21.9-49.3c2.3-9.3,9.6-16.1,18.2-17c7.2-0.8,11.6,1.7,13.8,7.8c1.9,5.3,0.7,10.4-3.2,13.2
	c-5.3,3.8-10.2,3.2-16.6-1.2c2.1,1.8,3.9,4.3,6.3,5.2c11.6,4.2,23.2,8.4,35,11.8c11.8,3.4,23.5,6.5,32.9,15.2
	c19.9,18.4,21.5,52.3,2.6,73.7c-6.8,7.7-15.8,13.6-24.2,19.8c-8.5,6.4-17,12.5-22.9,21.9c-1.4,2.2-6.1,3-9.2,3.1
	c-10,0.1-20-0.5-30.1-0.7c-4.9-0.1-9.8,0.1-14.8,0c-1.9,0-4-0.1-5.8-0.7c-1.2-0.4-2.4-1.9-2.7-3.1c-0.2-0.8,1.2-2.1,2.1-3
	C110.2,162.2,111.4,161.6,113.1,160.6"/>
</svg>
