<?xml version="1.0" encoding="utf-8"?>
<!-- Generator: Adobe Illustrator 21.0.0, SVG Export Plug-In . SVG Version: 6.00 Build 0)  -->
<!DOCTYPE svg PUBLIC "-//W3C//DTD SVG 1.1//EN" "http://www.w3.org/Graphics/SVG/1.1/DTD/svg11.dtd">
<svg version="1.1" id="Ebene_1" xmlns="http://www.w3.org/2000/svg" xmlns:xlink="http://www.w3.org/1999/xlink" x="0px" y="0px"
	 width="283.5px" height="283.5px" viewBox="0 0 283.5 283.5" style="enable-background:new 0 0 283.5 283.5;" xml:space="preserve"
	>
<path d="M134.4,0c4.9,0,9.8,0,14.7,0c0.9,0.2,1.8,0.5,2.7,0.5c18.5,1.2,36.1,5.8,52.5,14.3c43.4,22.6,69.4,58,77.4,106.4
	c0.7,4.4,1.1,8.8,1.7,13.1c0,4.9,0,9.8,0,14.7c-0.2,0.9-0.5,1.8-0.5,2.7c-1.2,18.8-5.9,36.7-14.7,53.3c-22.6,43-58,68.7-106,76.6
	c-4.4,0.7-8.8,1.1-13.1,1.7c-4.9,0-9.8,0-14.7,0c-0.9-0.2-1.8-0.5-2.7-0.5c-18.6-1.2-36.3-5.8-52.8-14.4
	c-43.3-22.6-69.2-58-77.1-106.3c-0.7-4.4-1.1-8.8-1.7-13.1c0-4.9,0-9.8,0-14.7c0.2-0.9,0.5-1.8,0.5-2.7c1.3-19,6-37,14.9-53.8
	C38.1,35.2,73.2,9.7,121,1.7C125.4,1,129.9,0.6,134.4,0z M227.9,47.3c-36.3-30.3-76.5-40.5-121.6-28c-30,8.3-53.3,26.3-71.2,52.4
	c6.9,0,13.1,0.2,19.2,0c7.5-0.3,15.1-0.9,22.6-1.3c3.5-0.2,5.6,1.4,5.9,4.4c0.3,3.3-1.2,5.2-4.7,5.8c-1.3,0.2-2.6,0.3-3.9,0.4
	c-3.4,0.3-6.8,0.6-10.6,1c15.5,46.1,30.8,91.7,46.4,138c0.5-1.1,0.7-1.4,0.7-1.6c9-26.8,17.9-53.6,26.8-80.5c0.3-1,0.2-2.4-0.2-3.5
	c-6-16.8-12.2-33.5-18.2-50.3c-0.6-1.8-1.6-2.5-3.5-2.6c-3.8-0.2-7.5-0.6-11.3-1.1c-3-0.4-4.4-2.5-4.2-5.4c0.3-2.9,2.1-4.7,5-4.7
	c1.3,0,2.6,0.2,4,0.2c13.9,0.4,27.7,0.9,41.6,0.9c7.3,0,14.5-0.8,21.8-1.2c3.5-0.2,5.7,1.6,5.9,4.6c0.2,2.9-1.5,5-4.8,5.5
	c-1.3,0.2-2.6,0.3-3.9,0.4c-3.4,0.3-6.9,0.6-10.6,0.9c15.4,45.7,30.6,91.1,46,136.9c0.5-0.8,0.6-1,0.7-1.3
	c6.4-21.3,12.9-42.6,19.2-63.9c3.4-11.4,4-23,0.7-34.6c-2.6-9.2-7.6-17.2-12.2-25.4c-3.1-5.4-6.1-11.2-7.7-17.2
	c-3.4-12.2,3.4-24.5,14.7-27.8C222.6,48,224.8,47.8,227.9,47.3z M183.9,261.8c-13.2-36.2-26.4-72.2-39.5-108.3
	c-0.3,0-0.5,0.1-0.8,0.1c-12.6,36.7-25.3,73.4-37.9,110C122.3,271.7,166.6,270.6,183.9,261.8z M86.2,256.3
	C65.9,200.6,45.7,145.4,25.4,89.8C-2.4,150.4,23,226.2,86.2,256.3z M205.9,251.1c0.2,0.2,0.5,0.3,0.7,0.5
	c31.2-19.3,51.7-46.6,59.7-82.7c6.8-30.5,2.4-59.7-12.3-87.2c-0.3,0.5-0.3,0.9-0.2,1.3c0.8,9,0.6,17.9-0.8,26.8
	c-1.6,10.6-5.2,20.6-8.7,30.7c-10.1,28.8-20,57.7-30,86.6C211.5,235.1,208.7,243.1,205.9,251.1z"/>
</svg>
