<?xml version="1.0" encoding="utf-8"?>
<!-- Generator: Adobe Illustrator 21.0.0, SVG Export Plug-In . SVG Version: 6.00 Build 0)  -->
<!DOCTYPE svg PUBLIC "-//W3C//DTD SVG 1.1//EN" "http://www.w3.org/Graphics/SVG/1.1/DTD/svg11.dtd">
<svg version="1.1" id="Ebene_1" xmlns="http://www.w3.org/2000/svg" xmlns:xlink="http://www.w3.org/1999/xlink" x="0px" y="0px"
	 width="283.5px" height="205.8px" viewBox="0 0 283.5 205.8" style="enable-background:new 0 0 283.5 205.8;" xml:space="preserve"
	>
<path d="M141.7,137.8c-19.2,0-38.5,0-57.7,0c-3.9,0-7-1.6-9.3-4.7c-1.3-1.8-1.9-3.8-1.9-5.9c0-8.5,0-17,0-25.5
	c0-6.1,4.7-10.8,10.9-10.8c10.2,0,20.5,0,30.7,0c2.2,0,1.9,0,1.9-1.9c0-11.4,0-22.8,0-34.2c0-2.8,0.8-5.3,2.6-7.4
	c2.2-2.6,5-3.8,8.4-3.8c11.3,0,22.6,0,33.9,0c2.7,0,2.3,0.2,2.3-2.2c0-10.1,0-20.2,0-30.2c0-5.1,3.3-9.4,8.2-10.7c1-0.3,2-0.4,3-0.4
	c8.3,0,16.5,0,24.8,0c6.2,0,11,4.8,11.2,11c0,0.6,0,1.2,0,1.8c0,37.9,0,75.8,0,113.7c0,5.6-3.5,10.1-8.9,11.2
	c-1.1,0.2-2.2,0.2-3.3,0.2C179.5,137.9,160.6,137.9,141.7,137.8C141.7,137.9,141.7,137.8,141.7,137.8z"/>
<path d="M23.5,179.2c2.1,0,4.1,0,6.2,0c1,0,1.1,0.1,1.2,1.1c0.9,10.4-6.3,15.8-13.3,16.2c-6.4,0.4-11.6-2-15.1-7.4
	c-5.7-8.6-1.5-20.2,8.4-23.5c5.5-1.8,10.5-1,15.1,2.6c1,0.8,1,0.9,0.1,1.8c-0.6,0.6-1.2,1.5-2,1.8c-0.9,0.4-1.5-0.8-2.2-1.2
	c-6.7-4-15.5,0.1-16.9,7.8c-1,5.2,1.7,11.5,7.9,13.2c3.8,1.1,7.4,0.5,10.5-2c1.4-1.2,2.3-2.7,2.7-4.4c0.4-1.4,0.3-1.6-1.2-1.6
	c-2.4,0-4.8,0-7.3,0c-0.4,0-0.7,0-1.1,0c-0.4,0-0.5-0.2-0.6-0.6c0-0.1,0-0.2,0-0.3c0.1-1.1-0.4-2.4,0.2-3.2c0.6-0.8,2-0.2,3-0.3
	C20.7,179.2,22.1,179.2,23.5,179.2z"/>
<path d="M92.3,177.9c0.4-1.2,0.4-1.2,1.8-1.2c0.7,0,1.4,0,2.1,0c0.5,0,0.8,0.2,0.7,0.7c0,0.3,0,0.6,0,0.9c0,5.4,0,10.9,0,16.3
	c0,1.3-0.1,2.5-0.4,3.8c-1.3,6-6.3,7.7-10.6,7.2c-3.3-0.4-5.8-2.2-7.4-5.1c-0.5-0.9-0.5-0.9,0.4-1.3c0.3-0.2,0.6-0.3,1-0.4
	c0.6-0.2,1.2-0.7,1.8-0.7c0.7,0,0.8,0.9,1.2,1.4c1.5,1.8,3.7,2.5,6,1.8c2.1-0.6,3.3-2.2,3.5-4.6c0.1-0.7,0.2-1.4,0-2.1
	c-0.2,0-0.3,0-0.3,0c-3.1,2.8-8.2,2.3-11.6-0.8c-5.5-5-3.8-14.4,3.1-17.2c2.8-1.1,5.6-1,8.2,0.9c0.1,0.1,0.2,0.2,0.4,0.3
	C92.2,178,92.3,177.9,92.3,177.9z M92.9,186.3c0-0.4,0-0.9-0.1-1.3c-0.5-2.3-1.7-4-4-4.6c-2.2-0.6-4,0.2-5.4,1.8c-2,2.2-2,6-0.1,8.3
	c2.3,2.7,6.3,2.7,8.4-0.1C92.5,189.2,92.9,187.8,92.9,186.3z"/>
<path d="M158,195.8c-1.2,0.3-2.4,0.4-3.4,0c-1.2-0.4-1-1.8-1.4-2.8c-0.5-1.1-0.9-2.4-1.3-3.6c-0.2-0.6-0.5-1-1.3-1
	c-3.3,0-6.6,0-9.8,0c-0.7,0-1,0.3-1.2,0.9c-0.6,1.9-1.3,3.7-2,5.5c-0.2,0.7-0.6,1.1-1.4,1c-0.9-0.1-1.8,0-2.7,0
	c-0.2-0.8,0.1-1.3,0.4-1.8c3.1-8.2,6.2-16.4,9.3-24.6c0.5-1.3,0.5-1.3,1.9-1.3c2.6,0,2.6,0,3.6,2.5c3,7.8,5.9,15.6,8.8,23.5
	C157.8,194.6,158.1,195.1,158,195.8z M145.9,172.8c-0.5,0.5-0.6,1-0.8,1.5c-1,2.6-1.9,5.3-2.9,7.9c-0.2,0.6-0.5,1.2-0.7,1.8
	c-0.3,0.9-0.2,0.9,0.7,0.9c1.9,0,3.7,0,5.6,0c0.7,0,1.5,0.1,2.4-0.2C148.8,180.9,147.4,176.9,145.9,172.8z"/>
<path d="M32.5,186.4c-0.2-5,3.7-10.2,10.2-10.3c5.8-0.1,10.4,4.5,10.4,10.3c0,5.7-4.6,10.3-10.3,10.2
	C36.9,196.6,32.5,192.2,32.5,186.4z M37.1,186.4c0,0.3,0,0.6,0.1,1c0.5,4,4.7,6.4,8.2,4.5c2.2-1.1,3.2-3.1,3.2-5.4
	c0-2.3-0.9-4.3-3-5.5c-2-1.2-4.5-0.9-6.3,0.6C37.7,182.8,37.1,184.4,37.1,186.4z"/>
<path d="M54.9,186.3c0-5.8,4.5-10.3,10.2-10.2c5.8,0,10.3,4.4,10.3,10.2c0,5.7-4.5,10.3-10.2,10.3C58.7,196.6,54.7,191.4,54.9,186.3
	z M59.4,186.5c0,0.2,0,0.5,0,0.8c0.5,4.1,4.8,6.5,8.3,4.6c4-2.2,4.2-8.3,0.4-10.7c-2.2-1.4-4.9-1.2-6.8,0.6
	C60,182.9,59.4,184.5,59.4,186.5z"/>
<path d="M106.6,186.3c0-4.6,2.6-8.4,6.5-9.7c4.6-1.5,9,0.3,11.3,4.7c1.3,2.4,1.3,2.4-1.2,3.5c-3.4,1.4-6.9,2.8-10.3,4.3
	c-1.1,0.4-1.1,0.6-0.4,1.5c2,2.5,5.7,2.7,8.2,0.4c0.2-0.2,0.4-0.4,0.6-0.7c0.3-0.5,0.7-0.5,1.1-0.2c0.7,0.5,1.4,1,2.1,1.4
	c0.7,0.4,0.6,0.8,0.2,1.3c-1.5,1.8-3.5,3.1-5.8,3.6c-6.4,1.2-11.1-2.7-12.1-7.9C106.6,187.7,106.6,187,106.6,186.3z M111.3,185.9
	c2.9-1.2,5.8-2.4,8.8-3.6c-1.1-1.9-3-2.6-5-1.9C112.6,181.1,111,183.4,111.3,185.9z"/>
<path d="M193.4,193.8c-0.4,0-0.5,0.3-0.7,0.4c-2.4,2.4-5.3,2.8-8.4,1.9c-2.5-0.8-4-2.6-4.3-5.3c-0.2-2.6,0.8-4.6,3.1-5.9
	c2.7-1.5,5.5-1.7,8.5-0.9c0.5,0.1,1.1,0.3,1.6,0.4c0,0,0.1,0,0.1,0c0.2-2.2-1.1-4-3.3-4.5c-2.2-0.5-4.2-0.1-5.6,1.9
	c-0.3,0.4-0.5,0.6-1,0.4c-0.9-0.4-1.7-0.8-2.7-1.2c0.9-2.1,2.4-3.4,4.3-4.1c2.3-0.8,4.7-0.8,6.9,0c3.2,1.2,4.8,3.7,4.9,7.1
	c0.1,3.6,0,7.3,0,10.9c0,0.8-0.3,1.1-1.1,1c0,0-0.1,0-0.2,0C193.5,196,193.5,196,193.4,193.8z M189,186.5c-1.4,0.1-2.7,0.3-3.9,1.1
	c-1,0.8-1.5,1.8-1.3,3c0.2,1.2,1.1,1.9,2.2,2.3c3,1.1,6.9-1.2,7.4-4.3c0.1-0.6,0-1-0.6-1.3C191.5,186.8,190.3,186.6,189,186.5z"/>
<path d="M163.9,179.3c1.2-1.4,2.5-2.4,4.1-2.7c3.9-0.9,8.5,0.7,9,6.5c0.1,1.6,0.1,3.2,0.1,4.8c0,2.3,0,4.6,0,6.9c0,1.1,0,1.1-1,1.1
	c-3.2,0-2.5,0.4-2.6-2.5c0-2.7,0-5.3,0-8c0-0.6,0-1.2-0.1-1.8c-0.2-1.7-0.9-3.1-2.7-3.7c-1.8-0.6-3.6-0.4-5.1,1
	c-1.2,1.1-1.7,2.6-1.8,4.2c0,1,0,1.9,0,2.9c0,2.3,0,4.5,0,6.8c0,1.1,0,1.1-1.1,1.1c-3.2,0-2.6,0.4-2.6-2.5c0-4.9,0-9.8,0-14.6
	c0-0.4,0-0.7,0-1.1c0-0.7,0.3-0.8,0.9-0.9C163.6,176.8,163.6,176.8,163.9,179.3z"/>
<path d="M267.6,191.2c0.3-0.4,0.9-0.5,1.3-0.7c0.5-0.2,1.1-0.7,1.7-0.6c0.5,0.1,0.6,0.9,1,1.3c1.4,1.9,4,2.6,6.2,1.7
	c1-0.4,1.7-1.1,1.8-2.2c0.1-1-0.6-1.9-1.8-2.3c-1.4-0.4-2.8-0.8-4.2-1.1c-1.4-0.4-2.8-0.9-3.9-1.9c-2-1.9-2.1-4.7-0.2-6.8
	c3-3.3,9.4-3.2,12.4,0.2c0.3,0.3,0.5,0.6,0.7,1c0.5,0.8,0.5,0.9-0.4,1.3c-0.2,0.1-0.4,0.2-0.6,0.2c-0.5,0.2-1,0.6-1.5,0.5
	c-0.5-0.1-0.7-0.7-1-1.1c-1.5-1.4-4.5-1.7-6.2-0.6c-1.4,1-1.4,2.6,0.2,3.4c0.7,0.3,1.4,0.5,2.1,0.7c1,0.3,2,0.4,2.9,0.7
	c0.9,0.2,1.8,0.6,2.6,1.1c3.2,2.1,3.4,6.5,0.4,8.8C277.5,197.8,269.8,197.3,267.6,191.2z"/>
<path d="M225,177c0.1,0.5-0.1,0.8-0.2,1.1c-3.6,8.4-7.3,16.7-10.9,25.1c-0.4,0.9-0.8,1.3-1.8,1.2c-0.7-0.1-1.5,0.1-2.2-0.1
	c-0.2-0.5,0.2-0.9,0.3-1.3c1-2.3,2-4.6,3.2-6.8c0.5-1,0.4-1.8,0-2.8c-2.2-5-4.4-10-6.6-15c-0.2-0.4-0.4-0.7-0.3-1.3c1,0,2,0,3.1,0
	c0.6,0,0.8,0.3,1,0.8c0.7,1.6,1.4,3.3,2,4.9c1,2.5,2.1,5,3.1,7.6c0.6-0.2,0.7-0.8,0.8-1.2c1.5-3.6,3-7.3,4.4-10.9
	c0.3-0.9,0.8-1.2,1.7-1.1C223.3,177,224.2,176.8,225,177z"/>
<path d="M247.6,186.4c0-5.4,3.6-9.5,8.9-10c3.6-0.4,6.9,1.2,8.8,4.4c0.5,1,0.5,1-0.4,1.4c-0.2,0.1-0.4,0.2-0.6,0.2
	c-0.6,0.2-1.2,0.6-1.7,0.6c-0.5-0.1-0.6-0.8-0.9-1.3c-1.7-2.3-5.3-2.8-7.7-1c-3.5,2.6-3.6,8.4-0.3,11.2c2.6,2.2,6.5,1.6,8.5-1.2
	c0.6-0.9,0.6-0.9,1.6-0.5c2.4,1,2.4,1.2,0.7,3.3c-4.3,5.2-13.2,3.8-16-2.5C248,189.5,247.6,187.9,247.6,186.4z"/>
<path d="M229.5,185.9c0-1.5,0-2.9,0-4.4c0-1.2,0-1.2-1.3-1.3c-0.6,0-1.5,0.3-1.8-0.3c-0.5-0.8-0.2-1.8-0.1-2.7
	c0-0.4,0.4-0.4,0.7-0.4c0.6,0,1.1,0,1.7,0c0.7,0,1-0.3,0.9-1c0-1.3,0-2.6,0-3.9c0-0.6,0.2-0.9,0.9-0.9c2.9-0.2,2.8-0.2,2.8,2.7
	c0,0.7,0,1.4,0,2.1c-0.1,0.8,0.3,1.1,1.1,1c0.9,0,1.8,0,2.7,0c0.5,0,0.8,0.2,0.9,0.8c0.2,2.6,0.3,2.6-2.3,2.6
	c-2.6,0-2.3-0.3-2.3,2.4c0,2.2,0,4.4,0,6.6c0,0.4,0,0.8,0,1.2c0.2,1.8,1,2.5,2.8,2.4c1.4-0.1,1.4-0.1,1.9,1.2c0.8,1.8,0.7,2-1.3,2.2
	c-0.8,0.1-1.6,0-2.4-0.1c-2.5-0.4-4.2-2-4.6-4.5c-0.1-0.3-0.1-0.7-0.1-1C229.6,189,229.6,187.5,229.5,185.9
	C229.6,185.9,229.5,185.9,229.5,185.9z"/>
<path d="M100,181.1c0-4.6,0-9.2,0-13.7c0-1.4,0-1.4,1.4-1.4c0.8,0,1.6,0,2.4,0c0.5,0,0.7,0.2,0.7,0.7c0,0.3,0,0.6,0,0.9
	c0,8.9,0,17.8,0,26.7c0,1.7,0.2,1.7-1.6,1.6c-0.9,0-2,0.4-2.6-0.2c-0.7-0.6-0.2-1.8-0.3-2.7C100,189,100,185,100,181.1z"/>
<path d="M204.3,182.1c0,4.2,0,8.4,0,12.5c0,1.2,0,1.3-1.2,1.3c-2.9,0-2.4,0.4-2.4-2.4c0-7.9,0-15.8,0-23.7c0-1.6-0.2-1.7,1.6-1.7
	c2.3,0,2-0.2,2,2C204.3,174.2,204.3,178.1,204.3,182.1z"/>
<path d="M241.1,186.4c0-2.8,0-5.5,0-8.3c0-1.1,0-1.2,1.2-1.2c2.9,0,2.4-0.3,2.5,2.3c0,4.9,0,9.9,0,14.8c0,0.4,0,0.7,0,1.1
	c0,0.5-0.2,0.8-0.8,0.9c-2.8,0.3-2.9,0.3-2.9-2.6C241.1,191,241.1,188.7,241.1,186.4z"/>
<path d="M245.4,170.5c0,1.4-1.1,2.4-2.5,2.4c-1.5,0-2.6-1.1-2.6-2.6c0-1.4,1.3-2.6,2.7-2.5C244.4,167.9,245.5,169.1,245.4,170.5z"/>
</svg>
