<?xml version="1.0" encoding="utf-8"?>
<!-- Generator: Adobe Illustrator 21.0.0, SVG Export Plug-In . SVG Version: 6.00 Build 0)  -->
<!DOCTYPE svg PUBLIC "-//W3C//DTD SVG 1.1//EN" "http://www.w3.org/Graphics/SVG/1.1/DTD/svg11.dtd">
<svg version="1.1" id="Ebene_1" xmlns="http://www.w3.org/2000/svg" xmlns:xlink="http://www.w3.org/1999/xlink" x="0px" y="0px"
	 width="283.5px" height="59.3px" viewBox="0 0 283.5 59.3" style="enable-background:new 0 0 283.5 59.3;" xml:space="preserve">
<path d="M73.2,18.4c-9.1,0-14.8,6.2-14.8,14.1v0.7c0,8.5,6.3,13.2,14.9,13.2c6.3,0,10.4-2.1,12.9-4.3l-3-4.3c-1.8,2.2-5,3.8-9.6,3.8
	c-5.4,0-9.3-2.3-9.6-7.9h23.7v-0.7C87.8,25.8,84,18.4,73.2,18.4L73.2,18.4z M64.3,29.4c0.8-4.3,4-6.8,8.9-6.8c5.4,0,8,2.7,8.7,6.8
	H64.3z M128.1,18.4c-4.8,0-8.4,2.5-10.3,5c-1.5-3-4.9-5-9.2-5c-5.1,0-8.5,2.3-10.1,4.5l-0.4-4h-5.6v26.8h6.3V27.1
	c1.7-2.3,4.6-3.5,7.7-3.5c4.9,0,6.8,2.5,6.8,6.8v15.2h6.4V26.8c1.7-1.9,4-3.1,7.4-3.1c5,0,7.1,2.7,7.1,7.6v14.3h6.3V31.4
	C140.4,22.8,136.4,18.4,128.1,18.4z M172.7,30c0.2-8.4-5.5-11.6-13.2-11.6c-5.6,0-9.3,1.3-12.2,2.8l2,4.8c1.9-1.7,5.2-2.8,9.5-2.8
	c4.9,0,8.5,1.5,8.4,6.3l-0.1,1.7c-2.6-1.1-6.2-2.1-10-2.1c-6.7,0-12,2.1-12,8.9c0,6.2,5.8,8.5,11.7,8.5c5.5,0,8.8-2.1,10.5-3.9
	c0.1,1.1,0.3,2.4,0.5,3.3h5.3c-0.3-1.1-0.5-3-0.5-7.2C172.6,35.9,172.6,32.7,172.7,30z M167.2,38.6c-1.9,2.1-5.4,3-9,3
	c-3.9,0-7.1-0.9-7.1-4.2c0-3.4,2.7-4.3,7.5-4.3c3.1,0,6.2,0.7,8.7,1.6v3.9H167.2z M185,25l-0.3-6.2h-5.6v26.8h6.1V29.8
	c1-3.1,3.4-5.5,6.5-5.5c1.6,0,2.8,0.4,3.7,0.9l1-5.8c-0.8-0.4-2.4-0.7-3.8-0.7C188.8,18.6,186.2,20.9,185,25z M213.4,29.8
	c-5.4-0.6-8.9-0.5-8.9-2.9c0-2.5,2.5-3.8,6.9-3.8c3.9,0,7.4,0.7,9.7,2.3l1.8-4.7c-3.1-1.5-7.1-2.3-11.6-2.3c-8.4,0-12.2,4-12.2,8.9
	s4,6.1,10.6,6.9c5.6,0.5,9.1,0.3,9.1,3.4c0,2.9-3,4.1-7.9,4.1c-4.3,0-8.4-1.4-10.9-3.7l-2.1,5.1c3.2,2,7.9,3.2,13.1,3.2
	c8,0,12.9-2.9,12.9-9.1C224.1,31,218.3,30.3,213.4,29.8L213.4,29.8z M250.9,18.9l-9.2,21.9l-9-21.9H226l12.3,26.7
	c-1.1,2.5-3.2,6.3-5.7,9.9l6,1.9c5.6-9.2,12.1-23.1,18.9-38.4h-6.6L250.9,18.9L250.9,18.9z M272.6,29.8c-5.4-0.6-8.9-0.5-8.9-2.9
	c0-2.5,2.5-3.8,6.9-3.8c3.9,0,7.4,0.7,9.7,2.3l1.8-4.7c-3.1-1.5-7.1-2.3-11.6-2.3c-8.4,0-12.2,4-12.2,8.9s4,6.1,10.6,6.9
	c5.6,0.5,9.1,0.3,9.1,3.4c0,2.9-3,4.1-7.9,4.1c-4.3,0-8.4-1.4-10.9-3.7l-2.1,5.1c3.2,2,7.9,3.2,13.1,3.2c8,0,12.9-2.9,12.9-9.1
	C283.2,31,277.5,30.3,272.6,29.8z"/>
<path d="M20.5,36.6l20.4-9.2v-9.1l-20.4,9.1"/>
<path d="M10.3,59.3l30.5-13.5v-9.2L10.3,50.1"/>
<path d="M10.2,22.9L0,27.5l20.5,9.2v-9.2"/>
<path d="M40.8,9.2V0L0,18.4v9.1l10.2-4.6"/>
</svg>
