<?xml version="1.0" encoding="utf-8"?>
<!-- Generator: Adobe Illustrator 21.0.0, SVG Export Plug-In . SVG Version: 6.00 Build 0)  -->
<!DOCTYPE svg PUBLIC "-//W3C//DTD SVG 1.1//EN" "http://www.w3.org/Graphics/SVG/1.1/DTD/svg11.dtd">
<svg version="1.1" id="Ebene_1" xmlns="http://www.w3.org/2000/svg" xmlns:xlink="http://www.w3.org/1999/xlink" x="0px" y="0px"
	 width="283.5px" height="107.3px" viewBox="0 0 283.5 107.3" style="enable-background:new 0 0 283.5 107.3;" xml:space="preserve"
	>
<path d="M82.3,87.2c0,6.9,0,13.4,0,20.1c-6.1,0-12,0-18.1,0c0-0.5-0.1-1-0.1-1.5c0-15.3,0-30.7,0-46c0-8,2.3-15.2,7.9-21.1
	c4.9-5.1,10.9-7.5,17.8-8.1c7.1-0.6,14.2,0,20.5,3.6c8.1,4.6,12.2,12,13.5,21c0.9,6.6,0.3,13.1-2.8,19.2
	c-4.8,9.8-13.1,14.3-23.7,15.1C92.4,90,87.3,89.5,82.3,87.2z M106.4,60.4c-0.2-1.7-0.2-3.4-0.5-5.1c-0.9-4.9-3.1-9-8.4-10.3
	c-5.1-1.2-11.9,0.2-14.3,7.8c-0.3,0.9-0.6,1.9-0.7,2.9C81.7,61,81.9,66.1,85,70.6c4.5,6.6,14.2,6.5,18.7,0
	C105.8,67.5,106.3,64.1,106.4,60.4z"/>
<path d="M253.1,89.7c-5.8,0.1-11.3-1-16.4-3.8c-6.4-3.6-10.6-8.9-12.5-16c-2.1-8-2-16,1.5-23.6c4.6-10,12.9-15,23.8-15.7
	c5.4-0.4,10.7,0.1,15.9,1.9c7.3,2.7,12.3,7.7,15.2,14.8c3.5,8.7,3.6,17.5-0.1,26.1c-4.5,10.4-13,15.4-24,16.3
	c-0.5,0-1.1,0.1-1.6,0.1C254.2,89.7,253.6,89.7,253.1,89.7z M265.2,60.4c-0.3-2.1-0.5-4.2-0.9-6.3c-1.2-5.6-5.1-9-10.4-9.3
	c-5.8-0.3-10.2,2.6-12,8.1c-0.6,1.9-1,3.8-1.1,5.8c-0.2,4.7,0.5,9.3,3.7,13.1c4.5,5.3,13.4,5,17.5-0.6
	C264.4,67.9,265,64.3,265.2,60.4z"/>
<path d="M30.1,89.7c-5.7,0-11.2-1-16.3-3.8C7.1,82.1,2.8,76.4,1.1,68.8c-1.7-7.4-1.6-14.8,1.5-21.8C7,36.6,15.4,31.4,26.6,30.6
	c6.4-0.5,12.7,0.1,18.6,3.1c8.9,4.5,13.3,12.2,14.7,21.8c0.8,6.1,0.3,12-2.2,17.7c-4.6,10.5-13,15.5-24.1,16.5
	c-0.5,0-1.1,0.1-1.6,0.1C31.3,89.7,30.7,89.7,30.1,89.7z M42.6,60.5c-0.6-3-1-6-1.9-8.7c-1.6-4.5-5.1-6.9-9.9-7
	c-4.8-0.1-8.9,1.6-11,6.3c-2.7,6-2.7,12,0.1,18c2.1,4.4,5.7,6.5,10.6,6.4c4.9-0.1,8.4-2.5,10.2-7C41.7,66,42,63.2,42.6,60.5z"/>
<path d="M185.2,30.6c0,14.8,0,29.5,0,44.7c0.5-0.7,0.7-1,0.9-1.4c7.7-14.1,15.4-28.1,23.1-42.2c0.4-0.7,0.7-1.3,1.8-1.3
	c6.2,0.1,12.4,0,18.6,0c0.3,0,0.5,0.1,1,0.1c-1.7,3.1-3.4,6-5.1,8.9c-9.4,16.3-18.7,32.5-28.1,48.8c-0.7,1.1-1.4,1.6-2.7,1.5
	c-8.6-0.1-17.2,0-25.8,0c-0.6,0-1.2,0-1.8,0c0-19.8,0-39.5,0-59.2C173.1,30.6,179,30.6,185.2,30.6z"/>
<path d="M146.5,47.9c0,0.7-0.1,1.1-0.1,1.6c0,6.3,0,12.7,0,19c0,3,1.5,4.5,4.5,4.6c3.2,0,6.3,0,9.5,0c0.6,0,1.2,0,1.9,0
	c0,5.6,0,11,0,16.5c-0.4,0.1-0.7,0.1-1.1,0.2c-5.1,0-10.3,0.1-15.4,0c-9.5-0.2-17.3-7.9-17.6-17.4c-0.2-6-0.1-12-0.1-18.1
	c0-13.8,0-27.7,0-41.5c0-0.7,0-1.3,0-2.1c6.1,0,12,0,18.1,0c0,6.5,0,13,0,19.7c6,0,11.8,0,18,0c-1.1,1.9-2,3.6-3,5.2
	c-2.1,3.7-4.3,7.4-6.4,11.1c-0.5,0.9-1.1,1.3-2.2,1.3C150.7,47.8,148.6,47.9,146.5,47.9z"/>
<path d="M197.6,9c-3.1,5.4-6.2,10.7-9.3,16c-0.2,0.3-0.8,0.6-1.2,0.6c-6.4,0-12.9,0-19.9,0c5-8.7,9.8-17,14.8-25.6
	C187.2,3,192.4,6,197.6,9z"/>
</svg>
