<?xml version="1.0" encoding="utf-8"?>
<!-- Generator: Adobe Illustrator 21.0.0, SVG Export Plug-In . SVG Version: 6.00 Build 0)  -->
<!DOCTYPE svg PUBLIC "-//W3C//DTD SVG 1.1//EN" "http://www.w3.org/Graphics/SVG/1.1/DTD/svg11.dtd">
<svg version="1.1" id="Ebene_1" xmlns="http://www.w3.org/2000/svg" xmlns:xlink="http://www.w3.org/1999/xlink" x="0px" y="0px"
	 width="283.5px" height="80.3px" viewBox="0 0 283.5 80.3" style="enable-background:new 0 0 283.5 80.3;" xml:space="preserve">
<path d="M228.2,60.2c-4.3,1.8-7.7,7.9-12.9,11.3c-0.3,0.2-0.6,0.3-0.9,0.3c-0.4,0-1-0.4-1-2.4c0-6.7,2.1-9.9,4-14.6
	c6.3-16.4,17.2-30.5,26.8-45.8c0.8-1.2,1.2-2.5,1.2-3.9c0-1.2-0.4-2.1-1-3.3c-0.4-1-2.4-1.8-4.5-1.8c-1.2,0-2.3,0.1-3.6,0.1
	c-5,0-6.1,7.4-7.3,9.3c-8.1,13.6-17.3,30.5-22,42.4c-1,2.7-2.2,5.3-3,8.1c-4.7,1.4-8.2,7.9-13.6,11.6c-0.3,0.2-0.6,0.3-0.9,0.3
	c-0.4,0-1-0.4-1-2.4c0-6.7,2.1-9.9,4-14.6c6.3-16.4,17.2-30.5,26.8-45.8c0.8-1.2,1.2-2.5,1.2-3.9c0-1.2-0.4-2.1-1-3.3
	c-0.4-1-2.4-1.8-4.5-1.8c-1.2,0-2.3,0.1-3.6,0.1c-5,0-6.1,7.4-7.3,9.3c-8.1,13.6-17.3,30.5-22,42.4c-0.4,1-0.8,1.9-1.1,2.9
	c-0.1,0.1-0.2,0.1-0.4,0.2c-5.5,3.2-10.1,8.9-16.7,12.8c-1.3,0.8-5.3,3.5-8.5,3.5c-0.8,0-1.4-0.2-2-0.5c-1-0.4-1.9-2.5-1.9-3.1
	c0-0.5,0.1-0.6,1.2-1.3c9.4-5.7,17.2-13.8,23.8-22c2.5-3,5.7-8.9,5.7-13.2c0-2.8-1-6-4.3-7.2c-2.4-0.9-5-1.3-7.2-1.3
	c-5.7,0-9.9,2.6-12.2,5c-2.4,2.6-4.7,5.2-6.9,7.9c-2.3-1.9-5.4-2.8-8.5-2.8c-3.5,0-10.2,4.4-13.6,7c-0.5,0.4-0.9,0.6-1.1,0.6
	c-0.1,0-0.2-0.1-0.2-0.3c0-0.1,0.2-1.1,0.2-2.8c0-1.5-0.3-3.4-1.7-5.8c-0.3-0.5-2.3-1.7-4.6-1.7c-2.9,0-5.6,1.4-5.6,2.9
	c0,1.1,1,1.5,1,2.5c0,0.5-0.4,3-1.1,5.4c-1.8,6.9-4.1,13.6-6.4,20.4c-1.3,3.8-5.6,7.1-5.6,11.2c0,1.3,0.9,3,2,4.3
	c1.9,2.1,3.1,2.9,4.8,2.9c0.8,0,1.6-0.2,2.4-0.9c1.6-1.4,2.5-2.8,2.9-4.7c2.8-12.7,10.8-21.3,19.8-26.9c3-1.9,7.1-4,7.6-4
	c0.6,0,1.4,0.3,2.3,0.5c-2.5,4.1-4.5,8.3-5.8,12.9c-0.4,1.5-0.6,2.9-0.6,4.4c0,2.5,0.5,5,1.4,7.5c1.2,3.4,3.1,6.4,5.8,7.8
	c4.9,2.6,8.5,4,11.7,4c1.8,0,3.2-0.3,4.7-1.2c7.1-4,11.4-7,14.5-9.7c0.1,2.7,0.6,4.2,2.6,6.3c1.9,2,4.9,3.9,8.9,4.7
	c0.6,0.1,1.3,0.2,1.9,0.2c4.5,0,8.9-3.7,12.3-7.4c0.4,0.8,1,1.6,1.8,2.4c1.9,2,4.9,3.9,8.9,4.7c0.6,0.1,1.3,0.2,1.9,0.2
	c5.3,0,10.4-5.1,13.9-9.2c1.2,2.4,4.5,4.8,8.4,6.7c1.1,0.5,2.4,0.9,3.5,0.9c4.6,0,7.9-3.8,10.5-6.5c6.7-7.3,10.3-16.3,13.1-27.7
	c0.2-0.9,0.5-1.2,1-1.2c1.1,0,2.5,0,4-0.2c2.9-0.4,5.2-1.4,7.8-1.8c1.6-0.3,1.4-0.9,2.9-1.4c1.1-0.4,1.9-0.9,1.9-1.9
	c0-1.8-3.3-3.8-8.4-3.8c-4,0-6.3,0.3-7.9,0.3c-2.5,0-3.1-0.8-4.7-4.9c0,0,1.6,4.2,0,0c-0.3-0.9-0.6-1.3-1.6-2.1
	c-2.3-1.9-5-2.6-7.3-2.6c-5.4,0-10,5.5-13.2,10.1c-0.8,1.1-1.8,1.9-2.6,3.1C232.9,44.6,228.7,52.1,228.2,60.2L228.2,60.2z
	 M90.9,23.6c2.7,0,4.2-0.2,4.5-0.2c0.3,0,0.5,0.1,0.5,0.4c0,0.2-0.1,0.5-0.9,2.1C88.5,40,84,54.3,80.1,70.1c-0.1,0.4-0.4,2-0.4,3.7
	c0,1.5,0.4,3.1,1.9,4c2.9,1.7,5.3,2.5,6.9,2.5c2.4,0,3.5-1.5,3.5-4c0-2.1,0.1-4.4,0.4-6.1c3-15.8,7.5-28.1,14.5-41
	c3.3-6.1,3.8-6.4,3.8-7c0-0.2-0.1-0.5-0.3-0.9c4.3-1,9.4-1.6,14.2-1.6c0.5,0,2.7,0.8,3,1.1c0.8,0.8,1.5,1.5,2.8,1.5
	c1.1,0,2.9-0.8,3.5-1.2c1.5-1.1,2.3-2.3,2.3-4.2c0-1.8-6.8-6.3-11.5-6.3c-5.8,0-11.1,0.8-16,1.7c-2.1,0.4-9.9,1.6-15.5,1.6
	c-5.4,0-5-0.8-7.3-0.8c-1.3,0-1.9,0.6-2.5,1.2c-0.5,0.5-0.9,2.7-0.9,4.6c0,1,0,1.7,0.5,2.4C84.7,23.2,87.8,23.6,90.9,23.6
	C90.9,23.6,87.8,23.6,90.9,23.6L90.9,23.6z M170.5,32.3c0,1-0.3,1.6-1.6,3.7c-1.3,2-0.8,2-2.4,4.2c-3.1,4.2-7,8.4-12,13
	c-1.4,1.3-1.6,1.3-1.8,1.3c-0.1,0-0.3-0.1-0.3-0.3c0-0.3,0.1-0.8,1.2-3c3.3-7,7.4-11.6,11.9-16.1c2.5-2.5,4-3.3,4.5-3.3
	C170.2,31.7,170.5,31.8,170.5,32.3C170.5,32.3,170.5,31.8,170.5,32.3L170.5,32.3z M253,35.1c0.1,0,0.2,0.1,0.3,0.3
	c0.1,0.3,0.3,0.6,0.9,1.1c0.4,0.3,0.4,1.8,0.4,3c0,10.4-5.9,19-11.7,27.7c-1.3,1.9-2,2.3-2.7,2.3c-0.5,0-1.4-1.4-1.7-2.3
	c-0.4-1.2-0.5-2.6-0.5-3.1c0-8.4,7.9-20.8,13.2-27.7C252,35.2,252.7,35.1,253,35.1C253,35.1,252.7,35.1,253,35.1L253,35.1z"/>
<path d="M59.3,11.9H8.5c-4.7,0-8.5,3.8-8.5,8.5v50.8c0,4.7,3.8,8.5,8.5,8.5h50.8c4.7,0,8.5-3.8,8.5-8.5V20.3
	C67.8,15.7,64,11.9,59.3,11.9z M29.5,63.4c0,2.2-1.8,4.1-4.1,4.1H12.9c-2.2,0-4.1-1.8-4.1-4.1V24.7c0-2.2,1.8-4.1,4.1-4.1h12.5
	c2.2,0,4.1,1.8,4.1,4.1V63.4z M59,46.4c0,2.2-1.8,4.1-4.1,4.1H42.4c-2.2,0-4.1-1.8-4.1-4.1V24.7c0-2.2,1.8-4.1,4.1-4.1h12.5
	c2.2,0,4.1,1.8,4.1,4.1V46.4z"/>
</svg>
