<?xml version="1.0" encoding="utf-8"?>
<!-- Generator: Adobe Illustrator 21.0.0, SVG Export Plug-In . SVG Version: 6.00 Build 0)  -->
<!DOCTYPE svg PUBLIC "-//W3C//DTD SVG 1.1//EN" "http://www.w3.org/Graphics/SVG/1.1/DTD/svg11.dtd">
<svg version="1.1" id="Ebene_1" xmlns="http://www.w3.org/2000/svg" xmlns:xlink="http://www.w3.org/1999/xlink" x="0px" y="0px"
	 width="283.5px" height="70.2px" viewBox="0 0 283.5 70.2" style="enable-background:new 0 0 283.5 70.2;" xml:space="preserve">
<path d="M284,43.2c0,0-0.1,0.1-0.1,0.1c-2.7,7.9-7.9,10.1-15.7,6.5c-0.1,0-0.2,0-0.4-0.1c0.6,2.9,1.3,5.7,1.6,8.6
	c0.2,2.3,0.3,4.8-0.1,7.1c-0.5,3.1-3,4.8-6,4.8c-2.7,0-5-1.8-5.4-4.9c-0.4-2.5-0.3-5.2,0.2-7.7c0.7-3.4,1.7-6.8,3.1-10
	c1.1-2.4,1.1-4.5,0-6.8c-0.3-0.6-0.5-1.2-0.9-2.2c-0.8,1.9-1.3,3.6-2.2,5.1c-1.3,2.2-2.6,4.5-4.2,6.4c-1.7,2-4.4,2.4-6.3,1.3
	c-2.2-1.2-2.4-3.3-2.3-5.5c0.1-2.4,0.4-4.9,0.3-7.3c0-0.8-0.8-2.1-1.4-2.2c-0.8-0.2-2.2,0.3-2.7,1c-1.1,1.4-2,3.1-2.7,4.8
	c-0.9,2.5-1.5,5.1-2.4,7.6c-0.3,0.8-1.2,1.9-1.9,2c-1.6,0.2-1.5-1.4-1.6-2.4c-0.2-3-0.2-6.1-0.5-9.1c-0.1-1.6-0.1-3.7-2-4.2
	c-2.1-0.5-3,1.4-3.7,3c-1.3,2.9-2.4,5.9-3.5,8.8c-0.3,0.8-0.3,1.8-0.8,2.4c-0.5,0.7-1.5,1.1-2.2,1.6c-0.4-0.7-1.2-1.3-1.2-2
	c-0.1-2.6,0-5.3,0.1-8c0-1.2,0-2.4,0-4.1c-1,2.1-1.8,3.8-2.7,5.4c-1.2,1.9-2.4,3.9-3.9,5.5c-3.6,3.7-7.7,2.9-9.8-1.9
	c-0.4-0.9-0.6-1.9-1-3.1c-0.4,0.5-0.7,1-1.1,1.4c-1.3,1.4-2.5,3-4.1,4c-3.6,2.4-7.4,0.6-7.8-3.7c-0.2-2.1,0-4.2-0.1-6.3
	c0-1.6,0.3-3.6-1.7-4.2c-1.9-0.6-3.3,0.9-3.9,2.4c-1.6,3.6-2.8,7.3-4.2,10.9c-0.2,0.6-0.4,1.3-0.5,1.9c-0.4,1.2-1.2,1.7-2.3,1.3
	c-0.7-0.3-1.5-1.2-1.6-1.9c-0.4-3.6-0.7-7.2-1-11.4c-0.7,0.8-1.2,1.4-1.7,1.9c-3,3.8-6.4,7.3-10.7,9.7c-10.3,5.9-21.9,1.6-25.9-9.6
	c-4.7-13.3,2.4-30,15-35.1c3.1-1.3,6.4-1.8,9.7-0.9c5.3,1.4,8.1,6.7,6,11.4c-0.6,1.3-2,2.4-3.2,3.4c-0.4,0.3-1.3-0.1-2-0.2
	c0.1-0.6,0.1-1.2,0.3-1.8c0.2-0.7,0.7-1.3,1-1.9c1.4-3.7-0.7-7.1-4.7-7.4c-4.1-0.3-7.5,1.4-10.5,3.9c-8.2,6.8-11.2,20.5-6.7,29.6
	c3.5,7,10.8,9.5,17.8,6.1c5.5-2.6,9.4-7,13.2-11.6c1.7-2,2.4-4.2,2.4-6.9c0.1-6.6,0.7-13.1,2.8-19.4c0.8-2.5,2.1-4.9,3.6-7
	c1.4-2.1,3.5-3.1,6.1-2.4c2.6,0.6,3.7,2.7,4,5.1c0.5,3.9-0.3,7.8-2.1,11.2c-2.8,5.1-5.9,10-9.2,14.8c-1.2,1.8-1.9,3.4-1.5,5.5
	c0.3,1.3,0.3,2.6,0.5,4.4c1-1.9,1.5-3.3,2.4-4.5c1.3-1.7,2.5-3.5,4.2-4.7c3.5-2.4,7.2-0.6,7.7,3.6c0.3,2.6,0.1,5.2,0.4,7.7
	c0.1,1.1,0.8,2.2,1.3,3.3c1.1-0.6,2.7-0.8,3.3-1.7c1.6-2.5,2.8-5.2,4.1-7.9c0.7-1.4,1.1-3,1.7-4.5c0.5-1.3,1.3-2.2,2.8-1.8
	c1.5,0.4,1.6,1.7,1.4,2.9c-0.2,2.4-0.6,4.9-0.8,7.3c-0.1,1.4-0.1,2.8,0.2,4.1c0.4,2.2,2.2,2.7,3.8,1.2c1-0.9,2-2,2.6-3.2
	c1.7-3.4,3.2-6.8,4.8-10.2c0.4-0.8,0.6-1.9,1.3-2.4c0.7-0.5,1.7-0.7,2.6-0.7c0.2,0,0.7,1.3,0.6,2c-0.1,3.1-0.4,6.1-0.2,9.3
	c0.8-1.4,1.5-2.9,2.6-4.1c1.2-1.5,2.5-2.9,4.1-3.9c2.5-1.5,5-0.6,6.2,2.2c0.6,1.4,0.8,2.9,1.3,4.4c1-1.5,2-3,3.1-4.4
	c1.3-1.5,2.9-2.5,5-2.6c2.9,0,5,1.3,5.3,4.3c0.3,2.7-0.1,5.4,0,8.1c0,1.1,0.5,2.3,0.8,3.4c1-0.7,2.5-1.2,3-2.2
	c1.9-3.7,3.4-7.6,5-11.4c0.3-0.6,0.3-1.4,0.7-1.8c0.4-0.5,1.2-0.9,1.8-0.9c0.5,0,1.2,0.6,1.4,1.1c0.9,2.2,1.7,4.4,2.5,6.7
	c1.8-2.1,3.3-4.3,5.2-6c3-2.8,7.4-3.1,10.3-0.5c1.5,1.3,2.3,3.4,3.4,5.2c0.3,0.4,0.4,1,0.5,1.4C284,40.8,284,42,284,43.2z
	 M279.8,41.2c0-0.4,0-1-0.2-1.6c-0.5-2.1-1.5-3.8-3.7-4.6c-2.1-0.7-3.8,0.3-5.2,1.7c-1.1,1.1-2,2.3-2.9,3.5c-2.5,3.8-2.1,5,2.1,6.9
	c0.5,0.2,1,0.4,1.5,0.5C276.1,49,279.8,46.1,279.8,41.2z M177.1,27.2c3.9-5.5,7.6-11.1,9-17.9c0.2-1.1,0.4-2.3,0.2-3.3
	c-0.1-0.7-0.8-1.7-1.4-1.9c-0.6-0.2-1.6,0.3-2.2,0.8c-0.7,0.6-1.2,1.4-1.5,2.3C178.3,13.5,177.4,20.3,177.1,27.2z M263.7,50
	c-1.5,4.4-3,8.7-2.8,13.3c0.1,1.6,0.6,2.9,2.4,3.1c1.8,0.1,2.5-1.1,2.7-2.5C266.6,59,265,54.5,263.7,50z"/>
<path d="M84.7,32c1.2-1.1,2.1-2.6,3.4-3.1c1.9-0.7,2.7,0.3,2.4,2.4c-0.5,3-1.3,6-1.8,9c-0.2,1.3-0.2,2.8,0.1,4.1
	c0.6,2.3,2.9,3.1,4.6,1.4c1.4-1.3,2.5-2.9,3.4-4.6c1.4-2.8,2.4-5.7,3.6-8.6c0.3-0.7,0.5-1.6,1.1-1.8c0.7-0.4,1.8-0.5,2.6-0.3
	c0.4,0.1,0.7,1.1,0.8,1.8c0.1,3.6,0.1,7.3,0.3,10.9c0.1,1.1,0.6,2.3,1.3,3.3c1,1.5,2.6,1.8,4.1,1c1.7-0.9,3.2-2.2,4.7-3.5
	c0.4-0.3,0.4-1.2,0.3-1.8c-2-9.5-1.6-19,1-28.3c0.8-2.7,2.3-5.4,4.1-7.6c3.1-3.6,7.8-2.3,9.3,2.3c1.5,4.6,0.9,9.3-0.1,14
	c-1.6,7-4.4,13.5-8.4,19.4c-0.6,0.9-1.8,1.7-0.9,3.1c1,1.6,2.1,3.3,4,3.1c1.6-0.2,3.1-1.2,4.6-1.8c0.8-0.3,1.6-0.5,2.3-0.8
	c0,0.9,0.2,2-0.2,2.8c-2,3.9-7.8,4.8-11.1,1.8c-1-0.9-1.9-2-2.8-3.1c-3,2.7-6.1,5.5-10.5,4.2c-4.4-1.2-5.4-5.2-6.4-9
	c-1.7,2.2-3.2,4.5-5.1,6.4c-2.5,2.5-5.7,2.9-8.1,1c-1.1-0.9-1.9-2.3-2.8-3.4c-4.6,7.1-8.8,8.3-14,3.8c-0.3,0.2-0.7,0.4-1.1,0.7
	c-2.6,2-5.5,2.9-8.5,1.2c-3.1-1.8-3.9-4.8-3.5-8.1c0.6-5.7,1.7-11.4,2.4-17.1c0.3-2.4,0.6-4.9,0.5-7.3c-0.1-1.1-0.8-2.8-1.7-3.2
	c-1-0.4-2.9-0.1-3.8,0.6c-1.5,1.2-2.9,2.8-3.7,4.6c-3.2,7.5-6.1,15.1-9.1,22.6c-0.7,1.7-1.3,3.5-1.9,5.2c-0.4,1.2-1.2,2.4-2.6,1.9
	c-0.7-0.3-1.5-1.7-1.5-2.6c0.1-6.6,0.6-13.2,0.7-19.9c0.1-4-0.1-8.1-0.2-12.1c0-0.2,0-0.4-0.1-0.6c-0.5-1.8-0.7-3.9-2.9-4.3
	c-2.2-0.4-3.8,1-4.6,2.7c-2.1,4.6-4,9.3-5.6,14.2c-2.2,6.7-4,13.6-6,20.4c-0.2,0.7-0.3,1.6-0.8,2c-0.8,0.6-1.9,1-2.9,1.1
	c-0.3,0-1-1.3-1-2c0.3-6.8,0.7-13.5,1-20.3c0.2-5.8,0.3-11.5,0.2-17.3c0-2-0.7-4-3.1-4.6c-2.1-0.6-4,0.3-5.5,2.7
	c-0.9,1.5-1.5,3.2-2.3,4.8c-0.3,0.7-0.6,1.4-0.9,2.1c-0.2,0-0.4,0.1-0.6,0.1c-0.4-0.9-1.1-1.7-1.2-2.6C-0.7,8.4,5.3,2.9,11.5,4.1
	c3.1,0.6,5.2,2.5,5.6,5.4c0.5,4,0.7,8,0.6,12c-0.1,4.9-0.6,9.7-0.7,14.6c1.4-4.7,2.7-9.5,4.3-14.2c1.1-3.2,2.5-6.4,4.1-9.4
	c0.8-1.5,2.1-3,3.5-4c3.9-3.1,8.9-1.6,10.7,3c1.4,3.7,1.3,7.7,1.2,11.6c-0.2,4.9-0.5,9.8-0.5,14.8c0.7-2.1,1.2-4.4,2.1-6.4
	c2.1-4.8,4.1-9.6,6.6-14.2c0.9-1.8,2.7-3.3,4.4-4.4c5.1-3.2,10.7-0.3,10.7,5.7c0,4.5-0.8,9-1.3,13.4c-0.5,3.8-1.1,7.6-1.6,11.4
	c-0.1,1,0,2,0.2,2.9c0.5,2,2.1,3.1,3.9,2.8c2.3-0.4,3.8-2,3.8-4c0-5.1,1.7-9.3,5.8-12.5C78.5,29.8,81.5,29.7,84.7,32z M118.8,39
	c0.5-0.6,0.7-0.8,0.8-1c3.4-5.9,5.8-12.2,6.7-19c0.4-2.9,0.2-5.9-0.1-8.9c-0.2-2.1-1.9-2.4-3.2-0.7c-0.8,1-1.4,2.2-1.9,3.5
	C117.9,21.2,117.8,29.8,118.8,39z M72.8,45.1c0.4,0.6,0.9,2.2,2,3c1.5,1.1,3.2,0.1,4.5-0.9c0.6-0.4,1.2-1,1.5-1.6
	c1.2-2.6,2.4-5.3,3.4-8c0.2-0.6-0.1-1.6-0.5-2.1c-1.3-1.9-3.5-2.2-5.6-0.8C74.6,36.9,73.2,40.2,72.8,45.1z"/>
<path d="M107.5,20.9c0,1.4-1.3,2.8-2.8,2.8c-1.6,0-2.9-1.1-2.9-2.6c0-1.5,1.2-2.8,2.8-2.8C106.1,18.1,107.5,19.5,107.5,20.9z"/>
<path d="M206.4,18.2c1.5,0,2.8,1.3,2.8,2.8c0,1.5-1.3,2.7-2.8,2.7c-1.6,0-2.8-1.2-2.8-2.7C203.6,19.4,204.9,18.2,206.4,18.2z"/>
</svg>
