<?xml version="1.0" encoding="utf-8"?>
<!-- Generator: Adobe Illustrator 21.0.0, SVG Export Plug-In . SVG Version: 6.00 Build 0)  -->
<!DOCTYPE svg PUBLIC "-//W3C//DTD SVG 1.1//EN" "http://www.w3.org/Graphics/SVG/1.1/DTD/svg11.dtd">
<svg version="1.1" id="Ebene_1" xmlns="http://www.w3.org/2000/svg" xmlns:xlink="http://www.w3.org/1999/xlink" x="0px" y="0px"
	 width="283.5px" height="64.6px" viewBox="0 0 283.5 64.6" style="enable-background:new 0 0 283.5 64.6;" xml:space="preserve">
<path d="M0,64.6C0,43.1,0,21.5,0,0c94.5,0,189,0,283.5,0c0,21.5,0,43.1,0,64.6C189,64.6,94.5,64.6,0,64.6z M243.9,35
	c-0.4-0.2-0.6-0.4-0.9-0.5c-4-1-8-2.1-12.1-3c-0.6-0.1-1.4,0.2-2,0.5c-4.7,2.6-9.3,5.6-14.2,7.8c-11.2,5.1-23.2,7.4-35.4,8.2
	c-10.4,0.7-20.8,0.1-31.1-1.3c-12.2-1.7-24.2-4.7-36-8.5c-0.4-0.1-0.9-0.2-1.4-0.4c0.2,0.5,0.5,0.8,0.8,1c17.7,11.3,37,17.8,58,19.3
	c11.1,0.7,22.2-0.1,33.1-2.7c14.7-3.4,28.2-9.3,39.8-19.1C242.9,35.9,243.3,35.5,243.9,35z M223.4,27.1c0.7,0.4,1.2,0.9,1.8,1
	c8.7,2.2,17.3,4.4,26,6.6c2.8,0.7,5-0.1,6.9-2.4c5.1-6.2,10.4-12.2,15.6-18.3c1.8-2.1,1.6-2.6-1.1-3.1c-0.1,0-0.3-0.1-0.4-0.1
	c-4.7-0.7-9.4-1.4-14.1-2.1c-1.8-0.3-3.6-0.5-5.4-0.7c-0.1,0.3-0.2,0.5-0.1,0.5c0.6,2.2,1.2,4.3,1.8,6.5c0.9,3.1,0.7,3.5-2.5,4.3
	c-0.1,0-0.2,0-0.3,0.1C242.2,22,233,24.5,223.4,27.1z M29.8,28c-0.6,0.2-1,0.3-1.5,0.4c-1.9,0.3-3.7,0.7-5.6,0.7
	c-4.5,0-7.4-3.3-7.3-7.8c0.1-4.5,3.1-7.7,7.5-7.6c2.2,0.1,4.4,0.8,6.7,1.2c0.1-1.2,0.3-2.6,0.5-4c0.2-1-0.2-1.5-1.1-1.6
	c-2.8-0.3-5.5-1-8.3-0.9C13.7,8.6,9.2,12.7,8.2,19.5c-0.9,5.9,1.5,11.7,8.2,14c4.2,1.4,8.5,1.2,12.7,0.2c0.4-0.1,0.9-0.8,0.9-1.2
	C30.1,31,29.9,29.6,29.8,28z M91.1,26.6c0.5,0,1,0,1.5,0c3.3,0,6.6,0,9.9,0c0.8,0,1.3-0.1,1.3-1.1c-0.1-6.6-3.2-11.5-11.1-10.8
	c-4.6,0.4-8,3.7-8.5,8.1c-0.6,5.1,1.6,9.2,6.1,10.8c3.6,1.3,7.3,1,10.9-0.1c0.3-0.1,0.8-0.5,0.8-0.7c0.1-1.4,0-2.8,0-3.8
	c-2.6,0.3-5,0.6-7.3,0.7C92.6,29.7,91.4,28.5,91.1,26.6z M62.1,26.6C63.2,19.2,59,14.4,52,14.6c-5,0.1-8.5,3.3-9.3,8.3
	c-0.8,4.8,1.8,9.2,6.4,10.8c3.5,1.2,7,0.9,10.5-0.1c0.4-0.1,0.9-0.6,1-0.9c0.1-1.3,0-2.7,0-4.2c-0.6,0.2-0.9,0.3-1.3,0.4
	c-2.1,0.3-4.1,0.7-6.2,0.7c-2,0-3.2-1.3-3.2-3.1C53.9,26.6,58,26.6,62.1,26.6z M134.8,21.2C134.6,21.4,134.7,21.3,134.8,21.2
	c3-1.4,4.4-3.4,4.1-6.1c-0.3-3.4-1.8-5.3-5.3-5.9c-3-0.5-6.1-0.3-9.1-0.6c-1.4-0.1-1.7,0.4-1.7,1.7c0.1,7.2,0,14.3,0,21.5
	c0,2.4-0.3,2.2,2.3,2.2c0.2,0,0.3,0,0.5,0c0.9,0.1,1.1-0.3,1.1-1.2c0-1.6,0-3.2,0-4.8c0-1.7,0-3.4,0-5c4.2-0.5,4.9-0.1,6.5,3.4
	c1,2.1,1.9,4.3,2.9,6.4c0.2,0.4,0.7,1,1.1,1.1c1.2,0.1,2.4,0.1,3.9,0.1C138.9,29.6,136.8,25.4,134.8,21.2z M73.6,27.8
	c-0.2-0.6-0.3-0.9-0.4-1.2c-1-3.4-2-6.8-3-10.2c-0.1-0.5-0.5-1.2-0.8-1.2c-2.2-0.1-4.3-0.1-6.5-0.1c0,0.4,0,0.6,0,0.7
	c2.1,5.8,4.3,11.6,6.5,17.4c0.2,0.4,0.9,0.8,1.3,0.8c1.7,0.1,3.4,0,5.1,0.1c1.1,0.1,1.6-0.4,1.9-1.4c1.9-5.4,3.9-10.7,5.9-16
	c0.2-0.4,0.3-0.9,0.5-1.7c-1.8,0-3.4,0.1-5,0c-1.3-0.1-1.9,0.4-2.2,1.6C75.8,20.3,74.7,23.9,73.6,27.8z M201.5,17.5
	c0-3.3-0.1-6.2,0-9.2c0.1-1.7-1.1-1.4-2.1-1.5c-1.1-0.1-1.7,0.1-1.7,1.5c0.1,8.1,0.1,16.2,0,24.3c0,1.5,0.8,1.5,1.8,1.4
	c1,0,2.1,0.2,2.1-1.5c-0.1-2.8-0.2-5.5,0-8.3c0.1-1.4,0.6-3,1.3-4.2c0.9-1.7,2.7-2.2,4.6-1.9c1.8,0.3,2.5,1.6,2.8,3.3
	c0.1,0.8,0.2,1.6,0.2,2.4c0,3,0,5.9,0,8.9c0,0.9,0.3,1.4,1.3,1.3c0.4,0,0.9,0,1.4,0c0.8,0.1,1.2-0.3,1.2-1.1c0-3.8,0.1-7.6-0.1-11.4
	c-0.1-3.5-2.1-5.7-5.3-6.4C206,14.6,203.7,15.4,201.5,17.5z M33,34.1c1.8,0,3.4-0.1,5,0c1.2,0.1,1.7-0.3,1.7-1.6
	c-0.1-2.7,0-5.5,0-8.3c0-5.3,0-10.5,0-15.8c0-1.2-0.3-1.8-1.6-1.7c-1.1,0.1-2.2,0.1-3.3,0c-1.5-0.2-2,0.4-2,1.9
	c0.1,7.9,0,15.7,0,23.6C32.8,32.8,32.9,33.4,33,34.1z M224.1,25.7c0.1,0.2,0.1,0.4,0.2,0.6c1-0.2,2-0.3,3-0.5
	c6.3-1.7,12.5-3.4,18.8-5.1c2.1-0.6,4.3-1.1,6.3-1.8c1.9-0.6,2.2-1.4,1.7-3.1c-0.6-2-1.1-3.9-1.7-5.9c-0.5-1.9-0.7-1.9-2.3-0.9
	c-8.3,5.3-16.6,10.7-24.9,16C224.8,25.2,224.4,25.5,224.1,25.7z M177.4,33.9c0-4.3,0.1-8.5,0-12.7c-0.1-3.4-2-5.6-5.4-5.9
	c-1.9-0.2-3.9,0-5.7,0.4c-2.7,0.7-2.8,1.3-2.2,3.6c2.1-0.4,4.2-1.1,6.2-1.1c2.4-0.1,3.7,1.9,3.1,4.2c-1.1,0-2.3-0.1-3.4,0
	c-1.5,0.2-3.1,0.4-4.5,0.9c-2.9,1.1-4.2,3.5-3.7,6.3c0.5,2.9,2.5,4.5,5.7,4.7c2.4,0.2,4.5-0.3,6.3-2.1
	C174.3,34.3,174.6,34.4,177.4,33.9z M159.3,25.6c0.1-2.9-0.3-5.5-1.8-7.8c-1-1.4-2.4-2.3-4.1-2.6c-6.1-1.3-10.8,2.5-11,8.8
	c-0.2,4.5,1.7,8.1,5,9.5c3.2,1.3,6.4,1.2,9.7,0c0.4-0.1,0.8-0.6,0.8-1c0.1-0.9,0-1.8,0-2.8c-2.5,1-4.7,2.1-7.2,1.5
	c-2.6-0.7-4.5-3.2-4-5.5C150.9,25.6,155,25.6,159.3,25.6z M112.8,17.8c0-0.5-0.1-0.7,0-0.9c0.3-1.6-0.5-2-1.9-1.9c-1,0.1-2,0-3,0
	c-0.8,0-1.3,0.2-1.3,1.2c0,5.6,0,11.1,0,16.7c0,0.9,0.4,1.2,1.2,1.2c1.1-0.1,2.2,0,3.3,0c2.2,0,2.2,0,2.2-2.2c0-2.3,0-4.6,0.1-6.9
	c0.1-2.5,1.4-4.2,3.4-4.5c1.1-0.2,2.7,0.1,3.2-0.5c0.6-0.8,0.3-2.3,0.4-3.5c0-0.1,0-0.2,0-0.3c0.3-1.1-0.3-1.5-1.3-1.6
	C116.5,14.4,114.4,15.3,112.8,17.8z M194.1,18.8c0.8-2,0.7-2.9-0.3-3.3c-5.1-1.6-11.1,0.4-12.6,6.6c-1.6,6.5,2.9,12.9,10.3,12.3
	c3.2-0.3,3.4-0.4,3.1-3.5c0-0.1-0.1-0.3-0.2-0.5c-3,1.2-5.9,1.5-8.1-1.4c-1.7-2.2-1.8-6.1-0.2-8.5C188.1,17.5,191,17.8,194.1,18.8z"
	/>
<path d="M97.6,22.4c-2.2,0-4.4,0-6.5,0c0-1.9,1.1-3.2,2.8-3.4C95.9,18.9,97.1,19.9,97.6,22.4z"/>
<path d="M49.6,22.4c0.3-2.3,1.5-3.5,3.5-3.3c1.8,0.1,2.9,1.3,2.9,3.3C53.9,22.4,51.8,22.4,49.6,22.4z"/>
<path d="M126.6,19.7c0-2.4,0-4.4,0-6.4c0-0.3,0.5-0.9,0.8-0.9c1.5,0,3,0,4.5,0.2c1.6,0.3,2.5,1.4,2.6,2.8c0.1,1.8-0.6,3.1-2.3,3.5
	C130.6,19.4,128.7,19.4,126.6,19.7z"/>
<path d="M174,26.8c-0.4,3.3-3.3,5.4-6.3,4.3c-1.1-0.4-1.9-1.1-2-2.4c-0.1-1.3,0.5-2.3,1.6-2.6c1.9-0.5,3.8-0.7,5.7-0.8
	C173.3,25.4,173.7,26.3,174,26.8z"/>
<path d="M146.5,22.7c0.7-3.4,2.7-5,5.4-4.5c2.1,0.4,3.5,2.3,3.2,4.5C152.3,22.7,149.5,22.7,146.5,22.7z"/>
</svg>
