<svg id="Ebene_1" data-name="Ebene 1" xmlns="http://www.w3.org/2000/svg" viewBox="0 0 26.75 23.83">
  <title>wald</title>
  <g>
    <path d="M3.68,16.77H3.6a.74.74,0,0,0-.23.1.49.49,0,0,0-.2.25,1.66,1.66,0,0,1-.15.3q-.16.29-.3.6t-.3.6L1.58,20.3Q1.17,21.14.73,22l-.2.42-.21.43-.23.42a2.05,2.05,0,0,0-.08.28.2.2,0,0,0,.11.23.62.62,0,0,0,.24.06.85.85,0,0,0,.29,0l.14,0,.11,0a.69.69,0,0,0,.16-.18l.12-.21L1.34,23l.15-.32.07-.12.07-.12a2.6,2.6,0,0,0,.14-.29,1.6,1.6,0,0,1,.14-.28L2,21.64c0-.07.07-.14.11-.22l.26-.54.28-.54q.13-.24.24-.49c.07-.16.15-.33.24-.49a3.09,3.09,0,0,0,.2-.4,2.31,2.31,0,0,1,.2-.38.89.89,0,0,0,.11-.19.25.25,0,0,1,.16-.14.19.19,0,0,1,.21.07.91.91,0,0,1,.11.16A3.51,3.51,0,0,1,4.4,19q.11.26.25.51l.92,1.84q.45.91.92,1.82l.17.36a.55.55,0,0,0,.27.26.16.16,0,0,0,.09,0l.09,0a.59.59,0,0,0,.28,0l.14,0a.19.19,0,0,0,.11,0,.22.22,0,0,0,.11-.22.81.81,0,0,0-.08-.27L7.57,23l-.12-.22-.21-.43L7,22,6.56,21l-.47-.92-.22-.46c-.07-.15-.15-.31-.24-.46l-.07-.13-.07-.15q-.13-.25-.25-.5A3.72,3.72,0,0,0,5,18a.24.24,0,0,1,0-.1.26.26,0,0,0,0-.1l-.15-.3a3,3,0,0,0-.15-.29,1.82,1.82,0,0,1-.13-.2.42.42,0,0,0-.16-.16.54.54,0,0,0-.25,0H3.68" style="fill: #fff"/>
    <path d="M13.17,13.54H13.1a.74.74,0,0,0-.23.1.49.49,0,0,0-.2.25,1.66,1.66,0,0,1-.15.3q-.16.29-.3.6t-.3.6l-.84,1.68q-.42.84-.86,1.67l-.2.42-.21.43L9.59,20a2.05,2.05,0,0,0-.08.28.2.2,0,0,0,.11.23.62.62,0,0,0,.24.06.85.85,0,0,0,.29,0l.14,0,.11,0a.69.69,0,0,0,.16-.18l.12-.21.16-.32.15-.32.07-.12.07-.12a2.6,2.6,0,0,0,.14-.29,1.6,1.6,0,0,1,.14-.28l.12-.24c0-.07.07-.14.11-.22l.26-.54.28-.54q.13-.24.24-.49c.07-.16.15-.33.24-.49a3.09,3.09,0,0,0,.2-.4,2.31,2.31,0,0,1,.2-.38.89.89,0,0,0,.11-.19.25.25,0,0,1,.16-.14.19.19,0,0,1,.21.07.91.91,0,0,1,.11.16,3.51,3.51,0,0,1,.26.49q.11.26.25.51l.92,1.84q.45.91.92,1.82l.17.36a.55.55,0,0,0,.27.26.16.16,0,0,0,.09,0l.09,0a.59.59,0,0,0,.28,0l.14,0a.19.19,0,0,0,.11,0,.22.22,0,0,0,.11-.22.81.81,0,0,0-.08-.27l-.11-.22-.12-.22-.21-.43-.21-.43-.46-.92-.47-.92-.22-.46c-.07-.15-.15-.31-.24-.46l-.07-.13L15,15.7q-.13-.25-.24-.5a3.72,3.72,0,0,0-.26-.48.24.24,0,0,1,0-.1.26.26,0,0,0,0-.1l-.15-.3a3,3,0,0,0-.15-.29,1.82,1.82,0,0,1-.13-.2.42.42,0,0,0-.16-.16.54.54,0,0,0-.25,0h-.38" style="fill: #fff"/>
    <path d="M22.67,16.47H22.6a.74.74,0,0,0-.23.1.49.49,0,0,0-.2.25,1.66,1.66,0,0,1-.15.3q-.16.29-.3.6t-.3.6L20.58,20q-.42.84-.86,1.67l-.2.42-.21.43-.23.42a2.05,2.05,0,0,0-.08.28.2.2,0,0,0,.11.23.62.62,0,0,0,.24.06.85.85,0,0,0,.29,0l.14,0,.11,0a.69.69,0,0,0,.16-.18l.12-.21.16-.32.15-.32.07-.12.07-.12a2.6,2.6,0,0,0,.14-.29,1.6,1.6,0,0,1,.14-.28l.12-.24c0-.07.07-.14.11-.22l.26-.54.28-.54q.13-.24.24-.49c.07-.16.15-.33.24-.49a3.09,3.09,0,0,0,.2-.4,2.31,2.31,0,0,1,.2-.38.89.89,0,0,0,.11-.19.25.25,0,0,1,.16-.14A.19.19,0,0,1,23,18a.91.91,0,0,1,.11.16,3.51,3.51,0,0,1,.26.49q.11.26.25.51L24.57,21q.45.91.92,1.82l.17.36a.55.55,0,0,0,.27.26.16.16,0,0,0,.09,0l.09,0a.59.59,0,0,0,.28,0l.14,0a.19.19,0,0,0,.11,0,.22.22,0,0,0,.11-.22.81.81,0,0,0-.08-.27l-.11-.22-.12-.22-.21-.43L26,21.66l-.46-.92-.47-.92-.22-.46c-.07-.15-.15-.31-.24-.46l-.07-.13-.07-.15q-.13-.25-.24-.5a3.72,3.72,0,0,0-.26-.48.24.24,0,0,1,0-.1.26.26,0,0,0,0-.1l-.15-.3a3,3,0,0,0-.15-.29,1.82,1.82,0,0,1-.13-.2.42.42,0,0,0-.16-.16.54.54,0,0,0-.25,0h-.38" style="fill: #fff"/>
    <path d="M3.68,9.83H3.6a.74.74,0,0,0-.23.1.49.49,0,0,0-.2.25,1.66,1.66,0,0,1-.15.3q-.16.29-.3.6t-.3.6l-.84,1.68Q1.17,14.2.73,15l-.2.42-.21.43-.23.42a2.05,2.05,0,0,0-.08.28.2.2,0,0,0,.11.23.62.62,0,0,0,.24.06.85.85,0,0,0,.29,0l.14,0,.11,0a.69.69,0,0,0,.16-.18l.12-.21.16-.32.15-.32.07-.12.07-.12a2.6,2.6,0,0,0,.14-.29,1.6,1.6,0,0,1,.14-.28L2,14.7c0-.07.07-.14.11-.22l.26-.54.28-.54q.13-.24.24-.49c.07-.16.15-.33.24-.49a3.09,3.09,0,0,0,.2-.4,2.31,2.31,0,0,1,.2-.38.89.89,0,0,0,.11-.19.25.25,0,0,1,.16-.14.19.19,0,0,1,.21.07.91.91,0,0,1,.11.16A3.51,3.51,0,0,1,4.4,12q.11.26.25.51l.92,1.84q.45.91.92,1.82l.17.36a.55.55,0,0,0,.27.26.16.16,0,0,0,.09,0l.09,0a.59.59,0,0,0,.28,0l.14,0a.19.19,0,0,0,.11,0,.22.22,0,0,0,.11-.22.81.81,0,0,0-.08-.27l-.11-.22-.12-.22-.21-.43L7,15l-.46-.92-.47-.92-.22-.46c-.07-.15-.15-.31-.24-.46l-.07-.13L5.5,12q-.13-.25-.25-.5A3.72,3.72,0,0,0,5,11a.24.24,0,0,1,0-.1.26.26,0,0,0,0-.1l-.15-.3a3,3,0,0,0-.15-.29,1.82,1.82,0,0,1-.13-.2.42.42,0,0,0-.16-.16.54.54,0,0,0-.25,0H3.68" style="fill: #fff"/>
    <path d="M13.17,6.6H13.1a.74.74,0,0,0-.23.1.49.49,0,0,0-.2.25,1.66,1.66,0,0,1-.15.3q-.16.29-.3.6t-.3.6l-.84,1.68q-.42.84-.86,1.67l-.2.42-.21.43-.23.42a2.05,2.05,0,0,0-.08.28.2.2,0,0,0,.11.23.62.62,0,0,0,.24.06.85.85,0,0,0,.29,0l.14,0,.11,0a.69.69,0,0,0,.16-.18l.12-.21.16-.32.15-.32.07-.12.07-.12a2.6,2.6,0,0,0,.14-.29,1.6,1.6,0,0,1,.14-.28l.12-.24c0-.07.07-.14.11-.22l.26-.54.28-.54q.13-.24.24-.49c.07-.16.15-.33.24-.49a3.09,3.09,0,0,0,.2-.4A2.31,2.31,0,0,1,13,8.4a.89.89,0,0,0,.11-.19.25.25,0,0,1,.16-.14.19.19,0,0,1,.21.07.91.91,0,0,1,.11.16,3.51,3.51,0,0,1,.26.49q.11.26.25.51l.92,1.84Q15.52,12,16,13l.17.36a.55.55,0,0,0,.27.26.16.16,0,0,0,.09,0l.09,0a.59.59,0,0,0,.28,0l.14,0a.19.19,0,0,0,.11,0,.22.22,0,0,0,.11-.22.81.81,0,0,0-.08-.27l-.11-.22-.12-.22-.21-.43-.21-.43-.46-.92L15.59,10l-.22-.46c-.07-.15-.15-.31-.24-.46l-.07-.13L15,8.76q-.13-.25-.24-.5a3.72,3.72,0,0,0-.26-.48.24.24,0,0,1,0-.1.26.26,0,0,0,0-.1l-.15-.3A3,3,0,0,0,14.1,7a1.82,1.82,0,0,1-.13-.2.42.42,0,0,0-.16-.16.54.54,0,0,0-.25,0h-.38" style="fill: #fff"/>
    <path d="M22.67,9.52H22.6a.74.74,0,0,0-.23.1.49.49,0,0,0-.2.25,1.66,1.66,0,0,1-.15.3q-.16.29-.3.6t-.3.6l-.84,1.68q-.42.84-.86,1.67l-.2.42-.21.43-.23.42a2.05,2.05,0,0,0-.08.28.2.2,0,0,0,.11.23.62.62,0,0,0,.24.06.85.85,0,0,0,.29,0l.14,0,.11,0a.69.69,0,0,0,.16-.18l.12-.21.16-.32.15-.32.07-.12.07-.12a2.6,2.6,0,0,0,.14-.29,1.6,1.6,0,0,1,.14-.28L21,14.4c0-.07.07-.14.11-.22l.26-.54.28-.54q.13-.24.24-.49c.07-.16.15-.33.24-.49a3.09,3.09,0,0,0,.2-.4,2.31,2.31,0,0,1,.2-.38.89.89,0,0,0,.11-.19.25.25,0,0,1,.16-.14.19.19,0,0,1,.21.07.91.91,0,0,1,.11.16,3.51,3.51,0,0,1,.26.49q.11.26.25.51l.92,1.84q.45.91.92,1.82l.17.36a.55.55,0,0,0,.27.26.16.16,0,0,0,.09,0l.09,0a.59.59,0,0,0,.28,0l.14,0a.19.19,0,0,0,.11,0,.22.22,0,0,0,.11-.22.81.81,0,0,0-.08-.27l-.11-.22-.12-.22-.21-.43L26,14.71l-.46-.92-.47-.92-.22-.46c-.07-.15-.15-.31-.24-.46l-.07-.13-.07-.15q-.13-.25-.24-.5a3.72,3.72,0,0,0-.26-.48.24.24,0,0,1,0-.1.26.26,0,0,0,0-.1l-.15-.3a3,3,0,0,0-.15-.29,1.82,1.82,0,0,1-.13-.2.42.42,0,0,0-.16-.16.54.54,0,0,0-.25,0h-.38" style="fill: #fff"/>
    <path d="M3.68,3.24H3.6a.74.74,0,0,0-.23.1.49.49,0,0,0-.2.25A1.66,1.66,0,0,1,3,3.9q-.16.29-.3.6t-.3.6L1.58,6.77q-.42.84-.86,1.67l-.2.42L.32,9.3l-.23.42A2.05,2.05,0,0,0,0,10a.2.2,0,0,0,.11.23.62.62,0,0,0,.24.06.85.85,0,0,0,.29,0l.14,0,.11,0A.69.69,0,0,0,1.06,10l.12-.21.16-.32.15-.32L1.56,9l.07-.12a2.6,2.6,0,0,0,.14-.29,1.6,1.6,0,0,1,.14-.28L2,8.11c0-.07.07-.14.11-.22l.26-.54.28-.54q.13-.24.24-.49c.07-.16.15-.33.24-.49a3.09,3.09,0,0,0,.2-.4A2.31,2.31,0,0,1,3.54,5a.89.89,0,0,0,.11-.19.25.25,0,0,1,.16-.14A.19.19,0,0,1,4,4.78a.91.91,0,0,1,.11.16,3.51,3.51,0,0,1,.26.49q.11.26.25.51l.92,1.84q.45.91.92,1.82l.17.36a.55.55,0,0,0,.27.26.16.16,0,0,0,.09,0l.09,0a.59.59,0,0,0,.28,0l.14,0a.19.19,0,0,0,.11,0A.22.22,0,0,0,7.75,10a.81.81,0,0,0-.08-.27l-.11-.22L7.44,9.3l-.21-.43L7,8.43l-.46-.92L6.09,6.6l-.22-.46c-.07-.15-.15-.31-.24-.46l-.07-.13L5.5,5.41q-.13-.25-.25-.5A3.72,3.72,0,0,0,5,4.42a.24.24,0,0,1,0-.1.26.26,0,0,0,0-.1l-.15-.3a3,3,0,0,0-.15-.29,1.82,1.82,0,0,1-.13-.2.42.42,0,0,0-.16-.16.54.54,0,0,0-.25,0H3.68" style="fill: #fff"/>
    <path d="M13.17,0H13.1a.74.74,0,0,0-.23.1.49.49,0,0,0-.2.25,1.66,1.66,0,0,1-.15.3q-.16.29-.3.6t-.3.6l-.84,1.68q-.42.84-.86,1.67l-.2.42-.21.43-.23.42a2.05,2.05,0,0,0-.08.28A.2.2,0,0,0,9.62,7a.62.62,0,0,0,.24.06.85.85,0,0,0,.29,0l.14,0,.11,0a.69.69,0,0,0,.16-.18l.12-.21.16-.32L11,5.93l.07-.12.07-.12a2.6,2.6,0,0,0,.14-.29,1.6,1.6,0,0,1,.14-.28l.12-.24c0-.07.07-.14.11-.22l.26-.54.28-.54q.13-.24.24-.49c.07-.16.15-.33.24-.49a3.09,3.09,0,0,0,.2-.4,2.31,2.31,0,0,1,.2-.38.89.89,0,0,0,.11-.19.25.25,0,0,1,.16-.14.19.19,0,0,1,.21.07.91.91,0,0,1,.11.16,3.51,3.51,0,0,1,.26.49q.11.26.25.51l.92,1.84q.45.91.92,1.82l.17.36a.55.55,0,0,0,.27.26.16.16,0,0,0,.09,0l.09,0a.59.59,0,0,0,.28,0L17,7a.19.19,0,0,0,.11,0,.22.22,0,0,0,.11-.22.81.81,0,0,0-.08-.27l-.11-.22-.12-.22-.21-.43-.21-.43-.46-.92-.47-.92-.22-.46c-.07-.15-.15-.31-.24-.46l-.07-.13L15,2.17q-.13-.25-.24-.5a3.72,3.72,0,0,0-.26-.48.24.24,0,0,1,0-.1.26.26,0,0,0,0-.1l-.15-.3A3,3,0,0,0,14.1.41,1.82,1.82,0,0,1,14,.2.42.42,0,0,0,13.8,0a.54.54,0,0,0-.25,0h-.38" style="fill: #fff"/>
    <path d="M22.67,2.94H22.6a.74.74,0,0,0-.23.1.49.49,0,0,0-.2.25,1.66,1.66,0,0,1-.15.3q-.16.29-.3.6t-.3.6l-.84,1.68q-.42.84-.86,1.67l-.2.42L19.31,9l-.23.42A2.05,2.05,0,0,0,19,9.7a.2.2,0,0,0,.11.23.62.62,0,0,0,.24.06.85.85,0,0,0,.29,0l.14,0,.11,0a.69.69,0,0,0,.16-.18l.12-.21.16-.32.15-.32.07-.12.07-.12a2.6,2.6,0,0,0,.14-.29A1.6,1.6,0,0,1,20.9,8L21,7.81c0-.07.07-.14.11-.22L21.39,7l.28-.54q.13-.24.24-.49c.07-.16.15-.33.24-.49a3.09,3.09,0,0,0,.2-.4,2.31,2.31,0,0,1,.2-.38.89.89,0,0,0,.11-.19.25.25,0,0,1,.16-.14.19.19,0,0,1,.21.07.91.91,0,0,1,.11.16,3.51,3.51,0,0,1,.26.49q.11.26.25.51l.92,1.84q.45.91.92,1.82l.17.36a.55.55,0,0,0,.27.26A.16.16,0,0,0,26,10l.09,0a.59.59,0,0,0,.28,0l.14,0a.19.19,0,0,0,.11,0,.22.22,0,0,0,.11-.22.81.81,0,0,0-.08-.27l-.11-.22L26.44,9l-.21-.43L26,8.13l-.46-.92-.47-.92-.22-.46c-.07-.15-.15-.31-.24-.46l-.07-.13L24.5,5.1q-.13-.25-.24-.5A3.72,3.72,0,0,0,24,4.12a.24.24,0,0,1,0-.1.26.26,0,0,0,0-.1l-.15-.3a3,3,0,0,0-.15-.29,1.82,1.82,0,0,1-.13-.2A.42.42,0,0,0,23.3,3a.54.54,0,0,0-.25,0h-.38" style="fill: #fff"/>
  </g>
</svg>
