<?xml version="1.0" encoding="utf-8"?>
<!-- Generator: Adobe Illustrator 20.1.0, SVG Export Plug-In . SVG Version: 6.00 Build 0)  -->
<!DOCTYPE svg PUBLIC "-//W3C//DTD SVG 1.1//EN" "http://www.w3.org/Graphics/SVG/1.1/DTD/svg11.dtd">
<svg version="1.1" id="Ebene_1" xmlns="http://www.w3.org/2000/svg" xmlns:xlink="http://www.w3.org/1999/xlink" x="0px" y="0px"
	 width="283.5px" height="283.5px" viewBox="0 0 283.5 283.5" style="enable-background:new 0 0 283.5 283.5;" xml:space="preserve"
	>
<path style="fill:#FFFFFF;" d="M141.7,10.3c-72.5,0-131.4,58.9-131.4,131.4c0,72.5,58.9,131.4,131.4,131.4s131.4-58.9,131.4-131.4
	C273.1,69.3,214.2,10.3,141.7,10.3z"/>
<path style="fill:#2DAC81;" d="M141.7,283.5C63.6,283.5,0,219.9,0,141.7S63.6,0,141.7,0c78.1,0,141.7,63.6,141.7,141.7
	S219.9,283.5,141.7,283.5z M141.7,10.3c-72.5,0-131.4,58.9-131.4,131.4c0,72.5,58.9,131.4,131.4,131.4s131.4-58.9,131.4-131.4
	C273.1,69.3,214.2,10.3,141.7,10.3z"/>
<rect x="0" style="fill:none;" width="283.5" height="283.5"/>
<path style="fill:#2DAC81;" d="M224.1,236.6H59.4V102.5H41.2L141.7,13l100.6,89.5h-18.2V236.6z M69.7,226.3h144.1V92.2h1.4
	l-73.4-65.3L68.3,92.2h1.4V226.3z"/>
<polygon style="fill:#FFFFFF;" points="213.8,226.3 213.8,92.2 215.1,92.2 141.7,26.8 68.3,92.2 69.7,92.2 69.7,226.3 "/>
<path style="fill:#E74914;" d="M170.5,209.9l-25.3-45.1c-0.8-1.5-2.4-2.2-4-2.1c-1.6-0.2-3.2,0.6-4,2.1l-25.3,45.1
	c-1.1,2-0.4,4.5,1.6,5.6c0.6,0.4,1.3,0.5,2,0.5c1.4,0,2.8-0.8,3.6-2.1l22.1-39.5l22.1,39.5c0.8,1.3,2.1,2.1,3.6,2.1
	c0.7,0,1.4-0.2,2-0.5C170.9,214.4,171.6,211.9,170.5,209.9z"/>
<path style="fill:#2DAC81;" d="M83.2,101.1v68.3h115.9v-68.3H83.2z M128.8,142.4H92.5v-30.7h36.3V142.4z M130.9,162.3l18.1-30.7
	l18.1,30.7H130.9z M172.8,139.7c-10,0-18.1-6.9-18.1-15.4c0-8.5,8.1-15.4,18.1-15.4c10,0,18.1,6.9,18.1,15.4
	C190.9,132.8,182.8,139.7,172.8,139.7z"/>
<rect x="0" style="fill:none;" width="283.5" height="283.5"/>
</svg>
