<?xml version="1.0" encoding="utf-8"?>
<!-- Generator: Adobe Illustrator 20.1.0, SVG Export Plug-In . SVG Version: 6.00 Build 0)  -->
<!DOCTYPE svg PUBLIC "-//W3C//DTD SVG 1.1//EN" "http://www.w3.org/Graphics/SVG/1.1/DTD/svg11.dtd">
<svg version="1.1" id="Ebene_1" xmlns="http://www.w3.org/2000/svg" xmlns:xlink="http://www.w3.org/1999/xlink" x="0px" y="0px"
	 width="283.5px" height="283.5px" viewBox="0 0 283.5 283.5" style="enable-background:new 0 0 283.5 283.5;" xml:space="preserve"
	>
<path style="fill:#FFFFFF;" d="M141.7,10.3c-72.5,0-131.4,58.9-131.4,131.4c0,34.8,13.6,66.5,35.8,90c1.5-10.7,10.7-18.9,21.8-18.9
	c12.2,0,22.1,9.9,22.1,22.1c0,0,0,0,0,0v27.6c15.9,6.8,33.3,10.6,51.7,10.6c72.5,0,131.4-58.9,131.4-131.4
	C273.1,69.3,214.2,10.3,141.7,10.3z M67.9,205.2c-8.3,0-14.9-6.7-14.9-14.9c0-8.3,6.7-14.9,14.9-14.9c8.3,0,14.9,6.7,14.9,14.9
	C82.9,198.5,76.2,205.2,67.9,205.2z"/>
<rect x="0" y="0" style="fill:none;" width="283.5" height="283.5"/>
<path style="fill:#E74914;" d="M178.1,218.2l-31.9-57c-1-1.9-3-2.8-5-2.6c-2-0.2-4,0.8-5,2.6l-31.9,57c-1.4,2.5-0.5,5.6,2,7
	c0.8,0.4,1.7,0.7,2.5,0.7c1.8,0,3.6-1,4.5-2.6l27.9-49.8l27.9,49.8c0.9,1.7,2.7,2.6,4.5,2.6c0.9,0,1.7-0.2,2.5-0.7
	C178.7,223.8,179.5,220.7,178.1,218.2z"/>
<path style="fill:#2DAC81;" d="M67.9,80.8v86.2h146.3V80.8H67.9z M125.5,132.9H79.8V94.1h45.8V132.9z M128.2,158l22.9-38.8L174,158
	H128.2z M181.1,129.5c-12.6,0-22.9-8.7-22.9-19.4s10.2-19.4,22.9-19.4c12.6,0,22.9,8.7,22.9,19.4S193.8,129.5,181.1,129.5z"/>
<rect x="0" y="0" style="fill:none;" width="283.5" height="283.5"/>
<rect x="0" y="0" style="fill:none;" width="283.5" height="283.5"/>
<g>
	<path style="fill:#2DAC81;" d="M141.7,0C63.6,0,0,63.6,0,141.7s63.6,141.7,141.7,141.7s141.7-63.6,141.7-141.7S219.9,0,141.7,0z
		 M141.7,273.1c-18.3,0-35.8-3.8-51.7-10.6v-27.6c0,0,0,0,0,0c0-12.2-9.9-22.1-22.1-22.1c-11.1,0-20.3,8.2-21.8,18.9
		c-22.2-23.5-35.8-55.2-35.8-90c0-72.5,58.9-131.4,131.4-131.4c72.5,0,131.4,58.9,131.4,131.4C273.1,214.2,214.2,273.1,141.7,273.1z
		"/>
	<circle style="fill:#2DAC81;" cx="67.9" cy="190.2" r="14.9"/>
</g>
<g>
	<circle style="fill:#E74914;" cx="213.8" cy="158.7" r="14.9"/>
	<path style="fill:#E74914;" d="M213.8,181.3c-12.2,0-22.1,9.9-22.1,22.1c0,0,0,0,0,0v44.2h27.7c5.9-4.3,11.4-9.1,16.5-14.4v-29.8
		c0,0,0,0,0,0C235.9,191.2,226,181.3,213.8,181.3z"/>
	<path style="fill:#E74914;" d="M235.9,247.7L235.9,247.7c0-0.1-0.1,0-0.1,0H235.9z"/>
</g>
</svg>
