<?xml version="1.0" encoding="utf-8"?>
<!-- Generator: Adobe Illustrator 20.0.0, SVG Export Plug-In . SVG Version: 6.00 Build 0)  -->
<!DOCTYPE svg PUBLIC "-//W3C//DTD SVG 1.1//EN" "http://www.w3.org/Graphics/SVG/1.1/DTD/svg11.dtd">
<svg version="1.1" id="Ebene_1" xmlns="http://www.w3.org/2000/svg" xmlns:xlink="http://www.w3.org/1999/xlink" x="0px" y="0px"
	 width="7.8px" height="7.1px" viewBox="0 0 7.8 7.1" style="enable-background:new 0 0 7.8 7.1;" xml:space="preserve">
<path class="st0" d="M3.7,0L3.7,0C3.5,0,3.4,0.1,3.4,0.1C3.3,0.2,3.2,0.2,3.2,0.3c0,0.1-3.1,6.1-3.1,6.1C0,6.6,0,6.7,0,6.8
	C0,6.9,0,7,0.1,7c0.1,0,0.2,0.1,0.2,0.1c0.1,0,0.3,0,0.5-0.1C1,7,1,6.9,1.1,6.8c0,0,2.6-5.1,2.6-5.2c0-0.1,0.1-0.1,0.2-0.1
	c0.1,0,0.2,0,0.2,0.1c0,0,0.1,0.1,0.1,0.2c0.1,0.2,2.5,5,2.5,5C6.7,6.9,6.8,7,6.9,7c0,0,0.6,0,0.7,0c0.1,0,0.1-0.1,0.1-0.2
	c0-0.1,0-0.2-0.1-0.3L7.5,6.3c0,0-1.8-3.7-1.9-3.9c0,0-1.1-2.2-1.1-2.2c0-0.1-0.1-0.1-0.2-0.2C4.2,0,4.1,0,4.1,0H3.7"/>
</svg>
