<svg id="Ebene_1" data-name="Ebene 1" xmlns="http://www.w3.org/2000/svg" viewBox="0 0 17.56 7.07">
  <title>fuchs</title>
  <path d="M13.48,0h-.07a.74.74,0,0,0-.23.1.49.49,0,0,0-.2.25,1.66,1.66,0,0,1-.15.3q-.16.29-.3.6t-.3.6l-.84,1.68q-.42.84-.86,1.67l-.2.42-.21.43-.23.42a2.21,2.21,0,0,0-.08.28A.2.2,0,0,0,9.93,7a.62.62,0,0,0,.24.06.85.85,0,0,0,.29,0l.14,0,.11,0a.71.71,0,0,0,.16-.18L11,6.57l.16-.32.16-.32.06-.12.07-.12a2.6,2.6,0,0,0,.14-.29,1.6,1.6,0,0,1,.14-.28l.12-.24c0-.07.07-.14.11-.22l.26-.54.28-.54q.13-.24.24-.49c.07-.16.15-.33.24-.49a3.09,3.09,0,0,0,.2-.4,2.31,2.31,0,0,1,.2-.38.89.89,0,0,0,.11-.19.25.25,0,0,1,.16-.14.19.19,0,0,1,.21.07.91.91,0,0,1,.11.16,3.51,3.51,0,0,1,.26.49q.11.26.25.51l.92,1.84q.45.91.92,1.82l.17.36a.55.55,0,0,0,.27.26.16.16,0,0,0,.09,0l.09,0a.59.59,0,0,0,.28,0l.14,0a.19.19,0,0,0,.11,0,.22.22,0,0,0,.11-.22.81.81,0,0,0-.08-.27l-.11-.22-.12-.22L17,5.63l-.21-.43-.46-.92-.47-.92-.22-.46c-.07-.15-.15-.31-.24-.46l-.07-.13-.07-.15q-.13-.25-.24-.5a3.72,3.72,0,0,0-.26-.48.24.24,0,0,1,0-.1.26.26,0,0,0,0-.1l-.16-.3a2.84,2.84,0,0,0-.16-.29L14.28.2A.42.42,0,0,0,14.11,0a.54.54,0,0,0-.24,0h-.38M3.68,0H3.6a.74.74,0,0,0-.23.1.49.49,0,0,0-.2.25A1.66,1.66,0,0,1,3,.67q-.16.29-.3.6t-.3.6L1.58,3.54q-.42.84-.86,1.67l-.2.42-.21.43-.23.42A2.21,2.21,0,0,0,0,6.77.2.2,0,0,0,.12,7a.62.62,0,0,0,.25.06A.85.85,0,0,0,.66,7L.8,7,.9,7a.71.71,0,0,0,.16-.18l.12-.21.16-.32.15-.32.06-.12.07-.12a2.6,2.6,0,0,0,.14-.29,1.6,1.6,0,0,1,.14-.28L2,4.88c0-.07.07-.14.11-.22l.26-.54.28-.54q.13-.24.24-.49c.07-.16.15-.33.24-.49a3.09,3.09,0,0,0,.2-.4,2.31,2.31,0,0,1,.2-.38.89.89,0,0,0,.11-.19.25.25,0,0,1,.16-.14A.19.19,0,0,1,4,1.55a.91.91,0,0,1,.11.16,3.51,3.51,0,0,1,.26.49q.11.26.25.51l.92,1.84q.45.91.92,1.82l.17.36A.55.55,0,0,0,6.94,7,.16.16,0,0,0,7,7l.09,0a.59.59,0,0,0,.28,0l.14,0a.19.19,0,0,0,.11,0,.22.22,0,0,0,.11-.22.81.81,0,0,0-.08-.27l-.11-.22-.12-.22-.21-.43L7,5.2l-.46-.92-.47-.92-.22-.46c-.07-.15-.15-.31-.24-.46l-.06-.13L5.5,2.17q-.13-.25-.25-.5A3.72,3.72,0,0,0,5,1.19a.24.24,0,0,1,0-.1.26.26,0,0,0,0-.1L4.75.69A3.06,3.06,0,0,0,4.6.41,1.82,1.82,0,0,1,4.47.2.42.42,0,0,0,4.3,0a.54.54,0,0,0-.24,0H3.68" style="fill: #e74914"/>
</svg>
